<svg width="440" height="400" viewBox="0 0 440 400" fill="none" xmlns="http://www.w3.org/2000/svg">
<path d="M423.92 167.904C424.288 165.272 420.568 163.104 417.768 162.88C416.44 162.768 415.056 162.976 413.768 162.536C411.032 161.576 409.936 158.048 407.272 156.936C405.272 156.096 402.976 156.84 401.04 157.816C399.104 158.792 397.2 160.016 395.032 160.152C393.152 160.272 391.112 159.576 389.432 160.496C388.2 161.176 387.56 162.592 386.432 163.424C385.256 164.151 383.894 164.521 382.512 164.488C381.136 164.454 379.766 164.676 378.472 165.144C377.224 165.72 376.192 167.04 376.448 168.392L423.92 167.904Z" fill="#EBEBEB"/>
<path d="M140.536 77.4C140.896 74.768 137.176 72.6 134.384 72.376C133.048 72.264 131.664 72.472 130.384 72.032C127.648 71.08 126.552 67.544 123.88 66.432C121.888 65.632 119.592 66.344 117.656 67.312C115.72 68.28 113.808 69.512 111.648 69.648C109.768 69.768 107.728 69.072 106.048 69.992C104.824 70.68 104.184 72.088 103.056 72.92C101.88 73.6461 100.518 74.0156 99.136 73.984C97.7729 73.9527 96.416 74.178 95.136 74.648C93.888 75.216 92.856 76.536 93.112 77.848L140.536 77.4Z" fill="#EBEBEB"/>
<path d="M116.784 124.216C117.384 119.864 111.24 116.288 106.624 115.912C104.424 115.736 102.136 116.072 100.048 115.344C95.528 113.744 93.728 107.928 89.312 106.072C86.016 104.68 82.224 105.92 79.032 107.528C75.84 109.136 72.632 111.16 69.104 111.392C66 111.584 62.624 110.432 59.912 111.952C57.888 113.08 56.824 115.416 54.96 116.792C53.096 118.168 50.752 118.392 48.488 118.544C46.224 118.696 43.872 118.696 41.808 119.64C39.744 120.584 38.04 122.76 38.472 124.992L116.784 124.216Z" fill="#F5F5F5"/>
<path d="M55.0561 282.552C55.0561 282.552 50.0641 284.568 55.8561 295.152C61.6481 305.736 65.5361 310.952 65.5361 310.952C65.5361 310.952 66.5761 313.416 64.4881 313.864C62.4001 314.312 57.7681 313.688 56.8961 316.264C56.0241 318.84 57.9921 321.416 61.9681 323.512C65.9441 325.608 74.4881 330.536 75.2561 330.984C76.0241 331.432 76.7921 332.584 75.4161 333.088C74.0401 333.592 63.6881 334.976 64.6241 339.848C65.5601 344.72 77.5601 348.8 78.8641 349.232C80.1681 349.664 80.4641 350.232 80.4081 350.952C80.3521 351.672 76.8001 351.792 73.8721 352.296C70.9441 352.8 67.6321 353.896 68.4081 356.664C69.1841 359.432 76.4081 365.104 93.5921 366.344L101.592 366.392L105.768 359.52C113.816 344.272 112.816 335.152 110.88 333.032C108.944 330.912 106.256 333.136 104.28 335.352C102.304 337.568 100.328 340.496 99.6801 340.192C99.0321 339.888 98.7441 339.328 99.0401 337.976C99.3361 336.624 102.24 324.272 98.6321 320.896C95.0241 317.52 88.4001 325.6 87.2001 326.48C86.0001 327.36 85.4721 326.104 85.4961 325.232C85.5201 324.36 85.8641 314.488 86.1841 310.032C86.5041 305.576 85.4721 302.552 82.7201 301.896C79.9681 301.24 78.1361 305.52 76.6561 307.064C75.1761 308.608 73.6321 306.416 73.6321 306.416C73.6321 306.416 71.2881 300.32 65.3441 289.84C59.4001 279.36 54.9441 282.64 54.9441 282.64" fill="#EBEBEB"/>
<path d="M102.064 368.264C97.728 360.552 90.256 346.712 83.776 334.864C77.296 323.016 71.432 312.296 67.136 304.56C64.984 300.704 63.248 297.576 62.04 295.408L60.656 292.912L60.304 292.264L60.184 292.04C60.2334 292.107 60.2788 292.176 60.32 292.248L60.696 292.888C61.032 293.464 61.496 294.296 62.12 295.36C63.36 297.504 65.12 300.616 67.288 304.472C71.624 312.192 77.52 322.872 84 334.744C90.48 346.616 97.92 360.44 102.216 368.176" fill="#E0E0E0"/>
<path d="M63.312 317.4C63.5037 317.426 63.6916 317.474 63.872 317.544C64.224 317.648 64.736 317.808 65.368 318.024C66.632 318.448 68.352 319.08 70.248 319.816L75.048 321.704L76.52 322.272C76.7041 322.326 76.8813 322.401 77.048 322.496C76.857 322.471 76.6692 322.425 76.488 322.36C76.128 322.256 75.616 322.088 74.992 321.872C73.736 321.432 72.016 320.776 70.128 320.048L65.28 318.192L63.84 317.6C63.6568 317.554 63.4795 317.487 63.312 317.4Z" fill="#E0E0E0"/>
<path d="M77.616 321.968C77.552 321.968 78.696 318.336 80.176 313.896C81.656 309.456 82.912 305.896 82.976 305.896C83.04 305.896 81.896 309.528 80.416 313.968C78.936 318.408 77.68 321.992 77.616 321.968Z" fill="#E0E0E0"/>
<path d="M86.744 340.616C86.8249 340.435 86.9298 340.265 87.056 340.112L87.968 338.792C88.768 337.672 89.792 336.128 90.896 334.376C92 332.624 92.952 331.016 93.632 329.84L94.432 328.448C94.5196 328.271 94.627 328.105 94.752 327.952C94.6974 328.142 94.6195 328.325 94.52 328.496C94.352 328.84 94.104 329.296 93.784 329.928C93.144 331.128 92.184 332.76 91.112 334.512C90.04 336.264 88.92 337.8 88.112 338.896C87.704 339.44 87.368 339.872 87.136 340.168C87.021 340.33 86.8897 340.481 86.744 340.616Z" fill="#E0E0E0"/>
<path d="M72.8881 339.328C73.0716 339.309 73.2565 339.309 73.4401 339.328L74.9201 339.408C76.1681 339.488 77.8961 339.608 79.8081 339.76C81.7201 339.912 83.4401 340.064 84.6881 340.192L86.1681 340.344C86.3496 340.357 86.5292 340.39 86.7041 340.44C86.5232 340.459 86.3409 340.459 86.1601 340.44L84.6721 340.36C83.4241 340.28 81.6961 340.152 79.7841 340C77.8721 339.848 76.1521 339.696 74.9041 339.576L73.4321 339.416C73.248 339.408 73.0654 339.378 72.8881 339.328Z" fill="#E0E0E0"/>
<path d="M78.856 356.8C79.0875 356.779 79.3205 356.779 79.552 356.8L81.456 356.896C83.056 356.984 85.28 357.128 87.72 357.296C90.16 357.464 92.384 357.64 93.984 357.776L95.88 357.952C96.1147 357.96 96.3479 357.992 96.576 358.048C96.3418 358.069 96.1062 358.069 95.872 358.048L94 357.96C92.4 357.872 90.176 357.728 87.728 357.552C85.28 357.376 83.072 357.216 81.472 357.08L79.576 356.904C79.3335 356.89 79.0927 356.855 78.856 356.8Z" fill="#E0E0E0"/>
<path d="M96.16 357.904C96.2657 357.677 96.3915 357.46 96.536 357.256C96.824 356.816 97.192 356.24 97.632 355.544C98.56 354.088 99.832 352.08 101.176 349.824C102.52 347.568 103.68 345.496 104.512 343.992L105.496 342.208C105.61 341.985 105.741 341.771 105.888 341.568C105.8 341.803 105.699 342.033 105.584 342.256C105.376 342.688 105.064 343.312 104.664 344.072C103.864 345.608 102.736 347.696 101.384 349.952C100.032 352.208 98.744 354.208 97.784 355.64C97.296 356.352 96.904 356.92 96.616 357.312C96.4823 357.523 96.3297 357.721 96.16 357.904Z" fill="#E0E0E0"/>
<path d="M282.184 189.288C281.126 188.666 279.907 188.372 278.682 188.445C277.457 188.517 276.281 188.953 275.304 189.696C275.219 187.179 274.19 184.787 272.422 182.994C270.653 181.201 268.275 180.14 265.759 180.021C263.244 179.902 260.776 180.734 258.846 182.352C256.916 183.97 255.666 186.255 255.344 188.752C250.464 187.384 244.264 191.544 244.296 195.616H284.928C285.15 194.408 285.007 193.161 284.519 192.035C284.03 190.908 283.217 189.952 282.184 189.288Z" fill="#E0E0E0"/>
<path d="M243.136 171.472L243.568 172.184C244.053 172.984 244.755 173.631 245.592 174.048L246.344 174.416L245.624 174.848C244.822 175.331 244.175 176.033 243.76 176.872L243.392 177.616L242.96 176.904C242.477 176.102 241.775 175.455 240.936 175.04L240.192 174.672L240.904 174.24C241.708 173.76 242.356 173.057 242.768 172.216L243.136 171.472Z" fill="#E0E0E0"/>
<path d="M280.552 174.728L280.824 175.184C281.134 175.696 281.584 176.11 282.12 176.376L282.6 176.616L282.144 176.888C281.627 177.199 281.211 177.651 280.944 178.192L280.712 178.664L280.432 178.208C280.126 177.692 279.675 177.278 279.136 177.016L278.656 176.776L279.12 176.504C279.632 176.194 280.046 175.744 280.312 175.208L280.552 174.728Z" fill="#E0E0E0"/>
<path d="M400.176 119.496C400.648 116.072 395.824 113.256 392.176 112.968C390.448 112.824 388.648 113.088 387.008 112.52C383.456 111.28 382.04 106.688 378.568 105.232C375.976 104.136 372.968 105.112 370.48 106.376C367.992 107.64 365.488 109.232 362.68 109.408C360.28 109.568 357.592 108.656 355.48 109.848C353.88 110.744 353.08 112.576 351.584 113.656C350.088 114.736 348.28 114.936 346.496 115.032C344.712 115.128 342.872 115.152 341.256 115.896C339.64 116.64 338.288 118.352 338.624 120.104L400.176 119.496Z" fill="#F5F5F5"/>
<path d="M393 328C393.897 328.557 394.672 329.289 395.28 330.152C395.887 331.015 396.314 331.992 396.536 333.024C396.968 335.093 396.919 337.233 396.392 339.28C395.496 343.28 392.768 347.064 389.992 350.008C386.928 346.68 386.712 341.44 386.792 338.808C386.88 334.592 389.608 327.032 393.056 328.032" fill="#F5F5F5"/>
<path d="M393.168 357.072C393.062 355.897 393.269 354.715 393.768 353.646C394.267 352.576 395.04 351.658 396.008 350.984C396.987 350.328 398.087 349.873 399.243 349.646C400.4 349.42 401.59 349.426 402.744 349.664C403.286 349.717 403.811 349.887 404.281 350.163C404.751 350.44 405.154 350.815 405.464 351.264C405.681 351.726 405.77 352.237 405.722 352.745C405.674 353.253 405.491 353.739 405.192 354.152C404.571 354.977 403.743 355.623 402.792 356.024C399.656 357.544 396.336 358.424 393.128 357.08" fill="#F5F5F5"/>
<path d="M388.144 365.936C388.502 364.085 389.199 362.317 390.2 360.72C390.829 359.7 391.527 358.725 392.288 357.8C393.688 356.099 395.485 354.769 397.52 353.928C398.138 353.691 398.779 353.517 399.432 353.408C399.673 353.364 399.919 353.364 400.16 353.408C400.16 353.488 399.144 353.6 397.64 354.256C395.704 355.159 393.993 356.482 392.632 358.128C391.888 359.042 391.194 359.995 390.552 360.984C390.007 361.774 389.546 362.619 389.176 363.504C388.887 364.337 388.542 365.149 388.144 365.936Z" fill="#E0E0E0"/>
<path d="M391.432 333.936C391.472 334.388 391.472 334.844 391.432 335.296C391.432 336.176 391.328 337.44 391.224 339C391.016 342.128 390.688 346.44 390.2 351.192C389.712 355.944 389.16 360.248 388.688 363.344C388.448 364.888 388.248 366.144 388.088 367C388.028 367.452 387.932 367.899 387.8 368.336C387.795 367.88 387.833 367.425 387.912 366.976C388.032 366.024 388.184 364.792 388.368 363.296C388.752 360.192 389.264 355.896 389.744 351.152C390.224 346.408 390.6 342.168 390.904 338.976C391.048 337.48 391.168 336.24 391.256 335.288C391.277 334.833 391.335 334.381 391.432 333.936Z" fill="#E0E0E0"/>
<path d="M387.888 358.056C387.405 355.619 386.348 353.332 384.805 351.384C383.262 349.437 381.278 347.884 379.016 346.856C377.856 346.344 376.36 346.056 375.448 346.904C374.536 347.752 374.792 349.304 375.28 350.456C376.351 352.867 378.111 354.908 380.339 356.322C382.566 357.735 385.162 358.458 387.8 358.4" fill="#F5F5F5"/>
<path d="M379.92 350.4C379.92 350.4 380.168 350.48 380.568 350.704C380.968 350.928 381.536 351.28 382.216 351.744C384.022 352.937 385.592 354.453 386.848 356.216C387.518 357.21 388.02 358.307 388.336 359.464C388.583 360.412 388.699 361.389 388.68 362.368C388.666 363.021 388.593 363.672 388.464 364.312C388.439 364.55 388.374 364.783 388.272 365C388.184 365 388.384 363.984 388.352 362.368C388.325 361.424 388.182 360.486 387.928 359.576C387.604 358.472 387.11 357.425 386.464 356.472C385.234 354.755 383.738 353.245 382.032 352C381.299 351.507 380.594 350.973 379.92 350.4Z" fill="#E0E0E0"/>
<path d="M513.288 368.888C513.288 369.008 397.912 369.096 255.616 369.096C113.32 369.096 -2.08801 369.008 -2.08801 368.888C-2.08801 368.768 113.264 368.68 255.616 368.68C397.968 368.68 513.288 368.8 513.288 368.888Z" fill="#263238"/>
<path d="M165.912 237.68H179.352C180.167 237.68 180.948 238.004 181.524 238.58C182.1 239.156 182.424 239.937 182.424 240.752V249.792H163.976C163.017 249.792 162.097 249.411 161.419 248.733C160.741 248.055 160.36 247.135 160.36 246.176V243.2C160.368 241.733 160.957 240.329 161.997 239.295C163.038 238.261 164.445 237.68 165.912 237.68Z" fill="#006FCF"/>
<path d="M359.048 249.784H340.592V240.744C340.592 239.929 340.916 239.148 341.492 238.572C342.068 237.996 342.849 237.672 343.664 237.672H357.104C358.576 237.672 359.989 238.257 361.03 239.298C362.071 240.339 362.656 241.752 362.656 243.224V246.168C362.656 247.126 362.276 248.044 361.6 248.722C360.923 249.4 360.006 249.782 359.048 249.784Z" fill="#006FCF"/>
<path d="M196.296 322.272H161.688V368.64H196.296V322.272Z" fill="#263238"/>
<path d="M363.472 322.272H328.864V368.64H363.472V322.272Z" fill="#263238"/>
<path d="M165.72 260.368L175.784 252.288L191.704 208.584C194.104 203.144 198.648 196.136 209.192 195.072L318.856 196.04C321.894 196.069 324.85 197.023 327.332 198.775C329.813 200.527 331.701 202.995 332.744 205.848L347 244.872L350.904 253.736L360.192 260.24C361.949 261.466 363.384 263.098 364.374 264.998C365.365 266.898 365.881 269.009 365.88 271.152L369.648 288.512C369.89 289.634 369.958 290.786 369.848 291.928L365.848 333.76C365.848 333.76 365.384 345.272 353.416 345.272H174.288C174.288 345.272 162.776 345.736 160.928 332.376C159.984 325.536 157.096 290.92 157.096 290.92C157.232 282.208 160.688 275.408 160.744 270.168C160.801 268.269 161.277 266.406 162.137 264.712C162.997 263.018 164.221 261.535 165.72 260.368Z" fill="#006FCF"/>
<g opacity="0.3">
<path d="M158.368 305.784C159.744 306.128 368.568 305.424 368.568 305.424L366 332.696C366 339.488 360.536 345.568 353.744 345.568H174.936C166.2 345.568 160.88 338.88 160.792 331.264L158.368 305.784Z" fill="black"/>
</g>
<path d="M166.48 265.24L206.176 270.04V293.32C206.176 293.32 162.976 292.192 160.36 286.352L160.2 270.6C160.227 269.824 160.416 269.062 160.754 268.363C161.091 267.664 161.57 267.043 162.161 266.539C162.752 266.035 163.44 265.659 164.184 265.435C164.928 265.212 165.709 265.145 166.48 265.24Z" fill="#E0E0E0"/>
<path d="M358.512 265.24L318.816 270.04V293.32C318.816 293.32 361.896 291.792 364.52 285.952L364.792 270.6C364.765 269.824 364.576 269.062 364.238 268.363C363.901 267.664 363.422 267.043 362.831 266.539C362.24 266.035 361.552 265.659 360.808 265.435C360.065 265.212 359.283 265.145 358.512 265.24Z" fill="#E0E0E0"/>
<path d="M182.896 245.856C182.896 245.856 194.4 207.456 199.888 202.56H325.816C325.816 202.56 336.632 226.344 340.592 245.856H182.896Z" fill="#455A64"/>
<path d="M215.032 328.552V331.896C215.032 333.848 215.807 335.72 217.188 337.1C218.568 338.481 220.44 339.256 222.392 339.256H302.8C304.752 339.256 306.624 338.481 308.004 337.1C309.385 335.72 310.16 333.848 310.16 331.896V328.552H215.032Z" fill="#263238"/>
<path d="M326.256 319.264V333.904C326.256 333.904 355.68 338.048 359.976 319.264H326.256Z" fill="#263238"/>
<path d="M202.872 319.264V333.904C202.872 333.904 173.448 338.048 169.152 319.264H202.872Z" fill="#263238"/>
<path d="M330.8 202.752C330.8 202.872 300.256 202.928 262.6 202.872C224.944 202.816 194.392 202.68 194.392 202.56C194.392 202.44 224.928 202.384 262.6 202.432C300.272 202.48 330.8 202.632 330.8 202.752Z" fill="#263238"/>
<path d="M339.512 245.6C339.584 245.504 344.64 249.184 350.816 253.824C356.992 258.464 361.928 262.296 361.856 262.392C361.784 262.488 356.72 258.808 350.552 254.176C344.384 249.544 339.44 245.728 339.512 245.6Z" fill="#263238"/>
<path d="M182.896 245.856C182.968 245.952 178.672 249.736 173.296 254.312C167.92 258.888 163.488 262.52 163.408 262.4C163.328 262.28 167.624 258.528 173.008 253.952C178.392 249.376 182.8 245.768 182.896 245.856Z" fill="#263238"/>
<path d="M184.352 227.664C184.472 227.712 182.528 233.32 180.024 240.2C177.52 247.08 175.392 252.624 175.28 252.584C175.168 252.544 177.104 246.928 179.608 240.048C182.112 233.168 184.24 227.624 184.352 227.664Z" fill="#263238"/>
<path d="M323.224 269.504H322.928L322.04 269.56L318.632 269.736C315.672 269.88 311.392 270.048 306.096 270.192C295.504 270.496 280.872 270.648 264.712 270.6C248.552 270.552 233.912 270.368 223.32 270.256L210.8 270.136L207.392 270.08H206.504H206.2C206.301 270.068 206.403 270.068 206.504 270.08H207.392H210.8H223.344L264.736 270.296C280.896 270.352 295.528 270.24 306.112 270.016C311.408 269.912 315.712 269.792 318.648 269.704L322.064 269.608H322.952C323.038 269.562 323.129 269.527 323.224 269.504Z" fill="#263238"/>
<path d="M243.976 202.56H277.76V206.288C277.76 207.234 277.384 208.142 276.715 208.811C276.046 209.48 275.138 209.856 274.192 209.856H247.544C246.598 209.856 245.69 209.48 245.021 208.811C244.352 208.142 243.976 207.234 243.976 206.288V202.56Z" fill="#263238"/>
<path d="M326.176 245.184H325.328C325.328 240.779 323.578 236.555 320.464 233.44C317.349 230.326 313.125 228.576 308.72 228.576C304.315 228.576 300.091 230.326 296.976 233.44C293.862 236.555 292.112 240.779 292.112 245.184H291.264C291.264 240.554 293.103 236.114 296.377 232.841C299.65 229.567 304.09 227.728 308.72 227.728C313.35 227.728 317.79 229.567 321.063 232.841C324.337 236.114 326.176 240.554 326.176 245.184Z" fill="#263238"/>
<path d="M285.752 244.504C285.752 244.504 288.192 239.976 295.272 239.784C301.848 239.608 318.544 239.784 318.544 239.784C318.544 239.784 326.688 240.144 329.048 243.496V245.6H285.752V244.504Z" fill="#263238"/>
<path d="M201.552 245.952C200.8 246.752 202.112 234.616 203.816 229.152C204.072 228.492 204.531 227.929 205.125 227.544C205.72 227.159 206.421 226.972 207.128 227.008H237.608C238.361 226.959 239.108 227.17 239.723 227.608C240.338 228.045 240.783 228.681 240.984 229.408C241.688 233.184 243.52 240 243.944 245.92L201.552 245.952Z" fill="#263238"/>
<path d="M233.56 213.352H211.936C210.487 213.352 209.312 214.527 209.312 215.976V222.728C209.312 224.177 210.487 225.352 211.936 225.352H233.56C235.009 225.352 236.184 224.177 236.184 222.728V215.976C236.184 214.527 235.009 213.352 233.56 213.352Z" fill="#263238"/>
<path d="M275.296 245.856C274.544 246.656 275.896 233.552 277.6 228.072C277.857 227.413 278.315 226.851 278.91 226.467C279.505 226.084 280.205 225.898 280.912 225.936H311.392C312.145 225.887 312.892 226.099 313.507 226.536C314.122 226.973 314.567 227.609 314.768 228.336C315.464 232.104 317.336 239.928 317.76 245.84L275.296 245.856Z" fill="#263238"/>
<path d="M307.344 213.352H285.72C284.271 213.352 283.096 214.527 283.096 215.976V222.728C283.096 224.177 284.271 225.352 285.72 225.352H307.344C308.793 225.352 309.968 224.177 309.968 222.728V215.976C309.968 214.527 308.793 213.352 307.344 213.352Z" fill="#263238"/>
<path d="M299.512 301.6H223.44C222.102 301.627 220.795 301.195 219.737 300.375C218.678 299.556 217.933 298.398 217.624 297.096L213.624 278.416C213.473 277.578 213.512 276.716 213.737 275.895C213.962 275.073 214.369 274.313 214.927 273.669C215.485 273.025 216.179 272.515 216.96 272.175C217.741 271.835 218.589 271.674 219.44 271.704H304.808C308.704 271.704 311.544 275.2 310.536 278.76L305.248 297.448C304.87 298.668 304.107 299.732 303.073 300.481C302.038 301.23 300.789 301.622 299.512 301.6Z" fill="#263238"/>
<path d="M349.048 251.24C348.647 250.622 348.314 249.962 348.056 249.272C347.512 248.04 346.792 246.304 346.072 244.368C345.352 242.432 344.768 240.648 344.376 239.352C344.122 238.661 343.943 237.945 343.84 237.216C344.173 237.865 344.441 238.546 344.64 239.248L346.456 244.216C347.152 246.072 347.784 247.744 348.312 249.16C348.623 249.828 348.87 250.525 349.048 251.24Z" fill="#263238"/>
<g opacity="0.3">
<path d="M297.512 291.56C297.205 292.55 296.585 293.414 295.746 294.023C294.906 294.631 293.893 294.952 292.856 294.936H231.136C230.052 294.949 228.995 294.595 228.138 293.931C227.281 293.267 226.674 292.333 226.416 291.28L223.216 279.072L226.416 294.272C226.666 295.329 227.271 296.269 228.13 296.934C228.989 297.599 230.05 297.95 231.136 297.928H292.856C293.893 297.944 294.906 297.623 295.746 297.015C296.585 296.406 297.205 295.542 297.512 294.552L301.8 279.392L297.512 291.56Z" fill="black"/>
</g>
<path d="M288.544 277.624H235.744V291.136H288.544V277.624Z" fill="#455A64"/>
<g opacity="0.3">
<path d="M283.096 202.752C283.656 203.784 229.256 245.856 229.256 245.856L259.032 245.912L310 202.752H283.096Z" fill="white"/>
</g>
<g opacity="0.3">
<path d="M269.304 245.856L318.808 202.752H324.248L276.848 245.96L269.304 245.856Z" fill="white"/>
</g>
<path d="M262.496 268.408C266.967 268.408 270.592 267.688 270.592 266.8C270.592 265.912 266.967 265.192 262.496 265.192C258.025 265.192 254.4 265.912 254.4 266.8C254.4 267.688 258.025 268.408 262.496 268.408Z" fill="#E0E0E0"/>
<path d="M340.592 245.856C340.592 245.976 305.288 246.096 261.744 246.128C218.2 246.16 182.896 246.08 182.896 245.96C182.896 245.84 218.192 245.712 261.744 245.688C305.296 245.664 340.592 245.736 340.592 245.856Z" fill="#263238"/>
<path d="M300.704 244.392C299.971 243.782 299.08 243.395 298.134 243.276C297.189 243.157 296.229 243.311 295.368 243.72C295.441 243.092 295.376 242.455 295.177 241.854C294.978 241.253 294.65 240.703 294.216 240.243C293.782 239.783 293.253 239.423 292.665 239.189C292.077 238.955 291.445 238.852 290.814 238.888C290.182 238.924 289.566 239.098 289.008 239.398C288.451 239.697 287.966 240.115 287.587 240.622C287.209 241.129 286.946 241.713 286.816 242.332C286.687 242.952 286.695 243.592 286.84 244.208C284.384 242.952 279.744 244.664 280.536 247.328L301.336 247.288C302.096 246.512 301.552 245.112 300.704 244.392Z" fill="#E0E0E0"/>
<path d="M239.544 198.544C239.544 198.672 231.928 198.768 222.544 198.768C213.16 198.768 205.536 198.672 205.536 198.544C205.536 198.416 213.152 198.328 222.544 198.328C231.936 198.328 239.544 198.4 239.544 198.544Z" fill="white"/>
<path d="M259.784 247.936C259.784 248.056 244.736 248.152 226.184 248.152C207.632 248.152 192.584 248.056 192.584 247.936C192.584 247.816 207.624 247.712 226.184 247.712C244.744 247.712 259.784 247.808 259.784 247.936Z" fill="white"/>
<path d="M250.336 266.28C250.336 266.408 242.424 266.504 232.664 266.504C222.904 266.504 214.984 266.408 214.984 266.28C214.984 266.152 222.896 266.064 232.664 266.064C242.432 266.064 250.336 266.16 250.336 266.28Z" fill="white"/>
<path d="M306.2 308.656C306.2 308.776 284.512 308.872 257.76 308.872C231.008 308.872 209.32 308.776 209.32 308.656C209.32 308.536 231 308.432 257.76 308.432C284.52 308.432 306.2 308.528 306.2 308.656Z" fill="white"/>
<path d="M283.528 326.192C283.528 326.312 275.672 326.416 265.992 326.416C256.312 326.416 248.448 326.312 248.448 326.192C248.448 326.072 256.296 325.976 265.992 325.976C275.688 325.976 283.528 326.072 283.528 326.192Z" fill="white"/>
<path d="M316.864 321.6L317.296 322.312C317.774 323.118 318.478 323.766 319.32 324.176L320.064 324.552L319.352 324.976C318.552 325.461 317.905 326.163 317.488 327L317.12 327.752L316.688 327.032C316.205 326.23 315.503 325.583 314.664 325.168L313.92 324.8L314.632 324.376C315.431 323.889 316.077 323.188 316.496 322.352L316.864 321.6Z" fill="#E0E0E0"/>
<path d="M208.944 299.04L209.376 299.752C209.859 300.554 210.561 301.201 211.4 301.616L212.144 301.984L211.432 302.416C210.63 302.899 209.983 303.601 209.568 304.44L209.2 305.192L208.768 304.472C208.285 303.67 207.583 303.023 206.744 302.608L206 302.24L206.712 301.808C207.514 301.325 208.161 300.623 208.576 299.784L208.944 299.04Z" fill="#E0E0E0"/>
<path d="M315.248 277.8L315.52 278.264C315.83 278.776 316.28 279.19 316.816 279.456L317.296 279.688L316.84 279.968C316.326 280.279 315.91 280.728 315.64 281.264L315.408 281.744L315.128 281.288C314.822 280.77 314.372 280.353 313.832 280.088L313.352 279.856L313.816 279.576C314.33 279.268 314.744 278.818 315.008 278.28L315.248 277.8Z" fill="#E0E0E0"/>
<path d="M363.84 361.6C355.352 353.352 340.384 353.072 331.592 361.008C327.08 353.28 314.92 351.608 308.488 357.808C305.352 349.464 295.768 344.112 287.024 345.808C278.28 347.504 271.408 356.072 271.632 365.008C268.21 362.404 264.05 360.954 259.752 360.867C255.453 360.779 251.237 362.058 247.712 364.52C241.56 356 228.584 353.376 219.6 358.824C218.072 347.424 207.168 338.024 195.664 338.28C184.16 338.536 173.616 348.28 172.528 359.736C162.536 352.984 147.288 358.608 140.776 368.76H390.2C386 358.992 371.752 354.528 363.84 361.6Z" fill="#E0E0E0"/>
<path d="M295.808 279.8C295.808 279.912 280.96 280.008 262.648 280.008C244.336 280.008 229.48 279.912 229.48 279.8C229.48 279.688 244.328 279.592 262.648 279.592C280.968 279.592 295.808 279.68 295.808 279.8Z" fill="white"/>
<path d="M110.632 348.352L108.904 361.84C108.904 361.84 122.112 367.136 122.04 369.656L95.696 368.248L97.512 347.12L110.632 348.352Z" fill="#455A64"/>
<g opacity="0.6">
<path d="M100.888 360C100.628 360.056 100.398 360.204 100.24 360.418C100.083 360.632 100.009 360.896 100.032 361.16C100.079 361.421 100.223 361.654 100.435 361.813C100.648 361.972 100.912 362.044 101.176 362.016C101.451 361.956 101.694 361.798 101.859 361.571C102.024 361.344 102.1 361.064 102.072 360.784C101.999 360.516 101.824 360.287 101.585 360.146C101.347 360.004 101.062 359.96 100.792 360.024" fill="white"/>
</g>
<g opacity="0.6">
<path d="M95.696 368.248L95.88 366.112L121.264 368.368C121.525 368.522 121.744 368.739 121.9 368.999C122.057 369.258 122.146 369.553 122.16 369.856L95.696 368.248Z" fill="white"/>
</g>
<path d="M109.344 361.744C109.344 361.872 108.68 361.872 108.016 362.232C107.352 362.592 106.96 363.096 106.848 363.032C106.736 362.968 106.992 362.232 107.808 361.832C108.624 361.432 109.384 361.6 109.344 361.744Z" fill="#263238"/>
<path d="M112 363.136C112 363.264 111.44 363.432 110.952 363.936C110.464 364.44 110.288 365 110.152 364.984C110.016 364.968 110.016 364.232 110.624 363.616C111.232 363 112.008 363.016 112 363.136Z" fill="#263238"/>
<path d="M113.264 366.576C113.144 366.576 113.024 365.936 113.416 365.264C113.808 364.592 114.432 364.368 114.48 364.464C114.528 364.56 114.12 364.92 113.8 365.472C113.48 366.024 113.392 366.576 113.264 366.576Z" fill="#263238"/>
<path d="M109.4 358.632C109.336 358.744 108.76 358.512 108.032 358.496C107.304 358.48 106.712 358.656 106.656 358.536C106.6 358.416 107.184 358.016 108.048 358.048C108.912 358.08 109.472 358.536 109.4 358.632Z" fill="#263238"/>
<g opacity="0.3">
<path d="M110.288 351.024L109.984 353.432L97.08 352.136L97.264 349.96L110.288 351.024Z" fill="black"/>
</g>
<path d="M109.696 355.904C109.252 355.979 108.797 355.935 108.376 355.776C107.909 355.649 107.46 355.464 107.04 355.224C106.789 355.087 106.549 354.931 106.32 354.76C106.18 354.662 106.056 354.544 105.952 354.408C105.876 354.311 105.835 354.191 105.835 354.068C105.835 353.945 105.876 353.825 105.952 353.728C106.023 353.644 106.113 353.578 106.214 353.534C106.316 353.491 106.426 353.473 106.536 353.48C106.703 353.496 106.867 353.533 107.024 353.592C107.3 353.689 107.568 353.809 107.824 353.952C108.249 354.193 108.635 354.498 108.968 354.856C109.52 355.48 109.688 355.976 109.64 356C109.592 356.024 109.32 355.608 108.744 355.08C108.408 354.768 108.035 354.499 107.632 354.28C107.395 354.162 107.149 354.063 106.896 353.984C106.624 353.88 106.384 353.856 106.304 353.984C106.224 354.112 106.304 354.048 106.304 354.136C106.383 354.23 106.475 354.314 106.576 354.384C106.785 354.552 107.004 354.707 107.232 354.848C107.622 355.089 108.034 355.29 108.464 355.448C108.885 355.569 109.297 355.722 109.696 355.904Z" fill="#263238"/>
<path d="M109.512 356.072C109.294 355.675 109.212 355.216 109.28 354.768C109.301 354.279 109.407 353.797 109.592 353.344C109.701 353.064 109.837 352.796 110 352.544C110.085 352.376 110.212 352.234 110.369 352.131C110.527 352.029 110.708 351.97 110.896 351.96C111.014 351.97 111.126 352.015 111.219 352.089C111.312 352.163 111.38 352.263 111.416 352.376C111.47 352.536 111.5 352.703 111.504 352.872C111.523 353.168 111.496 353.465 111.424 353.752C111.305 354.239 111.068 354.689 110.736 355.064C110.16 355.696 109.616 355.8 109.608 355.76C109.6 355.72 110.04 355.48 110.496 354.864C110.755 354.506 110.935 354.097 111.024 353.664C111.074 353.414 111.087 353.158 111.064 352.904C111.064 352.616 110.968 352.384 110.864 352.408C110.76 352.432 110.488 352.576 110.36 352.792C110.21 353.01 110.079 353.24 109.968 353.48C109.783 353.89 109.656 354.323 109.592 354.768C109.488 355.568 109.584 356.056 109.512 356.072Z" fill="#263238"/>
<path d="M140.072 348.184L139.032 361.744C139.032 361.744 152.488 366.36 152.536 368.888L126.136 368.808L126.888 347.616L140.072 348.184Z" fill="#455A64"/>
<g opacity="0.6">
<path d="M130.928 360.272C130.671 360.337 130.447 360.494 130.299 360.714C130.151 360.934 130.09 361.202 130.128 361.464C130.184 361.723 130.337 361.95 130.556 362.099C130.775 362.248 131.043 362.307 131.304 362.264C131.576 362.192 131.812 362.023 131.967 361.788C132.122 361.554 132.185 361.27 132.144 360.992C132.056 360.728 131.869 360.509 131.624 360.379C131.378 360.25 131.091 360.22 130.824 360.296" fill="white"/>
</g>
<g opacity="0.6">
<path d="M126.16 368.8L126.232 366.664L151.704 367.624C151.972 367.767 152.201 367.974 152.37 368.226C152.539 368.479 152.643 368.769 152.672 369.072L126.16 368.8Z" fill="white"/>
</g>
<path d="M139.464 361.6C139.464 361.728 138.808 361.76 138.16 362.152C137.512 362.544 137.152 363.064 137.032 363.008C136.912 362.952 137.136 362.208 137.936 361.76C138.736 361.312 139.496 361.512 139.464 361.6Z" fill="#263238"/>
<path d="M142.184 362.88C142.184 363.008 141.64 363.2 141.184 363.728C140.728 364.256 140.576 364.824 140.448 364.816C140.32 364.808 140.264 364.072 140.848 363.432C141.432 362.792 142.184 362.76 142.184 362.88Z" fill="#263238"/>
<path d="M143.6 366.256C143.488 366.256 143.328 365.624 143.688 364.936C144.048 364.248 144.664 363.984 144.712 364.096C144.76 364.208 144.376 364.568 144.088 365.136C143.8 365.704 143.744 366.248 143.6 366.256Z" fill="#263238"/>
<path d="M139.36 358.512C139.296 358.624 138.72 358.424 137.984 358.44C137.248 358.456 136.68 358.672 136.616 358.56C136.552 358.448 137.12 358.008 137.976 357.992C138.832 357.976 139.424 358.4 139.36 358.512Z" fill="#263238"/>
<g opacity="0.3">
<path d="M139.864 350.872L139.68 353.288L126.728 352.648L126.8 350.464L139.864 350.872Z" fill="black"/>
</g>
<path d="M116.896 173.6L117.888 195.768C118.056 199.536 119.072 205.04 125.024 204.496C130.144 203.64 131.232 198.68 131.072 195.168C131 193.496 130.936 192.104 130.944 191.968C130.944 191.968 136.544 191.168 136.72 185.568C136.792 182.856 136.496 177.272 136.168 172.216C136.007 169.595 134.86 167.132 132.957 165.321C131.055 163.511 128.538 162.487 125.912 162.456H125.376C119.536 162.712 116.488 167.808 116.896 173.6Z" fill="#B78876"/>
<path d="M130.944 192C128.355 191.953 125.834 191.164 123.68 189.728C123.68 189.728 125.392 193.848 130.992 193.432L130.944 192Z" fill="#AA6550"/>
<path d="M126.8 175.056C126.696 175.176 126 174.696 125.088 174.728C124.176 174.76 123.488 175.256 123.376 175.136C123.264 175.016 123.432 174.872 123.72 174.64C124.117 174.346 124.594 174.181 125.088 174.168C125.577 174.154 126.058 174.3 126.456 174.584C126.72 174.8 126.8 175.008 126.8 175.056Z" fill="#263238"/>
<path d="M126.8 177.072C126.789 177.266 126.707 177.45 126.57 177.589C126.433 177.727 126.25 177.811 126.056 177.824C125.957 177.834 125.857 177.823 125.763 177.793C125.668 177.763 125.581 177.714 125.506 177.649C125.431 177.584 125.37 177.504 125.327 177.414C125.284 177.325 125.26 177.227 125.256 177.128C125.256 176.931 125.333 176.742 125.471 176.602C125.608 176.461 125.795 176.38 125.992 176.376C126.091 176.365 126.192 176.375 126.288 176.404C126.383 176.434 126.472 176.483 126.548 176.548C126.623 176.613 126.685 176.694 126.728 176.784C126.772 176.874 126.796 176.972 126.8 177.072Z" fill="#263238"/>
<path d="M129.48 181.424C129.935 181.289 130.406 181.211 130.88 181.192C131.104 181.192 131.312 181.136 131.352 180.984C131.376 180.757 131.328 180.527 131.216 180.328L130.592 178.648C130.011 177.218 129.546 175.744 129.2 174.24C129.895 175.621 130.478 177.055 130.944 178.528C131.152 179.112 131.352 179.68 131.536 180.216C131.673 180.482 131.709 180.789 131.64 181.08C131.607 181.158 131.556 181.227 131.493 181.282C131.429 181.338 131.354 181.378 131.272 181.4C131.149 181.43 131.023 181.446 130.896 181.448C130.425 181.5 129.949 181.492 129.48 181.424Z" fill="#263238"/>
<path d="M126.168 172.08C126.096 172.296 125.368 172.184 124.44 172.28C123.512 172.376 122.84 172.616 122.712 172.424C122.584 172.232 122.792 172.128 123.08 171.928C123.468 171.678 123.909 171.525 124.368 171.48C124.828 171.433 125.292 171.499 125.72 171.672C126.04 171.808 126.208 172 126.168 172.08Z" fill="#263238"/>
<path d="M134.96 172.224C134.872 172.4 134.16 172.224 133.248 172.28C132.336 172.336 131.648 172.456 131.536 172.28C131.424 172.104 131.624 172.032 131.928 171.88C132.334 171.69 132.776 171.592 133.224 171.592C133.674 171.579 134.122 171.663 134.536 171.84C134.848 172 135 172.144 134.96 172.224Z" fill="#263238"/>
<path d="M117.288 177.792C117.2 177.744 113.456 176.592 113.52 180.424C113.584 184.256 117.416 183.4 117.424 183.296C117.432 183.192 117.288 177.792 117.288 177.792Z" fill="#B78876"/>
<path d="M116.232 181.856C116.232 181.856 116.16 181.904 116.048 181.96C115.97 181.993 115.885 182.01 115.8 182.01C115.715 182.01 115.631 181.993 115.552 181.96C115.3 181.81 115.093 181.595 114.952 181.337C114.811 181.08 114.742 180.789 114.752 180.496C114.737 180.167 114.797 179.838 114.928 179.536C114.964 179.417 115.028 179.307 115.114 179.217C115.2 179.127 115.307 179.058 115.424 179.016C115.5 178.991 115.582 178.996 115.654 179.028C115.726 179.061 115.784 179.119 115.816 179.192C115.872 179.296 115.816 179.376 115.864 179.376C115.912 179.376 115.952 179.312 115.912 179.16C115.894 179.064 115.84 178.978 115.76 178.92C115.654 178.843 115.522 178.808 115.392 178.824C115.235 178.859 115.09 178.933 114.97 179.04C114.85 179.146 114.758 179.281 114.704 179.432C114.544 179.766 114.47 180.134 114.488 180.504C114.482 180.839 114.573 181.168 114.75 181.453C114.928 181.737 115.184 181.963 115.488 182.104C115.591 182.133 115.7 182.138 115.805 182.118C115.91 182.099 116.01 182.056 116.096 181.992C116.224 181.952 116.24 181.864 116.232 181.856Z" fill="#AA6550"/>
<path d="M128.728 184.12C128.768 184.024 128 183.84 127.44 183.168C127.2 182.873 127.001 182.548 126.848 182.2C126.72 181.928 126.632 181.76 126.592 181.776C126.552 181.792 126.592 181.976 126.648 182.28C126.755 182.679 126.946 183.05 127.208 183.368C127.477 183.686 127.829 183.924 128.224 184.056C128.52 184.16 128.72 184.16 128.728 184.12Z" fill="#263238"/>
<path d="M111.856 171.888C112.576 170.496 112.656 168.872 113.016 167.344C113.376 165.816 114.112 164.208 115.56 163.6C116.191 163.262 116.901 163.098 117.617 163.125C118.332 163.152 119.028 163.368 119.632 163.752C119.771 162.753 120.197 161.816 120.857 161.054C121.517 160.292 122.383 159.737 123.352 159.456C125.637 158.871 128.038 158.921 130.296 159.6C131.768 160.104 133.224 161.2 135.016 162.856C135.772 163.544 136.468 164.296 137.096 165.104L139.08 170.224L137.792 173.032C137.72 173.228 137.637 173.421 137.544 173.608L136.568 179.44C136.392 177.84 136.2 172.408 136.024 170.84C134.842 170.875 133.666 170.67 132.566 170.236C131.465 169.803 130.465 169.151 129.624 168.32C128.712 167.416 127.968 166.264 126.784 165.76C125.264 165.112 123.536 165.76 121.984 166.376L122.048 166.312C121.256 166.737 120.553 167.31 119.976 168C120.503 171.082 120.361 174.242 119.56 177.264C119.44 177.72 119.088 178.656 118.664 178.864C117.824 179.248 117.544 178.384 117 177.952C116.522 177.658 115.952 177.553 115.4 177.656C114.899 176.378 114.471 175.071 114.12 173.744C113.611 173.939 113.062 174.008 112.52 173.944C112.656 173.544 112.8 173.144 112.944 172.736C112.744 172.895 112.516 173.014 112.272 173.088C112.149 173.119 112.02 173.112 111.901 173.067C111.783 173.023 111.68 172.944 111.608 172.84C111.52 172.528 111.704 172.184 111.856 171.888Z" fill="#263238"/>
<path d="M121.456 164.296C121.265 164.462 121.089 164.644 120.928 164.84C120.516 165.399 120.257 166.055 120.176 166.744C120.105 167.215 120.084 167.692 120.112 168.168C120.112 168.68 120.216 169.232 120.288 169.768C120.37 170.373 120.418 170.982 120.432 171.592C120.432 171.919 120.408 172.245 120.36 172.568C120.334 172.913 120.215 173.245 120.016 173.528C119.925 173.649 119.802 173.742 119.66 173.796C119.518 173.85 119.364 173.862 119.216 173.832C118.94 173.797 118.683 173.67 118.488 173.472C118.161 173.074 117.945 172.597 117.864 172.088H118C117.856 172.518 117.651 172.924 117.392 173.296C117.137 173.64 116.758 173.872 116.336 173.944C116.142 173.976 115.942 173.954 115.76 173.88C115.589 173.803 115.445 173.678 115.344 173.52C115.251 173.374 115.202 173.205 115.2 173.032C115.199 172.87 115.252 172.712 115.352 172.584L115.416 172.632C115.107 173.035 114.714 173.365 114.264 173.6C114.148 173.664 114.027 173.72 113.904 173.768H113.776C113.776 173.768 113.776 173.768 113.896 173.704C114.016 173.64 114.096 173.608 114.248 173.52C114.68 173.275 115.056 172.942 115.352 172.544L115.416 172.592C115.337 172.71 115.295 172.85 115.295 172.992C115.295 173.134 115.337 173.274 115.416 173.392C115.504 173.533 115.632 173.644 115.784 173.712C115.95 173.783 116.134 173.803 116.312 173.768C116.703 173.691 117.051 173.472 117.288 173.152C117.539 172.787 117.738 172.388 117.88 171.968L117.944 171.784L117.992 171.976C118.07 172.463 118.274 172.921 118.584 173.304C118.762 173.48 118.992 173.592 119.24 173.624C119.363 173.64 119.488 173.624 119.603 173.578C119.718 173.532 119.819 173.457 119.896 173.36C120.074 173.092 120.181 172.784 120.208 172.464C120.256 172.149 120.28 171.831 120.28 171.512C120.268 170.907 120.223 170.304 120.144 169.704C120.072 169.128 120 168.576 119.984 168.056C119.958 167.572 119.982 167.087 120.056 166.608C120.149 165.909 120.425 165.246 120.856 164.688C121.035 164.527 121.237 164.395 121.456 164.296Z" fill="#455A64"/>
<path d="M139.016 168.744H138.976L138.84 168.848C138.773 168.913 138.698 168.97 138.616 169.016C138.511 169.09 138.402 169.157 138.288 169.216C137.548 169.602 136.723 169.797 135.888 169.784C134.666 169.773 133.473 169.406 132.456 168.728C131.22 167.882 130.169 166.793 129.368 165.528C128.928 164.88 128.568 164.2 128.16 163.584C127.789 162.991 127.337 162.452 126.816 161.984C126.345 161.553 125.772 161.248 125.152 161.096C124.871 161.037 124.582 161.02 124.296 161.048C124.022 161.079 123.754 161.144 123.496 161.24C123.071 161.425 122.689 161.697 122.376 162.04C122.135 162.291 121.938 162.58 121.792 162.896C121.683 163.17 121.603 163.454 121.552 163.744V163.688C121.552 163.64 121.552 163.584 121.552 163.512C121.588 163.293 121.647 163.079 121.728 162.872C121.872 162.55 122.066 162.253 122.304 161.992C122.622 161.644 123.012 161.371 123.448 161.192C123.703 161.083 123.972 161.013 124.248 160.984C124.544 160.946 124.845 160.959 125.136 161.024C125.773 161.174 126.362 161.482 126.848 161.92C127.383 162.4 127.847 162.955 128.224 163.568C128.632 164.192 129.024 164.864 129.44 165.512C130.233 166.751 131.267 167.817 132.48 168.648C133.479 169.316 134.647 169.685 135.848 169.712C136.66 169.73 137.464 169.552 138.192 169.192C138.8 168.944 139.008 168.728 139.016 168.744Z" fill="#455A64"/>
<path d="M135.304 174.928C135.2 175.048 134.504 174.56 133.592 174.592C132.68 174.624 131.992 175.12 131.88 175C131.768 174.88 131.936 174.736 132.224 174.512C132.618 174.212 133.097 174.044 133.592 174.032C134.081 174.022 134.56 174.167 134.96 174.448C135.256 174.664 135.36 174.872 135.304 174.928Z" fill="#263238"/>
<path d="M134.8 177.072C134.789 177.266 134.707 177.45 134.57 177.589C134.433 177.727 134.25 177.811 134.056 177.824C133.957 177.834 133.857 177.823 133.763 177.793C133.668 177.763 133.581 177.714 133.506 177.649C133.431 177.584 133.37 177.504 133.327 177.414C133.284 177.325 133.26 177.227 133.256 177.128C133.267 176.934 133.349 176.75 133.486 176.611C133.623 176.473 133.806 176.389 134 176.376C134.099 176.366 134.199 176.377 134.293 176.407C134.388 176.437 134.475 176.486 134.55 176.551C134.625 176.616 134.686 176.696 134.729 176.786C134.772 176.875 134.796 176.973 134.8 177.072Z" fill="#263238"/>
<path d="M136.624 164.496C136.851 164.824 137.157 165.09 137.513 165.271C137.869 165.451 138.265 165.539 138.664 165.528C138.936 165.452 139.204 165.358 139.464 165.248C139.744 165.4 139.72 166.336 139.544 166.6C139.378 166.828 139.19 167.039 138.984 167.232C139.92 167.688 140.752 167.408 141.712 167.008C141.657 167.852 141.38 168.666 140.91 169.368C140.439 170.071 139.791 170.636 139.032 171.008C138.803 171.147 138.544 171.229 138.277 171.247C138.009 171.265 137.742 171.219 137.496 171.112C137.116 170.823 136.854 170.405 136.76 169.936C136.249 168.281 135.942 166.57 135.848 164.84L136.624 164.496Z" fill="#263238"/>
<path d="M147.432 232.68L145.872 224.848H141.576L141.272 237.368L150.656 240.656L156.272 237.024L147.432 232.68Z" fill="#B78876"/>
<path d="M137.144 197.544C137.568 197.688 144.768 201.016 145.76 205.824C146.752 210.632 148.584 225.344 148.584 225.344L141.088 224.776L137.144 197.544Z" fill="#E0E0E0"/>
<path d="M101.104 212.752L102.848 240.656L106.336 250.488L139.496 246.128L137.576 197.744L131.048 194.704C131.048 194.704 130.976 200.4 126.624 199.688C122.272 198.976 117.024 192.936 117.824 193.592L106 196.096L101.104 212.752Z" fill="#E0E0E0"/>
<path d="M106.928 195.904C106.928 195.904 101.688 196.832 99.288 200.976C96.888 205.12 91.112 219.096 91.112 219.096L106.96 226.008C106.96 226.008 114.776 211.008 114.56 207.08C114.344 203.152 106.928 195.904 106.928 195.904Z" fill="#E0E0E0"/>
<path d="M112.272 211.688C112.182 212.074 112.059 212.451 111.904 212.816C111.616 213.616 111.232 214.632 110.776 215.864C109.8 218.44 108.416 222 106.856 225.96L106.784 226.16L106.584 226.072L105.784 225.728C101.704 223.952 98.024 222.32 95.384 221.12L92.24 219.68C91.8475 219.519 91.4701 219.324 91.112 219.096C91.5213 219.205 91.9201 219.349 92.304 219.528L95.504 220.848C98.192 221.984 101.904 223.568 105.976 225.352L106.776 225.688L106.496 225.808C108.096 221.848 109.488 218.304 110.496 215.76C111.008 214.544 111.432 213.536 111.752 212.76C111.891 212.387 112.065 212.028 112.272 211.688Z" fill="#263238"/>
<path d="M112.6 207.92C112.528 207.92 112.68 207.12 112.6 205.832C112.507 204.163 112.013 202.541 111.16 201.104C110.291 199.679 109.095 198.481 107.672 197.608C106.576 196.944 105.8 196.696 105.824 196.632C106.016 196.632 106.207 196.67 106.384 196.744C106.88 196.901 107.359 197.105 107.816 197.352C109.346 198.175 110.625 199.396 111.519 200.886C112.413 202.375 112.889 204.079 112.896 205.816C112.901 206.337 112.855 206.856 112.76 207.368C112.74 207.56 112.686 207.747 112.6 207.92Z" fill="#263238"/>
<path d="M120.296 217.336L141.896 216.432L143.368 247.136L144.4 263.872L143.392 359.256H125.904L124.08 314.952L124.216 292.44L124.696 282.424L118.04 320.528L113.048 361.152L92.992 359.064C92.992 359.064 96.088 324.248 97.08 317.136C98.072 310.024 102.76 272.336 102.76 271.48C102.76 270.624 104.744 250.488 104.744 250.488L104.96 246.608C104.96 246.608 114.16 244.04 116.64 238.912C119.12 233.784 120.296 217.336 120.296 217.336Z" fill="#006FCF"/>
<path d="M121.48 207.36C116.632 198.184 112.776 194.56 112.776 194.56L109.44 195.36C113.368 195.584 120.848 217.76 120.848 217.76L125.504 217.608C125.504 217.608 125.616 215.2 121.48 207.36Z" fill="#006FCF"/>
<path d="M139.064 198.064L135.92 196.8L136 197.256C136 197.632 137.864 217.752 137.864 217.752L140.896 217.008L139.064 198.064Z" fill="#006FCF"/>
<path d="M113.48 253.904C113.632 254.444 113.648 255.012 113.528 255.56C113.334 256.914 112.722 258.174 111.779 259.165C110.835 260.155 109.607 260.828 108.264 261.088C107.724 261.238 107.155 261.252 106.608 261.128C106.608 261.056 107.24 261.064 108.208 260.808C109.458 260.483 110.591 259.815 111.481 258.879C112.37 257.943 112.98 256.777 113.24 255.512C113.448 254.536 113.408 253.904 113.48 253.904Z" fill="#263238"/>
<path d="M128.4 266.8C128.427 267.728 128.316 268.656 128.072 269.552C127.736 271.232 127.16 273.552 126.472 276.04C125.784 278.528 125.224 280.84 124.872 282.504C124.52 284.168 124.288 285.2 124.224 285.192C124.184 284.943 124.184 284.689 124.224 284.44C124.272 283.968 124.384 283.28 124.544 282.44C124.864 280.76 125.408 278.44 126.064 275.936C126.72 273.432 127.352 271.136 127.752 269.488C128.152 267.84 128.336 266.8 128.4 266.8Z" fill="#263238"/>
<g opacity="0.3">
<path d="M128.232 268C128.232 268.208 130.064 288.392 124.232 291.576L124.672 282.416L128.232 268Z" fill="black"/>
</g>
<path d="M136.824 240.656L136.256 237.224L124.96 235.936C124.96 235.936 118.104 252.088 117.96 252.512C117.96 252.512 127.824 259.808 129.248 259.376C130.488 259 135.136 248.976 136.36 246.296C136.552 245.873 136.608 245.4 136.52 244.944L135.824 241.368L136.824 240.656ZM133.04 249.112L129.56 255.8C129.454 256.009 129.304 256.193 129.122 256.34C128.939 256.487 128.727 256.593 128.5 256.652C128.274 256.711 128.037 256.721 127.806 256.682C127.575 256.643 127.355 256.555 127.16 256.424L122.304 253.288L122.736 250.984L127.36 241.984L130.816 243.496L131.48 243.808C132.051 244.072 132.534 244.494 132.871 245.025C133.209 245.555 133.387 246.171 133.384 246.8V247.6C133.391 248.124 133.273 248.643 133.04 249.112Z" fill="#263238"/>
<path d="M116.168 240.656H125.496C125.496 240.656 131.168 243.52 131.408 243.856C131.74 244.856 132.007 245.877 132.208 246.912C132.252 247.116 132.222 247.329 132.122 247.513C132.022 247.697 131.859 247.838 131.664 247.912L131.008 247.664L130.36 249.768L130.712 251.656C130.712 251.656 130.592 252.6 129.768 252.36C128.944 252.12 124.272 247.648 124.272 247.648V248.232C124.272 248.232 129.528 253.072 129.296 254.016C129.064 254.96 127.768 255.312 127.408 254.96C127.048 254.608 122.208 250.472 122.208 250.472C122.208 250.472 117.72 249.672 116.184 248.816C114.648 247.96 111.464 245.984 111.464 245.984L116.168 240.656Z" fill="#B78876"/>
<path d="M99.864 230.536L103 224.528L92.544 219.848L86.744 233.448C86.744 233.448 85.584 235.928 88.488 237.968C90.424 239.336 112.56 246.728 112.56 246.728L117.96 241.176L99.864 230.536Z" fill="#B78876"/>
<path d="M125.424 245.16C125.424 245.104 125.864 245.112 126.424 245.464C127.095 245.948 127.71 246.506 128.256 247.128C129.104 247.928 129.817 248.86 130.368 249.888C129.503 249.129 128.701 248.303 127.968 247.416C127.433 246.816 126.867 246.245 126.272 245.704C125.784 245.328 125.408 245.224 125.424 245.16Z" fill="#AA6550"/>
<path d="M126.8 243.088C126.8 243.04 127.2 243.144 127.76 243.424C128.491 243.801 129.154 244.299 129.72 244.896C130.284 245.504 130.698 246.235 130.928 247.032C131.058 247.354 131.096 247.705 131.04 248.048C130.669 247.009 130.128 246.039 129.44 245.176C128.184 243.84 126.752 243.2 126.8 243.088Z" fill="#AA6550"/>
<path d="M165.92 231.792L135.816 237.176L136.824 240.656L166.68 234.728L165.92 231.792Z" fill="#263238"/>
<path d="M151.936 234.264C151.936 234.264 154.24 231.808 155.352 231.456C156.464 231.104 159.488 230.744 159.768 231.088C160.022 231.296 160.184 231.597 160.217 231.924C160.25 232.251 160.152 232.577 159.944 232.832C159.908 232.879 159.868 232.921 159.824 232.96C159.621 233.139 159.367 233.251 159.098 233.281C158.829 233.311 158.558 233.258 158.32 233.128L151.936 234.264Z" fill="#B78876"/>
<path d="M166.12 232.568L190.944 228.096L191.288 229.976L166.496 234.032L166.12 232.568Z" fill="#E0E0E0"/>
<path d="M197.168 230.2L190.912 230.752L190.168 227.2L196.144 225.128L197.168 230.2Z" fill="#263238"/>
<path d="M149.416 238.784C149.416 238.784 151.312 242.408 152.8 241.832C154.288 241.256 154.2 240.336 154.2 240.336C154.2 240.336 154.328 242.448 155.8 241.896C157.272 241.344 157.176 240.384 157.176 240.384C157.44 240.642 157.795 240.786 158.164 240.786C158.533 240.786 158.888 240.642 159.152 240.384C159.809 239.973 160.37 239.428 160.8 238.784C160.8 238.784 161.872 234.336 160.8 234.256C160.194 234.19 159.584 234.334 159.072 234.664C159.072 234.664 158.904 233.184 157.752 233.344C157.431 233.401 157.142 233.576 156.944 233.835C156.745 234.095 156.651 234.419 156.68 234.744C156.68 234.744 156.336 233.512 155.36 233.688C155.094 233.731 154.853 233.873 154.686 234.084C154.519 234.296 154.437 234.563 154.456 234.832C154.456 234.832 153.872 233.232 152.856 233.76C151.84 234.288 152.056 235.936 152.056 235.936L151.256 238.536L149.416 238.784Z" fill="#B78876"/>
<path d="M154.432 234.976C154.878 235.809 155.062 236.757 154.96 237.696C154.997 238.643 154.743 239.578 154.232 240.376C154.12 240.328 154.496 239.168 154.544 237.68C154.592 236.192 154.312 235.008 154.432 234.976Z" fill="#AA6550"/>
<path d="M157.2 240.536C157.08 240.536 157.2 239.2 157.08 237.584C156.96 235.968 156.536 234.696 156.656 234.648C157.178 235.526 157.467 236.523 157.496 237.544C157.658 238.55 157.556 239.581 157.2 240.536Z" fill="#AA6550"/>
<path d="M159.016 240.336C158.904 240.288 159.32 239.08 159.328 237.528C159.336 235.976 158.952 234.76 159.072 234.72C159.584 235.566 159.819 236.55 159.744 237.536C159.805 238.523 159.55 239.504 159.016 240.336Z" fill="#AA6550"/>
<path d="M235.712 213.304C235.712 213.416 227.2 216.424 216.616 220.032C206.032 223.64 197.416 226.48 197.416 226.368C197.416 226.256 205.928 223.248 216.52 219.64C227.112 216.032 235.672 213.192 235.712 213.304Z" fill="white"/>
<path d="M216.4 224.32C214.332 224.87 212.232 225.29 210.112 225.576C208.015 225.996 205.893 226.279 203.76 226.424C205.826 225.868 207.927 225.449 210.048 225.168C212.144 224.743 214.266 224.459 216.4 224.32Z" fill="white"/>
<path d="M232.832 229.448C232.832 229.568 225.272 229.624 215.944 229.576C206.616 229.528 199.056 229.392 199.056 229.28C199.056 229.168 206.616 229.112 215.944 229.16C225.272 229.208 232.832 229.336 232.832 229.448Z" fill="white"/>
<path d="M204.208 219.2C203.37 220.153 202.428 221.008 201.4 221.752C200.46 222.599 199.433 223.345 198.336 223.976C200.111 222.165 202.08 220.556 204.208 219.176V219.2Z" fill="white"/>
<path d="M207.192 232.8C205.84 232.9 204.48 232.811 203.152 232.536C201.802 232.386 200.478 232.055 199.216 231.552C200.56 231.654 201.896 231.844 203.216 232.12C204.554 232.267 205.881 232.494 207.192 232.8Z" fill="white"/>
</svg>
