<svg width="80" height="68" viewBox="0 0 80 68" fill="none" xmlns="http://www.w3.org/2000/svg">
<path d="M3.78519 39.003L48.7974 65.2507C48.7974 65.2507 52.9201 67.3327 57.0065 67.6014C61.0926 67.87 64.6429 66.0516 67.1236 64.9191C69.6043 63.7862 75.3142 60.4999 76.5001 59.3919C77.6859 58.2837 80.9356 55.9456 77.7202 52.7944C74.5048 49.6431 21.8884 22.3346 17.6251 22.1617C13.3618 21.9889 0.365567 32.8932 0.0377547 34.7892C-0.274531 36.5952 1.38358 37.6165 3.78519 39.003Z" fill="#DBDBDB"/>
<path d="M5.39689 34.3966L11.0696 31.5017L19.6343 38.9368L41.1955 55.0109L45.2421 52.6444L56.5605 60.4062L57.2701 29.8535L3.99365 19.6292L5.39689 34.3966Z" fill="#292929"/>
<path d="M47.8904 47.7266L43.4229 50.3048L50.4982 62.3224L54.9771 59.735L53.4945 51.7763L47.8904 47.7266Z" fill="#333333"/>
<path d="M12.1767 27.101L7.70947 29.6792L14.723 41.7363L19.2019 39.1489L17.3851 31.0655L12.1767 27.101Z" fill="#333333"/>
<path d="M63.3263 27.0107C63.3263 27.2085 63.3415 27.3945 63.3831 27.5234C63.3831 27.531 63.3869 27.5348 63.3869 27.5424C63.406 27.5958 63.4288 27.6374 63.459 27.6678C63.4818 27.6907 63.5123 27.717 63.5501 27.7437C63.6983 27.8577 63.9529 28.0021 64.2529 28.0551C64.3631 28.0742 64.477 28.0818 64.5948 28.0703H64.5986C64.6176 28.0703 64.6405 28.0703 64.6633 28.0627H64.6671C64.7925 28.0475 64.9217 28.0094 65.0471 27.945C65.0738 27.9297 65.1042 27.9145 65.1344 27.8954H65.1379C65.1684 27.8802 65.1985 27.8612 65.229 27.8421C65.229 27.8421 65.2331 27.8421 65.2331 27.8383C65.8029 27.4888 66.4676 26.8241 66.7524 26.2394C66.794 26.1518 66.8282 26.0645 66.8511 25.9772C66.8816 25.8708 66.9044 25.7607 66.9158 25.6467C66.9196 25.6201 66.9234 25.5896 66.9234 25.5671C66.9349 25.4721 66.9387 25.3848 66.9387 25.3011C66.9387 25.2325 66.9387 25.1681 66.9311 25.1071C66.9311 25.0693 66.9272 25.0313 66.9196 24.9932C66.9082 24.8678 66.8854 24.7462 66.8511 24.6322L66.8473 24.6208C66.7825 24.3701 66.6727 24.1612 66.5282 24.0396C66.4067 23.9371 66.2661 23.8952 66.0838 23.918C65.708 23.9634 65.161 24.2939 64.238 24.9208C63.8542 25.183 63.4936 25.6347 63.3793 26.0452C63.3755 26.0566 63.3717 26.068 63.3679 26.0794C63.3527 26.1439 63.345 26.2086 63.3412 26.2731C63.3412 26.3607 63.3336 26.4629 63.3298 26.5657V26.5695C63.3263 26.7146 63.3225 26.8663 63.3263 27.0107Z" fill="#5B73FF"/>
<path d="M64.0781 26.6574V26.7828L64.0819 26.7866C64.0781 26.7942 64.0781 26.8018 64.0819 26.8132C64.0857 27.0907 64.1312 27.3488 64.2184 27.5503V27.5541L64.2223 27.5579C64.2943 27.7325 64.4007 27.8617 64.5451 27.9262C64.6971 27.9944 64.8908 27.9944 65.1301 27.8919V27.8881C65.1606 27.8767 65.1946 27.8614 65.2288 27.8427C65.2288 27.8427 65.2329 27.8427 65.2329 27.8389C65.8938 27.497 66.4789 26.8704 66.7522 26.2399C66.7938 26.1523 66.8281 26.065 66.8509 25.9777C66.8852 25.8752 66.9042 25.7727 66.9156 25.6701V25.6473C66.9195 25.6206 66.9233 25.5902 66.9233 25.5676C66.9347 25.4727 66.9385 25.3854 66.9385 25.3016C66.9385 25.2331 66.9385 25.1686 66.9309 25.1077C66.9309 25.0737 66.9309 25.0356 66.9233 25.0051V25.0013C66.9118 24.8531 66.8852 24.7315 66.8512 24.6328L66.8474 24.6214C66.7903 24.462 66.7106 24.3706 66.6271 24.3554C66.5814 24.3478 66.5207 24.3516 66.4449 24.363C66.1258 24.4163 65.5862 24.6477 65.2142 24.9632C64.7581 25.3508 64.0934 25.7952 64.0781 26.6574Z" fill="#5B84FF"/>
<path d="M23.319 17.6491C24.1721 19.0521 25.048 20.697 26.7943 21.7053L27.2909 21.9921V19.7762C27.2909 16.1263 29.8706 14.6583 33.0512 16.4949C36.2294 18.3299 38.8091 22.7764 38.8091 26.4265V28.6425L63.011 42.6154V40.3995C63.011 36.7496 65.5881 35.2802 68.7689 37.1167C71.9498 38.9532 74.5295 43.3997 74.5295 47.0499V50.8401C75.3554 51.3167 75.1702 51.951 75.1702 51.951C75.1702 51.951 77.8173 52.4771 79.1045 51.8865C79.3515 51.7743 80.2696 47.4749 79.9228 46.038C79.5759 44.6011 79.5091 43.1404 77.1292 40.203C75.1708 37.7899 67.327 31.2688 67.327 31.2688C67.327 31.2688 58.0525 19.7147 53.5094 16.4761C48.2752 12.7415 29.9637 1.58503 28.7164 1.36033C26.2515 0.910649 23.7954 4.54062 23.254 5.75667C23.2314 5.80384 22.7076 9.66935 22.6379 9.88379C22.3883 10.6472 21.8469 11.5744 21.68 12.1533C21.5147 12.7304 22.4683 16.2447 23.319 17.6491Z" fill="#2E2F35"/>
<path d="M79.9214 46.0375C79.5529 43.9063 78.8205 42.7344 78.8205 42.7344C78.8205 42.7344 76.9292 40.3126 75.9604 38.9407C74.9916 37.5688 65.9189 29.5498 65.9189 29.5498L66.6373 39.4173L79.9214 46.0375Z" fill="#5B73FF"/>
<path d="M21.6783 12.1528C21.8453 11.5736 22.3869 10.6467 22.6362 9.88325C22.6978 9.69459 23.1108 6.67805 23.2242 5.92575C25.2781 7.10606 30.3379 9.29558 32.8652 10.8972C36.2333 13.0334 45.9203 19.8202 47.8415 21.1441C49.765 22.4694 61.8671 31.5322 66.7096 34.0416C71.5544 36.5554 75.2767 41.7762 76.0251 42.7321C76.7736 43.6909 77.9607 44.8768 79.9214 46.0374C80.2682 47.4744 79.3501 51.7738 79.1032 51.886C77.816 52.4768 75.1689 51.9504 75.1689 51.9504C75.1689 51.9504 75.354 51.3165 74.5282 50.8395V47.0493C74.5282 43.3994 71.9484 38.9527 68.7676 37.1162C65.5867 35.2796 63.0096 36.7491 63.0096 40.399V42.6149L38.8077 28.6419V26.426C38.8077 22.7761 36.2283 18.3294 33.0498 16.4943C29.8689 14.6578 27.2895 16.1258 27.2895 19.7757V21.9916L26.7929 21.7048C25.0466 20.6964 24.171 19.0515 23.3176 17.6486C22.4672 16.2447 21.6361 12.7182 21.6783 12.1528Z" fill="#495DCF"/>
<path d="M72.2907 49.7447C74.211 48.6221 74.1914 45.0158 72.247 41.6898C70.3026 38.3638 67.1697 36.5777 65.2494 37.7003C63.3291 38.8229 63.3487 42.4292 65.2931 45.7552C67.2375 49.0811 70.3705 50.8673 72.2907 49.7447Z" fill="#1F2024"/>
<path d="M36.5705 29.1223C38.4908 27.9996 38.4712 24.3933 36.5268 21.0674C34.5824 17.7414 31.4494 15.9552 29.5292 17.0778C27.6089 18.2005 27.6285 21.8068 29.5729 25.1327C31.5173 28.4587 34.6503 30.2449 36.5705 29.1223Z" fill="#1F2024"/>
<path d="M22.6362 9.88381C22.8858 9.12125 22.7124 6.96951 23.2529 5.75493C23.7934 4.54035 26.2521 0.911247 28.7155 1.35829C29.1611 1.43915 31.781 2.91299 35.2032 4.94403C35.1944 4.93935 29.5466 1.94976 28.9232 2.07515C28.2995 2.20082 24.7821 4.54738 24.2401 6.51573C23.6981 8.48408 24.0737 9.06618 23.8244 10.0561C23.5748 11.046 22.1147 11.1139 22.1147 11.1139C22.3052 10.7064 22.5085 10.2737 22.6362 9.88381Z" fill="#2E2F35"/>
<path d="M62.2642 39.9686V42.1845L63.01 42.6152V40.3993C63.01 36.7494 65.5871 35.2799 68.768 37.1164C71.9488 38.953 74.5286 43.3994 74.5286 47.0496V50.8398L75.2744 51.2705V47.4802C75.2744 43.3578 72.3604 38.3345 68.768 36.2604C65.1755 34.1863 62.2642 35.8462 62.2642 39.9686Z" fill="#5B73FF"/>
<path d="M26.5444 19.3453V21.5524C26.6244 21.6042 26.7091 21.6561 26.794 21.705L27.2906 21.9918V19.7759C27.2906 16.126 29.8703 14.658 33.0509 16.4945C36.2291 18.3296 38.8088 22.776 38.8088 26.4262V28.6421L39.5547 29.0728V26.8569C39.5547 22.7344 36.6433 17.7126 33.0509 15.6385C29.4584 13.5644 26.5444 15.2228 26.5444 19.3453Z" fill="#5B73FF"/>
<path d="M23.0625 7.05596C23.1023 6.77531 23.1393 6.51634 23.1694 6.30512L23.1697 6.30366C23.192 6.14898 23.2107 6.01979 23.2248 5.92575C23.5646 6.12086 23.9733 6.35668 24.4233 6.61653C24.6972 6.78176 25.0068 6.96515 25.3551 7.16641C25.9284 7.49744 26.5782 7.87389 27.1682 8.21605C27.7685 8.56877 29.0214 8.55939 29.6226 8.91797C29.5681 8.99619 29.2745 9.4113 29.1436 9.44499C28.8005 9.53317 25.6364 8.57756 25.0508 8.24096C24.5993 7.9814 23.5289 7.33719 23.0625 7.05596Z" fill="#FF4566"/>
<path d="M24.5756 19.6292C24.099 18.9739 23.7055 18.2866 23.3177 17.6491C22.4669 16.2447 21.6358 12.7181 21.6783 12.153L21.6786 12.1527L21.6792 12.153C22.7429 13.5721 23.7023 14.4808 24.0911 15.614C24.4359 16.6185 24.57 18.1636 24.5756 19.6292Z" fill="#2E2F35"/>
<path d="M65.9196 30.4761C65.9196 30.4761 60.0164 28.3867 59.3095 27.9786C58.6026 27.5705 39.554 14.6402 39.554 14.6402L33.0493 8.01653C33.0493 8.01653 33.5125 4.92412 34.3858 5.25486C35.1389 5.5402 49.9834 14.6209 54.174 17.6936C58.2074 21.4604 65.9196 30.4761 65.9196 30.4761Z" fill="#1F2024"/>
<path d="M45.9804 12.2998L48.3832 20.6003L46.6595 19.4326L45.1982 11.8082L45.9804 12.2998Z" fill="#2E2F35"/>
<path d="M54.493 17.9989L61.5362 28.8821L59.7676 28.2428L53.814 17.4337L54.493 17.9989Z" fill="#2E2F35"/>
<path d="M27.2983 1.51028C27.2983 1.51028 24.3079 2.63757 23.6438 2.92759C19.7692 4.62056 12.279 8.71839 8.99709 11.3843C8.31656 11.9371 4.41211 15.623 4.41211 15.623L33.844 27.8286C33.844 27.8286 35.7432 27.6308 36.3409 27.4243C42.2998 25.364 50.9079 20.6852 52.919 17.8532C53.136 17.5477 53.5087 16.4755 53.5087 16.4755C53.5087 16.4755 35.4204 5.44025 29.7292 2.13545C29.1152 1.77863 27.6534 1.51585 27.2983 1.51028Z" fill="#2E2F35"/>
<path d="M67.3264 31.2682L45.4336 43.9094C45.4336 43.9094 58.682 58.5219 59.2688 58.6701C59.4563 58.7173 61.8951 61.5545 64.7663 59.8032C68.6561 57.4303 73.8285 54.1741 77.0837 52.115C78.9522 50.9329 79.9224 46.0377 79.9224 46.0377L76.1211 39.7055L67.3264 31.2682Z" fill="#5B73FF"/>
<path d="M79.1041 51.8859C79.1041 51.8859 78.8548 52.5263 78.5375 52.8046C75.1217 55.7986 65.478 61.1658 63.938 61.8929C61.4535 63.0662 58.4059 63.689 58.4059 63.689C58.4059 63.689 56.3734 56.676 57.7731 57.1459C62.0584 58.584 77.9094 48.1376 79.3859 46.6971C79.6284 46.4604 79.9223 46.0377 79.9223 46.0377L79.1041 51.8859Z" fill="#495DCF"/>
<path d="M47.5088 43.6036C51.0465 45.5265 55.1923 50.3517 57.6745 51.54C60.1567 52.7282 59.922 56.7071 64.8498 54.2381C73.1441 50.0822 76.2502 47.3317 76.2502 47.3317C76.2502 47.3317 76.4811 43.6036 75.7906 41.5221C75.1004 39.4407 66.422 32.239 66.422 32.239C66.422 32.239 60.5583 39.8292 47.5088 43.6036Z" fill="#5B84FF"/>
<path d="M66.0216 29.6683C66.4651 30.203 66.95 31.0628 66.7818 32.437C66.7279 33.5371 66.4092 34.8794 65.0534 35.876C62.2285 37.9522 58.5434 40.4341 54.7907 42.1417C53.1083 42.9072 50.6809 43.1278 49.1514 43.5886C48.6121 43.7512 45.4327 43.9094 45.4327 43.9094L33.8433 27.8286L53.5079 16.4755C53.5079 16.4755 61.3704 24.063 66.0216 29.6683Z" fill="#2E2F35"/>
<path d="M38.2154 29.5984C36.0499 27.0467 26.328 20.4793 15.0268 14.2643C14.5719 14.0141 14.4582 13.4121 14.791 13.0137C15.13 12.608 15.5248 12.1571 15.7572 11.9661C18.5932 9.63567 25.0812 6.02883 28.4727 4.62471C28.6892 4.53507 29.0522 4.42609 29.4497 4.31799C30.6657 3.98813 31.9644 4.12786 33.0823 4.70849C44.3114 10.5403 52.5797 16.9551 53.723 17.853C54.9233 18.7954 55.5956 19.5636 55.5956 19.5636L52.8108 28.7869L38.2154 29.5984Z" fill="#3D3C51"/>
<path d="M59.8022 59.5888C59.7734 59.9029 59.7301 60.2284 59.6841 60.5509C59.6812 60.5623 59.6782 60.577 59.6782 60.5913C59.4796 61.9079 59.1741 63.1725 59.0129 63.4547C58.9957 63.4863 58.9813 63.5065 58.9669 63.5124C58.8548 63.5642 58.7308 63.6076 58.5981 63.6448C58.575 63.6506 58.555 63.6562 58.5348 63.6591C58.5146 63.665 58.4973 63.6676 58.483 63.6706C58.4569 63.6764 58.437 63.682 58.4253 63.682C58.4109 63.6878 58.4051 63.6878 58.4051 63.6878C58.3271 63.7051 58.2466 63.7166 58.166 63.7309C58.1402 63.7338 58.1142 63.7368 58.0881 63.7397C58.0131 63.7511 57.9384 63.7599 57.8605 63.7655C57.7538 63.7769 57.6446 63.7828 57.5321 63.7857C57.4342 63.7886 57.3361 63.7915 57.2382 63.7915C56.1177 63.7915 55.0317 63.5753 55.0317 63.5753C55.0317 63.5753 54.8648 63.5349 54.614 63.4658C54.5794 63.457 54.5419 63.4456 54.5015 63.4341C54.3922 63.4025 54.2709 63.3679 54.1444 63.3275C54.0867 63.3102 54.0293 63.29 53.9686 63.2727C53.7785 63.2094 53.5769 63.1403 53.381 63.0653C53.1103 62.9616 52.8481 62.8465 52.6348 62.7226V59.689C52.6348 56.0391 50.0566 51.5912 46.8733 49.7562C43.6931 47.9182 41.1177 49.3873 41.1177 53.0372L41.1954 55.01L40.4492 54.5779L16.9914 41.0355L16.9138 39.0657C16.9138 35.4158 14.3355 30.9679 11.1553 29.1329C7.97499 27.2978 5.39672 28.764 5.39672 32.4139V34.3958C4.84363 33.9982 3.3859 32.9266 2.99715 32.4169C2.51906 31.7832 1.4618 30.1986 1.26874 29.1906C1.07862 28.1822 0.718586 25.6385 0.813502 24.6648C0.908711 23.691 1.55671 23.069 1.79869 22.2277C2.01752 21.4587 2.61954 19.1107 2.99715 17.7886C3.03172 17.6676 3.06337 17.5551 3.095 17.4517C3.23621 16.9821 3.7518 16.3138 4.41152 15.6225C5.46 14.5221 6.8773 13.3726 7.7043 12.9147C7.71016 12.9118 7.71572 12.9062 7.72158 12.9033C7.75029 12.886 7.76758 12.8658 7.77637 12.8429C7.93485 12.7911 8.0904 12.7507 8.2401 12.7249C8.3151 12.7105 8.3898 12.702 8.4648 12.6962C8.61186 12.6789 8.75277 12.6789 8.88841 12.6962C8.92883 12.6991 8.9634 12.702 9.00061 12.7076C9.01789 12.7105 9.03517 12.7105 9.04953 12.7134C9.06974 12.7164 9.09259 12.7219 9.12159 12.7307C9.13302 12.7337 9.14767 12.7395 9.16202 12.7451C9.19073 12.7565 9.22267 12.7682 9.25987 12.7826C9.27715 12.7884 9.29737 12.7969 9.31758 12.8057C9.32344 12.8057 9.329 12.8087 9.33486 12.8142C9.358 12.823 9.38086 12.8344 9.404 12.8459C9.45 12.8661 9.49892 12.8889 9.5537 12.9121C9.55663 12.915 9.55663 12.915 9.55663 12.915C9.63719 12.9554 9.72654 12.9985 9.82467 13.0474C9.89088 13.0791 9.96002 13.1165 10.0321 13.154C10.1387 13.2118 10.2568 13.2721 10.3807 13.3386C10.4413 13.3702 10.5046 13.4048 10.5679 13.4394C10.6341 13.474 10.7003 13.5114 10.7694 13.5489C10.8588 13.5979 10.9537 13.6497 11.0519 13.7045C11.1728 13.7707 11.2997 13.8428 11.4292 13.9148C11.559 13.9869 11.6943 14.0645 11.8326 14.1425C11.9995 14.2345 12.1724 14.3326 12.3511 14.4363C12.5872 14.5716 12.835 14.7158 13.0914 14.8625C13.1547 14.8971 13.2182 14.9346 13.2844 14.9747C13.4804 15.0869 13.679 15.2053 13.8835 15.3234C13.9527 15.3609 14.0189 15.401 14.088 15.4444C14.1976 15.5076 14.3068 15.5741 14.4193 15.6403C14.4223 15.6403 14.4252 15.6403 14.4278 15.6433C14.6467 15.7728 14.8743 15.9055 15.1048 16.0437C15.1107 16.0467 15.1192 16.0496 15.125 16.0552C15.2346 16.1214 15.3439 16.1876 15.4564 16.2538C15.4649 16.2596 15.4766 16.2652 15.4851 16.2681C15.4909 16.2711 15.4994 16.274 15.5053 16.2796C21.6757 19.938 30.4736 25.4229 33.844 27.8283C34.4692 28.2748 35.1462 28.9058 35.8431 29.6605C35.895 29.7182 35.9498 29.7756 36.0016 29.8333C36.183 30.0319 36.3646 30.2394 36.5459 30.4526C36.5632 30.4728 36.5805 30.4931 36.6007 30.5159C36.693 30.6255 36.785 30.7347 36.8802 30.8502C36.9523 30.9366 37.0243 31.0259 37.099 31.1153C37.174 31.2076 37.2516 31.3025 37.3266 31.4006C37.4072 31.5014 37.4881 31.6022 37.5716 31.7059C37.6753 31.8412 37.7819 31.9795 37.8885 32.1178C38.0007 32.2648 38.1132 32.4145 38.2257 32.5642C38.3294 32.6996 38.4302 32.8378 38.5368 32.979C38.7788 33.3133 39.0237 33.6531 39.2686 33.9988C39.4271 34.2264 39.5856 34.4538 39.7438 34.6814C39.9799 35.0242 40.2134 35.3698 40.4436 35.7126C40.7835 36.2197 41.1148 36.7265 41.4318 37.2251C41.5384 37.3895 41.6421 37.5535 41.7458 37.7179C41.8926 37.9484 42.0367 38.176 42.1779 38.4007C42.1779 38.4007 42.1808 38.4095 42.1864 38.4122C42.2526 38.5217 42.3188 38.631 42.388 38.7376C42.5204 38.9509 42.6502 39.1609 42.777 39.3683C42.8373 39.4721 42.9009 39.5728 42.9642 39.6739C43.2841 40.2009 43.5806 40.6966 43.8515 41.1516C43.9813 41.3707 44.1023 41.5807 44.2204 41.7796C44.2347 41.8028 44.2491 41.8286 44.2608 41.8517C44.3071 41.9296 44.3502 42.0073 44.3932 42.0823C44.3991 42.0881 44.402 42.0937 44.4046 42.0995C44.465 42.2033 44.5227 42.3014 44.5775 42.3963C44.7992 42.7795 44.9835 43.102 45.1221 43.3499C45.171 43.4392 45.2173 43.5198 45.2545 43.5889C45.3726 43.7963 45.4332 43.9085 45.4332 43.9085C45.4332 43.9085 53.0614 49.523 54.8762 51.0355C57.4776 53.2104 59.0821 55.6621 59.6352 57.1802C59.6985 57.356 59.7503 57.5171 59.7849 57.6641C59.8915 58.1053 59.8772 58.814 59.8022 59.5888Z" fill="#546AEB"/>
<path d="M59.8194 59.5829C59.7819 59.9025 59.7359 60.2283 59.6841 60.5508C59.6812 60.5622 59.6782 60.5769 59.6782 60.5912C59.4623 61.9306 59.1656 63.1754 59.0129 63.4546C58.9957 63.4862 58.9813 63.5064 58.9669 63.5123C58.8372 63.5729 58.6904 63.6218 58.5348 63.6593C58.5146 63.6652 58.4973 63.6678 58.483 63.6708C58.4569 63.6766 58.437 63.6822 58.4253 63.6822C58.4194 63.688 58.4109 63.688 58.4051 63.688C58.3271 63.7053 58.2466 63.7168 58.166 63.7311C58.1402 63.734 58.1142 63.737 58.0881 63.7399C58.0131 63.7513 57.9384 63.7601 57.8605 63.7657C57.7538 63.7771 57.6446 63.783 57.5321 63.7859C57.4342 63.7888 57.3361 63.7918 57.2382 63.7918C56.1177 63.7918 55.0317 63.5756 55.0317 63.5756C55.0317 63.5756 54.8648 63.5351 54.614 63.466C54.5794 63.4572 54.5419 63.4458 54.5015 63.4343C54.3922 63.4027 54.2709 63.3681 54.1444 63.3277C54.0867 63.3104 54.0293 63.2902 53.9686 63.2729C53.7785 63.2096 53.5769 63.1405 53.381 63.0655C53.1103 62.9618 52.8481 62.8467 52.6348 62.7228V59.6892C52.6348 56.0393 50.0566 51.5914 46.8733 49.7564C43.6931 47.9184 41.1177 49.3875 41.1177 53.0374L41.1954 55.0102L40.4492 54.5781L16.9914 41.0358L16.9138 39.0659C16.9138 35.416 14.3355 30.9681 11.1553 29.1331C7.97499 27.298 5.39672 28.7643 5.39672 32.4142V34.396C4.84363 33.9984 3.3859 32.9268 2.99715 32.4171C2.51906 31.7834 1.4618 30.1988 1.26874 29.1908C1.07862 28.1824 0.718586 25.6387 0.813502 24.665C0.908711 23.6912 1.55671 23.0692 1.79869 22.2279C2.01752 21.4589 2.61954 19.1109 2.99715 17.7888C3.03172 17.6678 3.06337 17.5553 3.095 17.4519C3.14393 17.492 3.19285 17.5354 3.24206 17.5758C7.30969 20.9981 8.4733 21.9546 10.971 23.5359C14.3414 25.6733 24.0264 32.4604 25.9478 33.7828C27.8722 35.1079 35.4629 40.7946 40.3716 43.174C48.2359 46.9853 54.2709 54.579 55.02 55.5352C55.7401 56.4597 57.6012 57.2636 59.6349 57.1801C59.7099 57.1772 59.7875 57.1742 59.8625 57.1687C59.9838 57.6761 59.9404 58.5948 59.8194 59.5829Z" fill="#495DCF"/>
<path d="M79.8724 48.5557C79.7283 50.3532 79.2848 51.8051 79.1032 51.886C79.1032 51.886 78.8553 52.5255 78.5357 52.8049C75.1219 55.798 65.4774 61.1649 63.9391 61.8935C61.7555 62.9221 59.1426 63.53 58.5348 63.6594C58.5145 63.6653 58.4973 63.6679 58.4829 63.6709C58.4568 63.6767 58.4369 63.6823 58.4252 63.6823C58.4108 63.6881 58.405 63.6882 58.405 63.6882C58.3271 63.7054 58.2465 63.7169 58.1659 63.7312C58.1402 63.7341 58.1141 63.7371 58.088 63.74C58.013 63.7514 57.9383 63.7602 57.8604 63.7658C57.7537 63.7772 57.6445 63.7831 57.532 63.786C57.4341 63.7889 57.336 63.7919 57.2381 63.7919C56.1176 63.7919 55.0316 63.5757 55.0316 63.5757C55.0316 63.5757 54.8647 63.5352 54.6139 63.4661C54.5793 63.4573 54.5418 63.4459 54.5014 63.4345C54.3921 63.4028 54.2708 63.3682 54.1443 63.3278C54.0866 63.3105 54.0292 63.2903 53.9685 63.273C53.7784 63.2098 53.5768 63.1406 53.3809 63.0656C53.1102 62.9619 52.848 62.8468 52.6347 62.7229V59.6893C52.6347 56.0394 50.0564 51.5915 46.8732 49.7565C43.693 47.9185 41.1176 49.3877 41.1176 53.0376L41.1953 55.0103L40.4491 54.5782L17.7381 41.4685L16.9919 41.0364L16.9143 39.0666C16.9143 35.4167 14.336 30.9688 11.1558 29.1338C7.97548 27.2987 5.39722 28.7649 5.39722 32.4148V34.3967C5.21852 34.2698 4.95076 34.0741 4.65107 33.8465C4.02035 33.3684 3.26248 32.7635 2.99765 32.4178C2.51955 31.7841 1.4623 30.1995 1.26924 29.1915C1.07912 28.1831 0.719074 25.6394 0.81399 24.6656C0.966618 25.432 2.78731 27.0538 3.33454 27.2697C4.69149 27.5808 6.02237 24.5822 10.9715 27.1487C15.9206 29.7182 17.8649 33.3913 18.2598 36.128C18.6574 38.8648 18.8188 40.7198 19.8816 41.5236C20.9418 42.3246 37.3043 51.3009 39.7153 52.4417C39.9429 51.4333 40.1588 50.771 40.5681 49.895C42.1869 46.8703 44.7681 47.2418 46.7558 48.3483C53.7356 52.3813 53.7673 58.4047 53.8912 59.053C54.0092 59.6524 55.7954 60.4818 57.6852 60.5193C57.8437 60.5193 61.4877 59.2142 62.1908 59.1913C63.0406 59.1655 71.1009 55.049 75.373 51.9867C76.6204 51.0938 77.5277 50.3304 78.0289 49.8839C79.4462 48.6219 79.7889 48.6075 79.8724 48.5557Z" fill="#4052B5"/>
<path d="M53.329 59.1386C52.6192 50.7959 48.1897 47.8259 45.4337 46.955C42.9787 46.1792 39.9795 47.7952 40.3723 52.0441C41.7659 48.3591 43.7548 48.1312 45.6425 48.6594C47.5297 49.1876 51.641 52.6403 53.329 59.1386Z" fill="#5B73FF"/>
<path d="M17.6609 39.4009C17.6609 32.4166 14.284 28.6642 11.2965 26.7439C8.30898 24.8236 4.93213 27.1259 4.93213 29.9702C6.74315 28.1583 8.97837 27.299 10.7657 28.3408C12.553 29.3825 16.3411 32.3059 17.6609 39.4009Z" fill="#5B73FF"/>
<path d="M18.9112 39.7494C19.2563 40.6113 19.8783 41.3328 20.6774 41.8056C24.613 44.1343 37.262 51.6017 37.6197 51.5923C39.6372 51.5405 27.7244 43.9609 25.2276 42.6247C23.5891 41.7479 18.3341 38.3075 18.9112 39.7494Z" fill="#5B73FF"/>
<path d="M45.4335 43.9091L44.0276 43.1169L11.1558 20.6559C11.1558 20.6559 7.94686 18.5013 5.08619 16.1793C4.85857 15.9921 4.63387 15.8079 4.41211 15.6233C5.46058 14.523 6.87788 13.3734 7.70488 12.9155C7.71074 12.9126 7.71631 12.907 7.72217 12.9041C8.20026 12.7371 8.64408 12.6563 9.00119 12.7081C9.01848 12.7111 9.03576 12.7111 9.05011 12.714C9.07033 12.7169 9.09318 12.7225 9.12218 12.7313C9.1711 12.7486 9.23731 12.7746 9.31817 12.8063C9.32402 12.8063 9.32959 12.8092 9.33545 12.8148C9.50829 12.8927 9.74441 13.0049 10.0327 13.1546C10.2486 13.2671 10.4964 13.3995 10.77 13.5492C10.8594 13.5981 10.9543 13.65 11.0524 13.7048C11.2944 13.8401 11.5566 13.9872 11.8331 14.1427C12.0001 14.2347 12.173 14.3328 12.3517 14.4365C12.5878 14.5719 12.8356 14.716 13.092 14.8628C13.1552 14.8974 13.2188 14.9349 13.285 14.975C13.481 15.0872 13.6796 15.2055 13.8841 15.3236C13.9532 15.3611 14.0194 15.4012 14.0886 15.4446C14.5265 15.7009 14.9844 15.9716 15.457 16.254C15.4654 16.2599 15.4772 16.2655 15.4857 16.2684C15.4915 16.2713 15.5 16.2742 15.5059 16.2798C21.6763 19.9382 30.4742 25.4232 33.8446 27.8286C34.4698 28.2751 35.1468 28.9061 35.8437 29.6607C35.8956 29.7184 35.9504 29.7759 36.0022 29.8336C36.1835 30.0322 36.3652 30.2396 36.5465 30.4529C36.5638 30.4731 36.5811 30.4933 36.6013 30.5161C36.6936 30.6257 36.7856 30.735 36.8808 30.8504C36.9528 30.9368 37.0249 31.0262 37.0996 31.1155C37.1746 31.2078 37.2522 31.3027 37.3272 31.4009C37.4078 31.5016 37.4886 31.6024 37.5721 31.7061C37.6758 31.8415 37.7825 31.9797 37.8891 32.118C38.0013 32.2651 38.1138 32.4148 38.2263 32.5645C38.33 32.6998 38.4308 32.8381 38.5374 32.9793C38.7794 33.3136 39.0243 33.6534 39.2692 33.9991C39.4277 34.2267 39.5862 34.454 39.7444 34.6816C39.9805 35.0244 40.214 35.3701 40.4442 35.7128C40.8936 36.3898 41.3316 37.0639 41.7464 37.7178C41.8932 37.9484 42.0373 38.176 42.1785 38.4007C42.1785 38.4007 42.1814 38.4095 42.187 38.4121C42.2532 38.5217 42.3194 38.6309 42.3885 38.7376C42.521 38.9508 42.6507 39.1609 42.7776 39.3683C42.8379 39.472 42.9015 39.5728 42.9648 39.6738C43.2847 40.2009 43.5812 40.6965 43.8521 41.1515C43.9819 41.3733 44.1055 41.5807 44.2209 41.7796C44.2353 41.8027 44.2497 41.8285 44.2614 41.8517C44.3077 41.9296 44.3507 42.0072 44.3938 42.0822C44.3997 42.0881 44.4026 42.0936 44.4052 42.0995C44.4656 42.2032 44.5233 42.3013 44.5781 42.3963C44.7998 42.7794 44.9841 43.102 45.1227 43.3498C45.1745 43.4392 45.2179 43.5197 45.2551 43.5889C45.3728 43.7966 45.4335 43.9091 45.4335 43.9091Z" fill="#5B84FF"/>
<path d="M50.3972 62.3856C52.3174 61.2629 52.2978 57.6566 50.3534 54.3307C48.409 51.0047 45.2761 49.2185 43.3558 50.3412C41.4356 51.4638 41.4552 55.0701 43.3996 58.396C45.344 61.722 48.4769 63.5082 50.3972 62.3856Z" fill="#1F2024"/>
<path d="M14.6779 41.7631C16.5982 40.6405 16.5786 37.0342 14.6342 33.7082C12.6898 30.3823 9.55686 28.5961 7.6366 29.7187C5.71634 30.8413 5.73592 34.4476 7.68033 37.7736C9.62474 41.0996 12.7577 42.8857 14.6779 41.7631Z" fill="#1F2024"/>
<path d="M38.9279 52.9268C38.1911 52.928 24.2033 44.72 18.1808 41.1659L18.1099 41.124L18.1154 41.042C18.1204 40.9711 18.5262 33.8957 13.1511 28.2936C12.1794 27.2583 10.9537 24.392 10.84 23.5559C10.6288 22.0003 13.8615 17.967 13.9992 17.7962L14.2075 17.9637C14.1744 18.0048 10.9088 22.0774 11.1048 23.5199C11.2027 24.2411 12.3531 27.0529 13.3447 28.1096C18.4851 33.4674 18.4154 40.1555 18.3855 40.9764C26.0989 45.5277 37.6315 52.2284 38.8242 52.6453C39.074 51.8578 40.3715 46.623 40.2042 43.9173C40.1741 43.4334 38.9296 40.1151 38.4527 38.8774L38.7023 38.7813C38.7729 38.9647 40.4325 43.2769 40.4711 43.9009C40.6489 46.7724 39.2325 52.4244 39.0351 52.8474L39.0102 52.9013L38.9454 52.925C38.9405 52.9265 38.9349 52.9268 38.9279 52.9268Z" fill="#4255BA"/>
<path d="M24.6158 44.7414L24.3536 44.6878C24.3565 44.6746 24.6172 43.3733 24.4195 42.2475C24.1037 40.4482 24.493 33.7504 24.6676 33.0848C24.8542 32.3727 25.6739 28.1392 25.6818 28.0967L25.9446 28.1477C25.9106 28.3223 25.115 32.4324 24.9263 33.1525C24.7541 33.8096 24.3709 40.423 24.6829 42.2015C24.8894 43.3783 24.6269 44.686 24.6158 44.7414Z" fill="#4255BA"/>
<path d="M15.4857 16.2685C15.4769 16.2656 15.4655 16.26 15.457 16.2541C14.8204 15.9199 10.6751 13.7508 10.0989 13.8689C9.60351 13.9668 7.62433 14.4654 5.0865 16.1791C4.49884 16.5767 3.87954 17.0375 3.24295 17.5762C3.18231 17.6251 3.1249 17.677 3.06426 17.7289C3.04111 17.7491 3.02119 17.7693 2.99805 17.7895C3.03262 17.6685 3.06426 17.556 3.0959 17.4526C3.2371 16.983 3.75269 16.3148 4.41242 15.6234C5.46089 14.5231 6.87818 13.3735 7.70518 12.9156C7.71104 12.9127 7.71662 12.9071 7.72248 12.9042C7.75118 12.8869 7.76846 12.8667 7.77725 12.8439C7.93574 12.792 8.0913 12.7516 8.241 12.7258C8.31599 12.7114 8.39069 12.703 8.46569 12.6971C8.54713 12.6874 8.62652 12.6845 8.70444 12.6857C8.82221 12.6848 8.93822 12.6909 9.05042 12.7114C9.07063 12.7144 9.09348 12.7202 9.12249 12.7317C9.13391 12.7346 9.14856 12.7404 9.16291 12.746C9.19162 12.7548 9.22619 12.7662 9.26076 12.7835C9.27804 12.7894 9.29826 12.7979 9.31847 12.8067C9.32433 12.8067 9.3299 12.8096 9.33575 12.8152C9.3589 12.8239 9.38174 12.8354 9.40489 12.8468C9.45088 12.867 9.49981 12.8899 9.55459 12.913C9.55752 12.9159 9.55751 12.9159 9.55751 12.9159C9.63808 12.9534 9.72743 12.9994 9.82557 13.0483C9.89177 13.08 9.96091 13.1175 10.033 13.155C10.1396 13.2098 10.2577 13.2701 10.3816 13.3395C10.4422 13.3712 10.5055 13.4057 10.5688 13.4403C10.635 13.4749 10.7012 13.5124 10.7703 13.5499C10.8597 13.5988 10.9546 13.6507 11.0527 13.7054C11.1737 13.7716 11.3006 13.8408 11.4301 13.9158C11.5598 13.9878 11.6952 14.0655 11.8335 14.1434C12.0004 14.2354 12.1733 14.3335 12.352 14.4372C12.5881 14.5726 12.8359 14.7138 13.0923 14.8635C13.1555 14.898 13.2191 14.9355 13.2853 14.9757C13.4813 15.0879 13.6799 15.2062 13.8844 15.3243C13.9535 15.3618 14.0198 15.4019 14.0889 15.4453C14.1985 15.5086 14.3077 15.5751 14.4202 15.6413C14.4231 15.6413 14.4261 15.6413 14.4287 15.6442C14.6475 15.7737 14.8752 15.9064 15.1057 16.0447C15.1116 16.0476 15.1201 16.0505 15.1259 16.0561C15.2437 16.1243 15.365 16.1964 15.4857 16.2685Z" fill="#2E2F35"/>
<path d="M53.3812 60.1188V63.066C53.1106 62.9622 52.8484 62.8471 52.6351 62.7232V59.6897C52.6351 56.0398 50.0568 51.5919 46.8736 49.7568C43.6934 47.9188 41.118 49.388 41.118 53.0379L41.1957 55.0106L40.4495 54.5785L40.3716 52.6087C40.3716 48.4863 43.2812 46.827 46.8733 48.9014C50.4658 50.9755 53.3812 55.9967 53.3812 60.1188Z" fill="#495DCF"/>
<path d="M17.6603 39.4958L17.7379 41.4686L16.9917 41.0365L16.9141 39.0666C16.9141 35.4167 14.3358 30.9688 11.1556 29.1338C7.97528 27.2987 5.39702 28.765 5.39702 32.4149V34.3967C5.21832 34.2698 4.95057 34.0741 4.65088 33.8465V31.9857C4.65088 27.8632 7.56339 26.204 11.1556 28.2781C14.7507 30.3525 17.6603 35.3734 17.6603 39.4958Z" fill="#495DCF"/>
<path d="M44.0261 43.1164C44.0261 43.1164 38.1228 41.027 37.4159 40.6189C36.7392 40.2284 36.9627 40.3942 18.302 26.9102L11.1558 20.6571C11.1558 20.6571 13.8477 16.2778 14.7207 16.6088C15.4739 16.8941 30.3183 25.9748 34.5087 29.0476C38.5423 32.8141 44.0261 43.1164 44.0261 43.1164Z" fill="#2E2F35"/>
<path d="M43.1027 42.3287C40.8332 41.5152 38.0557 40.4892 37.6321 40.2449L37.6052 40.2294C36.985 39.8717 36.9472 39.85 18.5716 26.5722L11.7168 20.574C12.8921 18.7129 14.165 17.1432 14.6006 17.0281C15.5952 17.5083 29.9504 26.247 34.2324 29.3811C37.4359 32.3853 41.6271 39.6707 43.1027 42.3287Z" fill="#3D3C51"/>
<path d="M26.9655 24.3231L26.1651 32.2519L24.4414 31.0845L26.183 23.8313L26.9655 24.3231Z" fill="#2E2F35"/>
<path d="M35.4237 30.1427L39.6422 41.5225L37.8739 40.8829L34.7446 29.5773L35.4237 30.1427Z" fill="#2E2F35"/>
<path d="M64.0399 52.8723C63.0486 52.1534 61.8891 51.7043 60.6721 51.5683C58.552 51.3319 55.3223 50.988 54.8758 51.036C54.2038 51.1081 54.4917 53.2716 54.8758 54.1944C55.2599 55.1172 58.7102 55.8727 59.9345 55.7526C60.9071 55.6574 63.6099 54.8714 64.8502 54.2383C65.1391 54.0909 65.1695 53.6911 64.9067 53.5006L64.0399 52.8723Z" fill="#B7C8D9"/>
<path d="M64.9595 54.156C65.1394 53.9752 65.13 53.6626 64.9065 53.5006L64.04 52.8723C63.0486 52.1534 61.8891 51.7043 60.6722 51.5683C58.5521 51.3319 55.3223 50.988 54.8759 51.036C54.4827 51.0782 54.4192 51.8364 54.5103 52.6432C55.1952 53.0726 55.5666 53.2739 56.0793 53.4848C56.9983 53.863 57.3372 53.7892 58.2249 53.653C60.3221 53.3307 60.3602 53.2013 61.5015 53.2689C62.2418 53.3123 64.1109 53.8578 64.9595 54.156Z" fill="#9BACBF"/>
<path d="M75.9609 38.9406V39.5523C75.9609 39.5523 76.0763 40.6491 75.4561 43.0443C75.1784 44.1165 75.1567 45.2421 75.3958 46.3233C75.4567 46.5984 75.5141 46.851 75.5634 47.0619C75.6346 47.368 75.9887 47.5072 76.25 47.332C77.505 46.4906 78.9109 44.9119 79.0993 44.3576C79.3161 43.7199 79.0137 43.093 79.0137 43.093C79.0137 43.093 77.7579 40.3846 75.9609 38.9406Z" fill="#B7C8D9"/>
<path d="M75.9609 38.9406V39.5523C75.9609 39.5523 76.0763 40.6489 75.4561 43.0443C75.1784 44.1165 75.1567 45.2421 75.3958 46.3233C75.4564 46.5984 75.5141 46.851 75.5634 47.0619C75.5809 47.1381 75.6164 47.2034 75.6633 47.2567C75.7605 45.4908 76.7182 43.9636 76.9367 42.556C77.051 41.8204 76.5799 40.3248 76.1041 39.064C76.0561 39.023 76.0095 38.9796 75.9609 38.9406Z" fill="#9BACBF"/>
<path d="M78.2455 52.7144C78.641 51.9243 79.1042 49.3577 78.4969 49.9076C78.4374 49.9615 77.3719 51.96 77.2073 52.1311C75.3233 54.0869 65.2482 60.0965 63.5892 60.3024C61.8903 60.5134 61.4767 59.6869 61.2125 59.9749C60.9485 60.2629 61.051 62.0461 60.6482 62.499C60.2454 62.9519 62.9048 62.0068 65.0856 61.0105C65.4403 60.8482 74.3249 56.0183 78.2455 52.7144Z" fill="#2E2F35"/>
<path d="M36.9348 29.4595L46.113 42.6099C46.113 42.6099 48.6915 43.0364 51.8876 42.1259C52.3273 42.0005 49.1017 43.3261 49.1017 43.3261L45.7529 43.9094C45.7529 43.9094 38.2045 31.1812 36.1025 29.4598C36.2106 29.1065 36.9348 29.4595 36.9348 29.4595Z" fill="#2E2F35"/>
<path d="M30.938 2.47745C27.4058 0.429127 24.9682 -0.0850028 23.7999 0.0110857C22.6316 0.107174 18.9425 1.69762 15.4857 3.73803C12.0288 5.77845 8.3977 8.30839 7.62314 9.39437C6.84858 10.4803 7.2593 11.1011 8.12907 11.82C8.99885 12.5389 11.3082 13.8528 11.3082 13.8528C11.3082 13.8528 12.6774 11.4456 14.7843 9.8625C16.8912 8.27939 23.2289 4.67841 24.4772 4.19826C25.7255 3.71811 27.8942 2.8539 28.8023 2.70976C29.7105 2.56563 30.938 2.47745 30.938 2.47745Z" fill="#2E2F35"/>
<path d="M65.5587 30.6268C65.5587 30.6268 65.6443 33.7992 64.7771 34.5662C61.2638 37.6741 56.5988 40.7193 51.0222 42.3997C50.5116 42.5535 47.0017 42.8974 47.0017 42.8974L38.2158 29.5983C38.2158 29.5983 40.3145 28.7469 40.7868 28.5413C44.8679 26.7622 52.1105 22.8633 54.6767 20.5223C55.1179 20.1198 55.504 19.4627 55.504 19.4627C55.504 19.4627 61.2778 25.2755 65.5587 30.6268Z" fill="#3D3C51"/>
<path d="M49.9953 25.4097L49.1346 25.9066C48.6527 26.1849 48.1781 26.496 47.7135 26.8388C47.5621 26.9507 47.478 27.178 47.5184 27.3675L47.625 27.8685C47.6655 28.058 47.8172 28.1491 47.9781 28.0806C48.4711 27.8705 48.9597 27.6256 49.4416 27.3473L50.3023 26.8505C50.7842 26.5722 51.2588 26.2611 51.7234 25.9183C51.8749 25.8064 51.959 25.5791 51.9185 25.3895L51.8119 24.8886C51.7715 24.699 51.6197 24.6079 51.4589 24.6765C50.9659 24.8868 50.4772 25.1317 49.9953 25.4097Z" fill="#585775"/>
<path d="M50.1848 26.0484C50.1751 25.8026 50.1221 25.1241 50.1221 25.1241L49.2661 25.142C49.2661 25.142 49.3613 26.1043 49.3719 26.1392C49.4202 26.2956 49.6288 26.469 49.7187 26.4597C49.9291 26.4377 50.1954 26.3138 50.1848 26.0484Z" fill="#585775"/>
<path d="M50.0503 24.917C50.1813 25.0971 50.1279 25.3356 49.9314 25.4498C49.7345 25.5641 49.4691 25.5108 49.3379 25.3306C49.2069 25.1504 49.2602 24.912 49.4571 24.7977C49.6536 24.6835 49.9194 24.7371 50.0503 24.917Z" fill="#626082"/>
<path d="M45.0342 12.0526L45.1988 12.156C45.144 12.1214 45.0893 12.0871 45.0342 12.0526Z" fill="#1F2024"/>
<path d="M54.2038 18.1648L61.2466 29.048C63.1792 29.7743 65.6309 30.6423 65.6309 30.6423C65.6309 30.6423 57.9187 21.6266 53.885 17.8601C53.7734 17.7781 53.6524 17.6911 53.5259 17.6009L54.2038 18.1648Z" fill="#626082"/>
<path d="M53.5251 17.6001C51.821 16.3844 48.8285 14.445 45.6922 12.467L48.0947 20.7664L46.371 19.5987L44.9097 11.9743C39.7854 8.7559 34.5372 5.58791 34.0972 5.42122C33.2242 5.09018 32.7607 8.18288 32.7607 8.18288L39.2654 14.8065C39.2654 14.8065 58.314 27.7366 59.0209 28.145C59.1 28.1907 59.247 28.2584 59.4407 28.3407L53.5251 17.6001Z" fill="#626082"/>
<path d="M38.2147 29.5983C38.2147 29.5983 40.3134 28.747 40.7856 28.5414C44.8667 26.7626 52.1094 22.8634 54.6756 20.5224C55.1168 20.1198 55.5029 19.4628 55.5029 19.4628C55.5029 19.4628 55.8319 19.7941 56.3867 20.3665L57.0714 19.9713L48.8992 14.0777L30.6987 24.5856L38.7291 30.377L38.2147 29.5983Z" fill="#2E2F35"/>
<path d="M28.0168 21.9769L29.7555 23.1279C30.7457 23.7832 32.0212 23.8222 32.8013 23.1914L47.1668 14.8977C48.016 14.5877 48.0453 13.7305 47.4691 13.343L44.9418 11.6432L46.7253 12.2901L50.236 14.7447L31.1373 24.9017L27.0645 22.1207L28.0168 21.9769Z" fill="#2E2F35"/>
<path d="M71.1723 49.5898C71.1723 50.1666 70.7048 50.6344 70.1277 50.6344C69.5509 50.6344 69.083 50.1669 69.083 49.5898C69.083 49.013 69.5506 48.5451 70.1277 48.5451C70.7048 48.5454 71.1723 49.013 71.1723 49.5898Z" fill="#495DCF"/>
<path d="M6.49501 20.2882L5.32116 20.5545C5.32116 20.5545 3.42987 19.2641 3.04581 18.916C2.66175 18.568 2.8384 18.0776 2.8838 17.7217C2.92921 17.3657 3.91792 16.169 3.91792 16.169C3.91792 16.169 3.29863 17.1176 3.50281 17.7099C3.707 18.3017 6.49501 20.2882 6.49501 20.2882Z" fill="#FF4566"/>
<path d="M16.1045 38.5991C16.1045 41.7351 13.8889 42.9981 11.1562 41.4205C8.4233 39.8427 6.20801 36.0214 6.20801 32.8853C6.20801 29.7496 8.4233 28.4864 11.1562 30.0642C13.8889 31.642 16.1045 35.4633 16.1045 38.5991Z" fill="#393843"/>
<path d="M15.7956 38.5419C15.7956 41.5585 13.6647 42.7733 11.0358 41.2558C8.40681 39.7381 6.27588 36.0621 6.27588 33.0455C6.27588 30.029 8.4071 28.8138 11.0358 30.3316C13.6647 31.8497 15.7956 35.5254 15.7956 38.5419Z" fill="#2D2C37"/>
<path d="M15.1237 38.1685C15.1237 40.7374 13.3089 41.7721 11.0702 40.4796C8.83143 39.1868 7.0166 36.0566 7.0166 33.4879C7.0166 30.919 8.83143 29.8843 11.0702 31.1768C13.3089 32.4694 15.1237 35.5998 15.1237 38.1685Z" fill="#504F58"/>
<path d="M14.9965 37.9008C14.9965 40.3356 13.2763 41.3164 11.1548 40.0912C9.03291 38.8661 7.31299 35.8994 7.31299 33.4646C7.31299 31.0299 9.03291 30.0491 11.1548 31.2742C13.2763 32.4994 14.9965 35.4661 14.9965 37.9008Z" fill="#BABABE"/>
<path d="M7.58935 34.2C7.75048 35.5977 8.45093 37.1928 9.55594 38.4622C10.661 39.7283 11.9107 40.3664 12.9137 40.304C13.3579 40.2744 13.7525 40.11 14.0615 39.7974C14.1635 39.7019 14.2555 39.5871 14.3346 39.4556C14.351 39.4292 14.3674 39.4061 14.3806 39.38C14.4365 39.2845 14.4857 39.1861 14.5253 39.0806C14.5812 38.9423 14.6272 38.7979 14.6635 38.6432C14.7259 38.3702 14.7555 38.0743 14.7555 37.7649C14.7555 37.6234 14.7491 37.4787 14.7356 37.334C14.7324 37.2584 14.7224 37.1861 14.7128 37.1137C14.7063 37.0642 14.6996 37.015 14.6928 36.9658C14.6864 36.9198 14.6797 36.8738 14.67 36.8278C14.6471 36.6898 14.6208 36.5483 14.5844 36.4068C14.568 36.3377 14.5516 36.2721 14.5317 36.2029C14.5185 36.1437 14.5021 36.0878 14.4825 36.0318C14.4596 35.9495 14.433 35.8643 14.4034 35.7819C14.3838 35.7196 14.3638 35.6568 14.341 35.5977C14.2455 35.3314 14.1339 35.068 14.0056 34.8049C13.9792 34.749 13.9528 34.6966 13.9265 34.6438C13.8345 34.4663 13.739 34.292 13.6338 34.1177C13.6074 34.0749 13.5811 34.0321 13.5547 33.9894C13.5055 33.9106 13.4528 33.8315 13.4036 33.7559C13.2061 33.46 12.989 33.1738 12.7556 32.904C12.6372 32.7692 12.5188 32.6409 12.397 32.5226C12.341 32.4634 12.2818 32.4074 12.2259 32.3547C12.2095 32.3383 12.1896 32.3219 12.1732 32.3055C12.1272 32.2627 12.0777 32.2199 12.0317 32.1804C11.4595 31.6838 10.8739 31.3484 10.3214 31.1805C9.34794 30.8879 8.47641 31.1146 7.97663 31.9106C7.96023 31.9334 7.94383 31.9601 7.93065 31.9829C7.83514 32.1441 7.76279 32.3216 7.70361 32.5091C7.55303 33.003 7.5167 33.5816 7.58935 34.2Z" fill="url(#paint0_linear_1_2530)"/>
<path d="M12.338 33.0326L12.3741 34.1112C12.7786 34.0784 13.1797 34.0389 13.5547 33.9894C13.5054 33.9106 13.4527 33.8315 13.4035 33.7559C13.206 33.46 12.989 33.1738 12.7555 32.904C12.6371 32.7692 12.5188 32.6409 12.3969 32.5226C12.341 32.4634 12.2818 32.4074 12.2258 32.3547C12.2094 32.3383 12.1895 32.3219 12.1731 32.3055C12.1271 32.2627 12.0776 32.2199 12.0316 32.1804C11.4595 31.6838 10.8738 31.3484 10.3213 31.1805C9.34787 30.8879 8.47634 31.1146 7.97656 31.9106C10.7693 30.9541 12.338 33.0326 12.338 33.0326Z" fill="#393843"/>
<path d="M7.81982 34.1837C7.81982 34.1837 8.75053 35.417 9.7076 35.7425C10.6647 36.068 12.5161 38.3079 12.5161 38.3079L12.3746 34.1114C10.1877 34.2757 7.81982 34.1837 7.81982 34.1837Z" fill="#393843"/>
<path d="M9.73708 33.4601C9.87535 34.6606 10.4771 36.0319 11.4274 37.1205C11.9503 37.7222 12.516 38.1596 13.0586 38.4162V38.4195C13.4992 38.6301 13.9236 38.7253 14.3083 38.7025C14.3379 38.7025 14.3675 38.6992 14.3971 38.6925C14.489 38.6861 14.5778 38.6697 14.6633 38.6433C14.7257 38.3703 14.7553 38.0744 14.7553 37.765C14.7553 37.6235 14.7489 37.4788 14.7354 37.3341C14.7322 37.2585 14.7222 37.1861 14.7126 37.1138C14.7061 37.0643 14.6994 37.015 14.6926 36.9658C14.6862 36.9198 14.6795 36.8738 14.6698 36.8278C14.6469 36.6899 14.6206 36.5484 14.5843 36.4069C14.5678 36.3377 14.5514 36.2721 14.5315 36.203C14.5183 36.1438 14.5019 36.0879 14.4823 36.0319C14.4595 35.9496 14.4328 35.8643 14.4032 35.782C14.3836 35.7196 14.3637 35.6569 14.3408 35.5977C14.2453 35.3314 14.1337 35.0681 14.0054 34.805C13.979 34.7491 13.9527 34.6966 13.9263 34.6439C13.8343 34.4664 13.7388 34.292 13.6336 34.1177C13.5613 33.9962 13.4822 33.8743 13.4034 33.7559C13.2059 33.4601 12.9888 33.1739 12.7554 32.904C12.637 32.7693 12.5187 32.641 12.3968 32.5226C12.3408 32.4634 12.2817 32.4075 12.2257 32.3548C12.2093 32.3384 12.1894 32.3219 12.173 32.3055C12.127 32.2628 12.0775 32.22 12.0315 32.1804C11.4593 31.6839 10.8737 31.3485 10.3212 31.1806C10.2125 31.2858 10.1141 31.4109 10.0286 31.5588C9.94948 31.6968 9.88385 31.845 9.83463 32.0094C9.7655 32.2428 9.72273 32.4995 9.70954 32.7725C9.70105 32.9931 9.71071 33.2234 9.73708 33.4601Z" fill="url(#paint1_linear_1_2530)"/>
<path d="M12.5006 35.4753L12.4103 36.3181V36.3214L12.5006 35.4753L13.1571 35.0948L13.634 34.1181C13.5616 33.9965 13.4825 33.8746 13.4037 33.7563C13.2063 33.4604 12.9892 33.1742 12.7557 32.9043C12.6374 32.7696 12.519 32.6413 12.3971 32.5229C12.3412 32.4638 12.282 32.4078 12.2261 32.3551C12.2097 32.3387 12.1897 32.3223 12.1733 32.3058C12.045 32.3814 11.9398 32.4473 11.9331 32.4538L12.7545 33.3986L12.5006 35.4753Z" fill="url(#paint2_linear_1_2530)"/>
<path d="M12.5004 35.4752L12.4102 36.3181V36.3213L13.0579 38.4162L13.3473 39.3601C13.446 39.5672 13.1534 40.0374 13.2881 40.0113C13.5052 39.9686 14.0445 39.6495 14.334 39.4556C14.3504 39.4292 14.3668 39.4061 14.38 39.38C14.4359 39.2845 14.4851 39.1861 14.5247 39.0806C14.5182 39.0314 14.5018 38.9819 14.4755 38.9294L14.3967 38.6927L13.2126 35.2066L13.1566 35.0947L12.5004 35.4752Z" fill="url(#paint3_linear_1_2530)"/>
<path d="M8.54178 32.3442C8.59714 32.3149 8.67214 32.3216 8.753 32.3679L11.8964 33.6988L11.9845 33.7495L11.9878 35.4369L11.2894 35.0353L8.68444 34.014C8.52186 33.9203 8.38885 33.6973 8.37948 33.5055C8.36161 33.1369 7.79387 33.0564 7.86389 32.7379C7.87707 32.6773 8.50018 32.3662 8.54178 32.3442Z" fill="url(#paint4_linear_1_2530)"/>
<path d="M11.8489 36.8112L13.2144 34.0042C13.2815 33.8879 13.2405 33.6746 13.1154 33.505C12.9859 33.3289 12.8488 33.1578 12.7047 32.9923C12.5605 32.8271 12.4138 32.6727 12.2649 32.5297C12.122 32.3921 11.9655 32.3792 11.8984 32.4955L10.5327 35.3025L11.8489 36.8112Z" fill="#DFDFE3"/>
<path d="M11.3297 35.8169L11.3265 34.1292L11.2383 34.0785L8.09492 32.7476C7.95284 32.6659 7.8292 32.7075 7.79845 32.8487C7.72843 33.1674 7.70353 33.5166 7.7214 33.8855C7.73048 34.0771 7.86348 34.3003 8.02637 34.3937L10.6313 35.415L11.3297 35.8169Z" fill="#DFDFE3"/>
<path d="M13.809 39.7389C13.9007 39.6671 13.9039 39.4881 13.8184 39.3086L12.5546 35.5869L12.501 35.475L11.3301 35.8166L11.7516 36.6983L12.6905 39.7401C12.7887 39.9457 12.9706 40.0834 13.1057 40.057C13.3649 40.0064 13.6022 39.9006 13.809 39.7389Z" fill="#DFDFE3"/>
<path d="M13.1066 39.6415C13.0914 39.6248 13.0726 39.5996 13.0565 39.5656L12.0936 36.4741L10.8928 35.0975L8.22898 34.0422C8.19002 34.02 8.12966 33.9236 8.12703 33.8662C8.11677 33.6476 8.12234 33.4399 8.1446 33.2445L11.3879 34.6328L12.1085 32.9454C12.2075 33.0459 12.3048 33.1511 12.3991 33.2595C12.5342 33.4142 12.6651 33.5779 12.7893 33.7461C12.8175 33.7839 12.8318 33.8222 12.838 33.8463L12.0962 35.57C12.0962 35.57 13.4543 39.4897 13.4555 39.492C13.3492 39.5585 13.2323 39.6086 13.1066 39.6415Z" fill="#4B4A4B"/>
<path d="M51.8237 59.2218C51.8237 62.3579 49.6084 63.6208 46.8755 62.0432C44.1425 60.4654 41.9272 56.6441 41.9272 53.508C41.9272 50.3723 44.1425 49.1091 46.8755 50.6869C49.6084 52.265 51.8237 56.086 51.8237 59.2218Z" fill="#393843"/>
<path d="M51.5158 59.165C51.5158 62.1815 49.3849 63.3964 46.756 61.8789C44.127 60.3611 41.9961 56.6851 41.9961 53.6686C41.9961 50.6521 44.1273 49.4369 46.756 50.9547C49.3846 52.4725 51.5158 56.1484 51.5158 59.165Z" fill="#2D2C37"/>
<path d="M50.8439 58.7914C50.8439 61.3603 49.0291 62.395 46.7904 61.1025C44.5517 59.8097 42.7368 56.6795 42.7368 54.1108C42.7368 51.5419 44.5517 50.5072 46.7904 51.7997C49.0288 53.0922 50.8439 56.2225 50.8439 58.7914Z" fill="#504F58"/>
<path d="M50.7167 58.524C50.7167 60.9588 48.9965 61.9396 46.875 60.7144C44.7531 59.4893 43.0332 56.5226 43.0332 54.0878C43.0332 51.6531 44.7531 50.6723 46.875 51.8974C48.9968 53.1223 50.7167 56.0893 50.7167 58.524Z" fill="#BABABE"/>
<path d="M43.3085 54.8232C43.4696 56.2209 44.17 57.816 45.275 59.0854C46.3801 60.3515 47.6298 60.9896 48.6329 60.9272C49.077 60.8976 49.4716 60.7333 49.7806 60.4207C49.8826 60.3252 49.9746 60.2103 50.0537 60.0788C50.0701 60.0524 50.0865 60.0293 50.0997 60.0032C50.1556 59.908 50.2048 59.8093 50.2444 59.7038C50.3003 59.5655 50.3463 59.4211 50.3826 59.2664C50.445 58.9934 50.4746 58.6975 50.4746 58.3885C50.4746 58.247 50.4682 58.1022 50.4547 57.9575C50.4515 57.8819 50.4415 57.8096 50.4319 57.7372C50.4254 57.6877 50.4187 57.6385 50.4119 57.5893C50.4055 57.5433 50.3988 57.4973 50.3891 57.4513C50.3662 57.3133 50.3399 57.1718 50.3036 57.0303C50.2872 56.9612 50.2707 56.8956 50.2508 56.8264C50.2376 56.7673 50.2212 56.7113 50.2016 56.6554C50.1788 56.573 50.1521 56.4878 50.1225 56.4055C50.1029 56.3431 50.083 56.2807 50.0601 56.2215C49.9646 55.9552 49.853 55.6918 49.7247 55.4288C49.6983 55.3728 49.6719 55.3204 49.6456 55.2676C49.5536 55.0901 49.4581 54.9158 49.3529 54.7415C49.3266 54.6987 49.3002 54.656 49.2738 54.6132C49.2246 54.5344 49.1719 54.4553 49.1227 54.3797C48.9252 54.0838 48.7081 53.7976 48.4747 53.5278C48.3563 53.393 48.2379 53.2647 48.1161 53.1464C48.0601 53.0872 48.001 53.0312 47.945 52.9785C47.9286 52.9621 47.9087 52.9457 47.8923 52.9293C47.8463 52.8865 47.7968 52.8437 47.7508 52.8042C47.1787 52.3076 46.593 51.9722 46.0405 51.8043C45.0671 51.5117 44.1955 51.7384 43.6958 52.5344C43.6793 52.5572 43.6629 52.5839 43.6498 52.6067C43.5543 52.7679 43.4819 52.9454 43.4227 53.1329C43.2721 53.6262 43.2361 54.2048 43.3085 54.8232Z" fill="url(#paint5_linear_1_2530)"/>
<path d="M48.0579 53.6555L48.0943 54.7341C48.4988 54.7013 48.8999 54.6618 49.2749 54.6123C49.2256 54.5335 49.1729 54.4544 49.1237 54.3788C48.9263 54.0829 48.7092 53.7967 48.4757 53.5269C48.3573 53.3921 48.239 53.2638 48.1171 53.1454C48.0612 53.0863 48.002 53.0303 47.946 52.9776C47.9296 52.9612 47.9097 52.9448 47.8933 52.9284C47.8473 52.8856 47.7978 52.8428 47.7518 52.8033C47.1797 52.3067 46.5941 51.9713 46.0416 51.8034C45.0681 51.5108 44.1966 51.7375 43.6968 52.5335C46.4892 51.577 48.0579 53.6555 48.0579 53.6555Z" fill="#393843"/>
<path d="M43.5386 54.8067C43.5386 54.8067 44.4693 56.0401 45.4264 56.3655C46.3834 56.691 48.2349 58.9309 48.2349 58.9309L48.0937 54.7344C45.9065 54.8987 43.5386 54.8067 43.5386 54.8067Z" fill="#393843"/>
<path d="M45.4563 54.0831C45.5946 55.2837 46.1963 56.655 47.1466 57.7436C47.6695 58.3453 48.2352 58.7827 48.7778 59.0393V59.0425C49.2184 59.2532 49.6428 59.3484 50.0275 59.3255C50.0571 59.3255 50.0867 59.3223 50.1163 59.3156C50.2083 59.3091 50.297 59.2927 50.3826 59.2664C50.445 58.9933 50.4745 58.6974 50.4745 58.3884C50.4745 58.2469 50.4681 58.1022 50.4546 57.9574C50.4514 57.8819 50.4414 57.8095 50.4318 57.7371C50.4253 57.6876 50.4186 57.6384 50.4118 57.5892C50.4054 57.5432 50.3987 57.4972 50.389 57.4512C50.3661 57.3132 50.3398 57.1717 50.3035 57.0302C50.2871 56.9611 50.2706 56.8955 50.2507 56.8264C50.2375 56.7672 50.2211 56.7112 50.2015 56.6553C50.1787 56.5729 50.152 56.4877 50.1224 56.4054C50.1028 56.343 50.0829 56.2806 50.06 56.2214C49.9645 55.9551 49.8529 55.6917 49.7246 55.4287C49.6982 55.3727 49.6719 55.3203 49.6455 55.2675C49.5535 55.09 49.458 54.9157 49.3528 54.7414C49.2805 54.6198 49.2014 54.498 49.1226 54.3796C48.9251 54.0837 48.708 53.7975 48.4746 53.5277C48.3562 53.3929 48.2379 53.2646 48.116 53.1463C48.06 53.0871 48.0009 53.0311 47.9449 52.9784C47.9285 52.962 47.9086 52.9456 47.8922 52.9292C47.8462 52.8864 47.7967 52.8437 47.7507 52.8041C47.1785 52.3076 46.5929 51.9721 46.0404 51.8043C45.932 51.9094 45.8333 52.0345 45.7478 52.1825C45.669 52.3204 45.6031 52.4687 45.5538 52.633C45.4847 52.8665 45.4419 53.1231 45.4287 53.3959C45.4202 53.6162 45.4302 53.8461 45.4563 54.0831Z" fill="url(#paint6_linear_1_2530)"/>
<path d="M48.2203 56.0984L48.13 56.9412V56.9444L48.2203 56.0984L48.8768 55.7178L49.3537 54.7411C49.2813 54.6195 49.2022 54.4977 49.1234 54.3793C48.926 54.0834 48.7089 53.7972 48.4754 53.5274C48.3571 53.3926 48.2387 53.2643 48.1169 53.146C48.0609 53.0868 48.0017 53.0308 47.9458 52.9781C47.9294 52.9617 47.9094 52.9453 47.893 52.9289C47.7647 53.0045 47.6596 53.0704 47.6528 53.0768L48.4743 54.0216L48.2203 56.0984Z" fill="url(#paint7_linear_1_2530)"/>
<path d="M48.2196 56.0984L48.1294 56.9412V56.9444L48.7771 59.0393L49.0666 59.9832C49.1653 60.1903 48.8726 60.6605 49.0074 60.6345C49.2244 60.5917 49.7638 60.2727 50.0532 60.0787C50.0696 60.0524 50.086 60.0292 50.0992 60.0031C50.1552 59.9079 50.2044 59.8092 50.2439 59.7037C50.2372 59.6545 50.2211 59.605 50.1944 59.5526L50.1156 59.3159L48.9315 55.8297L48.8755 55.7178L48.2196 56.0984Z" fill="url(#paint8_linear_1_2530)"/>
<path d="M44.2613 52.9673C44.3167 52.938 44.3917 52.9448 44.4725 52.9911L47.6159 54.322L47.7038 54.3726L47.707 56.06L47.0086 55.6584L44.4037 54.6372C44.2411 54.5434 44.1081 54.3205 44.0987 54.1286C44.0809 53.7601 43.5131 53.6795 43.5831 53.3611C43.5966 53.3004 44.2197 52.989 44.2613 52.9673Z" fill="url(#paint9_linear_1_2530)"/>
<path d="M47.5692 57.4343L48.9346 54.6272C49.0017 54.5109 48.9607 54.2976 48.8356 54.128C48.7061 53.9519 48.569 53.7809 48.4249 53.6153C48.2807 53.4501 48.134 53.2957 47.9852 53.1531C47.8422 53.0154 47.6858 53.0025 47.6187 53.1188L46.2529 55.9259L47.5692 57.4343Z" fill="#DFDFE3"/>
<path d="M47.049 56.4397L47.0457 54.752L46.9575 54.7013L43.8142 53.3705C43.6721 53.2887 43.5485 53.3303 43.5177 53.4715C43.4474 53.7903 43.4228 54.1395 43.4407 54.5083C43.4497 54.6999 43.5827 54.9231 43.7456 55.0165L46.3505 56.0378L47.049 56.4397Z" fill="#DFDFE3"/>
<path d="M49.5283 60.3621C49.62 60.2906 49.6232 60.1113 49.5376 59.932L48.2739 56.2104L48.2202 56.0984L47.0493 56.44L47.4709 57.3218L48.4098 60.3636C48.5079 60.5692 48.6898 60.7069 48.8249 60.6805C49.0844 60.6296 49.3214 60.5238 49.5283 60.3621Z" fill="#DFDFE3"/>
<path d="M48.8253 60.2641C48.8101 60.2474 48.7914 60.2222 48.7753 60.1882L47.8123 57.0967L46.6115 55.7201L43.9477 54.6649C43.9088 54.6426 43.8484 54.5462 43.8458 54.4888C43.8355 54.2703 43.8411 54.0626 43.8634 53.8672L47.1066 55.2555L47.8273 53.5681C47.9263 53.6685 48.0236 53.7737 48.1182 53.8821C48.2532 54.0368 48.3842 54.2005 48.5081 54.3687C48.5362 54.4065 48.5506 54.4449 48.5567 54.4689L47.815 56.1926C47.815 56.1926 49.1731 60.1123 49.1743 60.1147C49.0682 60.1815 48.9513 60.2316 48.8253 60.2641Z" fill="#4B4A4B"/>
<path d="M79.1292 43.4524C79.0809 43.2362 79.0135 43.0927 79.0135 43.0927C79.0135 43.0927 77.7579 40.3843 75.9609 38.9406C75.9609 38.9406 76.3696 40.1655 76.6711 40.6225C76.9672 41.0716 78.2055 41.9683 79.1292 43.4524Z" fill="#F7FBFF"/>
<path d="M75.7904 41.5224C75.7142 41.9548 75.6073 42.4601 75.4561 43.0443C75.1784 44.1165 75.1567 45.242 75.3958 46.3233C75.4564 46.5984 75.5141 46.8509 75.5634 47.0619C75.634 47.3651 75.9817 47.5033 76.2421 47.3361C76.9959 46.5832 77.6011 45.7351 77.6568 45.2745C77.7529 44.4821 77.0565 43.6179 75.7904 41.5224Z" fill="#565E66"/>
<path d="M65.0076 54.0994C65.012 54.0942 65.0158 54.088 65.0199 54.0825C65.1345 53.8991 65.1017 53.6421 64.9065 53.5006L64.04 52.8723C63.0487 52.1534 61.8892 51.7043 60.6722 51.5683C59.5646 51.4447 58.1564 51.2924 56.998 51.1813C57.4006 51.5803 59.4752 53.6325 60.265 54.3247C61.1412 55.0928 64.1226 54.6057 64.85 54.238C64.8904 54.2178 64.9259 54.1885 64.9599 54.1557C64.9772 54.1381 64.9936 54.1194 65.0076 54.0994Z" fill="#565E66"/>
<path d="M61.4648 53.1637V52.8485C61.4648 52.5456 61.2281 52.2951 60.9255 52.2784L57.3594 52.0807C57.0234 52.062 56.7407 52.3294 56.7407 52.666V53.1213C56.7407 53.7031 57.2422 54.1583 57.8214 54.1021L60.8831 53.8053C61.2129 53.7731 61.4648 53.4954 61.4648 53.1637Z" fill="white"/>
<path d="M75.7629 44.867L75.7087 44.3107C75.6607 43.8162 75.7102 43.3173 75.8549 42.8421L76.3834 40.9913C76.4563 40.7516 76.8023 40.6456 76.8741 40.8858L76.8764 40.8934C77.1986 41.9744 77.2373 43.0203 76.8111 44.0646L76.4428 44.9664C76.3031 45.3085 75.7986 45.2347 75.7629 44.867Z" fill="white"/>
<path d="M59.2225 55.327C58.4673 55.327 55.5958 54.5287 55.3412 54.108C55.0743 53.6662 55.0034 52.766 54.9961 52.6649L55.5706 52.6236C55.5934 52.9415 55.6807 53.5241 55.8193 53.7834C56.1333 54.0058 58.4116 54.7507 59.2155 54.7507C59.2193 54.7507 59.2228 54.7507 59.2269 54.7507C60.4514 54.7396 63.3683 53.7688 63.748 53.5291L64.0559 54.016C63.5605 54.3289 60.5387 55.315 59.2322 55.327C59.2289 55.327 59.2257 55.327 59.2225 55.327Z" fill="white"/>
<path d="M76.3164 46.9616L75.937 46.5281C76.8121 45.7635 78.1166 44.2961 78.3442 43.8209C78.4663 43.5484 78.0463 42.0696 77.5775 40.8597L78.1148 40.6514C78.4356 41.4793 79.1507 43.4696 78.8639 44.0693C78.5616 44.7009 77.1062 46.2717 76.3164 46.9616Z" fill="white"/>
<path d="M2.02581 21.398C2.02581 21.398 0.850486 22.9606 0.814453 24.6656C1.35055 25.5597 1.79584 26.1895 2.77693 26.2885C1.64263 25.0373 1.62506 24.0741 1.7689 23.3177C1.91273 22.5616 2.02581 21.398 2.02581 21.398Z" fill="#5B73FF"/>
<path d="M41.6738 41.9249C41.6738 41.9249 42.0848 41.8655 42.2541 41.7263C42.4235 41.5871 42.2969 41.0759 42.0078 40.8929C41.7186 40.7098 40.908 41.1164 40.7742 41.0472C40.64 40.9781 39.8174 41.3258 39.8174 41.3258L40.0843 41.9141L41.6738 41.9249Z" fill="#5B73FF"/>
<path d="M40.0421 39.7908C40.8055 39.5998 41.5839 39.8493 41.6867 40.7159C41.8115 41.7673 41.349 41.9346 41.0701 42.0667C40.7912 42.1988 39.7486 42.6541 38.4271 42.6687C37.1056 42.6834 36.9444 41.9774 36.9438 41.5072C36.9438 41.4401 36.9456 41.4445 36.9491 41.3824C36.9863 40.7118 37.2283 40.5123 37.6783 40.3781C38.6491 40.0887 40.0421 39.7908 40.0421 39.7908Z" fill="#5B73FF"/>
<path d="M41.3871 40.2272C40.9486 40.091 40.0407 40.268 39.1487 40.4616C38.2564 40.6552 37.5861 40.6403 37.5158 41.5071C37.4452 42.374 37.7261 42.5849 38.0967 42.6417C38.467 42.6986 39.1701 42.6936 40.2285 42.3857C41.287 42.0778 41.4361 41.9044 41.601 41.6123C41.7662 41.3202 41.8242 40.3635 41.3871 40.2272Z" fill="#5B84FF"/>
<path d="M47.002 42.8978C47.002 42.8978 50.5118 42.5539 51.0224 42.4001C56.5988 40.7197 61.264 37.6745 64.7774 34.5665C65.6442 33.7996 65.5587 30.6272 65.5587 30.6272C65.3217 30.331 65.0794 30.0331 64.8345 29.7352L62.1194 29.0461L54.0788 34.1309L52.7968 37.4275L45.8633 41.175L47.002 42.8978Z" fill="#4A4963"/>
<path d="M57.0166 41.0373C56.2822 41.4319 55.5361 41.8007 54.7899 42.1405C53.1075 42.9069 50.6822 43.1286 49.1524 43.5895C48.6136 43.7509 45.4333 43.9091 45.4333 43.9091C45.4333 43.9091 45.4333 43.9061 45.4304 43.9032C45.4161 43.8801 45.3584 43.7708 45.2547 43.5892C45.2172 43.52 45.1741 43.4395 45.1222 43.3501C44.984 43.1023 44.7997 42.7797 44.5776 42.3966C44.5229 42.3013 44.4651 42.2035 44.4048 42.0998C44.4019 42.0939 44.3989 42.0884 44.3934 42.0825C44.3503 42.0075 44.3069 41.9299 44.261 41.852C44.2495 41.8288 44.2352 41.803 44.2205 41.7799C44.1054 41.581 43.9815 41.3736 43.8517 41.1518C43.581 40.6965 43.2843 40.2012 42.9644 39.6741C42.9011 39.5734 42.8375 39.4726 42.7772 39.3689C42.6503 39.1615 42.5208 38.9511 42.3881 38.7379C42.319 38.6312 42.2528 38.522 42.1866 38.4124C42.1807 38.4095 42.1781 38.4039 42.1781 38.4039C42.0369 38.1763 41.8927 37.9487 41.746 37.7184C41.3312 37.0645 40.8932 36.3904 40.4438 35.7134C40.2132 35.3707 39.9801 35.025 39.7439 34.6822C39.5854 34.4546 39.427 34.227 39.2688 33.9993C39.0239 33.6537 38.779 33.3138 38.537 32.9796C38.4303 32.8384 38.3296 32.7001 38.2259 32.5648C38.1137 32.4151 38.0012 32.2651 37.8887 32.1183C37.782 31.98 37.6754 31.8418 37.5717 31.7064C37.4882 31.6027 37.4074 31.5019 37.3268 31.4012C37.2521 31.3033 37.1742 31.2081 37.0992 31.1158C37.0242 31.0265 36.9524 30.9371 36.8803 30.8507C36.7851 30.7356 36.6931 30.626 36.6009 30.5164C36.5806 30.4933 36.5634 30.4734 36.5461 30.4532C36.3645 30.2399 36.1831 30.0325 36.0018 29.8339C35.9499 29.7761 35.8951 29.7187 35.8433 29.661C35.1461 28.9064 34.4691 28.2753 33.8442 27.8289C30.4738 25.4234 21.6762 19.9385 15.5055 16.2801C15.4996 16.2742 15.4911 16.2716 15.4852 16.2687C15.4764 16.2657 15.465 16.2599 15.4565 16.2543C14.984 15.9719 14.5261 15.7012 14.0882 15.4449C14.019 15.4018 13.9528 15.3614 13.8837 15.3239C13.6792 15.2058 13.4803 15.0878 13.2846 14.9753C13.2184 14.9349 13.1548 14.8974 13.0915 14.8628C12.8352 14.716 12.5874 14.5719 12.3512 14.4365C12.1725 14.3328 11.9997 14.235 11.8327 14.1427C11.6514 14.0419 11.4756 13.9412 11.3083 13.8489C11.2738 13.8287 11.2421 13.8114 11.2076 13.7941C11.1557 13.7625 11.1039 13.7337 11.052 13.7047C10.4269 13.3418 8.81942 12.3911 8.12806 11.8208C7.25799 11.1007 6.84903 10.4811 7.62389 9.39511C8.15969 8.64339 10.0697 7.19416 12.3395 5.69922C13.5983 6.15154 15.3642 7.00433 17.4354 8.11315C24.8043 12.0569 36.0363 19.2328 41.9589 23.1419C44.0793 24.5449 45.5195 25.5272 45.8622 25.7923C47.3287 26.9333 54.5884 36.045 57.0166 41.0373Z" fill="#131317"/>
<path d="M37.6989 20.3621L32.8017 23.1912C32.0816 23.773 30.9379 23.7873 29.9902 23.2688C29.3651 22.8511 28.7141 22.4248 28.0401 21.9898L28.0169 21.9754C24.2633 19.5586 19.7838 16.8821 15.0277 14.2637C14.5725 14.0133 14.4574 13.411 14.7916 13.0134C15.1315 12.6074 15.5264 12.1577 15.7566 11.9649C16.7102 11.1784 18.0815 10.2509 19.608 9.30609C25.2169 12.4518 32.2949 16.8795 37.6989 20.3621Z" fill="#131317"/>
<path d="M56.5694 40.1702C54.841 41.0432 52.9887 41.8063 51.0212 42.3998C50.5112 42.5525 46.9996 42.8981 46.9996 42.8981L38.2134 29.5978C38.2134 29.5978 40.3135 28.7479 40.7858 28.5405C42.2549 27.8981 44.1389 26.982 46.0633 25.9652C46.6079 26.4664 47.5902 27.5755 48.7626 29.0131C51.3062 32.1389 54.7516 36.817 56.5694 40.1702Z" fill="#131317"/>
<path d="M64.0477 52.868C63.0564 52.1494 61.8969 51.7 60.6799 51.5641C58.5599 51.3277 55.3298 50.9838 54.8836 51.0318C54.2116 51.1039 54.4996 53.2673 54.8836 54.1901C55.2677 55.1129 58.7181 55.8685 59.9423 55.7484C60.9149 55.6529 63.6177 54.8672 64.858 54.2341C65.1469 54.0867 65.1773 53.6869 64.9145 53.4964L64.0477 52.868Z" fill="#B7C8D9"/>
<path d="M64.9667 54.1518C65.1465 53.971 65.1371 53.6584 64.9136 53.4964L64.0471 52.868C63.0557 52.1491 61.8962 51.7 60.679 51.5641C58.5589 51.3277 55.3292 50.9838 54.8827 51.0318C54.4896 51.074 54.426 51.8322 54.5171 52.639C55.202 53.0684 55.5735 53.2697 56.0858 53.4806C57.0048 53.8588 57.3438 53.785 58.2314 53.6488C60.3286 53.3265 60.3667 53.197 61.5081 53.2647C62.2489 53.3081 64.1183 53.8535 64.9667 54.1518Z" fill="#9BACBF"/>
<path d="M75.9687 38.9363V39.548C75.9687 39.548 76.0841 40.6448 75.464 43.04C75.1862 44.1122 75.1646 45.2377 75.4036 46.319C75.4645 46.5941 75.5223 46.8466 75.5712 47.0576C75.6424 47.3637 75.9965 47.5028 76.2579 47.3277C77.5129 46.4863 78.9187 44.9076 79.1071 44.3533C79.3239 43.7155 79.0216 43.0886 79.0216 43.0886C79.0216 43.0886 77.7657 40.3803 75.9687 38.9363Z" fill="#B7C8D9"/>
<path d="M79.1378 43.4484C79.0895 43.2322 79.0221 43.0886 79.0221 43.0886C79.0221 43.0886 77.7665 40.3803 75.9692 38.9366C75.9692 38.9366 76.3779 40.1615 76.6794 40.6185C76.9758 41.0673 78.2141 41.964 79.1378 43.4484Z" fill="#F7FBFF"/>
<path d="M75.7982 41.5182C75.7221 41.9506 75.6151 42.4559 75.464 43.0398C75.1862 44.112 75.1646 45.2375 75.4036 46.3188C75.4642 46.5939 75.522 46.8464 75.5712 47.057C75.6418 47.3603 75.9895 47.4985 76.2496 47.3312C77.0034 46.5784 77.6087 45.7303 77.6646 45.27C77.7607 44.4782 77.0644 43.614 75.7982 41.5182Z" fill="#565E66"/>
<path d="M65.0147 54.0952C65.0191 54.09 65.023 54.0838 65.0271 54.0782C65.1416 53.8949 65.1088 53.6379 64.9137 53.4964L64.0471 52.868C63.0558 52.1491 61.8963 51.7 60.6791 51.5641C59.5714 51.4405 58.1632 51.2882 57.0049 51.1771C57.4074 51.5761 59.4821 53.6283 60.2719 54.3205C61.1481 55.0886 64.1295 54.6015 64.8568 54.2338C64.8973 54.2136 64.9327 54.1843 64.9667 54.1515C64.9846 54.1339 65.0007 54.1154 65.0147 54.0952Z" fill="#565E66"/>
<path d="M61.4732 53.1595V52.8443C61.4732 52.5411 61.2365 52.2909 60.9338 52.2742L57.3677 52.0765C57.0317 52.0577 56.749 52.3255 56.749 52.6621V53.1174C56.749 53.6992 57.2506 54.1544 57.8294 54.0982L60.8911 53.8014C61.2212 53.7689 61.4732 53.4914 61.4732 53.1595Z" fill="white"/>
<path d="M60.6116 53.045V52.8315C60.6116 52.6261 60.4514 52.4568 60.2463 52.4454L57.8315 52.3115C57.6039 52.2989 57.4126 52.4799 57.4126 52.7078V53.016C57.4126 53.41 57.7521 53.7182 58.1444 53.6801L60.2176 53.4792C60.4408 53.4578 60.6116 53.2697 60.6116 53.045Z" fill="#B7C8D9"/>
<path d="M75.7707 44.8629L75.7165 44.3066C75.6685 43.8121 75.718 43.3132 75.8627 42.838L76.3912 40.9871C76.4641 40.7475 76.8101 40.6414 76.8819 40.8817L76.8842 40.8893C77.2065 41.9703 77.2451 43.0161 76.8189 44.0605L76.4506 44.9622C76.3109 45.3044 75.8064 45.2305 75.7707 44.8629Z" fill="white"/>
<path d="M75.9347 44.0287L75.9045 43.7188C75.8776 43.4431 75.9054 43.1651 75.986 42.9003L76.2804 41.8688C76.3211 41.7352 76.5138 41.676 76.554 41.8099L76.5552 41.8143C76.7347 42.4169 76.7564 42.9996 76.5185 43.5817L76.3135 44.0844C76.2358 44.2745 75.9546 44.2335 75.9347 44.0287Z" fill="#B7C8D9"/>
<path d="M59.2303 55.3228C58.4751 55.3228 55.6036 54.5245 55.349 54.1038C55.0821 53.662 55.0112 52.7618 55.0039 52.6607L55.5784 52.6194C55.6012 52.9372 55.6885 53.5199 55.8271 53.7792C56.1411 54.0015 58.4194 54.7465 59.2233 54.7465C59.2271 54.7465 59.2306 54.7465 59.2347 54.7465C60.4592 54.7354 63.3762 53.7645 63.7558 53.5249L64.0637 54.0118C63.5683 54.3247 60.5465 55.3107 59.24 55.3228C59.2371 55.3228 59.2335 55.3228 59.2303 55.3228Z" fill="#FF8D00"/>
<path d="M76.3242 46.9574L75.9448 46.5238C76.8199 45.7592 78.1244 44.2918 78.352 43.8166C78.4742 43.5442 78.0541 42.0653 77.5853 40.8554L78.1226 40.6472C78.4434 41.475 79.1585 43.4654 78.8717 44.065C78.5694 44.6969 77.1137 46.2675 76.3242 46.9574Z" fill="#FFA536"/>
<defs>
<linearGradient id="paint0_linear_1_2530" x1="13.6932" y1="40.0796" x2="8.61722" y2="31.2878" gradientUnits="userSpaceOnUse">
<stop offset="0.273" stop-color="#ECEEF7"/>
<stop offset="0.7703" stop-color="#9C9AA8"/>
</linearGradient>
<linearGradient id="paint1_linear_1_2530" x1="11.0831" y1="37.29" x2="13.5871" y2="32.953" gradientUnits="userSpaceOnUse">
<stop offset="0.2622" stop-color="#393843"/>
<stop offset="0.7811" stop-color="#23222E"/>
</linearGradient>
<linearGradient id="paint2_linear_1_2530" x1="11.4679" y1="34.0773" x2="13.48" y2="34.6543" gradientUnits="userSpaceOnUse">
<stop stop-color="#ADAEB8"/>
<stop offset="0.0762" stop-color="#BABCC5"/>
<stop offset="0.1993" stop-color="#C9CBD4"/>
<stop offset="0.3421" stop-color="#D2D4DC"/>
<stop offset="0.5486" stop-color="#D5D7DF"/>
<stop offset="0.6619" stop-color="#C0C1CA"/>
<stop offset="1" stop-color="#868490"/>
</linearGradient>
<linearGradient id="paint3_linear_1_2530" x1="12.4036" y1="37.8894" x2="14.0309" y2="37.2319" gradientUnits="userSpaceOnUse">
<stop stop-color="#ADAEB8"/>
<stop offset="0.0762" stop-color="#BABCC5"/>
<stop offset="0.1993" stop-color="#C9CBD4"/>
<stop offset="0.3421" stop-color="#D2D4DC"/>
<stop offset="0.5486" stop-color="#D5D7DF"/>
<stop offset="0.6619" stop-color="#C0C1CA"/>
<stop offset="1" stop-color="#868490"/>
</linearGradient>
<linearGradient id="paint4_linear_1_2530" x1="9.64679" y1="34.5698" x2="10.5864" y2="32.9424" gradientUnits="userSpaceOnUse">
<stop stop-color="#ADAEB8"/>
<stop offset="0.0762" stop-color="#BABCC5"/>
<stop offset="0.1993" stop-color="#C9CBD4"/>
<stop offset="0.3421" stop-color="#D2D4DC"/>
<stop offset="0.5486" stop-color="#D5D7DF"/>
<stop offset="0.6619" stop-color="#C0C1CA"/>
<stop offset="1" stop-color="#868490"/>
</linearGradient>
<linearGradient id="paint5_linear_1_2530" x1="49.4125" y1="60.7028" x2="44.3365" y2="51.9109" gradientUnits="userSpaceOnUse">
<stop offset="0.273" stop-color="#ECEEF7"/>
<stop offset="0.7703" stop-color="#9C9AA8"/>
</linearGradient>
<linearGradient id="paint6_linear_1_2530" x1="46.8025" y1="57.9129" x2="49.3064" y2="53.5759" gradientUnits="userSpaceOnUse">
<stop offset="0.2622" stop-color="#393843"/>
<stop offset="0.7811" stop-color="#23222E"/>
</linearGradient>
<linearGradient id="paint7_linear_1_2530" x1="47.1878" y1="54.7003" x2="49.1998" y2="55.2772" gradientUnits="userSpaceOnUse">
<stop stop-color="#ADAEB8"/>
<stop offset="0.0762" stop-color="#BABCC5"/>
<stop offset="0.1993" stop-color="#C9CBD4"/>
<stop offset="0.3421" stop-color="#D2D4DC"/>
<stop offset="0.5486" stop-color="#D5D7DF"/>
<stop offset="0.6619" stop-color="#C0C1CA"/>
<stop offset="1" stop-color="#868490"/>
</linearGradient>
<linearGradient id="paint8_linear_1_2530" x1="48.1229" y1="58.5124" x2="49.7503" y2="57.8549" gradientUnits="userSpaceOnUse">
<stop stop-color="#ADAEB8"/>
<stop offset="0.0762" stop-color="#BABCC5"/>
<stop offset="0.1993" stop-color="#C9CBD4"/>
<stop offset="0.3421" stop-color="#D2D4DC"/>
<stop offset="0.5486" stop-color="#D5D7DF"/>
<stop offset="0.6619" stop-color="#C0C1CA"/>
<stop offset="1" stop-color="#868490"/>
</linearGradient>
<linearGradient id="paint9_linear_1_2530" x1="45.3665" y1="55.1928" x2="46.3061" y2="53.5655" gradientUnits="userSpaceOnUse">
<stop stop-color="#ADAEB8"/>
<stop offset="0.0762" stop-color="#BABCC5"/>
<stop offset="0.1993" stop-color="#C9CBD4"/>
<stop offset="0.3421" stop-color="#D2D4DC"/>
<stop offset="0.5486" stop-color="#D5D7DF"/>
<stop offset="0.6619" stop-color="#C0C1CA"/>
<stop offset="1" stop-color="#868490"/>
</linearGradient>
</defs>
</svg>
