<svg width="110" height="98" viewBox="0 0 110 98" fill="none" xmlns="http://www.w3.org/2000/svg">
<path d="M105.979 52.7349L103.878 44.3923C102.677 42.7839 101.528 40.3303 90.7258 39.0505L73.7013 36.9372C68.0474 33.5826 59.6749 29.6006 53.8638 27.3726C50.277 25.9974 33.9338 25.4047 27.8404 25.9685C22.9748 26.4185 21.0551 27.309 16.174 32.3654C12.8252 35.8347 7.39867 35.5186 5.18026 39.065C3.07364 40.0614 3.74823 45.1333 3.74823 45.1333C2.85971 48.8329 2.89825 49.6048 5.06269 52.9951C7.60683 56.979 9.73561 56.5203 11.1542 56.5203L101.33 56.6725C103.249 56.6735 107.461 55.3793 105.979 52.7349Z" fill="#191919"/>
<path d="M108.84 47.9001L106.032 43.3024C104.778 41.694 103.577 39.2404 92.2993 37.9606L74.5242 35.8473C68.6206 32.4927 59.879 28.5107 53.8116 26.2827C50.0667 24.9075 33.0027 24.3148 26.6404 24.8786C21.5599 25.3286 19.5554 26.2191 14.4594 31.2755C10.9632 34.7448 5.2967 34.4287 2.98096 37.9751C0.781821 38.9715 1.48628 44.0434 1.48628 44.0434C0.55825 47.743 0.598713 48.5149 2.85952 51.9061C4.18748 53.8981 5.40752 54.7789 6.4801 55.1625C7.55268 55.546 8.47879 51.6363 9.21987 51.6363C9.21987 51.6363 11.2561 55.5836 28.9408 55.5836C42.0161 55.5836 65.7999 55.5248 66.8715 55.5248C71.1618 55.5248 76.0641 51.1843 79.9574 51.1843C84.2988 51.1843 93.8201 51.0176 99.3169 51.0176C100.543 51.0176 101.875 54.9716 105.347 54.9716C105.747 54.9716 110.388 50.5445 108.84 47.9001Z" fill="#689552"/>
<path opacity="0.2" d="M108.026 46.5673L106.032 43.3033C105.583 42.727 105.141 42.0428 104.241 41.3432C101.541 41.2371 99.5244 41.9435 98.8682 43.2011C98.873 43.3091 98.8874 43.4199 98.9125 43.5336C98.951 43.7071 99.0137 43.8805 99.0956 44.053C100.729 45.1902 103.243 46.1163 105.917 46.4478C106.662 46.5394 107.367 46.575 108.026 46.5673Z" fill="white"/>
<path d="M67.316 51.8001C67.2948 51.2845 67.2957 50.4115 67.2977 49.3061C67.3054 45.1613 67.3189 38.2237 66.121 36.8688L65.9678 37.0037C67.1146 38.2998 67.1011 45.4591 67.0934 49.3051C67.0915 50.4124 67.0895 51.2874 67.1117 51.8078C67.1637 53.0597 67.0539 53.7217 66.7436 54.0234C66.4795 54.2797 66.0449 54.3028 65.3828 54.2556C64.609 54.2007 55.3817 54.1747 46.7605 54.1631C45.501 54.1631 45.4731 53.9491 45.3391 52.9238L45.3054 52.6732C45.1714 51.6961 44.945 49.7629 44.6828 47.5242C44.2174 43.5529 43.6382 38.6111 43.3096 36.7714L43.1082 36.8071C43.4358 38.641 44.015 43.5799 44.4795 47.5483C44.7416 49.7879 44.9691 51.723 45.103 52.7012L45.1358 52.9508C45.2177 53.5762 45.2697 53.9549 45.5916 54.1621C39.1291 54.1544 33.2477 54.1534 31.8697 54.1534L31.6451 54.1544C29.9211 54.165 29.3997 54.164 29.1106 49.5509C28.8591 45.5294 25.9459 42.224 23.1974 41.0377C22.8052 40.8681 22.5036 40.8073 22.2607 40.7582C21.7991 40.6647 21.589 40.6223 21.3414 39.9208C21.1737 39.4447 20.7294 38.1803 21.2893 34.9896L21.2951 34.3911C20.3767 37.8093 20.8778 39.2192 21.1486 39.9882C21.4339 40.7996 21.7297 40.8594 22.2203 40.9577C22.4535 41.0049 22.7435 41.0637 23.1165 41.2246C25.2934 42.1642 28.6317 45.1603 28.9063 49.5624C29.207 54.3684 29.8209 54.3703 31.6451 54.3578L31.8687 54.3568C35.151 54.3568 63.9797 54.3597 65.3664 54.4589C65.5409 54.4715 65.7008 54.4792 65.8473 54.4792C66.308 54.4792 66.6414 54.405 66.8833 54.1698C67.2466 53.82 67.3719 53.1329 67.316 51.8001Z" fill="#4C7038"/>
<path d="M25.5804 26.99C24.1166 28.3131 19.62 35.7412 21.7382 35.9465C27.3141 36.4852 55.2138 37.0644 66.3588 37.1299C67.1799 37.1347 54.7522 28.3864 52.8913 27.3668C50.9996 26.3299 27.8884 24.9036 25.5804 26.99Z" fill="#D6D6D6"/>
<path d="M66.0442 36.9372C54.7006 36.8592 27.2596 36.2781 21.7039 35.7374C21.5016 35.7181 21.4582 35.6276 21.437 35.5832C20.8434 34.3613 24.3589 28.4182 25.7322 27.1789C26.5494 26.4407 30.62 26.0726 36.7895 26.169C43.7618 26.2779 51.7749 26.9804 52.8339 27.5596C54.663 28.5608 64.4965 35.5071 66.0442 36.9372Z" fill="#232122"/>
<path d="M42.5977 36.332C36.2711 36.1749 25.0663 35.8608 21.6683 35.5283C21.6365 35.5254 21.6163 35.5206 21.6028 35.5167C21.1508 34.4133 24.4871 28.6264 25.8816 27.3688C26.6602 26.6662 30.7915 26.302 36.8252 26.3926C37.9652 26.4099 39.1698 26.4436 40.4082 26.4937C40.9777 29.6604 41.6986 32.8907 42.5977 36.332Z" fill="#80C2DC"/>
<path d="M59.4355 36.6693C54.6209 36.598 49.073 36.4891 43.7679 36.3609C42.8842 32.9157 42.1797 29.6932 41.6313 26.5486C47.1889 26.8156 52.018 27.3408 52.7745 27.7542C53.8413 28.3363 57.7163 31.0038 60.8049 33.2145C60.3365 34.4721 59.8874 35.6044 59.4355 36.6693Z" fill="#80C2DC"/>
<path d="M21.3641 25.9762C19.3027 26.8368 17.3937 28.3652 14.4602 31.2765C13.2296 32.4975 11.7301 33.2491 10.2026 33.8659C14.3002 34.6272 19.3018 28.7217 20.4293 27.5277C21.1203 26.7973 21.3486 26.4282 21.3641 25.9762Z" fill="#232122"/>
<path d="M20.2426 27.3408C20.7813 26.7703 21.0367 26.4205 21.1311 26.0793C19.1575 26.9573 17.2831 28.476 14.4605 31.2765C13.3147 32.4137 11.9347 33.1422 10.5161 33.7349C14.5116 33.9671 19.1604 28.4857 20.2426 27.3408Z" fill="#80C2DC"/>
<path d="M53.8666 26.9823C55.2283 27.5268 68.3036 34.8817 70.3466 35.6989C71.9521 36.3407 74.3979 36.8987 76.2318 36.0497L74.5251 35.8463C68.665 32.5158 60.0082 28.5686 53.9475 26.3318C53.4888 26.5005 53.2267 26.727 53.8666 26.9823Z" fill="#232122"/>
<path d="M75.1732 35.9253L74.5237 35.8482C68.7059 32.5428 60.1349 28.6283 54.08 26.3839C53.7784 26.5438 53.6878 26.7375 54.2063 26.9418C55.5323 27.4632 68.2645 34.5964 70.2536 35.3789C71.5912 35.9032 73.5243 36.3542 75.1732 35.9253Z" fill="#80C2DC"/>
<path d="M18.3458 41.2719C23.6884 41.1398 28.1272 45.3637 28.2592 50.7064C28.2669 51.009 28.2602 55.9922 31.3941 55.9922C23.3694 56.1695 11.2887 55.4159 8.98449 55.4159C8.98449 54.5312 8.9209 51.5669 8.91126 51.1844C8.77827 45.8417 13.0031 41.4039 18.3458 41.2719Z" fill="#191919"/>
<path d="M9.49452 51.1371C9.61787 56.1223 13.7588 60.0628 18.743 59.9394C23.7282 59.8161 27.6687 55.6751 27.5453 50.69C27.422 45.7048 23.281 41.7643 18.2968 41.8876C13.3126 42.011 9.37117 46.152 9.49452 51.1371Z" fill="#070000"/>
<path d="M14.6699 53.6167C16.5886 55.4429 16.2552 52.1606 18.0814 50.2409C19.9076 48.3222 23.2034 48.4937 21.2847 46.6666C19.366 44.8404 16.3294 44.9156 14.5032 46.8343C12.6751 48.7539 12.7503 51.7905 14.6699 53.6167Z" fill="#D60606"/>
<path d="M11.5475 51.0861C11.643 54.937 14.8414 57.9812 18.6923 57.8858C22.5423 57.7904 25.5865 54.592 25.4921 50.742C25.3967 46.8911 22.1982 43.8468 18.3483 43.9422C14.4974 44.0367 11.4531 47.2361 11.5475 51.0861ZM12.8803 53.1686L13.7592 53.0057L13.0461 53.5502C12.9863 53.4259 12.9324 53.2987 12.8803 53.1686ZM12.5806 52.2001C12.5016 51.8329 12.4515 51.4542 12.4418 51.0639C12.4322 50.6832 12.463 50.3113 12.5209 49.9479L15.4967 50.3469L16.4151 50.9781L15.5295 51.6546L12.5806 52.2001ZM24.0803 53.3594L23.2274 52.7725L24.2567 52.9103C24.2027 53.0626 24.1449 53.2129 24.0803 53.3594ZM21.3926 51.5101L20.4752 50.8789L21.3608 50.2024L24.46 49.6299C24.539 49.9971 24.5882 50.3749 24.5978 50.7642C24.6074 51.1622 24.5766 51.5506 24.513 51.9293L21.3926 51.5101ZM24.1603 48.6605L23.1301 48.8513L23.9618 48.2162C24.0341 48.3608 24.0996 48.5092 24.1603 48.6605ZM12.9141 48.5699L13.6629 49.0845L12.7676 48.965C12.8129 48.831 12.8601 48.699 12.9141 48.5699ZM14.9253 46.0151L16.7717 48.433L16.9741 49.5287L15.8697 49.3803L13.3805 47.6679C13.7872 47.0251 14.3124 46.4652 14.9253 46.0151ZM15.7897 45.488C15.9217 45.4215 16.0557 45.3598 16.1925 45.302L16.366 46.2435L15.7897 45.488ZM18.3695 44.8365C18.7338 44.8279 19.0894 44.8568 19.4382 44.9098L19.0258 47.982L18.3945 48.8995L17.718 48.0138L17.1591 44.9879C17.5494 44.8982 17.9541 44.8462 18.3695 44.8365ZM20.4231 45.1459C20.5735 45.195 20.7209 45.248 20.8654 45.3088L20.2892 46.1472L20.4231 45.1459ZM23.4404 47.347L20.9406 49.256L19.8449 49.4584L19.9933 48.354L21.7675 45.7752C22.4189 46.1876 22.9865 46.7225 23.4404 47.347ZM22.0036 55.8939L20.1176 53.424L19.9152 52.3283L21.0196 52.4767L23.5985 54.2508C23.1754 54.8936 22.6348 55.4525 22.0036 55.8939ZM21.1256 56.4037C20.9878 56.4692 20.8452 56.527 20.7016 56.5829L20.5224 55.6144L21.1256 56.4037ZM18.6702 56.9915C18.2558 57.0021 17.851 56.9694 17.4578 56.9L17.8636 53.8769L18.4948 52.9585L19.1713 53.8441L19.7302 56.8663C19.3852 56.9356 19.0335 56.9819 18.6702 56.9915ZM16.4768 56.635C16.3409 56.5868 16.207 56.5328 16.0759 56.475L16.6011 55.7118L16.4768 56.635ZM13.5588 54.4272L15.9497 52.6019L17.0454 52.3996L16.897 53.504L15.1845 55.9932C14.5504 55.5759 13.9972 55.0459 13.5588 54.4272Z" fill="#F9EFF0"/>
<path d="M17.0333 55.7349L16.2642 55.439L17.2684 53.98L17.0333 55.7349ZM20.092 55.6588L19.7711 53.9174L20.8456 55.3253L20.092 55.6588ZM17.492 53.4018L17.7204 51.6893L16.0233 52.0035L17.3956 50.955L15.9732 49.9759L17.6847 50.2052L17.3715 48.5063L18.42 49.8795L19.3991 48.4562L19.1688 50.1677L20.8687 49.8535L19.4945 50.902L20.9179 51.8811L19.2054 51.6517L19.5196 53.3507L18.4721 51.9775L17.492 53.4018ZM14.0487 53.3286L13.7153 52.5759L15.4567 52.254L14.0487 53.3286ZM22.9542 53.1088L21.4952 52.1056L23.25 52.3408L22.9542 53.1088ZM21.4335 49.6039L22.8414 48.5284L23.1758 49.282L21.4335 49.6039ZM15.395 49.7523L13.6401 49.5172L13.936 48.7491L15.395 49.7523ZM17.12 47.9406L16.0445 46.5326L16.7981 46.1992L17.12 47.9406ZM19.6217 47.8789L19.8569 46.124L20.6249 46.4199L19.6217 47.8789Z" fill="#999999"/>
<path d="M18.3282 43.1684C13.6919 43.2831 10.0059 47.0135 9.87479 51.5949C9.86226 51.4398 9.84299 51.2856 9.83913 51.1275C9.7206 46.3332 13.5108 42.3512 18.3051 42.2327C23.0995 42.1142 27.0814 45.9043 27.2 50.6987C27.2038 50.8567 27.1922 51.0109 27.1884 51.167C26.8309 46.5982 22.9645 43.0537 18.3282 43.1684Z" fill="#262626"/>
<path d="M18.6942 57.9185C22.4458 57.826 25.4285 54.8068 25.5345 51.0995C25.5441 51.2257 25.5595 51.35 25.5634 51.4773C25.6588 55.3561 22.5923 58.5787 18.7125 58.675C14.8337 58.7714 11.6111 55.704 11.5147 51.8251C11.5118 51.6979 11.5205 51.5727 11.5244 51.4464C11.8145 55.1441 14.9426 58.012 18.6942 57.9185Z" fill="#262626"/>
<path d="M89.3939 41.2719C94.7366 41.1398 99.1753 45.3637 99.3073 50.7064C99.3151 51.009 99.4095 53.1628 99.5329 55.5711C91.5082 55.7484 82.1845 56.2649 79.8804 56.2649C79.8804 55.3803 79.969 51.5679 79.9594 51.1844C79.8274 45.8417 84.0512 41.4039 89.3939 41.2719Z" fill="#191919"/>
<path d="M98.1954 53.5433C99.6555 48.7753 96.9738 43.7264 92.2057 42.2664C87.4377 40.8063 82.3888 43.488 80.9288 48.2561C79.4688 53.0241 82.1504 58.073 86.9185 59.533C91.6865 60.9931 96.7354 58.3114 98.1954 53.5433Z" fill="#070000"/>
<path d="M85.718 53.6167C87.6367 55.4429 87.3033 52.1606 89.1295 50.2409C90.9557 48.3222 94.2515 48.4937 92.3328 46.6666C90.4141 44.8404 87.3775 44.9156 85.5513 46.8343C83.7242 48.7539 83.7993 51.7905 85.718 53.6167Z" fill="#D60606"/>
<path d="M82.5979 51.0861C82.6933 54.937 85.8918 57.9812 89.7417 57.8858C93.5926 57.7904 96.6369 54.592 96.5415 50.742C96.4461 46.8911 93.2476 43.8468 89.3977 43.9422C85.5477 44.0377 82.5025 47.2361 82.5979 51.0861ZM83.9307 53.1686L84.8105 53.0057L84.0974 53.5502C84.0367 53.4259 83.9817 53.2987 83.9307 53.1686ZM83.6309 52.2001C83.5519 51.8329 83.5018 51.4542 83.4922 51.0639C83.4826 50.6832 83.5134 50.3113 83.5712 49.9479L86.5471 50.3469L87.4655 50.9781L86.5798 51.6546L83.6309 52.2001ZM95.1297 53.3594L94.2768 52.7725L95.306 52.9103C95.253 53.0626 95.1942 53.2129 95.1297 53.3594ZM92.4419 51.5101L91.5245 50.8789L92.4102 50.2024L95.5094 49.6299C95.5884 49.9971 95.6376 50.3749 95.6472 50.7642C95.6568 51.1622 95.626 51.5506 95.5624 51.9293L92.4419 51.5101ZM95.2097 48.6605L94.1795 48.8513L95.0112 48.2162C95.0844 48.3608 95.1499 48.5092 95.2097 48.6605ZM83.9644 48.5699L84.7132 49.0845L83.8179 48.965C83.8622 48.831 83.9095 48.699 83.9644 48.5699ZM85.9746 46.0151L87.8211 48.433L88.0234 49.5287L86.9191 49.3803L84.4299 47.6679C84.8365 47.0251 85.3627 46.4652 85.9746 46.0151ZM86.84 45.488C86.9721 45.4215 87.106 45.3598 87.2429 45.302L87.4163 46.2435L86.84 45.488ZM89.4198 44.8365C89.7841 44.8279 90.1397 44.8568 90.4885 44.9098L90.0761 47.982L89.4449 48.8995L88.7684 48.0138L88.2094 44.9879C88.5997 44.8982 89.0035 44.8462 89.4198 44.8365ZM91.4725 45.1459C91.6219 45.195 91.7703 45.248 91.9148 45.3088L91.3385 46.1472L91.4725 45.1459ZM94.4908 47.347L91.991 49.256L90.8952 49.4584L91.0436 48.354L92.8178 45.7752C93.4693 46.1876 94.0369 46.7225 94.4908 47.347ZM93.0539 55.8939L91.168 53.424L90.9656 52.3283L92.07 52.4767L94.6488 54.2508C94.2248 54.8936 93.6841 55.4525 93.0539 55.8939ZM92.175 56.4037C92.0372 56.4692 91.8946 56.527 91.751 56.5829L91.5718 55.6144L92.175 56.4037ZM89.7205 56.9915C89.3061 57.0021 88.9014 56.9694 88.5082 56.9L88.9139 53.8769L89.5461 52.9585L90.2226 53.8441L90.7806 56.8663C90.4356 56.9356 90.0828 56.9819 89.7205 56.9915ZM87.5271 56.635C87.3913 56.5868 87.2573 56.5328 87.1263 56.475L87.6514 55.7118L87.5271 56.635ZM84.6081 54.4272L86.9991 52.6019L88.0948 52.3996L87.9463 53.504L86.2339 55.9932C85.6007 55.5759 85.0476 55.0459 84.6081 54.4272Z" fill="#F9EFF0"/>
<path d="M88.0831 55.7349L87.314 55.439L88.3182 53.98L88.0831 55.7349ZM91.1408 55.6588L90.8199 53.9174L91.8954 55.3253L91.1408 55.6588ZM88.5418 53.4018L88.7702 51.6893L87.0731 52.0035L88.4454 50.955L87.023 49.9759L88.7345 50.2052L88.4213 48.5063L89.4698 49.8795L90.4489 48.4562L90.2186 50.1677L91.9185 49.8535L90.5443 50.902L91.9677 51.8811L90.2552 51.6517L90.5694 53.3507L89.5209 51.9784L88.5418 53.4018ZM85.0985 53.3286L84.7651 52.5759L86.5065 52.254L85.0985 53.3286ZM94.004 53.1088L92.5449 52.1056L94.2998 52.3408L94.004 53.1088ZM92.4833 49.6039L93.8912 48.5284L94.2256 49.282L92.4833 49.6039ZM86.4438 49.7523L84.689 49.5172L84.9848 48.7491L86.4438 49.7523ZM88.1688 47.9406L87.0934 46.5326L87.8469 46.1992L88.1688 47.9406ZM90.6706 47.8789L90.9057 46.124L91.6738 46.4199L90.6706 47.8789Z" fill="#999999"/>
<path d="M89.3776 43.1684C84.7413 43.283 81.0552 47.0135 80.9241 51.5948C80.9116 51.4397 80.8933 51.2855 80.8884 51.1275C80.7699 46.3331 84.5601 42.3512 89.3544 42.2326C94.1488 42.1141 98.1308 45.9043 98.2493 50.6986C98.2531 50.8567 98.2416 51.0109 98.2368 51.167C97.8792 46.5981 94.0139 43.0537 89.3776 43.1684Z" fill="#262626"/>
<path d="M89.7426 57.9185C93.4942 57.826 96.4768 54.8068 96.5828 51.0995C96.5924 51.2257 96.6079 51.35 96.6117 51.4773C96.7071 55.3561 93.6407 58.5787 89.7618 58.675C85.882 58.7714 82.6604 55.704 82.5641 51.8251C82.5612 51.6979 82.5698 51.5727 82.5737 51.4464C82.8628 55.1441 85.9909 58.012 89.7426 57.9185Z" fill="#262626"/>
<path d="M48.699 38.2757C48.7982 38.7267 48.513 39.0814 48.0629 39.0688L45.0562 38.9831C44.6062 38.9706 44.16 38.5947 44.0607 38.1437C43.9615 37.6927 44.2467 37.3371 44.6968 37.3506L47.7035 37.4364C48.1545 37.4489 48.5997 37.8247 48.699 38.2757Z" fill="#4C7038"/>
<path d="M47.6381 37.552L44.7769 37.4653C44.4338 37.4547 44.1958 37.684 44.1611 38.0088C44.3153 38.3788 44.6806 38.6622 45.0496 38.6737L47.9108 38.7605C48.2539 38.7711 48.4919 38.5417 48.5266 38.2169C48.3724 37.8469 48.0072 37.5626 47.6381 37.552Z" fill="#3D592C"/>
<path d="M47.6381 37.5356L44.7769 37.4653C44.4338 37.4566 44.1958 37.6435 44.1611 37.9076C44.3153 38.2083 44.6806 38.4386 45.0496 38.4482L47.9108 38.5186C48.2539 38.5272 48.4919 38.3403 48.5266 38.0762C48.3724 37.7756 48.0072 37.5443 47.6381 37.5356Z" fill="#689552"/>
<path d="M26.3796 37.5607C26.4789 38.0117 26.1936 38.3664 25.7436 38.3538L22.7369 38.2681C22.2868 38.2555 21.8407 37.8797 21.7414 37.4287C21.6421 36.9777 21.9274 36.623 22.3774 36.6356L25.3841 36.7213C25.8342 36.7339 26.2804 37.1097 26.3796 37.5607Z" fill="#4C7038"/>
<path d="M25.3183 36.837L22.4571 36.7503C22.114 36.7397 21.876 36.9691 21.8413 37.2938C21.9955 37.6639 22.3607 37.9472 22.7298 37.9588L25.591 38.0455C25.9341 38.0561 26.1721 37.8267 26.2068 37.502C26.0517 37.1319 25.6874 36.8476 25.3183 36.837Z" fill="#3D592C"/>
<path d="M25.3183 36.8206L22.4571 36.7503C22.114 36.7416 21.876 36.9286 21.8413 37.1926C21.9955 37.4933 22.3607 37.7236 22.7298 37.7332L25.591 37.8036C25.9341 37.8123 26.1721 37.6253 26.2068 37.3613C26.0517 37.0606 25.6874 36.8293 25.3183 36.8206Z" fill="#689552"/>
<path d="M107.179 45.1786L106.033 43.3023C105.512 42.6326 104.998 41.8163 103.764 41.0001C100.708 40.7061 98.5455 41.6101 98.9059 43.0575C98.9377 43.1857 98.9898 43.3129 99.0572 43.4401C100.404 44.266 102.476 44.9271 104.679 45.1478C105.591 45.2393 106.434 45.2441 107.179 45.1786Z" fill="#4E6D3D"/>
<path d="M107.179 45.1787L106.033 43.3024C105.609 42.7579 105.19 42.1161 104.383 41.4559C101.619 41.1726 99.4946 41.7287 98.8682 42.8118C98.872 42.8918 98.8836 42.9737 98.9048 43.0576C98.9366 43.1857 98.9886 43.313 99.0561 43.4402C100.402 44.266 102.475 44.9271 104.678 45.1478C105.591 45.2394 106.434 45.2442 107.179 45.1787Z" fill="#F9EFF0"/>
<path d="M99.0561 43.4401C99.2141 43.5374 99.3837 43.6319 99.561 43.7244C100.27 42.9322 101.1 42.2153 101.832 41.4472C100.355 41.612 99.2825 42.0958 98.8682 42.8127C98.872 42.8927 98.8836 42.9746 98.9048 43.0585C98.9366 43.1857 98.9886 43.3129 99.0561 43.4401Z" fill="white"/>
<path d="M102.054 43.4295C102.72 42.7819 103.39 42.1392 104.026 41.4617C104.035 41.4511 104.045 41.4405 104.055 41.4299C103.734 41.4048 103.421 41.3885 103.119 41.3856C103.053 41.4655 102.987 41.5455 102.92 41.6246C102.182 42.4871 101.246 43.2715 100.444 44.1292C100.668 44.2207 100.904 44.3055 101.146 44.3884C101.452 44.0733 101.739 43.737 102.054 43.4295Z" fill="white"/>
<path d="M105.187 42.5044C105.226 42.4591 105.264 42.4139 105.302 42.3686C105.171 42.2134 105.03 42.0554 104.868 41.8954C104.721 42.0505 104.579 42.2095 104.43 42.3628C103.707 43.1125 103.046 43.7254 102.133 44.6853C102.372 44.7489 102.618 44.8057 102.866 44.8587C103.606 44.0483 104.465 43.3284 105.187 42.5044Z" fill="white"/>
<path d="M105.881 43.1038C105.274 43.7745 104.577 44.3951 103.938 45.0543C104.183 45.0899 104.43 45.1227 104.679 45.1468C105.59 45.2383 106.434 45.2431 107.178 45.1776L106.033 43.3013C105.982 43.2377 105.932 43.1712 105.881 43.1038Z" fill="white"/>
<path d="M105.443 44.2911C103.002 44.2044 100.674 43.7861 98.9473 43.1925C98.9762 43.2754 99.0109 43.3583 99.0542 43.4402C100.4 44.2661 102.473 44.9271 104.676 45.1478C105.588 45.2394 106.432 45.2442 107.176 45.1787L106.642 44.3046C106.256 44.3094 105.856 44.3056 105.443 44.2911Z" fill="#D86B32"/>
<path opacity="0.2" d="M98.8462 47.9744C102.105 47.9744 108.073 47.9233 108.532 47.9233C108.992 47.9233 109.247 49.5577 108.43 50.9367C108.43 49.9239 108.27 49.1308 107.197 49.1308C106.176 49.1308 99.3203 48.8311 98.8462 47.9744Z" fill="white"/>
<path opacity="0.2" d="M1.67997 44.1301C3.47725 44.1301 8.818 44.4896 10.6403 44.4896C10.1527 44.9772 9.76724 46.8516 7.50835 46.9287C5.24851 47.0058 1.30414 46.3543 0.970703 47.1763C1.02178 46.4314 1.16632 45.1314 1.67997 44.1301Z" fill="white"/>
<path d="M8.54615 38.0772H2.7939C1.31464 38.9754 1.3214 41.8925 1.41584 43.2879H5.03545C5.5992 43.2879 6.36534 42.8301 6.74503 42.2664L8.87862 39.0987C9.25928 38.534 9.10991 38.0772 8.54615 38.0772Z" fill="#4E6D3D"/>
<path d="M7.93497 38.4695H2.33401C1.3655 39.5806 1.33274 41.827 1.40405 43.1029H4.42521C4.98896 43.1029 5.7551 42.6962 6.13479 42.1941L8.26937 39.3773C8.64906 38.8762 8.49969 38.4695 7.93497 38.4695Z" fill="#D60606"/>
<path d="M78.0161 39.6876C78.0161 39.6876 80.5313 41.0155 79.0376 42.0438C79.9714 42.0322 80.8349 41.6043 80.8349 40.922C80.8349 40.4662 79.638 39.6876 78.0161 39.6876Z" fill="#191919"/>
<path d="M7.92079 39.837L8.26868 39.3782C8.64837 38.8762 8.49997 38.4695 7.93525 38.4695H5.52796C5.36413 38.9234 5.21089 39.3792 5.06152 39.837H7.92079Z" fill="#D86B32"/>
<path d="M4.77181 40.7554C4.53859 41.5302 4.32658 42.3127 4.1377 43.1029H4.42488C4.98864 43.1029 5.75477 42.6962 6.13446 42.1942L7.22439 40.7554H4.77181Z" fill="#D86B32"/>
<g opacity="0.2">
<path d="M81.6264 40.1366C81.6264 38.0271 73.4312 38.5253 69.5215 38.9339C69.5215 38.9339 81.5049 39.0004 81.4144 40.7129C81.4066 40.8584 81.3855 40.9914 81.3537 41.1148C81.5262 40.8584 81.6264 40.5375 81.6264 40.1366Z" fill="white"/>
</g>
<path d="M69.4609 38.9339C74.5714 38.9339 81.4126 38.7007 81.4126 40.5394C81.4126 43.0518 77.5155 42.435 76.0853 42.435C77.9694 42.2336 80.314 42.1844 80.314 40.922C80.313 39.8282 77.6311 39.4524 69.4609 38.9339Z" fill="#4C7038"/>
<path opacity="0.2" d="M108.84 47.9001L106.032 43.3024C104.778 41.694 103.578 39.2404 92.2995 37.9606L74.5243 35.8473C68.6207 32.4927 59.8791 28.5107 53.8117 26.2827C50.0668 24.9075 33.0028 24.3148 26.6406 24.8786C21.56 25.3286 19.5555 26.2191 14.4596 31.2755C10.9633 34.7448 5.29682 34.4287 2.98108 37.9751C0.781948 38.9715 1.48641 44.0434 1.48641 44.0434C0.610416 47.5378 0.597881 48.4215 2.50309 51.3646C2.52333 51.3578 2.54453 51.3511 2.56573 51.3463C2.58597 51.3251 2.61006 51.3077 2.63415 51.2904C1.5847 49.4295 1.71479 48.3916 2.43177 45.6576C2.43177 45.6576 1.73792 40.8758 3.90429 39.9372C6.18534 36.5932 18.4772 38.4174 20.9066 34.3362C24.3113 28.6158 23.9384 26.8609 28.9419 26.4369C35.2077 25.9049 49.3055 25.8721 52.8326 27.5595C56.5611 29.3424 61.6706 34.0346 67.4855 37.1964L84.9186 38.694C96.028 39.9005 103.174 43.6001 104.408 45.117L108.17 49.2917C108.664 50.0992 108.516 51.0832 108.08 52.0449C108.963 50.6871 109.548 49.1076 108.84 47.9001Z" fill="white"/>
<path opacity="0.2" d="M89.3658 41.3393C84.134 41.4684 79.9737 45.6788 79.8263 50.849C79.8128 50.6736 79.7906 50.5001 79.7868 50.3218C79.6528 44.9117 83.9306 40.418 89.3398 40.2841C94.7499 40.1501 99.2436 44.4279 99.3775 49.8371C99.3824 50.0154 99.3689 50.1898 99.3641 50.3652C98.9603 45.2095 94.5967 41.2102 89.3658 41.3393Z" fill="white"/>
<path opacity="0.2" d="M18.3106 41.3393C13.0788 41.4684 8.91853 45.6788 8.77109 50.849C8.7576 50.6736 8.73543 50.5001 8.73158 50.3218C8.59763 44.9117 12.8754 40.418 18.2846 40.2841C23.6938 40.1501 28.1884 44.4279 28.3224 49.8371C28.3272 50.0154 28.3137 50.1898 28.3089 50.3652C27.9051 45.2095 23.5425 41.2102 18.3106 41.3393Z" fill="white"/>
<path opacity="0.2" d="M21.247 36.7888L70.4818 38.8318C70.4818 38.8318 50.6655 40.8749 21.6546 39.2404C20.4298 38.4232 21.247 36.7888 21.247 36.7888Z" fill="white"/>
<path opacity="0.2" d="M29.8267 50.2727C41.2647 50.2727 46.5784 51.0899 53.1161 48.6383C59.6537 46.1867 71.113 43.7957 81.5131 44.5522C80.6959 46.1867 80.083 46.7996 79.6744 49.0469C76.2012 49.0469 69.6636 48.434 60.471 50.8856C51.2784 53.3372 43.1063 51.7028 29.8267 50.2727Z" fill="white"/>
<path opacity="0.7" d="M52.108 27.548C50.7896 27.255 47.9044 26.939 44.438 26.7096C43.6574 27.4892 42.8778 28.2698 42.0981 29.0494C42.5405 31.2861 43.0647 33.5826 43.6738 35.9832L52.108 27.548Z" fill="white"/>
<path opacity="0.7" d="M57.1712 30.6559C55.929 29.7962 54.7735 29.0137 53.9216 28.4606L45.9702 36.412C47.7473 36.4524 49.5359 36.491 51.3004 36.5257C53.2576 34.5694 55.2149 32.6131 57.1712 30.6559Z" fill="white"/>
<path opacity="0.7" d="M21.6685 35.5292C22.3074 35.5918 23.2229 35.6535 24.3292 35.7133L33.6539 26.3886C29.3664 26.4493 26.5149 26.7972 25.8827 27.3687C24.4882 28.6273 21.151 34.4142 21.6039 35.5167C21.6164 35.5215 21.6377 35.5263 21.6685 35.5292Z" fill="white"/>
<path opacity="0.7" d="M37.519 26.406C37.2858 26.4012 37.0535 26.3964 36.8261 26.3935C36.1814 26.3839 35.5608 26.38 34.9614 26.38C31.8294 29.512 28.6964 32.6449 25.5645 35.7769C26.3335 35.8135 27.1661 35.8502 28.0402 35.8848L37.519 26.406Z" fill="white"/>
<path opacity="0.7" d="M35.0215 36.1258C37.7767 36.2096 40.4644 36.28 42.598 36.333C42.0323 34.1647 41.536 32.0802 41.1052 30.043C39.0767 32.0696 37.0491 34.0972 35.0215 36.1258Z" fill="white"/>
<path d="M63.6654 36.6327C63.4322 37.8142 60.9488 38.3191 59.775 38.0878C58.6003 37.8566 57.837 36.7107 58.0702 35.5302C58.3035 34.3497 59.4435 33.5787 60.6182 33.81C61.792 34.0413 63.8977 35.4522 63.6654 36.6327Z" fill="#547C3E"/>
<g opacity="0.5">
<path d="M58.731 34.7651C58.9594 35.3375 59.4605 35.7866 60.1071 35.9138C60.8386 36.0583 62.1549 35.8704 62.9124 35.3731C62.3554 34.6947 61.3233 34.1078 60.6458 33.9748C59.8855 33.8245 59.1425 34.1589 58.731 34.7651Z" fill="white"/>
</g>
</svg>
