<svg width="425" height="320" viewBox="0 0 425 320" fill="none" xmlns="http://www.w3.org/2000/svg">
<path d="M4.1167 156.224C3.98198 155.944 3.82354 155.677 3.64311 155.424L2.2735 153.299C1.0959 151.533 -0.529706 148.979 -3.12811 146.899C-5.30419 145.096 -7.92247 143.908 -10.7121 143.456C-11.5597 143.332 -12.4193 143.31 -13.2721 143.392C-13.5021 143.41 -13.7307 143.442 -13.9569 143.488C-14.1169 143.488 -14.1937 143.533 -14.1937 143.546C-13.0484 143.477 -11.8991 143.524 -10.7633 143.686C-8.02672 144.209 -5.46772 145.418 -3.3265 147.2C-0.766504 149.216 0.859104 151.718 2.0815 153.453C2.6895 154.33 3.18228 155.04 3.54068 155.52C3.709 155.773 3.90195 156.009 4.1167 156.224Z" fill="#E0E0E0"/>
<path d="M-10.8401 120.192C-10.8123 120.325 -10.7738 120.456 -10.7249 120.582L-10.3537 121.677C-10.0209 122.63 -9.52169 123.994 -8.89449 125.677C-7.61449 129.043 -5.82888 133.67 -3.72328 138.733C-1.61768 143.795 0.391938 148.333 1.89594 151.61C2.64474 153.242 3.2655 154.554 3.7007 155.45C3.9119 155.872 4.08473 156.218 4.21273 156.486C4.26767 156.61 4.3341 156.728 4.41113 156.838C4.3807 156.708 4.3356 156.581 4.27672 156.461C4.15512 156.186 4.00794 155.821 3.81594 155.392L2.10711 151.501C0.660709 148.211 -1.31686 143.661 -3.42246 138.598C-5.52806 133.536 -7.36487 128.928 -8.67688 125.581L-10.2321 121.619C-10.4113 121.184 -10.5521 120.826 -10.6673 120.55C-10.7113 120.425 -10.7693 120.305 -10.8401 120.192Z" fill="#E0E0E0"/>
<path d="M1.49269 145.395C0.87905 142.707 0.915437 139.911 1.59886 137.24C2.28229 134.568 3.59301 132.098 5.42226 130.035C6.35666 128.992 7.73269 128.006 9.05109 128.48C10.3695 128.954 10.7919 130.598 10.8175 132C10.8207 134.925 9.95817 137.786 8.33871 140.222C6.71924 142.658 4.41518 144.56 1.71668 145.69" fill="#EBEBEB"/>
<path d="M6.43985 134.214C6.2136 134.404 6.00962 134.619 5.83185 134.854C5.60028 135.101 5.38642 135.365 5.19185 135.642C4.95505 135.968 4.66065 136.314 4.39825 136.749C4.09416 137.207 3.81431 137.682 3.55985 138.17C3.2562 138.723 2.9848 139.294 2.74704 139.878C2.20087 141.225 1.81007 142.629 1.58224 144.064C1.37691 145.501 1.33826 146.957 1.46704 148.403C1.52541 149.033 1.62159 149.66 1.75505 150.278C1.86086 150.82 1.9998 151.354 2.17106 151.878C2.29952 152.313 2.45118 152.74 2.62544 153.158C2.74453 153.479 2.88569 153.791 3.04786 154.093C3.16069 154.362 3.30002 154.619 3.46384 154.861C3.53424 154.861 2.93904 153.728 2.38864 151.808C2.23834 151.288 2.11655 150.76 2.02384 150.227C1.90507 149.616 1.81963 148.998 1.76786 148.378C1.65551 146.954 1.70056 145.522 1.90224 144.109C2.13009 142.702 2.50549 141.322 3.02224 139.994C3.27824 139.386 3.51505 138.81 3.79665 138.291C4.03879 137.804 4.30581 137.33 4.59665 136.87C5.67185 135.168 6.52945 134.259 6.43985 134.214Z" fill="#E0E0E0"/>
<path d="M383.362 74.4576C383.362 74.4576 389.25 76.3776 383.541 88.9856C377.832 101.594 373.755 107.917 373.755 107.917C373.755 107.917 372.776 110.829 375.208 111.162C377.64 111.494 382.888 110.4 384.117 113.299C385.397 116.301 383.285 119.29 378.901 122.035C374.517 124.781 365.128 131.136 364.283 131.712C363.438 132.288 362.658 133.632 364.283 134.144C365.909 134.656 377.896 135.322 377.23 140.992C376.565 146.662 363.086 152.32 361.64 152.96C360.194 153.6 359.854 154.24 360.014 155.059C360.174 155.878 364.226 155.699 367.63 156.058C371.035 156.416 374.92 157.376 374.261 160.614C373.602 163.853 365.8 170.963 346.178 173.818L337 174.547L331.637 167.014C321.128 150.202 321.512 139.654 323.554 137.056C325.595 134.458 328.866 136.787 331.317 139.168C333.768 141.549 336.283 144.736 337 144.333C337.717 143.93 338.005 143.264 337.557 141.734C337.109 140.205 332.686 126.285 336.584 122.112C340.482 117.939 348.744 126.643 350.178 127.565C351.611 128.486 352.13 126.989 352.027 125.984C351.925 124.979 350.709 113.696 349.966 108.576C349.224 103.456 350.152 99.936 353.256 98.976C356.251 98.0288 358.824 102.752 360.648 104.39C362.472 106.029 364.059 103.398 364.059 103.398C364.059 103.398 366.242 96.2176 372.181 83.6992C378.12 71.1808 383.49 74.5536 383.49 74.5536" fill="#EBEBEB"/>
<path d="M336.616 176.717C340.942 167.501 348.354 151.002 354.792 136.87C361.23 122.739 367.067 109.952 371.349 100.723L376.424 89.792L377.8 86.8224L378.152 86.0416C378.2 85.9504 378.243 85.8564 378.28 85.76C378.28 85.76 378.229 85.8432 378.139 86.016L377.762 86.784C377.435 87.4688 376.955 88.4608 376.334 89.7344C375.099 92.2944 373.339 96.0128 371.176 100.614C366.85 109.824 360.981 122.598 354.536 136.73C348.091 150.861 340.712 167.398 336.43 176.64" fill="#E0E0E0"/>
<path d="M376.808 115.123C376.588 115.173 376.374 115.244 376.168 115.334C375.771 115.482 375.195 115.718 374.491 116.013C373.083 116.608 371.157 117.478 369.045 118.477L363.656 121.037L362.018 121.805C361.812 121.888 361.615 121.991 361.429 122.112C361.65 122.071 361.865 122.002 362.069 121.907C362.472 121.76 363.042 121.523 363.746 121.222C365.154 120.582 367.067 119.718 369.173 118.72L374.581 116.16L376.219 115.398C376.425 115.329 376.623 115.237 376.808 115.123Z" fill="#E0E0E0"/>
<path d="M360.782 121.6C360.853 121.6 359.234 117.517 357.166 112.557C355.099 107.597 353.326 103.597 353.288 103.597C353.25 103.597 354.83 107.68 356.904 112.646C358.978 117.613 360.706 121.6 360.782 121.6Z" fill="#E0E0E0"/>
<path d="M351.874 143.712C351.759 143.517 351.624 143.335 351.47 143.168C351.163 142.778 350.773 142.298 350.312 141.728C349.339 140.512 347.995 138.822 346.581 136.909C345.166 134.995 343.944 133.229 343.067 131.936L342.03 130.406C341.913 130.213 341.778 130.031 341.627 129.862C341.704 130.076 341.81 130.279 341.941 130.464C342.158 130.848 342.485 131.386 342.901 132.045C343.733 133.37 344.93 135.168 346.357 137.082C347.784 138.995 349.141 140.672 350.158 141.856C350.67 142.445 351.086 142.918 351.387 143.238C351.529 143.416 351.693 143.575 351.874 143.712Z" fill="#E0E0E0"/>
<path d="M367.656 141.082C367.442 141.068 367.227 141.08 367.016 141.12L365.32 141.331C363.893 141.53 361.922 141.818 359.746 142.15C357.57 142.483 355.605 142.79 354.184 143.046L352.501 143.354C352.293 143.378 352.089 143.427 351.893 143.501C352.107 143.515 352.322 143.502 352.533 143.462L354.222 143.251C355.656 143.053 357.627 142.765 359.803 142.432C361.979 142.099 363.944 141.792 365.365 141.536L367.042 141.229C367.251 141.203 367.457 141.153 367.656 141.082Z" fill="#E0E0E0"/>
<path d="M362.28 161.632C362.012 161.625 361.744 161.645 361.48 161.69L359.304 161.958C357.474 162.195 354.946 162.541 352.155 162.944C349.365 163.347 346.837 163.725 345.013 164.019L342.85 164.371C342.583 164.408 342.32 164.465 342.062 164.544C342.332 164.551 342.602 164.531 342.869 164.486L345.038 164.218C346.869 163.981 349.403 163.629 352.194 163.226C354.984 162.822 357.512 162.445 359.336 162.157L361.493 161.798C361.76 161.768 362.023 161.712 362.28 161.632Z" fill="#E0E0E0"/>
<path d="M342.523 164.339C342.38 164.088 342.215 163.851 342.03 163.629C341.672 163.142 341.198 162.515 340.629 161.754C339.445 160.166 337.819 157.971 336.091 155.494C334.363 153.018 332.853 150.739 331.778 149.094L330.498 147.13C330.353 146.882 330.188 146.647 330.005 146.426C330.117 146.691 330.252 146.946 330.408 147.187C330.683 147.667 331.093 148.358 331.611 149.197C332.648 150.886 334.133 153.19 335.867 155.667C337.602 158.144 339.246 160.333 340.475 161.888C341.115 162.662 341.595 163.29 341.954 163.712C342.123 163.939 342.314 164.149 342.523 164.339Z" fill="#E0E0E0"/>
<path d="M193.019 150.176C209.416 141.926 215.586 123.098 217.506 105.651C217.826 102.739 218.587 99.7312 217.576 96.992C216.565 94.2528 213.602 92.0448 210.83 92.896C208.533 93.5936 207.234 95.9616 205.71 97.856C203.704 100.387 201.021 102.297 197.973 103.366C195.989 104.058 193.621 104.314 191.944 103.046C189.646 101.306 189.851 97.8112 190.286 94.9312C191.097 89.5595 191.908 84.192 192.718 78.8288C193.154 75.9488 193.582 73.0112 193.083 70.144C192.584 67.2768 190.971 64.4544 188.341 63.2896C185.71 62.1248 182.088 63.2128 181.102 65.952C180.693 67.0912 180.757 68.3456 180.501 69.5296C180.245 70.7136 179.502 71.9552 178.318 72.128C177.134 72.3008 176.078 71.3152 175.342 70.3424C172.782 67.008 171.31 62.9632 169.96 58.9632C168.61 54.9632 167.336 50.88 165.096 47.3152C162.856 43.7504 159.483 40.6976 155.394 39.8656C151.304 39.0336 146.53 40.9472 144.904 44.8512C143.278 48.7552 145.045 53.2288 147.15 56.8896C150.259 62.327 154.14 67.2852 158.67 71.6096C159.49 72.384 160.373 73.2224 160.59 74.3424C160.936 76.352 158.843 77.9968 156.853 78.3552C154.6 78.7584 152.302 78.2016 150.018 78.1376C147.733 78.0736 145.154 78.72 143.995 80.6976C142.389 83.4752 144.405 86.9184 146.555 89.2928C150.824 94.0452 155.879 98.0266 161.499 101.062C163.509 102.144 165.64 103.149 167.138 104.902C168.635 106.656 169.288 109.382 167.963 111.258C166.638 113.133 163.893 113.408 161.73 112.672C159.566 111.936 157.755 110.445 155.752 109.344C152.008 107.277 146.856 106.784 143.822 109.862C141.832 111.872 141.23 114.982 141.685 117.792C142.139 120.602 143.515 123.149 145.026 125.542C150.299 133.907 157.557 141.082 166.286 145.594C175.016 150.106 183.4 152.198 193.013 150.182" fill="#F5F5F5"/>
<path d="M190.12 138.643C188.602 128.77 186.521 118.992 183.886 109.357L181.851 101.76C181.179 99.2704 180.514 96.8 179.714 94.4256C178.169 89.8664 176.372 85.3966 174.331 81.0368C172.411 76.864 170.446 72.9728 168.571 69.344C166.696 65.7152 164.872 62.3744 163.093 59.3984C160.301 54.6881 157.141 50.2068 153.64 45.9968C152.405 44.5056 151.406 43.3792 150.722 42.6304L149.941 41.7792C149.856 41.6771 149.761 41.5828 149.659 41.4976C149.726 41.6106 149.806 41.7158 149.896 41.8112L150.645 42.7008C151.285 43.4752 152.27 44.6208 153.48 46.1312C156.908 50.3734 160.014 54.8659 162.773 59.5712C164.533 62.5536 166.325 65.9008 168.181 69.5296C170.037 73.1584 171.989 77.056 173.89 81.2224C175.916 85.5799 177.702 90.0453 179.24 94.5984C180.034 96.9664 180.693 99.4112 181.365 101.907C182.037 104.403 182.702 106.938 183.387 109.498C186.02 119.114 188.112 128.87 189.653 138.72" fill="#E0E0E0"/>
<path d="M179.566 94.3872C179.763 94.0085 179.918 93.6093 180.027 93.1968C180.29 92.4224 180.667 91.2768 181.051 89.888C181.87 87.072 182.875 83.1552 183.963 78.8288C185.051 74.5024 186.114 70.6048 186.971 67.8144C187.4 66.4192 187.758 65.2928 188.014 64.5184C188.173 64.1221 188.288 63.7103 188.36 63.2896C188.137 63.6517 187.957 64.0382 187.822 64.4416C187.502 65.1968 187.093 66.3104 186.613 67.6992C185.659 70.464 184.539 74.3616 183.445 78.6944L180.686 89.7856C180.349 91.1168 180.061 92.2347 179.822 93.1392C179.69 93.5441 179.604 93.9628 179.566 94.3872Z" fill="#E0E0E0"/>
<path d="M143.515 82.1056C143.986 82.281 144.473 82.4117 144.968 82.496C145.902 82.72 147.266 83.0336 148.93 83.4752C152.27 84.3328 156.846 85.6768 161.826 87.3792C166.805 89.0816 171.246 90.8416 174.421 92.192C176.014 92.832 177.288 93.4336 178.171 93.824C178.617 94.056 179.084 94.2445 179.566 94.3872C179.164 94.096 178.736 93.8432 178.286 93.632C177.429 93.184 176.174 92.5568 174.6 91.84C171.451 90.3936 167.016 88.5888 162.024 86.8672C157.765 85.3902 153.433 84.1341 149.045 83.104C147.362 82.7072 145.986 82.464 145.032 82.2912C144.534 82.1804 144.026 82.1182 143.515 82.1056Z" fill="#E0E0E0"/>
<path d="M189.755 137.894C189.88 137.773 189.987 137.635 190.075 137.485C190.299 137.146 190.568 136.73 190.901 136.205C191.617 135.117 192.609 133.517 193.806 131.526C196.206 127.539 199.349 121.926 202.734 115.686C206.12 109.446 209.211 103.84 211.528 99.84L214.28 95.0784L215.022 93.7984C215.119 93.6512 215.197 93.492 215.253 93.3248C215.127 93.4475 215.019 93.5876 214.933 93.7408L214.107 95.0208C213.39 96.1088 212.398 97.7088 211.201 99.7056C208.801 103.693 205.653 109.306 202.241 115.546C198.83 121.786 195.771 127.411 193.454 131.443L190.702 136.211C190.401 136.73 190.158 137.165 189.96 137.491C189.876 137.617 189.808 137.753 189.755 137.894Z" fill="#E0E0E0"/>
<path d="M142.811 114.912C142.953 115.021 143.108 115.111 143.272 115.181L144.629 115.84L149.653 118.31C153.896 120.403 159.726 123.354 166.158 126.63C172.59 129.907 178.459 132.8 182.747 134.803C184.891 135.802 186.632 136.595 187.867 137.12L189.269 137.709C189.427 137.792 189.598 137.851 189.774 137.882C189.631 137.775 189.477 137.685 189.313 137.613L187.957 136.928L182.926 134.458C178.683 132.371 172.859 129.421 166.421 126.138C159.982 122.854 154.126 119.968 149.838 117.965C147.694 116.966 145.953 116.173 144.718 115.648L143.317 115.059C143.157 114.985 142.986 114.935 142.811 114.912Z" fill="#E0E0E0"/>
<path d="M61.3392 71.456C61.3392 61.0112 72.3088 54.4 83.496 59.6288C86.0241 60.8144 88.0928 62.7977 89.3839 65.2736C92.1935 70.7264 90.952 76.9472 88.3984 82.1184L79.6944 104.179C79.4201 104.883 78.9398 105.487 78.3163 105.914C77.6928 106.34 76.9552 106.568 76.2 106.568C75.4447 106.568 74.7071 106.34 74.0836 105.914C73.4601 105.487 72.9798 104.883 72.7055 104.179L64.168 81.9968C61.2176 75.2192 61.3392 71.456 61.3392 71.456ZM71.848 80.544C79.368 84.9152 86.9903 76.832 82.8687 68.8576C82.3309 67.7937 81.5005 66.9056 80.4751 66.2976C72.9551 61.9264 65.3391 70.0096 69.4607 77.984C69.9962 79.0474 70.8245 79.9356 71.848 80.544Z" fill="#F5F5F5"/>
<path d="M-29.4 284.211C-29.4 284.307 66.6 284.378 184.962 284.378C303.323 284.378 399.362 284.307 399.362 284.211C399.362 284.115 303.4 284.045 184.962 284.045C66.5232 284.045 -29.4 284.122 -29.4 284.211Z" fill="#263238"/>
<path d="M217.538 284.211L302.606 283.821C307.518 283.79 312.217 281.814 315.674 278.326C319.131 274.838 321.065 270.121 321.051 265.21L320.149 51.9424C320.12 47.0289 318.144 42.3273 314.654 38.8684C311.164 35.4096 306.445 33.4759 301.531 33.4912L216.462 33.8816C211.553 33.9121 206.856 35.8862 203.399 39.3719C199.942 42.8576 198.007 47.5708 198.018 52.48L198.92 265.747C198.945 270.663 200.92 275.368 204.41 278.829C207.901 282.291 212.622 284.227 217.538 284.211Z" fill="#455A64"/>
<path d="M216.584 41.2416L233.077 41.1648C234.163 41.185 235.196 41.6349 235.951 42.4159C236.705 43.1969 237.12 44.2453 237.102 45.3312V48.3264C237.094 48.864 237.192 49.398 237.39 49.8978C237.588 50.3977 237.883 50.8535 238.257 51.2393C238.632 51.6251 239.079 51.9333 239.572 52.1462C240.066 52.3591 240.597 52.4725 241.134 52.48L273.288 52.3328C274.373 52.301 275.402 51.8408 276.149 51.053C276.896 50.2651 277.301 49.2135 277.275 48.128V45.1328C277.256 44.0545 277.663 43.012 278.406 42.2311C279.15 41.4501 280.172 40.9935 281.25 40.96H287.048L301.48 40.8512C304.921 40.8342 308.228 42.1845 310.674 44.6052C313.12 47.0259 314.505 50.3188 314.523 53.76L315.4 261.926C315.415 265.368 314.063 268.674 311.642 271.119C309.22 273.563 305.926 274.946 302.485 274.963L217.582 275.354C215.878 275.361 214.189 275.033 212.611 274.388C211.033 273.742 209.598 272.793 208.388 271.593C207.177 270.393 206.215 268.966 205.556 267.395C204.896 265.823 204.553 264.136 204.546 262.432L203.669 54.272C203.661 52.5684 203.989 50.88 204.634 49.3031C205.279 47.7263 206.228 46.2919 207.428 45.0819C208.627 43.872 210.053 42.91 211.624 42.2511C213.195 41.5922 214.88 41.2492 216.584 41.2416Z" fill="#FAFAFA"/>
<path d="M314.626 78.752H300.712L288.296 91.1744L301.205 104.083L314.478 90.8032L314.626 78.752Z" fill="#EBEBEB"/>
<path d="M285.461 85.7216L292.437 78.752H276.744L285.461 85.7216Z" fill="#EBEBEB"/>
<path d="M279.362 91.4176L267.144 79.2H224.456C224.456 79.2 217.922 108.384 243.656 127.123L279.362 91.4176Z" fill="#EBEBEB"/>
<path d="M284.59 95.3088L297.659 108.384L261.493 144.55L248.424 131.04L284.59 95.3088Z" fill="#EBEBEB"/>
<path d="M314.786 115.795L306.594 107.296L314.626 99.264L314.786 115.795Z" fill="#EBEBEB"/>
<path d="M301.691 112.307L314.274 124.89V142.374L288.296 168.954L266.286 148.474L301.691 112.307Z" fill="#EBEBEB"/>
<path d="M238.76 130.79C238.76 130.79 211.803 111.027 220.52 79.2H203.758L203.963 169.03L238.76 130.79Z" fill="#EBEBEB"/>
<path d="M243.829 135.974L256.859 149.581L216.898 189.549L204.674 176.595L243.829 135.974Z" fill="#EBEBEB"/>
<path d="M262.306 153.306L282.792 173.645L241.819 214.33L221.371 194.56L262.306 153.306Z" fill="#EBEBEB"/>
<path d="M273.045 255.213L241.723 222.752L211.931 253.12L273.045 255.213Z" fill="#EBEBEB"/>
<path d="M236.84 218.56L204.2 186.24C204.2 187.674 204.482 253.254 204.482 253.254L236.84 218.56Z" fill="#EBEBEB"/>
<path d="M264.763 200.41L246.261 218.912L282.792 256.608L299.669 236.365L264.763 200.41Z" fill="#EBEBEB"/>
<path d="M314.754 238.989C313.006 238.816 268.264 196.915 268.264 196.915L314.754 148.742V238.989Z" fill="#EBEBEB"/>
<path d="M315.4 248.538L304.629 238.989L289.71 256.608H315.4V249.869" fill="#EBEBEB"/>
<path d="M301.48 66.0672C302.618 65.2273 303.688 64.2985 304.68 63.2896C304.68 62.8032 304.68 63.1552 304.68 63.0464L304.635 63.008L304.558 62.9376L304.398 62.7904L304.091 62.5024L303.509 61.9648L302.504 61.0688C302.2 60.7579 301.855 60.4888 301.48 60.2688C301.708 60.6168 301.984 60.9313 302.299 61.2032L303.259 62.1504L303.829 62.7008L304.136 62.9952L304.29 63.1424L304.373 63.2128L304.411 63.2512V63.008C303.356 63.9499 302.376 64.9727 301.48 66.0672Z" fill="#263238"/>
<path d="M213 61.184C212.999 61.3225 213.039 61.4583 213.115 61.574C213.191 61.6897 213.3 61.7801 213.428 61.8337C213.555 61.8872 213.696 61.9016 213.832 61.8749C213.968 61.8482 214.093 61.7816 214.191 61.6837C214.289 61.5857 214.355 61.4608 214.382 61.3249C214.409 61.189 214.394 61.0482 214.341 60.9205C214.287 60.7928 214.197 60.6839 214.081 60.6077C213.965 60.5315 213.83 60.4915 213.691 60.4928C213.508 60.4928 213.332 60.5656 213.202 60.6953C213.073 60.8249 213 61.0007 213 61.184Z" fill="#263238"/>
<path d="M213.198 63.0848C213.101 63.1823 213.034 63.3066 213.007 63.442C212.98 63.5773 212.994 63.7177 213.047 63.8452C213.099 63.9728 213.189 64.0818 213.303 64.1585C213.418 64.2352 213.553 64.2762 213.691 64.2762C213.829 64.2762 213.964 64.2352 214.079 64.1585C214.194 64.0818 214.283 63.9728 214.336 63.8452C214.389 63.7177 214.402 63.5773 214.375 63.442C214.348 63.3066 214.282 63.1823 214.184 63.0848C214.052 62.9558 213.875 62.8836 213.691 62.8836C213.507 62.8836 213.33 62.9558 213.198 63.0848Z" fill="#263238"/>
<path d="M213 65.9648C213.017 66.1375 213.097 66.2978 213.225 66.4144C213.354 66.531 213.521 66.5957 213.694 66.5957C213.868 66.5957 214.035 66.531 214.163 66.4144C214.292 66.2978 214.372 66.1375 214.389 65.9648C214.398 65.868 214.387 65.7704 214.356 65.6781C214.326 65.5858 214.276 65.501 214.211 65.429C214.145 65.357 214.066 65.2995 213.977 65.2602C213.888 65.2208 213.792 65.2005 213.694 65.2005C213.597 65.2005 213.501 65.2208 213.412 65.2602C213.323 65.2995 213.243 65.357 213.178 65.429C213.113 65.501 213.063 65.5858 213.032 65.6781C213.002 65.7704 212.991 65.868 213 65.9648Z" fill="#263238"/>
<path d="M242.99 64.0192H272.93V66.5152H242.99V64.0192Z" fill="#263238"/>
<path d="M246.248 108.8C246.248 97.1392 258.498 89.7536 270.99 95.5968C273.817 96.9173 276.13 99.133 277.57 101.901C280.712 107.987 279.323 114.938 276.475 120.71L266.747 145.357C266.44 146.142 265.903 146.817 265.207 147.292C264.51 147.767 263.687 148.022 262.843 148.022C262 148.022 261.176 147.767 260.48 147.292C259.783 146.817 259.246 146.142 258.939 145.357L249.41 120.582C246.107 113.03 246.248 108.8 246.248 108.8ZM257.96 118.976C266.357 123.859 274.869 114.835 270.267 105.926C269.661 104.752 268.736 103.771 267.598 103.098C259.195 98.2144 250.683 107.238 255.291 116.147C255.895 117.324 256.821 118.305 257.96 118.976Z" fill="#006FCF"/>
<path d="M-8.32489 197.837H346.76V249.939H-8.32489V197.837Z" fill="#006FCF"/>
<g opacity="0.5">
<path d="M-8.32489 197.837H346.76V249.939H-8.32489V197.837Z" fill="black"/>
</g>
<path d="M296.742 283.747C277.874 282.478 263.608 266.153 264.878 247.286C266.148 228.418 282.472 214.152 301.34 215.422C320.208 216.692 334.473 233.016 333.204 251.884C331.934 270.751 315.609 285.017 296.742 283.747Z" fill="#263238"/>
<path d="M333.275 249.005C333.275 249.037 333.275 249.069 333.275 249.094C333.34 253.591 332.519 258.056 330.859 262.235C329.198 266.414 326.731 270.225 323.597 273.451C320.464 276.677 316.726 279.253 312.596 281.034C308.467 282.815 304.028 283.765 299.531 283.83C295.035 283.896 290.569 283.074 286.39 281.414C282.211 279.753 278.4 277.286 275.174 274.152C271.949 271.019 269.372 267.281 267.591 263.152C265.81 259.022 264.86 254.583 264.795 250.086C264.795 250.054 264.795 250.022 264.795 249.997L333.275 249.005Z" fill="#263238"/>
<path d="M323.08 249.242C323.15 253.996 321.809 258.665 319.226 262.657C316.643 266.649 312.934 269.785 308.568 271.669C304.202 273.553 299.376 274.099 294.699 273.24C290.022 272.38 285.706 270.153 282.295 266.84C278.884 263.527 276.533 259.277 275.538 254.627C274.543 249.977 274.949 245.137 276.706 240.718C278.462 236.3 281.489 232.501 285.405 229.803C289.32 227.105 293.948 225.629 298.702 225.562C305.075 225.471 311.222 227.914 315.793 232.355C320.365 236.795 322.986 242.869 323.08 249.242Z" fill="#FAFAFA"/>
<path d="M298.702 225.555C305.075 225.463 311.224 227.906 315.795 232.347C320.367 236.787 322.987 242.862 323.08 249.235L275.01 249.933C274.919 243.558 277.364 237.409 281.807 232.837C286.251 228.266 292.328 225.646 298.702 225.555Z" fill="#E0E0E0"/>
<path d="M313.685 249.376C313.728 252.272 312.91 255.116 311.337 257.548C309.763 259.98 307.503 261.89 304.844 263.037C302.184 264.185 299.244 264.518 296.395 263.994C293.546 263.47 290.917 262.113 288.839 260.095C286.762 258.076 285.33 255.487 284.724 252.655C284.118 249.822 284.366 246.874 285.436 244.182C286.506 241.49 288.351 239.177 290.736 237.533C293.121 235.89 295.941 234.991 298.837 234.95C300.759 234.922 302.668 235.273 304.454 235.983C306.241 236.693 307.87 237.748 309.249 239.088C310.628 240.427 311.729 242.025 312.49 243.791C313.251 245.556 313.657 247.454 313.685 249.376Z" fill="#263238"/>
<path d="M35.2232 283.735C16.3447 282.64 1.92846 266.448 3.0236 247.57C4.11873 228.691 20.3106 214.275 39.1891 215.37C58.0675 216.465 72.4838 232.657 71.3887 251.536C70.2935 270.414 54.1017 284.83 35.2232 283.735Z" fill="#263238"/>
<path d="M71.4511 249.005C71.4511 249.037 71.4511 249.069 71.4511 249.094C71.5163 253.591 70.6951 258.056 69.0346 262.235C67.374 266.414 64.9066 270.225 61.7731 273.451C58.6397 276.677 54.9017 279.253 50.7724 281.034C46.6432 282.815 42.2036 283.765 37.7071 283.83C33.2106 283.896 28.7454 283.074 24.5663 281.414C20.3872 279.753 16.576 277.286 13.3505 274.152C10.125 271.019 7.54818 267.281 5.76729 263.152C3.98639 259.022 3.03625 254.583 2.97112 250.086C2.97112 250.054 2.97112 250.022 2.97112 249.997L71.4511 249.005Z" fill="#263238"/>
<path d="M61.2559 249.242C61.3263 253.996 59.9851 258.665 57.4019 262.657C54.8188 266.649 51.1097 269.785 46.7438 271.669C42.378 273.553 37.5515 274.099 32.8749 273.24C28.1983 272.38 23.8816 270.153 20.4709 266.84C17.0602 263.527 14.7087 259.277 13.7138 254.627C12.7189 249.977 13.1253 245.137 14.8817 240.718C16.638 236.3 19.6654 232.501 23.5808 229.803C27.4962 227.105 32.1238 225.629 36.8783 225.562C43.2506 225.471 49.3981 227.914 53.9693 232.355C58.5406 236.795 61.1615 242.869 61.2559 249.242Z" fill="#FAFAFA"/>
<path d="M36.8784 225.555C43.2511 225.463 49.3996 227.906 53.9713 232.347C58.5429 236.787 61.1633 242.862 61.256 249.235L13.1856 249.933C13.0949 243.558 15.5402 237.409 19.9834 232.837C24.4267 228.266 30.5039 225.646 36.8784 225.555Z" fill="#E0E0E0"/>
<path d="M51.88 249.376C51.9228 252.272 51.1056 255.116 49.5319 257.548C47.9581 259.98 45.6986 261.89 43.0389 263.037C40.3793 264.185 37.4392 264.518 34.5903 263.994C31.7415 263.47 29.1121 262.113 27.0346 260.095C24.957 258.076 23.5248 255.487 22.919 252.655C22.3132 249.822 22.5611 246.874 23.6313 244.182C24.7015 241.49 26.5459 239.177 28.9312 237.533C31.3166 235.89 34.1357 234.991 37.032 234.95C38.9542 234.922 40.863 235.273 42.6496 235.983C44.4361 236.693 46.0653 237.748 47.4441 239.088C48.8229 240.427 49.9243 242.025 50.6854 243.791C51.4465 245.556 51.8525 247.454 51.88 249.376Z" fill="#263238"/>
<path d="M254.165 168.525C254.165 168.525 304.584 172.243 323.285 176.435C336.456 179.386 361.851 184.486 361.544 200.461L359.528 211.917C359.528 211.917 368.942 216.218 368.942 227.2C368.942 238.182 371.24 255.206 349.25 255.891C345.627 256 338.747 255.891 338.747 255.891C338.747 255.891 342.965 209.056 299.944 207.686C256.174 206.291 259.08 255.462 259.08 255.462H76.4048C76.4048 255.462 83.9055 207.558 36.7887 207.462C-10.3281 207.366 -3.16006 255.776 -3.16006 255.776C-3.16006 255.776 -20.4912 257.274 -28.5553 242.707C-36.6193 228.141 -34.5265 217.747 -34.5265 217.747L-34.2577 208.538C-34.2066 207.026 -33.5833 205.591 -32.514 204.521C-31.4447 203.452 -30.0091 202.829 -28.4977 202.778C-28.4977 202.778 -31.6465 179.597 -26.8145 175.584C-21.9825 171.571 4.49435 147.36 4.49435 147.36L3.21436 146.573C2.73984 146.273 2.36005 145.845 2.11905 145.338C1.87805 144.831 1.78568 144.266 1.85266 143.708C1.91968 143.151 2.14328 142.624 2.49756 142.189C2.85184 141.753 3.3223 141.427 3.85434 141.248C13.9088 137.792 33.7872 130.95 38.4592 129.318C39.1588 129.07 39.8884 128.915 40.6287 128.858C43.4191 128.646 51.3168 128.147 65.8128 127.994C83.4704 127.802 153.576 127.994 153.576 127.994C153.576 127.994 177.704 129.978 191.144 135.891C205.237 142.112 254.165 168.525 254.165 168.525Z" fill="#006FCF"/>
<g opacity="0.4">
<path d="M356.155 225.92C357.986 225.549 360.789 225.517 362.184 226.752C363.221 227.674 363.496 229.165 363.65 230.541C363.943 232.426 363.9 234.348 363.522 236.218C363.328 237.151 362.945 238.035 362.394 238.814C361.843 239.593 361.138 240.249 360.322 240.742C358.645 241.651 356.353 241.504 355.054 240.102C353.864 238.822 353.729 236.902 353.774 235.194C353.819 232.723 353.621 230.63 354.075 228.205C354.175 227.69 354.394 227.206 354.715 226.79C354.875 226.542 355.089 226.333 355.342 226.181C355.595 226.029 355.88 225.938 356.174 225.914" fill="black"/>
</g>
<path d="M359.515 211.917C354.165 211.917 348.974 211.622 343.63 211.277C343.048 211.302 342.475 211.128 342.005 210.784C341.79 210.517 341.63 210.209 341.534 209.88C341.439 209.55 341.409 209.205 341.448 208.864C341.448 205.997 341.563 202.733 343.739 200.864C345.07 199.725 346.894 199.366 348.642 199.206C352.98 198.738 357.369 199.173 361.531 200.486L359.515 211.917Z" fill="#FAFAFA"/>
<path d="M248.36 253.997C248.36 253.997 248.36 253.843 248.398 253.536C248.437 253.229 248.45 252.774 248.488 252.192C248.552 251.002 248.648 249.267 248.77 247.027C248.891 244.787 249.045 242.042 249.365 238.867C249.695 235.273 250.327 231.713 251.253 228.224C252.421 224.01 254.154 219.973 256.405 216.224C258.954 211.894 262.342 208.117 266.37 205.114C275.003 198.97 286.67 195.514 298.875 195.347C311.08 195.181 322.754 199.04 331.176 205.51C335.213 208.497 338.75 212.107 341.653 216.205C344.188 219.763 346.249 223.635 347.784 227.725C349.05 231.105 349.92 234.621 350.376 238.202C350.733 240.902 350.838 243.629 350.69 246.349C350.585 248.067 350.371 249.777 350.05 251.469C349.947 252.038 349.864 252.48 349.813 252.787C349.762 253.094 349.742 253.242 349.742 253.242C349.742 253.242 349.781 253.094 349.845 252.8L350.12 251.52C350.468 249.831 350.699 248.121 350.811 246.4C350.985 243.672 350.899 240.933 350.555 238.221C350.114 234.622 349.255 231.086 347.995 227.686C346.465 223.564 344.404 219.659 341.864 216.07C338.954 211.94 335.402 208.301 331.342 205.293C322.882 198.79 311.182 194.893 298.882 195.053C286.581 195.213 274.894 198.701 266.19 204.902C262.139 207.936 258.733 211.748 256.174 216.115C253.926 219.893 252.203 223.961 251.054 228.205C250.134 231.708 249.515 235.284 249.205 238.893C248.904 242.093 248.77 244.819 248.667 247.059C248.565 249.299 248.494 251.04 248.443 252.23C248.443 252.813 248.405 253.261 248.392 253.574C248.379 253.888 248.36 253.997 248.36 253.997Z" fill="white"/>
<path d="M246.44 254.79V254.406L246.478 253.274C246.51 252.262 246.555 250.784 246.619 248.851C246.728 244.966 246.888 239.29 247.093 232.064C247.298 224.838 247.534 216.064 247.81 206.016C247.88 203.501 247.944 200.896 248.021 198.24C248.066 196.883 248.006 195.524 247.842 194.176L247.554 192.115L247.131 190.048C246.468 187.224 245.514 184.476 244.283 181.85C243.016 179.096 241.449 176.491 239.611 174.08L207.976 154.15L199.432 148.774C196.552 146.861 193.529 145.173 190.389 143.725C187.178 142.213 183.883 140.886 180.52 139.75C178.843 139.162 177.122 138.682 175.4 138.17C173.678 137.658 171.925 137.235 170.146 136.89C163.437 135.454 156.617 134.598 149.762 134.33C143.183 134.014 136.593 134.036 130.018 134.394H129.832L129.877 134.579L138.376 172.602C139.946 175.18 141.233 177.92 142.216 180.774C143.183 183.482 143.618 186.35 143.496 189.222C143.278 192.032 143.202 194.784 143.131 197.453C143.061 200.122 143.029 202.707 142.978 205.222C142.83 215.27 142.792 224.032 142.766 231.251C142.741 238.47 142.766 244.147 142.766 248.026C142.766 249.946 142.766 251.437 142.766 252.448C142.766 252.941 142.766 253.318 142.766 253.581C142.766 253.843 142.766 253.965 142.766 253.965C142.766 253.965 142.766 253.83 142.766 253.581C142.766 253.331 142.766 252.941 142.766 252.448C142.766 251.437 142.766 249.958 142.766 248.026C142.766 244.147 142.824 238.47 142.869 231.258C142.914 224.045 142.978 215.258 143.15 205.222C143.202 202.714 143.257 200.126 143.317 197.459C143.394 194.79 143.47 192.051 143.694 189.242C143.824 186.333 143.39 183.428 142.414 180.685C141.439 177.807 140.151 175.045 138.574 172.448V172.493C135.97 160.787 133.122 148.013 130.107 134.464L129.96 134.656C136.521 134.302 143.096 134.285 149.659 134.605C156.498 134.87 163.301 135.726 169.992 137.165C171.765 137.517 173.493 138.01 175.227 138.445C176.962 138.88 178.658 139.437 180.347 140.019C183.71 141.156 187.005 142.485 190.216 144C193.34 145.438 196.349 147.116 199.214 149.018L207.765 154.394L239.4 174.278V174.246C241.234 176.641 242.797 179.232 244.059 181.971C245.289 184.578 246.241 187.306 246.901 190.112C248.341 195.597 247.618 200.992 247.605 206.016L246.965 232.064C246.792 239.283 246.658 244.966 246.568 248.845C246.523 250.765 246.498 252.262 246.472 253.274C246.472 253.764 246.472 254.142 246.472 254.406C246.44 254.662 246.44 254.79 246.44 254.79Z" fill="#263238"/>
<path d="M130.248 135.45H129.947L129.07 135.418L125.672 135.334L113.07 135.091L70.5871 134.362H70.5039L70.4527 134.426L64.5007 141.715C58.4719 149.12 52.7247 156.16 47.5023 162.56L45.5823 164.928C44.9607 165.722 44.4264 166.58 43.9887 167.488C43.1958 169.172 42.765 171.004 42.7243 172.864C42.6835 174.725 43.0336 176.574 43.7519 178.291L45.6719 182.771L51.5471 196.365L53.1599 200.051L53.5887 201.011C53.6847 201.222 53.7423 201.331 53.7423 201.331C53.7423 201.331 53.7039 201.216 53.6207 200.998C53.5375 200.781 53.3903 200.442 53.2239 200.026C52.8591 199.168 52.3407 197.914 51.6687 196.314L45.9087 182.682C44.8079 179.789 42.8687 176.742 43.0031 173.03C43.0316 171.144 43.4683 169.286 44.2831 167.584C44.7122 166.7 45.2358 165.865 45.8447 165.094L47.7647 162.726L64.7823 141.901L70.7279 134.611L70.5999 134.675L113.09 135.315L125.691 135.462H129.09H129.96L130.248 135.45Z" fill="#263238"/>
<path d="M151.72 191.949C151.72 191.949 151.541 191.949 151.214 191.872C150.734 191.787 150.277 191.604 149.87 191.334C149.225 190.914 148.743 190.286 148.501 189.555C148.354 189.101 148.293 188.624 148.322 188.147C148.337 187.616 148.472 187.095 148.718 186.624C149.004 186.088 149.429 185.638 149.948 185.322C150.467 185.006 151.061 184.834 151.669 184.826H155.982H165.87C166.706 184.827 167.51 185.142 168.123 185.709C168.722 186.254 169.104 186.997 169.198 187.802C169.295 188.579 169.153 189.367 168.789 190.061C168.418 190.712 167.842 191.223 167.15 191.514C166.466 191.748 165.74 191.838 165.019 191.776H162.926H159.163L153.717 191.827L152.238 191.859C152.065 191.856 151.891 191.868 151.72 191.898C151.892 191.918 152.065 191.928 152.238 191.93H153.717L159.163 191.981H162.926H165.019C165.384 191.981 165.736 191.981 166.126 191.981C166.518 191.957 166.903 191.868 167.266 191.718C168.025 191.407 168.658 190.85 169.064 190.138C169.47 189.389 169.629 188.531 169.518 187.686C169.418 186.789 168.99 185.959 168.318 185.356C167.645 184.753 166.774 184.418 165.87 184.416H155.982H151.662C151.009 184.43 150.372 184.62 149.818 184.965C149.264 185.311 148.813 185.8 148.514 186.381C148.257 186.885 148.119 187.441 148.11 188.006C148.09 188.506 148.161 189.005 148.322 189.478C148.592 190.239 149.114 190.884 149.8 191.309C150.223 191.578 150.703 191.747 151.202 191.802C151.368 191.871 151.542 191.92 151.72 191.949Z" fill="#263238"/>
<path d="M56.9999 191.949C56.9999 191.949 56.8207 191.949 56.4943 191.872C56.0142 191.787 55.5567 191.604 55.1503 191.334C54.5054 190.914 54.0225 190.286 53.7807 189.555C53.634 189.101 53.5732 188.624 53.6015 188.147C53.6167 187.616 53.7523 187.095 53.9983 186.624C54.2844 186.088 54.709 185.638 55.2279 185.322C55.7468 185.006 56.341 184.834 56.9487 184.826H61.2623H71.1503C71.9855 184.827 72.7896 185.142 73.4031 185.709C74.002 186.254 74.3839 186.997 74.4783 187.802C74.5754 188.579 74.4324 189.367 74.0687 190.061C73.6974 190.712 73.1215 191.223 72.4303 191.514C71.7459 191.748 71.02 191.838 70.2991 191.776H68.2063H64.4431L58.9967 191.827L57.5183 191.859C57.3447 191.856 57.1711 191.868 56.9999 191.898C57.172 191.918 57.3451 191.928 57.5183 191.93H58.9967L64.4431 191.981H68.2063H70.2991C70.6639 191.981 71.0159 191.981 71.4063 191.981C71.7979 191.957 72.1829 191.868 72.5455 191.718C73.3044 191.407 73.9374 190.85 74.3439 190.138C74.7501 189.389 74.9091 188.531 74.7983 187.686C74.6977 186.789 74.2704 185.959 73.5976 185.356C72.9249 184.753 72.0538 184.418 71.1503 184.416H61.2623H56.9423C56.2892 184.43 55.6519 184.62 55.0977 184.965C54.5435 185.311 54.0929 185.8 53.7935 186.381C53.5372 186.885 53.3993 187.441 53.3903 188.006C53.3696 188.506 53.4412 189.005 53.6015 189.478C53.8721 190.239 54.3935 190.884 55.0799 191.309C55.5033 191.578 55.9828 191.747 56.4815 191.802C56.6479 191.871 56.8219 191.92 56.9999 191.949Z" fill="#263238"/>
<path d="M237.096 174.112L139.349 172.307L75.7328 171.142L54.7536 159.027C54.3547 158.795 54.0098 158.481 53.7416 158.105C53.4734 157.729 53.2881 157.301 53.198 156.848C53.1078 156.396 53.1148 155.929 53.2186 155.48C53.3224 155.03 53.5206 154.607 53.8 154.24L66.8623 137.082C67.5334 136.198 68.3982 135.48 69.39 134.983C70.3819 134.486 71.4745 134.223 72.5839 134.214L143.739 133.638C143.739 133.638 170.53 132.077 191.643 143.878C213.845 156.339 237.096 174.112 237.096 174.112Z" fill="#263238"/>
<path d="M192.302 135.411C192.302 135.411 187.4 137.645 190.587 139.712C193.774 141.779 243.298 172.992 243.298 172.992L254.683 167.84C234.517 156.621 214.152 145.709 192.302 135.411Z" fill="#455A64"/>
<path d="M241.698 173.786L242.005 173.862L242.907 174.061L246.382 174.778C249.403 175.379 253.781 176.224 259.182 177.158C270.062 179.027 285.115 181.203 301.864 182.65C306.056 183.014 310.184 183.29 314.101 183.571C318.018 183.853 321.87 184.077 325.493 184.403C332.744 185.043 339.234 186.093 344.507 187.661C348.699 188.826 352.733 190.498 356.52 192.64C357.883 193.357 358.856 194.061 359.541 194.483L360.322 194.976L360.597 195.136C360.515 195.07 360.429 195.008 360.341 194.95L359.579 194.426C358.901 193.984 357.941 193.261 356.584 192.506C352.82 190.305 348.795 188.585 344.603 187.386C339.317 185.779 332.808 184.698 325.55 184.051C321.922 183.706 318.107 183.462 314.152 183.2C310.197 182.938 306.107 182.63 301.922 182.266C285.179 180.819 270.107 178.682 259.246 176.87C253.813 175.968 249.435 175.162 246.408 174.598L242.92 173.958L242.011 173.792L241.698 173.786Z" fill="#263238"/>
<path d="M85.6144 234.182C85.6144 234.278 122.389 234.349 167.746 234.349C213.102 234.349 249.883 234.278 249.883 234.182C249.883 234.086 213.115 234.016 167.746 234.016C122.376 234.016 85.6144 234.093 85.6144 234.182Z" fill="#263238"/>
<path d="M343.08 218.106C343.08 218.202 348.283 218.272 354.696 218.272C361.109 218.272 366.312 218.202 366.312 218.106C366.312 218.01 361.109 217.939 354.696 217.939C348.283 217.939 343.08 218.016 343.08 218.106Z" fill="#263238"/>
<path d="M4.98716 146.694C4.98716 146.694 9.35197 151.578 7.63677 155.162C5.92157 158.746 -11.8128 171.302 -11.8128 171.302L-24.6832 173.715L4.98716 146.694Z" fill="#455A64"/>
<path d="M127.355 137.946L130.248 169.203L78.4591 167.725L57.5887 155.59L71.0991 137.946H127.355Z" fill="#455A64"/>
<path d="M224.833 170.803C224.833 170.803 193.589 148.237 181.262 143.75C169.365 139.424 163.163 138.336 151.989 137.99C141.307 137.683 134.798 137.99 134.798 137.99L143.054 169.766L224.833 170.803Z" fill="#455A64"/>
<path d="M229.403 170.88C229.403 169.908 229.144 168.954 228.654 168.115C228.163 167.277 227.459 166.583 226.613 166.106L219.432 162.074C217.386 160.922 215.078 160.318 212.731 160.32C211.286 160.322 209.849 160.551 208.475 160.998C206.979 161.516 205.676 162.478 204.741 163.755C203.805 165.032 203.282 166.565 203.24 168.147C203.199 169.21 203.374 170.27 203.753 171.264C204.132 172.258 204.708 173.166 205.446 173.932C206.184 174.698 207.069 175.307 208.048 175.723C209.027 176.139 210.08 176.353 211.144 176.352H223.944C225.393 176.349 226.781 175.771 227.805 174.745C228.828 173.719 229.403 172.329 229.403 170.88Z" fill="#006FCF"/>
<path d="M229.403 170.88C229.403 170.88 229.403 171.123 229.32 171.571C229.223 172.23 229.006 172.866 228.68 173.446C228.163 174.361 227.4 175.112 226.478 175.616C225.903 175.917 225.279 176.112 224.635 176.192C223.9 176.246 223.163 176.261 222.427 176.237L211.477 176.198C210.439 176.226 209.405 176.057 208.43 175.699C207.402 175.314 206.466 174.716 205.685 173.944C204.904 173.172 204.296 172.243 203.899 171.219C203.496 170.139 203.332 168.984 203.419 167.834C203.505 166.7 203.839 165.6 204.397 164.61C204.956 163.62 205.725 162.765 206.651 162.106C207.545 161.488 208.552 161.053 209.614 160.826C212.533 160.135 215.598 160.43 218.331 161.664C219.157 162.035 219.912 162.502 220.661 162.906L222.798 164.096L226.478 166.131C227.404 166.63 228.168 167.382 228.68 168.301C229.003 168.883 229.22 169.518 229.32 170.176C229.384 170.624 229.378 170.867 229.397 170.867C229.421 170.633 229.421 170.397 229.397 170.163C229.325 169.491 229.125 168.84 228.808 168.243C228.305 167.287 227.533 166.5 226.587 165.978L222.933 163.898L220.808 162.688C220.066 162.278 219.31 161.805 218.466 161.408C215.681 160.126 212.548 159.811 209.563 160.512C208.462 160.731 207.416 161.166 206.485 161.792C205.517 162.478 204.713 163.368 204.128 164.4C203.544 165.432 203.195 166.581 203.106 167.763C203.012 168.963 203.182 170.169 203.605 171.296C204.018 172.366 204.654 173.336 205.47 174.141C206.287 174.947 207.265 175.569 208.341 175.968C209.352 176.332 210.422 176.504 211.496 176.474L222.446 176.442C223.192 176.458 223.937 176.434 224.68 176.371C225.354 176.278 226.005 176.061 226.6 175.731C227.543 175.204 228.316 174.418 228.827 173.466C229.14 172.868 229.337 172.216 229.41 171.546C229.425 171.324 229.423 171.101 229.403 170.88Z" fill="#263238"/>
<path d="M-11.3136 254.285C-11.3136 254.285 -11.3136 254.138 -11.3136 253.843C-11.3136 253.549 -11.3648 253.107 -11.4032 252.563C-11.4416 252.019 -11.5056 251.283 -11.544 250.451C-11.5824 249.619 -11.608 248.646 -11.64 247.565C-11.672 246.483 -11.64 245.267 -11.64 243.949C-11.64 242.63 -11.544 241.19 -11.3648 239.654C-11.0741 236.173 -10.4548 232.728 -9.51522 229.363C-8.96174 227.4 -8.27973 225.476 -7.47362 223.603C-6.61764 221.579 -5.58539 219.635 -4.38882 217.792C-1.72167 213.729 1.67153 210.193 5.62075 207.36C9.96764 204.204 14.8198 201.81 19.9696 200.282C25.3072 198.65 31.1184 198.054 37.032 198.01C42.8001 197.957 48.542 198.792 54.056 200.486C56.6666 201.311 59.2017 202.358 61.6336 203.616C63.952 204.848 66.1541 206.287 68.2128 207.917C72.0399 210.914 75.4492 214.41 78.3504 218.31C79.626 220.101 80.752 221.993 81.7168 223.968C82.5966 225.799 83.3744 227.677 84.0464 229.594C86.0914 235.37 87.336 241.399 87.7456 247.514C87.848 249.683 87.8352 251.354 87.7776 252.518C87.7456 253.082 87.72 253.51 87.7072 253.798C87.6944 254.086 87.7072 254.24 87.7072 254.24C87.7072 254.24 87.7072 254.093 87.7584 253.798C87.8096 253.504 87.8224 253.062 87.8672 252.518C87.9518 250.849 87.9518 249.177 87.8672 247.507C87.5133 241.359 86.3005 235.29 84.264 229.478C83.5917 227.553 82.8183 225.665 81.9472 223.821C80.9742 221.831 79.8442 219.922 78.568 218.112C75.6575 214.186 72.2376 210.665 68.3984 207.642C66.3272 206 64.1123 204.547 61.7808 203.302C59.3327 202.035 56.7804 200.979 54.152 200.147C48.6068 198.433 42.8294 197.589 37.0256 197.645C31.0864 197.69 25.2496 198.285 19.8672 199.936C14.6835 201.479 9.80074 203.894 5.42876 207.078C3.40408 208.569 1.51127 210.23 -0.228813 212.045C-1.88169 213.747 -3.35504 215.615 -4.62561 217.619C-5.82584 219.479 -6.86024 221.441 -7.71683 223.482C-8.52126 225.354 -9.19904 227.278 -9.74561 229.242C-10.6795 232.623 -11.286 236.086 -11.5568 239.584C-11.7296 241.12 -11.7296 242.56 -11.8 243.885C-11.8704 245.21 -11.8 246.445 -11.8 247.507C-11.8 248.57 -11.704 249.562 -11.6656 250.4C-11.6272 251.238 -11.544 251.936 -11.4928 252.512C-11.4416 253.088 -11.4032 253.504 -11.3776 253.792C-11.352 254.08 -11.3136 254.285 -11.3136 254.285Z" fill="white"/>
<path d="M144.571 174.112H145.006L146.677 174.15L152.814 174.259C157.998 174.355 165.154 174.547 173.064 174.765C180.974 174.982 188.136 175.13 193.32 175.168C195.912 175.168 198.011 175.168 199.464 175.168H201.134H201.563C201.614 175.178 201.666 175.178 201.717 175.168C201.666 175.16 201.614 175.16 201.563 175.168H201.134L199.464 175.13L193.326 175.021C188.142 174.925 180.981 174.733 173.07 174.522C165.16 174.31 157.998 174.15 152.814 174.112C150.254 174.112 148.123 174.112 146.677 174.112H145.006H144.571Z" fill="white"/>
<path d="M152.91 183.731C154.774 183.9 156.646 183.955 158.517 183.898C160.387 183.955 162.259 183.9 164.123 183.731C162.259 183.566 160.387 183.511 158.517 183.565C156.646 183.511 154.774 183.566 152.91 183.731Z" fill="white"/>
<path d="M150.849 149.485C150.817 149.568 157.774 152.467 166.395 155.955C175.016 159.443 182.03 162.208 182.069 162.118C182.107 162.029 175.144 159.136 166.523 155.648C157.902 152.16 150.888 149.402 150.849 149.485Z" fill="white"/>
<path d="M164.955 151.68C164.917 151.77 171.547 154.688 179.758 158.202C187.97 161.715 194.651 164.499 194.69 164.416C194.728 164.333 188.098 161.414 179.886 157.894C171.675 154.374 164.994 151.584 164.955 151.68Z" fill="white"/>
<path d="M75.5086 148.275C75.4703 148.358 82.4335 151.258 91.0543 154.746C99.6751 158.234 106.689 160.992 106.728 160.909C106.766 160.826 99.8031 157.926 91.1759 154.438C82.5487 150.95 75.5599 148.186 75.5086 148.275Z" fill="white"/>
<path d="M89.64 150.458C89.6016 150.547 96.232 153.466 104.437 156.979C112.642 160.493 119.336 163.277 119.374 163.194C119.413 163.11 112.782 160.192 104.571 156.672C96.3599 153.152 89.64 150.4 89.64 150.458Z" fill="white"/>
<path d="M74.1456 174.08C74.1456 174.17 87.9888 174.33 105.064 174.432C122.139 174.534 135.982 174.541 135.982 174.432C135.982 174.323 122.146 174.182 105.064 174.086C87.9824 173.99 74.1456 174.01 74.1456 174.08Z" fill="white"/>
<path d="M58.8175 183.2C58.8175 183.29 62.6959 183.398 67.4895 183.443C72.2831 183.488 76.1615 183.443 76.1615 183.36C76.1615 183.277 72.2831 183.155 67.4895 183.11C62.6959 183.066 58.8175 183.104 58.8175 183.2Z" fill="white"/>
<path d="M323.88 178.464C324.002 178.505 324.129 178.531 324.257 178.541L325.339 178.682C325.813 178.733 326.389 178.803 327.054 178.918C327.72 179.034 328.481 179.117 329.313 179.283C330.984 179.578 332.961 180.013 335.125 180.563C337.468 181.21 339.777 181.974 342.043 182.854C344.449 183.808 346.683 184.851 348.68 185.882C350.677 186.912 352.405 187.949 353.8 188.877C354.523 189.318 355.15 189.766 355.72 190.157C356.289 190.547 356.757 190.867 357.141 191.149L358.03 191.789C358.132 191.867 358.242 191.936 358.357 191.994C358.272 191.899 358.178 191.813 358.075 191.738L357.217 191.053C356.846 190.758 356.385 190.413 355.829 190.01C355.272 189.606 354.664 189.158 353.909 188.73C352.501 187.776 350.76 186.733 348.789 185.664C344.473 183.357 339.902 181.563 335.169 180.32C332.993 179.757 331.003 179.341 329.32 179.078C328.481 178.925 327.72 178.848 327.048 178.758C326.376 178.669 325.768 178.611 325.326 178.579L324.232 178.496C324.115 178.477 323.998 178.466 323.88 178.464Z" fill="white"/>
<path d="M209.589 163.366C209.589 163.366 209.774 163.117 210.229 162.771C210.843 162.301 211.573 162.007 212.341 161.92C213.493 161.824 214.653 161.948 215.758 162.285C219.655 163.266 223.275 165.13 226.338 167.731C227.861 169.011 228.667 169.952 228.712 169.907C228.557 169.663 228.377 169.435 228.174 169.229C227.645 168.641 227.085 168.081 226.498 167.552C224.542 165.811 222.321 164.393 219.918 163.354C218.599 162.776 217.23 162.32 215.829 161.99C214.687 161.658 213.491 161.554 212.309 161.683C211.506 161.793 210.753 162.138 210.146 162.675C209.984 162.82 209.84 162.983 209.717 163.162C209.614 163.29 209.576 163.36 209.589 163.366Z" fill="white"/>
<path d="M3.53432 146.464C4.42639 146.68 5.34337 146.774 6.26069 146.746C7.33739 146.713 8.40872 146.58 9.46069 146.349C10.8491 146.022 12.2117 145.594 13.5375 145.069C15.0159 144.512 16.5903 143.789 18.2927 143.078L20.9487 142.01C21.8639 141.645 22.8303 141.331 23.8031 140.973C28.075 139.526 32.4308 138.34 36.8463 137.421C44.8739 135.75 53.0249 134.739 61.2175 134.4C62.7919 134.317 64.2127 134.317 65.4671 134.285H68.6671L70.6895 134.33H71.3999C71.3407 134.318 71.2799 134.318 71.2207 134.33L70.6959 134.291L68.6671 134.182L65.4671 134.125C64.1871 134.125 62.7919 134.125 61.2175 134.202C53.0023 134.47 44.8261 135.455 36.7823 137.146C32.3574 138.055 27.9945 139.243 23.7199 140.704C22.7471 141.062 21.7999 141.382 20.8591 141.754L18.2031 142.848C16.5007 143.584 14.9327 144.301 13.4671 144.87C12.1593 145.398 10.8136 145.826 9.44151 146.15C8.40409 146.399 7.34553 146.549 6.27991 146.598C5.60709 146.622 4.93346 146.598 4.26389 146.528L3.74549 146.464H3.53432Z" fill="#263238"/>
<path d="M311.458 147.347C314.018 133.344 315.739 131.194 317.186 126.374C318.632 121.555 320.93 118.426 323.79 117.318C325.71 116.576 335.355 113.101 338.709 114.253C341.99 115.419 345.114 116.989 348.008 118.925C350.254 120.415 351.957 122.593 352.859 125.133L357.979 139.578L348.968 148.538L344.45 138.938L339.547 150.458L340.27 162.074L312.155 169.638C309.621 165.542 310.005 155.29 311.458 147.347Z" fill="#455A64"/>
<g opacity="0.2">
<path d="M318.76 132.07C320.002 139.36 320.2 140.39 321.442 147.654C321.87 150.157 323.118 154.054 324.898 155.872C326.216 157.21 327.509 158.496 329.346 158.931C331.048 159.334 333.64 159.379 335.24 158.675C336.84 157.971 338.21 154.835 337.55 153.229C335.163 153.741 334.427 154.509 332.373 153.229C330.581 152.09 328.034 149.568 327.061 147.68C322.958 139.744 321.826 139.462 318.741 132.07" fill="black"/>
</g>
<path d="M339.131 146.195C339.586 145.583 340.001 144.941 340.373 144.275L343.266 139.52L346.235 134.842C346.678 134.212 347.078 133.554 347.432 132.87C347.278 133.01 347.142 133.17 347.029 133.344C346.786 133.658 346.446 134.125 346.043 134.707C345.224 135.872 344.123 137.504 342.984 139.341C341.845 141.178 340.853 142.88 340.168 144.128C339.822 144.768 339.528 145.254 339.374 145.613C339.263 145.793 339.181 145.99 339.131 146.195Z" fill="#263238"/>
<path d="M319.509 159.27C319.713 159.376 319.927 159.46 320.149 159.52C320.411 159.608 320.678 159.68 320.949 159.738C321.303 159.834 321.662 159.908 322.024 159.962C322.962 160.129 323.913 160.216 324.866 160.224C326.035 160.226 327.202 160.125 328.354 159.923C329.504 159.707 330.633 159.387 331.726 158.97C332.611 158.624 333.467 158.209 334.286 157.728C334.645 157.53 334.926 157.312 335.208 157.139C335.441 156.988 335.665 156.823 335.88 156.646C336.075 156.513 336.254 156.356 336.411 156.179C336.373 156.128 335.579 156.749 334.171 157.523C333.346 157.968 332.49 158.355 331.611 158.682C329.451 159.487 327.165 159.905 324.859 159.917C323.92 159.918 322.981 159.856 322.05 159.731C320.488 159.507 319.528 159.206 319.509 159.27Z" fill="#263238"/>
<path d="M330.792 137.453C330.843 137.702 333.864 143.718 333.864 143.718L348.123 136.205L349.576 130.061C349.816 129.074 350.437 128.223 351.303 127.693C352.168 127.162 353.209 126.997 354.197 127.232L358.402 128.954C358.575 129.021 358.729 129.131 358.85 129.273C358.97 129.415 359.054 129.584 359.093 129.766C359.15 130.074 359.093 130.406 358.536 130.336C357.493 130.253 355.336 130.022 355.336 130.022L356.328 133.523C356.59 134.441 356.489 135.424 356.046 136.269L355.406 137.478L354.018 139.725H354.05C354.05 139.725 340.187 153.965 332.405 154.893C327.726 155.45 322.427 142.336 322.427 142.336L330.792 137.453Z" fill="#B78876"/>
<path d="M355.438 130.259C355.438 130.259 355.33 130.112 355.093 129.952C354.776 129.731 354.398 129.615 354.011 129.619C353.81 129.631 353.615 129.696 353.447 129.809C353.279 129.921 353.145 130.077 353.058 130.259C352.923 130.547 353.013 130.739 353.058 130.726C353.102 130.714 353.058 130.547 353.211 130.33C353.306 130.191 353.43 130.077 353.575 129.993C353.721 129.91 353.883 129.861 354.05 129.85C354.396 129.855 354.736 129.942 355.042 130.106C355.24 130.202 355.419 130.285 355.438 130.259Z" fill="#AA6550"/>
<path d="M353.64 132.442C353.64 132.442 353.736 132.326 353.87 132.154C354.042 131.933 354.27 131.763 354.53 131.66C354.79 131.558 355.073 131.527 355.349 131.571C355.566 131.571 355.701 131.648 355.714 131.622C355.726 131.597 355.611 131.501 355.381 131.424C355.076 131.335 354.751 131.35 354.456 131.466C354.16 131.581 353.912 131.792 353.749 132.064C353.634 132.282 353.621 132.435 353.64 132.442Z" fill="#AA6550"/>
<path d="M327.835 118.464L331.675 136.762L321.435 142.912L317.506 131.667C317.506 131.667 319.157 118.01 327.835 118.464Z" fill="#455A64"/>
<path d="M322.318 118.784C322.318 118.784 322.402 118.854 322.581 118.95C322.76 119.046 323.016 119.187 323.355 119.36C324.034 119.706 325.032 120.192 326.28 120.749C329.525 122.232 332.941 123.307 336.45 123.949C339.981 124.58 343.606 124.458 347.086 123.59C348.128 123.317 349.144 122.95 350.12 122.496C350.472 122.349 350.76 122.189 350.907 122.099C350.999 122.053 351.087 122 351.17 121.939C350.795 122.066 350.427 122.213 350.069 122.381C349.074 122.783 348.052 123.112 347.01 123.366C343.555 124.157 339.977 124.244 336.488 123.622C333.002 122.981 329.601 121.944 326.35 120.531C325.07 120.006 324.091 119.552 323.394 119.251C323.046 119.072 322.687 118.916 322.318 118.784Z" fill="#EBEBEB"/>
<path d="M319.624 120.806C319.712 120.886 319.808 120.954 319.912 121.011L320.757 121.555C321.203 121.848 321.665 122.117 322.139 122.362C322.69 122.65 323.304 123.002 324.027 123.322L325.141 123.834C325.531 124.013 325.954 124.16 326.382 124.333C327.234 124.685 328.181 124.973 329.166 125.293C333.488 126.596 338.004 127.131 342.51 126.874C343.547 126.79 344.533 126.733 345.442 126.586C345.902 126.515 346.344 126.47 346.766 126.394L347.976 126.15C348.744 126.016 349.429 125.811 350.03 125.658C350.548 125.533 351.058 125.381 351.56 125.203L352.514 124.87C352.628 124.84 352.737 124.795 352.84 124.736C352.722 124.742 352.606 124.766 352.494 124.806L351.522 125.075C351.106 125.203 350.594 125.35 349.986 125.478C349.378 125.606 348.706 125.805 347.925 125.92L346.722 126.138C346.306 126.214 345.864 126.253 345.442 126.31C344.533 126.445 343.522 126.496 342.53 126.566C338.057 126.794 333.578 126.264 329.282 124.998C328.302 124.691 327.362 124.416 326.51 124.07C326.088 123.904 325.666 123.763 325.275 123.597L324.155 123.104C323.432 122.81 322.818 122.464 322.235 122.195C321.653 121.926 321.205 121.664 320.834 121.446L319.95 120.96C319.849 120.894 319.739 120.843 319.624 120.806Z" fill="#EBEBEB"/>
<path d="M321.461 142.912C321.748 142.791 322.026 142.65 322.293 142.49L324.546 141.21L332.226 136.774L332.322 136.717V136.608C332.046 135.245 331.752 133.773 331.445 132.262C330.984 129.984 330.536 127.821 330.165 125.862C329.954 124.877 329.781 123.942 329.589 123.053C329.415 122.23 329.14 121.433 328.77 120.678C328.233 119.558 327.284 118.689 326.12 118.253C325.805 118.144 325.474 118.09 325.141 118.093C325.026 118.085 324.911 118.098 324.802 118.131C325.238 118.146 325.67 118.228 326.082 118.374C327.181 118.838 328.067 119.697 328.565 120.781C328.911 121.526 329.167 122.311 329.326 123.117C329.499 123.994 329.678 124.934 329.87 125.914C330.267 127.898 330.702 130.061 331.15 132.314C331.458 133.83 331.758 135.296 332.034 136.659L332.11 136.493L324.475 141.03L322.267 142.374C321.984 142.531 321.714 142.711 321.461 142.912Z" fill="#263238"/>
<path d="M318.331 131.123C318.275 131.693 318.292 132.267 318.382 132.832C318.516 134.2 318.76 135.555 319.112 136.883C319.463 138.213 319.917 139.514 320.469 140.774C320.669 141.31 320.938 141.818 321.269 142.285C321.112 141.739 320.918 141.204 320.686 140.685C319.715 138.138 319.02 135.495 318.613 132.8C318.555 132.236 318.46 131.676 318.331 131.123Z" fill="#263238"/>
<path d="M373.851 232.902L373.966 242.669C373.966 242.669 383.938 245.837 384.13 247.642L365.198 248.538L364.392 233.325L373.851 232.902Z" fill="#455A64"/>
<path d="M368.04 242.125C367.86 242.189 367.711 242.317 367.62 242.485C367.529 242.653 367.503 242.848 367.547 243.034C367.604 243.216 367.728 243.37 367.895 243.463C368.062 243.556 368.258 243.581 368.443 243.533C368.633 243.463 368.791 243.326 368.886 243.148C368.982 242.97 369.008 242.763 368.962 242.566C368.881 242.383 368.733 242.238 368.548 242.162C368.363 242.086 368.156 242.084 367.97 242.157" fill="#E0E0E0"/>
<path d="M365.198 248.538V247.002L383.362 246.714C383.362 246.714 384.226 247.04 384.155 247.642L365.198 248.538Z" fill="#E0E0E0"/>
<path d="M374.267 242.56C374.267 242.65 373.806 242.714 373.371 243.034C372.936 243.354 372.731 243.75 372.616 243.718C372.501 243.686 372.616 243.149 373.186 242.771C373.755 242.394 374.286 242.47 374.267 242.56Z" fill="#263238"/>
<path d="M376.296 243.283C376.296 243.373 375.925 243.552 375.656 243.955C375.387 244.358 375.291 244.781 375.195 244.781C375.099 244.781 375.022 244.262 375.4 243.763C375.778 243.264 376.29 243.2 376.296 243.283Z" fill="#263238"/>
<path d="M377.538 245.606C377.454 245.606 377.301 245.178 377.538 244.659C377.774 244.141 378.178 243.923 378.216 244.019C378.254 244.115 378.005 244.378 377.838 244.806C377.672 245.235 377.64 245.594 377.538 245.606Z" fill="#263238"/>
<path d="M373.998 240.333C373.96 240.422 373.531 240.333 373.006 240.371C372.482 240.41 372.091 240.621 372.04 240.544C371.989 240.467 372.36 240.115 372.974 240.051C373.589 239.987 374.037 240.262 373.998 240.333Z" fill="#263238"/>
<g opacity="0.3">
<path d="M373.87 234.835L373.896 236.576L364.584 236.934L364.501 235.366L373.87 234.835Z" fill="black"/>
</g>
<path d="M373.934 238.362C373.629 238.463 373.301 238.479 372.987 238.406C372.643 238.362 372.305 238.274 371.982 238.144C371.79 238.072 371.604 237.985 371.426 237.882C371.315 237.83 371.213 237.761 371.125 237.677C371.061 237.614 371.02 237.531 371.008 237.441C370.996 237.352 371.015 237.262 371.061 237.184C371.105 237.118 371.164 237.062 371.232 237.023C371.301 236.983 371.378 236.959 371.458 236.954C371.578 236.947 371.699 236.958 371.816 236.986C372.019 237.025 372.219 237.083 372.411 237.158C372.737 237.289 373.041 237.468 373.314 237.69C373.774 238.08 373.954 238.419 373.909 238.438C373.864 238.458 373.64 238.189 373.179 237.875C372.908 237.695 372.616 237.549 372.309 237.44C372.129 237.379 371.945 237.332 371.758 237.299C371.554 237.254 371.381 237.261 371.336 237.35C371.291 237.44 371.336 237.402 371.336 237.459C371.402 237.519 371.475 237.57 371.554 237.613C371.726 237.709 371.899 237.798 372.066 237.875C372.367 238.006 372.68 238.108 373 238.182C373.315 238.222 373.627 238.282 373.934 238.362Z" fill="#263238"/>
<path d="M373.8 238.502C373.61 238.24 373.509 237.924 373.512 237.6C373.477 237.25 373.503 236.897 373.589 236.557C373.64 236.353 373.713 236.156 373.806 235.968C373.851 235.841 373.929 235.727 374.031 235.638C374.133 235.55 374.256 235.489 374.389 235.462C374.472 235.459 374.555 235.481 374.627 235.524C374.698 235.567 374.756 235.63 374.792 235.706C374.849 235.814 374.887 235.931 374.907 236.051C374.939 236.263 374.939 236.479 374.907 236.691C374.872 237.049 374.749 237.392 374.549 237.69C374.203 238.202 373.819 238.33 373.813 238.298C373.806 238.266 374.094 238.061 374.357 237.574C374.507 237.296 374.594 236.988 374.613 236.672C374.623 236.487 374.608 236.302 374.568 236.122C374.53 235.923 374.446 235.763 374.37 235.789C374.293 235.814 374.126 235.949 374.056 236.115C373.969 236.283 373.899 236.459 373.845 236.64C373.753 236.95 373.706 237.271 373.704 237.594C373.755 238.144 373.87 238.483 373.8 238.502Z" fill="#263238"/>
<path d="M335.259 162.176C335.259 162.176 364.84 149.76 373.992 149.242C379.752 148.909 384.078 152.595 383.298 158.534C382.907 161.51 374.734 196.294 374.734 196.294L362.28 190.611L368.27 166.554L343.95 178.368L335.259 162.176Z" fill="#263238"/>
<path d="M371.989 160.467C372.085 160.55 371.106 161.811 370.069 163.482C369.032 165.152 368.341 166.592 368.226 166.547C368.11 166.502 368.642 164.96 369.698 163.258C370.754 161.555 371.88 160.39 371.989 160.467Z" fill="#455A64"/>
<path d="M374.408 161.85C374.472 161.958 372.981 162.906 371.208 164.198C369.435 165.491 368.104 166.624 368.008 166.534C367.912 166.445 369.192 165.12 370.971 163.84C372.75 162.56 374.357 161.747 374.408 161.85Z" fill="#455A64"/>
<path d="M312.187 169.638C312.187 169.638 315.906 174.432 319.451 175.744C323.931 177.389 356.866 192.934 356.866 192.934C356.866 192.934 362.843 237.344 362.37 235.488L376.162 235.155L374.664 194.253C374.485 189.018 370.286 183.002 365.774 180.326L335.259 162.176L312.187 169.638Z" fill="#263238"/>
<path d="M374.926 201.741C374.883 201.556 374.863 201.367 374.869 201.178C374.869 200.768 374.818 200.237 374.786 199.571C374.707 197.602 374.524 195.639 374.235 193.69C373.831 190.809 372.809 188.049 371.24 185.6C370.269 184.192 369.071 182.955 367.694 181.939C366.201 180.851 364.638 179.861 363.016 178.976C356.379 175.174 350.651 171.296 346.414 168.64C344.302 167.296 342.574 166.227 341.397 165.498L340.027 164.653C339.862 164.561 339.705 164.454 339.56 164.333C339.736 164.397 339.906 164.478 340.066 164.576C340.392 164.749 340.872 165.005 341.48 165.35C342.702 166.035 344.443 167.072 346.6 168.378C350.882 170.976 356.642 174.81 363.24 178.618C364.879 179.513 366.457 180.516 367.963 181.619C369.374 182.666 370.599 183.942 371.586 185.395C373.164 187.908 374.172 190.738 374.536 193.683C374.8 195.646 374.936 197.623 374.946 199.603C374.946 200.243 374.946 200.8 374.946 201.216C374.955 201.391 374.948 201.567 374.926 201.741Z" fill="#455A64"/>
<path d="M324.36 174.317C324.616 173.921 324.898 173.542 325.205 173.184C325.841 172.26 326.282 171.216 326.502 170.115C326.722 169.015 326.716 167.882 326.485 166.784C326.343 166.333 326.231 165.874 326.152 165.408C326.463 165.779 326.682 166.217 326.792 166.688C327.12 167.824 327.168 169.023 326.933 170.182C326.703 171.342 326.193 172.427 325.448 173.344C324.866 174.08 324.386 174.355 324.36 174.317Z" fill="#455A64"/>
<path d="M371.093 235.155C371.07 235.083 371.057 235.007 371.054 234.931C371.054 234.752 371.003 234.534 370.971 234.259C370.901 233.619 370.811 232.774 370.696 231.699C370.472 229.421 370.152 226.176 369.755 222.182C369.57 220.173 369.358 217.971 369.115 215.61C368.872 213.248 368.648 210.72 368.475 208.058C368.302 205.395 368.021 202.611 367.534 199.738C367.059 196.79 366.199 193.917 364.974 191.194C363.696 188.503 362.008 186.026 359.97 183.853C358.06 181.831 355.969 179.989 353.723 178.349C349.874 175.638 345.876 173.145 341.749 170.88C338.248 168.87 335.458 167.155 333.608 165.862C332.674 165.222 331.97 164.704 331.496 164.339L330.965 163.923C330.845 163.829 330.788 163.778 330.792 163.77C330.863 163.798 330.93 163.837 330.99 163.885L331.547 164.269C332.034 164.608 332.757 165.107 333.698 165.728C335.579 166.97 338.382 168.64 341.902 170.618C346.064 172.849 350.09 175.324 353.96 178.029C356.236 179.673 358.353 181.526 360.283 183.565C362.358 185.767 364.074 188.281 365.371 191.014C366.601 193.772 367.461 196.679 367.931 199.661C368.411 202.541 368.654 205.338 368.853 207.981C369.051 210.624 369.25 213.171 369.493 215.533C369.736 217.894 369.89 220.096 370.062 222.112C370.402 226.112 370.702 229.357 370.862 231.642C370.948 232.742 371.012 233.596 371.054 234.202C371.054 234.477 371.086 234.701 371.099 234.874C371.112 235.046 371.106 235.155 371.093 235.155Z" fill="#455A64"/>
<path d="M338.6 91.7376C339.065 90.5415 339.94 89.5501 341.07 88.9413C342.199 88.3326 343.509 88.1463 344.763 88.416C345.315 88.6179 345.892 88.7428 346.478 88.7872C347.189 88.6655 347.887 88.4813 348.565 88.2368C349.333 88.1123 350.12 88.2779 350.773 88.7013C351.426 89.1248 351.898 89.7758 352.098 90.528C352.699 90.3819 353.325 90.3687 353.931 90.4891C354.538 90.6096 355.111 90.861 355.611 91.2256C356.101 91.6051 356.449 92.1386 356.599 92.74C356.749 93.3415 356.692 93.9758 356.437 94.5408C356.187 95.008 355.797 95.3792 355.547 95.8592C355.17 96.6464 355.342 97.5936 355.08 98.4192C354.834 99.0196 354.423 99.5385 353.896 99.9165C353.368 100.295 352.745 100.516 352.098 100.557C350.795 100.624 349.491 100.439 348.258 100.013" fill="#263238"/>
<path d="M344.558 117.05C344.718 115.808 344.821 114.938 344.821 114.938C344.821 114.938 348.949 114.938 350.581 109.818C351.406 107.258 351.957 102.982 352.29 99.4496C352.362 98.697 352.282 97.9375 352.053 97.2169C351.825 96.4962 351.452 95.8293 350.959 95.2564C350.466 94.6835 349.861 94.2164 349.183 93.8834C348.504 93.5503 347.765 93.3581 347.01 93.3184L336.053 92.7488L335.816 94.4448L332.93 115.514C332.825 116.277 332.873 117.054 333.07 117.8C333.267 118.545 333.609 119.244 334.077 119.857C334.545 120.47 335.13 120.984 335.797 121.37C336.465 121.755 337.202 122.006 337.966 122.106C338.731 122.208 339.509 122.158 340.255 121.96C341.001 121.761 341.7 121.417 342.313 120.947C342.925 120.477 343.439 119.891 343.824 119.222C344.209 118.553 344.459 117.815 344.558 117.05Z" fill="#B78876"/>
<path d="M350.76 102.464C350.733 102.639 350.639 102.797 350.498 102.904C350.358 103.012 350.181 103.06 350.005 103.04C349.918 103.035 349.833 103.011 349.755 102.972C349.677 102.932 349.608 102.877 349.552 102.81C349.497 102.743 349.455 102.665 349.431 102.581C349.406 102.498 349.399 102.41 349.41 102.323C349.433 102.147 349.526 101.987 349.668 101.879C349.81 101.771 349.988 101.724 350.165 101.747C350.252 101.753 350.337 101.776 350.415 101.815C350.493 101.855 350.561 101.91 350.617 101.977C350.673 102.044 350.714 102.122 350.739 102.206C350.763 102.29 350.771 102.377 350.76 102.464Z" fill="#263238"/>
<path d="M351.042 101.517C350.946 101.587 350.498 101.133 349.762 101.018C349.026 100.902 348.482 101.184 348.386 101.082C348.29 100.979 348.462 100.89 348.718 100.762C349.066 100.591 349.458 100.535 349.838 100.602C350.215 100.658 350.564 100.835 350.83 101.107C351.042 101.312 351.093 101.485 351.042 101.517Z" fill="#263238"/>
<path d="M343.899 101.299C343.872 101.474 343.778 101.631 343.637 101.737C343.496 101.844 343.319 101.891 343.144 101.869C343.057 101.864 342.972 101.842 342.894 101.803C342.816 101.764 342.746 101.71 342.69 101.643C342.634 101.577 342.592 101.5 342.566 101.416C342.541 101.333 342.533 101.245 342.542 101.158C342.569 100.983 342.663 100.826 342.804 100.718C342.945 100.611 343.122 100.562 343.298 100.582C343.385 100.587 343.471 100.61 343.55 100.649C343.628 100.688 343.698 100.743 343.754 100.81C343.811 100.877 343.853 100.955 343.878 101.04C343.902 101.124 343.91 101.212 343.899 101.299Z" fill="#263238"/>
<path d="M343.912 100.518C343.816 100.595 343.368 100.134 342.632 100.026C341.896 99.9168 341.352 100.186 341.256 100.083C341.16 99.9808 341.333 99.8976 341.589 99.7632C341.938 99.5986 342.328 99.5429 342.709 99.6032C343.084 99.6638 343.431 99.8407 343.701 100.109C343.912 100.314 343.957 100.48 343.912 100.518Z" fill="#263238"/>
<path d="M345.685 106.304C346.086 106.25 346.493 106.25 346.894 106.304C347.08 106.304 347.259 106.304 347.31 106.182C347.369 105.997 347.369 105.798 347.31 105.613C347.208 105.139 347.099 104.64 346.984 104.122C346.672 102.849 346.458 101.555 346.344 100.25C346.763 101.502 347.082 102.786 347.298 104.09C347.4 104.614 347.502 105.114 347.592 105.594C347.681 105.831 347.681 106.092 347.592 106.33C347.555 106.39 347.504 106.442 347.444 106.481C347.385 106.519 347.317 106.544 347.246 106.554C347.14 106.567 347.033 106.567 346.926 106.554C346.504 106.523 346.086 106.439 345.685 106.304Z" fill="#263238"/>
<path d="M344.821 114.938C342.347 114.583 340.021 113.548 338.101 111.949C338.101 111.949 339.24 115.84 344.558 116.166L344.821 114.938Z" fill="#AA6550"/>
<path d="M343.477 106.464C343.598 106.464 343.477 107.258 344.053 107.923C344.629 108.589 345.486 108.634 345.48 108.742C345.474 108.851 345.269 108.87 344.91 108.819C344.449 108.757 344.026 108.53 343.72 108.179C343.42 107.847 343.264 107.41 343.285 106.963C343.304 106.63 343.426 106.451 343.477 106.464Z" fill="#263238"/>
<path d="M344.552 97.7152C344.45 97.9008 343.739 97.7152 342.875 97.6576C342.011 97.6 341.288 97.7472 341.205 97.5552C341.122 97.3632 341.314 97.2992 341.621 97.152C342.028 96.9743 342.471 96.8928 342.915 96.9138C343.359 96.9349 343.792 97.058 344.181 97.2736C344.462 97.4464 344.597 97.6256 344.552 97.7152Z" fill="#263238"/>
<path d="M351.112 99.3792C350.958 99.52 350.472 99.2704 349.89 99.168C349.307 99.0656 348.763 99.104 348.674 98.912C348.635 98.8224 348.744 98.6688 348.987 98.5536C349.315 98.408 349.679 98.3677 350.03 98.4384C350.381 98.5002 350.703 98.6703 350.952 98.9248C351.138 99.1296 351.182 99.3088 351.112 99.3792Z" fill="#263238"/>
<path d="M352.866 97.1392C352.866 97.1392 349.966 98.1184 346.638 95.8912C344.456 94.432 341.806 93.5168 341.147 93.9136C340.488 94.3104 340.059 96.6912 337.659 97.1136C337.659 97.1136 337.237 101.722 335.426 101.325C334.146 101.043 334.888 95.9616 335.426 93.0624C335.538 92.5019 335.835 91.9951 336.268 91.6228C336.702 91.2505 337.248 91.034 337.819 91.008L341.192 90.8736L345.403 92.0512L349.922 93.28L353.365 94.72L352.866 97.1392Z" fill="#263238"/>
<path d="M335.829 99.4496C335.765 99.4048 332.968 97.9328 332.45 100.986C331.931 104.038 335.099 103.923 335.125 103.84C335.15 103.757 335.829 99.4496 335.829 99.4496Z" fill="#B78876"/>
<path d="M334.389 102.522C334.389 102.522 334.325 102.554 334.229 102.579C334.094 102.611 333.952 102.591 333.832 102.522C333.658 102.363 333.529 102.161 333.457 101.936C333.385 101.712 333.373 101.472 333.422 101.242C333.459 100.979 333.553 100.728 333.698 100.506C333.744 100.416 333.811 100.338 333.894 100.279C333.976 100.22 334.071 100.181 334.171 100.166C334.235 100.161 334.298 100.178 334.351 100.214C334.403 100.25 334.442 100.303 334.459 100.365C334.459 100.454 334.459 100.512 334.459 100.525C334.459 100.538 334.53 100.48 334.53 100.352C334.524 100.274 334.493 100.199 334.44 100.141C334.366 100.064 334.265 100.018 334.158 100.013C334.028 100.015 333.901 100.051 333.789 100.117C333.677 100.184 333.584 100.278 333.518 100.39C333.343 100.632 333.231 100.914 333.192 101.21C333.129 101.479 333.147 101.761 333.245 102.02C333.343 102.279 333.516 102.503 333.742 102.662C333.82 102.699 333.906 102.719 333.992 102.719C334.078 102.719 334.164 102.699 334.242 102.662C334.37 102.598 334.395 102.534 334.389 102.522Z" fill="#AA6550"/>
<path d="M351.4 89.4016C351.4 89.4016 351.298 89.568 351.08 89.8112C350.768 90.1561 350.371 90.4123 349.928 90.5536C349.27 90.7662 348.567 90.7971 347.893 90.6432C347.055 90.4395 346.231 90.1786 345.429 89.8624C344.598 89.5352 343.71 89.3764 342.818 89.3952C342.063 89.4225 341.348 89.7441 340.827 90.2912C340.472 90.6483 340.257 91.1204 340.219 91.6224C340.193 91.8045 340.224 91.9903 340.309 92.1536C340.341 92.1536 340.309 91.9616 340.347 91.6352C340.427 91.1818 340.652 90.7664 340.987 90.4512C341.48 89.9786 342.135 89.711 342.818 89.7024C343.67 89.7031 344.514 89.8637 345.307 90.176C346.123 90.5006 346.964 90.7575 347.822 90.944C348.547 91.0939 349.299 91.0362 349.992 90.7776C350.463 90.6048 350.872 90.2977 351.17 89.8944C351.4 89.6 351.4 89.408 351.4 89.4016Z" fill="#455A64"/>
<path d="M341.09 92.3264C341.09 92.3264 341.243 92.1664 341.563 91.9424C342.02 91.6632 342.545 91.5169 343.08 91.52C343.891 91.517 344.691 91.7126 345.41 92.0896C346.307 92.5746 347.235 93.0021 348.187 93.3696C349.09 93.65 350.042 93.7418 350.982 93.6394C351.922 93.537 352.831 93.2426 353.653 92.7744C354.15 92.4947 354.605 92.1456 355.003 91.7376C355.158 91.5989 355.288 91.4344 355.387 91.2512C354.821 91.7521 354.203 92.1918 353.544 92.5632C351.926 93.4126 350.038 93.5897 348.29 93.056C347.351 92.6764 346.433 92.2492 345.538 91.776C344.774 91.3895 343.922 91.2086 343.067 91.2512C342.486 91.2735 341.927 91.4772 341.467 91.8336C341.299 91.9609 341.169 92.1312 341.09 92.3264Z" fill="#455A64"/>
<path d="M350.568 144.333L365.429 131.667L370.331 132.774C370.331 132.774 365.166 143.514 361.429 147.45C361.429 147.45 357.736 152.39 351.643 150.253C345.55 148.115 350.568 144.333 350.568 144.333Z" fill="#B78876"/>
<path d="M366.555 117.715H372.872C373.11 117.728 373.343 117.794 373.553 117.908C373.762 118.022 373.944 118.182 374.084 118.375C374.225 118.568 374.32 118.79 374.364 119.024C374.408 119.259 374.399 119.5 374.338 119.731L367.982 132.102C367.862 132.338 367.679 132.536 367.453 132.673C367.227 132.811 366.967 132.884 366.702 132.883H359.022C358.842 132.863 358.669 132.799 358.52 132.695C358.37 132.592 358.248 132.454 358.165 132.292C358.082 132.131 358.041 131.951 358.044 131.769C358.047 131.588 358.095 131.41 358.184 131.251L364.309 119.136C364.517 118.716 364.837 118.362 365.233 118.111C365.629 117.861 366.087 117.724 366.555 117.715Z" fill="#455A64"/>
<path d="M366.978 118.464H373.294C373.476 118.463 373.654 118.508 373.813 118.596C373.971 118.684 374.105 118.811 374.2 118.966C374.295 119.12 374.349 119.296 374.356 119.477C374.364 119.659 374.324 119.839 374.242 120L368.04 132.102C367.918 132.337 367.735 132.534 367.509 132.672C367.283 132.809 367.024 132.882 366.76 132.883H359.144C359.039 132.879 358.938 132.849 358.847 132.796C358.757 132.743 358.681 132.669 358.626 132.58C358.571 132.491 358.539 132.39 358.532 132.285C358.525 132.181 358.544 132.076 358.587 131.981L364.718 119.872C364.926 119.449 365.247 119.094 365.647 118.845C366.046 118.596 366.507 118.464 366.978 118.464Z" fill="#263238"/>
<path d="M367.515 123.52L371.355 125.056L372.174 128.154L370.325 132.762L363.56 133.76L365.544 131.731L365.294 129.958C365.294 129.958 363.374 129.363 363.374 129.075C363.374 128.787 363.611 127.795 363.899 127.763C364.657 127.936 365.4 128.169 366.12 128.461C366.12 128.461 363.771 126.598 363.835 126.298C363.899 125.997 364.155 125.235 364.622 125.146C365.09 125.056 368.891 126.854 368.891 126.854L369.531 128.256L370.069 126.01C370.069 126.01 366.683 125.062 367.515 123.52Z" fill="#B78876"/>
<path d="M367.029 130.79C367.029 130.79 367.125 130.662 367.163 130.406C367.204 130.08 367.167 129.75 367.056 129.44C366.944 129.131 366.762 128.853 366.523 128.627C366.331 128.461 366.184 128.403 366.171 128.422C366.463 128.746 366.703 129.113 366.882 129.51C366.995 129.927 367.045 130.359 367.029 130.79Z" fill="#AA6550"/>
<path d="M368.859 130.118C368.784 129.788 368.733 129.452 368.706 129.114C368.69 128.736 368.626 128.361 368.514 128C368.441 127.768 368.313 127.557 368.141 127.384C367.97 127.212 367.76 127.083 367.528 127.008C366.613 126.675 365.781 126.406 365.179 126.208C364.858 126.086 364.526 125.994 364.187 125.933C364.485 126.103 364.801 126.24 365.128 126.342C365.723 126.573 366.555 126.867 367.458 127.194C367.668 127.266 367.861 127.384 368.021 127.539C368.163 127.69 368.272 127.869 368.341 128.064C368.458 128.41 368.533 128.769 368.565 129.133C368.577 129.481 368.679 129.82 368.859 130.118Z" fill="#AA6550"/>
<path d="M369.742 129.427C369.803 129.177 369.803 128.916 369.742 128.666C369.672 128.256 369.576 127.936 369.518 127.942C369.458 128.193 369.458 128.454 369.518 128.704C369.589 129.114 369.685 129.434 369.742 129.427Z" fill="#AA6550"/>
<path d="M369.845 120.8C369.845 120.96 369.798 121.115 369.709 121.248C369.62 121.381 369.494 121.484 369.347 121.545C369.2 121.606 369.038 121.622 368.881 121.591C368.725 121.56 368.581 121.483 368.468 121.37C368.355 121.257 368.279 121.114 368.248 120.957C368.216 120.801 368.232 120.639 368.293 120.491C368.354 120.344 368.458 120.218 368.59 120.13C368.723 120.041 368.879 119.994 369.038 119.994C369.145 119.993 369.25 120.013 369.348 120.053C369.446 120.093 369.535 120.153 369.611 120.228C369.686 120.303 369.745 120.392 369.785 120.49C369.825 120.589 369.846 120.694 369.845 120.8Z" fill="#FAFAFA"/>
<path d="M391.976 242.79C390.974 243.101 390.044 243.611 389.244 244.289C388.443 244.968 387.788 245.801 387.317 246.739C386.384 248.624 385.896 250.697 385.89 252.8C385.762 256.845 387.439 261.197 389.416 264.736C393.199 262.304 394.709 257.28 395.323 254.72C396.283 250.637 395.547 242.675 391.976 242.784" fill="#006FCF"/>
<path d="M384.558 270.752C384.953 269.646 385.048 268.456 384.834 267.302C384.621 266.148 384.106 265.071 383.342 264.179C382.563 263.302 381.616 262.589 380.558 262.083C379.5 261.576 378.351 261.286 377.179 261.229C376.104 261.152 374.901 261.293 374.165 262.086C373.841 262.477 373.628 262.947 373.547 263.448C373.466 263.948 373.52 264.462 373.704 264.934C374.087 265.876 374.711 266.7 375.515 267.322C378.158 269.574 381.128 271.264 384.558 270.752Z" fill="#006FCF"/>
<path d="M387.08 283.597C387.109 283.32 387.109 283.041 387.08 282.765C387.08 282.17 387.029 281.408 386.997 280.493C386.972 277.972 386.54 275.471 385.717 273.088C384.856 270.7 383.377 268.584 381.429 266.957C380.838 266.479 380.193 266.071 379.509 265.741C379.266 265.619 379.061 265.562 378.933 265.504C378.805 265.446 378.728 265.434 378.722 265.446C380.301 266.227 381.709 267.314 382.865 268.643C384.02 269.973 384.901 271.518 385.454 273.19C386.255 275.55 386.702 278.015 386.779 280.506C386.843 281.459 386.901 282.234 386.952 282.771C386.972 283.049 387.015 283.326 387.08 283.597Z" fill="#263238"/>
<path d="M392.002 248.902C391.963 249.017 391.933 249.135 391.912 249.254C391.857 249.519 391.786 249.858 391.701 250.272C391.522 251.155 391.278 252.442 390.997 254.029C390.427 257.229 389.717 261.613 389.019 266.49C388.322 271.366 387.803 275.795 387.47 279.008C387.304 280.614 387.182 281.914 387.106 282.816C387.076 283.243 387.05 283.588 387.029 283.853C387.01 283.972 387.01 284.092 387.029 284.211C387.061 284.094 387.082 283.974 387.093 283.853C387.125 283.59 387.17 283.251 387.227 282.822C387.342 281.894 387.496 280.608 387.688 279.034C388.072 275.834 388.629 271.405 389.314 266.528C389.998 261.651 390.69 257.28 391.202 254.08C391.458 252.512 391.662 251.232 391.842 250.304C391.906 249.882 391.957 249.542 392.002 249.28C392.018 249.155 392.018 249.028 392.002 248.902Z" fill="#263238"/>
<path d="M390.011 274.022C390.764 271.67 392.066 269.53 393.81 267.781C395.554 266.031 397.69 264.722 400.04 263.962C401.243 263.584 402.754 263.45 403.56 264.416C404.366 265.382 403.931 266.854 403.31 267.949C401.975 270.21 400 272.024 397.634 273.163C395.268 274.302 392.618 274.715 390.018 274.349" fill="#006FCF"/>
<path d="M398.971 267.661C398.714 267.706 398.461 267.775 398.216 267.866C397.922 267.952 397.633 268.057 397.352 268.179C397.019 268.326 396.629 268.454 396.232 268.672C395.793 268.887 395.366 269.124 394.952 269.382C394.465 269.676 393.992 269.994 393.538 270.336C391.443 271.909 389.765 273.97 388.648 276.339C388.405 276.854 388.192 277.382 388.008 277.92C387.84 278.384 387.701 278.859 387.592 279.341C387.493 279.737 387.416 280.139 387.362 280.544C387.306 280.846 387.27 281.152 387.253 281.459C387.226 281.719 387.222 281.98 387.24 282.24C387.31 282.24 387.355 281.12 387.81 279.386C387.931 278.915 388.076 278.452 388.245 277.997C388.428 277.469 388.642 276.952 388.885 276.448C389.452 275.31 390.141 274.238 390.939 273.248C391.76 272.262 392.682 271.365 393.691 270.573C394.133 270.232 394.592 269.913 395.067 269.619C395.48 269.351 395.908 269.105 396.347 268.883C397.915 268.032 398.997 267.718 398.971 267.661Z" fill="#263238"/>
</svg>
