<svg width="110" height="98" viewBox="0 0 110 98" fill="none" xmlns="http://www.w3.org/2000/svg">
<path d="M11.8878 29.042C7.2276 32.5008 3.96029 35.9758 4.58987 36.8045C5.21944 37.6332 9.50697 35.5017 14.1671 32.0429C18.8273 28.584 22.0946 25.1091 21.465 24.2804C20.8354 23.4517 16.5479 25.5841 11.8878 29.042Z" fill="#80C2DC"/>
<path d="M86.6676 36.1861C83.6089 34.9184 58.5285 25.4616 58.5285 25.4616C57.4827 24.96 55.9779 24.6007 55.1151 24.6348L45.4819 25.0141C45.4819 25.0141 53.1885 37.4414 58.9731 37.7012L86.6212 37.1693C86.6411 36.8422 86.6562 36.5142 86.6676 36.1861Z" fill="#80C2DC"/>
<path d="M108.691 52.246L108.594 48.1026C108.067 43.9772 106.263 41.5452 102.225 39.9902C100.201 39.2109 88.2774 35.9066 86.1204 35.8374C82.1211 36.1484 62.3484 27.5619 57.4939 25.2333C55.5653 24.3079 51.5215 23.1312 45.2609 23.1312C39.1567 23.1312 26.2192 22.586 21.7857 23.7181C18.3942 24.5838 8.52867 31.199 4.75504 36.2308C2.64256 39.0478 1.28669 52.246 1.28669 52.246C1.0525 54.221 2.22158 55.849 3.90075 55.849H98.1476C99.8278 55.8499 109.43 54.222 108.691 52.246Z" fill="#C8E064"/>
<path d="M109.72 53.2026V51.5357C109.72 47.9508 109.399 47.1306 106.917 47.1306H90.3797V49.446C90.3797 51.0019 89.1187 52.2629 87.5628 52.2629H23.7106C22.1547 52.2629 20.8937 51.0019 20.8937 49.446V47.1306H2.80396C1.25564 47.1306 0.00124317 48.3917 0.00124317 49.9476V53.2016C0.00124317 54.7575 -0.0556476 56.0186 1.49268 56.0186H100.897C105.708 56.0195 109.72 54.7585 109.72 53.2026Z" fill="#B2C443"/>
<path d="M27.9718 51.8107C27.9718 46.1967 23.4046 41.6295 17.7906 41.6295C12.1766 41.6295 7.60938 46.1967 7.60938 51.8107C7.60938 53.2462 7.91468 54.6097 8.45512 55.8489H27.1261C27.6656 54.6097 27.9718 53.2462 27.9718 51.8107Z" fill="#B2C443"/>
<path d="M97.9264 51.8107C97.9264 46.1967 93.3592 41.6295 87.7452 41.6295C82.1312 41.6295 77.564 46.1967 77.564 51.8107C77.564 53.2462 77.8702 54.6097 78.4097 55.8489H97.0807C97.6211 54.6097 97.9264 53.2462 97.9264 51.8107Z" fill="#B2C443"/>
<path d="M100.896 54.1763H1.4917C0.0704278 54.1763 0.0021629 53.1125 0.000266604 51.7338V53.2016C0.000266604 54.7575 -0.0566241 56.0185 1.4917 56.0185H100.896C105.708 56.0185 109.719 54.7575 109.719 53.2016V51.5347C109.719 51.475 109.718 51.4229 109.718 51.366C109.707 52.919 105.701 54.1763 100.896 54.1763Z" fill="#2A2A2B"/>
<path d="M26.9381 51.5455C26.9381 46.5013 22.8345 42.3987 17.7913 42.3987C12.7481 42.3987 8.64453 46.5023 8.64453 51.5455C8.64453 53.1611 9.06929 54.6772 9.8079 55.9961H25.7757C26.5133 54.6772 26.9381 53.1611 26.9381 51.5455Z" fill="#070707"/>
<path d="M24.0714 56.8092C26.9867 53.3377 26.5358 48.1601 23.0643 45.2448C19.5927 42.3295 14.4152 42.7804 11.4998 46.2519C8.58453 49.7235 9.03543 54.9011 12.507 57.8164C15.9785 60.7317 21.1561 60.2808 24.0714 56.8092Z" fill="#2A2A2B"/>
<path d="M24.7306 52.6679C25.3521 48.8383 22.7514 45.2299 18.9218 44.6083C15.0921 43.9868 11.4837 46.5875 10.8622 50.4172C10.2407 54.2468 12.8414 57.8552 16.671 58.4768C20.5007 59.0983 24.1091 56.4976 24.7306 52.6679Z" fill="#091119"/>
<path d="M17.7905 45.3871C14.3895 45.3871 11.6323 48.1443 11.6323 51.5453C11.6323 54.9463 14.3895 57.7035 17.7905 57.7035C21.1916 57.7035 23.9488 54.9463 23.9488 51.5453C23.9488 48.1443 21.1916 45.3871 17.7905 45.3871ZM22.0563 47.3479C22.792 48.0836 22.6877 49.0024 22.0563 49.2916L19.9409 50.2625C19.8556 50.3013 19.6319 50.1695 19.4337 49.9704C19.2346 49.7723 19.1028 49.5485 19.1416 49.4632L20.1126 47.3479C20.4017 46.7173 21.3205 46.6121 22.0563 47.3479ZM17.856 45.5834C18.897 45.5834 19.4716 46.3068 19.2308 46.9582L18.4211 49.1408C18.3888 49.229 18.1366 49.2935 17.856 49.2935C17.5753 49.2935 17.3231 49.229 17.2909 49.1408L16.4811 46.9582C16.2394 46.3068 16.8149 45.5834 17.856 45.5834ZM13.6376 47.3061C14.3734 46.5704 15.2922 46.6747 15.5814 47.3061L16.5523 49.4215C16.5911 49.5068 16.4594 49.7306 16.2602 49.9287C16.0611 50.1269 15.8383 50.2596 15.753 50.2207L13.6376 49.2498C13.0062 48.9607 12.9019 48.0419 13.6376 47.3061ZM11.8732 51.5064C11.8732 50.4654 12.5966 49.8898 13.248 50.1316L15.4306 50.9413C15.5188 50.9745 15.5833 51.2258 15.5833 51.5064C15.5833 51.7871 15.5188 52.0393 15.4306 52.0715L13.248 52.8812C12.5966 53.123 11.8732 52.5475 11.8732 51.5064ZM13.595 55.7247C12.8592 54.989 12.9635 54.0702 13.595 53.781L15.7103 52.8101C15.7956 52.7713 16.0194 52.9031 16.2176 53.1022C16.4157 53.3013 16.5485 53.5241 16.5096 53.6094L15.5387 55.7247C15.2495 56.3562 14.3308 56.4605 13.595 55.7247ZM17.7962 57.4893C16.7552 57.4893 16.1796 56.7658 16.4214 56.1144L17.2311 53.9318C17.2643 53.8436 17.5156 53.7791 17.7962 53.7791C18.0769 53.7791 18.3281 53.8436 18.3613 53.9318L19.171 56.1144C19.4119 56.7658 18.8364 57.4893 17.7962 57.4893ZM22.0136 55.7674C21.2778 56.5032 20.3591 56.3989 20.0699 55.7674L19.099 53.6521C19.0601 53.5668 19.1919 53.343 19.391 53.1448C19.5901 52.9467 19.8129 52.8139 19.8983 52.8528L22.0136 53.8237C22.6451 54.1129 22.7494 55.0307 22.0136 55.7674ZM22.4042 52.941L20.2216 52.1313C20.1334 52.0981 20.069 51.8468 20.069 51.5662C20.069 51.2855 20.1334 51.0333 20.2216 51.0011L22.4042 50.1914C23.0556 49.9496 23.7791 50.5251 23.7791 51.5662C23.7781 52.6072 23.0547 53.1828 22.4042 52.941Z" fill="#DCDFE2"/>
<path d="M96.8927 51.5455C96.8927 46.5013 92.7891 42.3987 87.7459 42.3987C82.7027 42.3987 78.5991 46.5023 78.5991 51.5455C78.5991 53.1611 79.0239 54.6772 79.7625 55.9961H95.7303C96.4679 54.6772 96.8927 53.1611 96.8927 51.5455Z" fill="#070707"/>
<path d="M95.8389 52.8696C96.567 48.3953 93.53 44.178 89.0557 43.4499C84.5815 42.7219 80.3641 45.7588 79.6361 50.2331C78.9081 54.7074 81.945 58.9247 86.4193 59.6528C90.8936 60.3808 95.1109 57.3438 95.8389 52.8696Z" fill="#2A2A2B"/>
<path d="M92.7104 56.5151C95.4537 53.7717 95.4537 49.3239 92.7104 46.5805C89.967 43.8372 85.5192 43.8372 82.7759 46.5805C80.0325 49.3239 80.0325 53.7717 82.7759 56.515C85.5192 59.2584 89.967 59.2584 92.7104 56.5151Z" fill="#091119"/>
<path d="M87.7456 45.3871C84.3446 45.3871 81.5874 48.1443 81.5874 51.5453C81.5874 54.9463 84.3446 57.7035 87.7456 57.7035C91.1466 57.7035 93.9038 54.9463 93.9038 51.5453C93.9038 48.1443 91.1466 45.3871 87.7456 45.3871ZM92.0113 47.3479C92.7471 48.0836 92.6428 49.0024 92.0113 49.2916L89.896 50.2625C89.8107 50.3013 89.5869 50.1695 89.3888 49.9704C89.1906 49.7723 89.0578 49.5485 89.0967 49.4632L90.0676 47.3479C90.3568 46.7173 91.2756 46.6121 92.0113 47.3479ZM87.811 45.5834C88.8521 45.5834 89.4267 46.3068 89.1858 46.9582L88.3761 49.1408C88.3439 49.229 88.0917 49.2935 87.811 49.2935C87.5304 49.2935 87.2791 49.229 87.2459 49.1408L86.4362 46.9582C86.1944 46.3068 86.77 45.5834 87.811 45.5834ZM83.5927 47.3061C84.3285 46.5704 85.2472 46.6747 85.5364 47.3061L86.5073 49.4215C86.5462 49.5068 86.4144 49.7306 86.2153 49.9287C86.0171 50.1269 85.7934 50.2596 85.708 50.2207L83.5927 49.2498C82.9613 48.9607 82.857 48.0419 83.5927 47.3061ZM81.8282 51.5064C81.8282 50.4654 82.5516 49.8898 83.203 50.1316L85.3857 50.9413C85.4738 50.9745 85.5383 51.2258 85.5383 51.5064C85.5383 51.7871 85.4738 52.0393 85.3857 52.0715L83.203 52.8812C82.5516 53.123 81.8282 52.5475 81.8282 51.5064ZM83.55 55.7247C82.8143 54.989 82.9186 54.0702 83.55 53.781L85.6654 52.8101C85.7507 52.7713 85.9745 52.9031 86.1726 53.1022C86.3718 53.3013 86.5035 53.5241 86.4647 53.6094L85.4938 55.7247C85.2046 56.3562 84.2868 56.4605 83.55 55.7247ZM87.7513 57.4893C86.7102 57.4893 86.1357 56.7658 86.3765 56.1144L87.1862 53.9318C87.2185 53.8436 87.4706 53.7791 87.7513 53.7791C88.0319 53.7791 88.2842 53.8436 88.3164 53.9318L89.1261 56.1144C89.367 56.7658 88.7914 57.4893 87.7513 57.4893ZM91.9687 55.7674C91.2329 56.5032 90.3141 56.3989 90.025 55.7674L89.0541 53.6521C89.0152 53.5668 89.147 53.343 89.3461 53.1448C89.5452 52.9467 89.768 52.8139 89.8533 52.8528L91.9687 53.8237C92.6002 54.1129 92.7054 55.0307 91.9687 55.7674ZM92.3593 52.941L90.1767 52.1313C90.0885 52.0981 90.024 51.8468 90.024 51.5662C90.024 51.2855 90.0885 51.0333 90.1767 51.0011L92.3593 50.1914C93.0107 49.9496 93.7341 50.5251 93.7341 51.5662C93.7341 52.6072 93.0097 53.1828 92.3593 52.941Z" fill="#DCDFE2"/>
<path d="M56.425 26.5446C55.5755 26.0971 54.1722 25.7539 53.2506 25.7529L43.3975 25.7406C43.3975 25.7406 44.887 35.7094 44.9031 35.918L80.6824 37.4616C81.9672 37.5175 81.8468 37.0112 80.7024 36.2594C80.1249 35.8792 56.425 26.5446 56.425 26.5446Z" fill="#80C2DC"/>
<path opacity="0.3" d="M12.8357 34.8796C11.2276 34.8066 10.6957 34.2396 10.5203 33.9097C10.1619 33.2327 10.599 32.3936 11.7235 31.6L20.0559 25.7253C20.5423 25.382 21.6658 25.236 22.5078 25.2455L26.7062 25.2919C26.7062 25.2919 25.6471 30.4357 25.2214 32.5586C24.898 34.1695 24.7293 35.0133 24.7027 35.1119L24.6231 35.4144L12.8357 34.8796Z" fill="#124F2A"/>
<path d="M26.1192 25.6627L22.5077 25.6182C21.6572 25.6077 20.7318 25.768 20.4114 25.9936L12.0591 31.8674C10.3031 33.1028 10.4577 34.4132 12.8356 34.5184L24.1897 35.0191C24.2656 34.7327 26.0671 25.5442 26.1192 25.6627Z" fill="#80C2DC"/>
<path opacity="0.3" d="M42.4897 25.3354L27.0216 25.3421L26.9629 25.6531C26.9278 25.838 25.7037 34.0954 25.5653 35.0312L25.5615 35.0568L25.3652 44.3051L25.5008 44.4264C27.1174 45.8714 28.3367 49.0818 28.4202 51.6399C28.4239 51.7556 28.4145 51.877 28.4069 52.004L44.3784 52.1538L44.0419 35.7186L42.4897 25.3354ZM43.9158 51.7035L28.8269 51.6636C28.7473 49.2534 27.6664 45.8591 25.7616 44.1609L25.9578 35.0995C26.2404 33.1928 27.3175 25.9546 27.3582 25.7195L42.0887 25.7384L43.5792 35.7253L43.9158 51.7035Z" fill="#124F2A"/>
<path d="M43.5759 35.9208V35.7245L42.0854 25.7376L27.355 25.7187C27.3209 25.9017 25.9546 35.0987 25.9546 35.0987V35.1556L43.5759 35.9208Z" fill="#80C2DC"/>
<path d="M30.2923 36.6737L26.4409 36.4841V35.5909L30.2923 35.7654V36.6737Z" fill="#0D5E56"/>
<path d="M50.3231 37.6599L45.7739 37.4352V36.4652L50.3231 36.671V37.6599Z" fill="#0D5E56"/>
<path opacity="0.3" d="M77.9276 52.2025L82.2142 37.236C82.2407 36.8501 81.8823 36.4282 81.0915 35.9105C80.5037 35.5265 58.3113 27.0652 56.6976 26.1844C55.7674 25.6961 54.2845 25.3311 53.251 25.332L42.8745 25.3358L42.9428 25.7919C43.3486 28.5121 44.4134 35.6706 44.4399 35.9257L44.4447 35.975L44.6732 52.1058L77.9276 52.2025ZM43.3979 25.7397L53.251 25.7521C54.1726 25.753 55.5759 26.0972 56.4255 26.5438C56.4255 26.5438 80.1254 35.8783 80.7028 36.2575C81.2992 36.6491 81.6092 36.9715 81.595 37.1858L77.3141 51.6773L45.3084 51.5663L44.9093 35.9172H44.9036C44.8874 35.7086 43.3979 25.7397 43.3979 25.7397Z" fill="#124F2A"/>
<path opacity="0.7" d="M20.1646 34.8429L24.1913 35.0202C24.2312 34.8675 24.7593 32.2023 25.2523 29.7551L20.1646 34.8429Z" fill="white"/>
<path opacity="0.7" d="M13.3009 30.9943L12.0579 31.8685C11.2937 32.4061 10.8926 32.9569 10.8774 33.4177L13.3009 30.9943Z" fill="white"/>
<path opacity="0.7" d="M20.4106 25.9937L19.3335 26.7513C16.8029 29.2819 14.2723 31.8125 11.7407 34.3441C12.0309 34.438 12.394 34.4996 12.8349 34.5195L15.1512 34.6219C18.1455 31.6276 21.1397 28.6334 24.134 25.6391L22.507 25.6192C21.6574 25.6078 20.732 25.7681 20.4106 25.9937Z" fill="white"/>
<path opacity="0.7" d="M33.5928 25.7272L29.2845 25.7215L27.0174 27.9885C26.7861 29.535 26.4846 31.5621 26.2627 33.0573L33.5928 25.7272Z" fill="white"/>
<path opacity="0.7" d="M37.0314 25.7321L35.3798 25.7302C32.2395 28.8705 29.0993 32.0108 25.959 35.151V35.1567L27.5376 35.225L37.0314 25.7321Z" fill="white"/>
<path opacity="0.7" d="M42.6088 29.2288L42.4144 27.926C39.8762 30.4642 37.339 33.0015 34.8008 35.5397L36.2353 35.6022C38.3601 33.4784 40.4849 31.3536 42.6088 29.2288Z" fill="white"/>
<path opacity="0.7" d="M37.9526 35.6772L43.5799 35.9218V35.7255L42.8432 30.7866C41.2133 32.4165 39.5835 34.0464 37.9526 35.6772Z" fill="white"/>
<path opacity="0.7" d="M46.0967 25.7432L44.6014 25.7413L43.5547 26.7881C43.6097 27.1531 43.676 27.5988 43.749 28.0908L46.0967 25.7432Z" fill="white"/>
<path opacity="0.7" d="M54.0076 25.8126C53.7364 25.7737 53.4776 25.7528 53.25 25.7519L47.8835 25.7452L43.98 29.6488C44.2739 31.6228 44.6038 33.8453 44.7783 35.0418L54.0076 25.8126Z" fill="white"/>
<path opacity="0.7" d="M61.4617 28.5319C59.6223 27.8047 58.1176 27.2111 57.2462 26.8679C54.1847 29.9295 51.1231 32.9911 48.0605 36.0526L53.6963 36.2963C56.2857 33.7088 58.8732 31.1204 61.4617 28.5319Z" fill="white"/>
<path opacity="0.7" d="M68.9715 31.5072C68.2765 31.2313 67.5805 30.9544 66.8912 30.6813L60.9634 36.6092L63.7491 36.7296L68.9715 31.5072Z" fill="white"/>
<path opacity="0.7" d="M73.8962 33.4687C72.7433 33.007 71.5107 32.5158 70.2525 32.0162L65.4644 36.8043L70.3502 37.0148L73.8962 33.4687Z" fill="white"/>
<path d="M104.824 41.3158L97.2431 41.4011C96.9378 41.4011 96.9056 41.7349 97.1531 42.1312L98.5791 44.787C98.7564 45.0714 99.1139 45.3359 99.3907 45.389L108.382 46.8634C108.173 45.2715 107.484 43.1287 104.824 41.3158Z" fill="#0D5E56"/>
<path d="M108.386 46.6652C108.225 45.8801 107.91 43.6795 105.352 41.7007H97.6477C97.3358 41.695 97.2685 41.9823 97.4809 42.3284L98.8073 44.4939C98.9647 44.7518 99.3136 44.9955 99.5971 45.0477L108.386 46.6652Z" fill="#F9F9F9"/>
<path d="M99.161 41.7252L97.6477 41.6996C97.3358 41.6939 97.2685 41.9812 97.4809 42.3273L98.8073 44.4929C98.9647 44.7507 99.3136 44.9944 99.5971 45.0466L101.809 45.4533L99.161 41.7252Z" fill="#F49625"/>
<path d="M108.789 50.0101C108.789 50.6255 108.29 51.1251 107.674 51.1251H104.417C103.801 51.1251 103.302 50.6255 103.302 50.0101C103.302 49.3938 103.802 48.8951 104.417 48.8951H107.674C108.29 48.8951 108.789 49.3938 108.789 50.0101Z" fill="#2A2A2B"/>
<path d="M106.56 49.9657C106.56 50.4436 106.172 50.8314 105.694 50.8314H104.872C104.394 50.8314 104.006 50.4436 104.006 49.9657C104.006 49.4878 104.394 49.1 104.872 49.1H105.694C106.173 49.1 106.56 49.4878 106.56 49.9657Z" fill="#F9F9F9"/>
<path d="M2.76172 42.3665H4.42098C5.45825 42.3665 6.49932 41.5255 6.74679 40.4882L7.13458 38.8621C7.38204 37.8248 6.74109 36.9838 5.70382 36.9838H4.31574C3.7222 38.2193 3.19882 40.2151 2.76172 42.3665Z" fill="#124F2A"/>
<path d="M2.85303 41.8961C3.27116 39.9353 3.70066 38.4448 4.13112 37.4521H5.70601C6.05113 37.4521 6.34033 37.5772 6.52048 37.8057C6.71105 38.0475 6.76794 38.3832 6.67976 38.752L6.29198 40.3781C6.09571 41.2011 5.24047 41.8951 4.42317 41.8951L2.85303 41.8961Z" fill="#DB3535"/>
<path d="M3.18963 40.4321C3.0768 40.8872 2.96491 41.3736 2.85303 41.897H4.42317C5.22246 41.897 6.05398 41.2314 6.27395 40.4321H3.18963Z" fill="#F49625"/>
<path opacity="0.3" d="M8.55859 37.3439C12.8727 37.2823 71.4341 39.6811 90.9185 41.0977C77.4188 41.0114 24.6155 40.3695 23.417 40.3865C22.2186 40.4027 8.55859 37.3439 8.55859 37.3439Z" fill="#124F2A"/>
<path opacity="0.6" d="M6.84229 37.0349C10.2367 38.1926 71.4339 39.6811 90.9184 41.0977C76.8668 38.9757 17.1771 37.5838 10.0053 34.7972C8.88839 34.363 6.84229 37.0349 6.84229 37.0349Z" fill="white"/>
<path opacity="0.6" d="M108.434 47.1924C107.76 43.6245 105.951 41.4248 102.225 39.9903C100.201 39.2109 88.2773 35.9066 86.1203 35.8374C81.2544 33.5656 60.983 26.6792 58.4998 25.6249C56.5712 24.6995 51.5205 23.1312 45.2608 23.1312C39.1566 23.1312 26.2191 22.586 21.7856 23.7181C18.3941 24.5838 8.52857 31.199 4.75399 36.2308C3.51381 37.8844 2.53532 43.1106 1.93799 47.1488C1.99583 47.1364 2.0546 47.127 2.11244 47.1156C2.71736 43.7174 3.62854 39.7684 4.75399 38.4362C8.52857 33.9695 17.8109 27.3344 21.0166 25.1982C21.9117 24.6018 48.237 24.5079 54.3014 25.1982C56.8822 25.4921 77.3859 33.7287 82.6956 36.2337C85.4993 38.3812 100.201 41.0816 102.225 41.7728C105.551 42.9096 107.345 44.5897 108.174 47.1867C108.26 47.182 108.347 47.1829 108.434 47.1924Z" fill="white"/>
<path opacity="0.6" d="M0.199191 55.2498L0.264614 51.9957C0.295903 50.4398 1.61479 48.8564 3.20958 48.4582L8.52301 47.1317H2.80376C1.25544 47.1317 0.00104325 48.3928 0.00104325 49.9487V53.2027C0.00104325 54.0181 -0.00845305 54.7453 0.199191 55.2602C0.199191 55.2564 0.199191 55.2536 0.199191 55.2498Z" fill="white"/>
<path opacity="0.6" d="M109.496 51.8933C109.564 51.8089 109.638 51.7321 109.718 51.6658V51.5368C109.718 47.9519 109.397 47.1317 106.916 47.1317H97.4351L106.749 48.3757C108.716 48.7388 109.318 49.814 109.496 51.8933Z" fill="white"/>
<path opacity="0.6" d="M26.8918 52.2631C26.8444 52.8661 26.7486 53.454 26.5884 54.0181H78.9498C78.838 53.6209 26.8918 52.2631 26.8918 52.2631Z" fill="white"/>
<path opacity="0.6" d="M17.7905 41.6296C23.231 41.6296 27.6759 45.9228 27.9452 51.2978C27.9537 51.1338 27.9708 50.9726 27.9708 50.8067C27.9708 45.1927 23.4036 40.6255 17.7896 40.6255C12.1756 40.6255 7.6084 45.1927 7.6084 50.8067C7.6084 50.9726 7.62639 51.1338 7.63398 51.2978C7.90515 45.9237 12.3501 41.6296 17.7905 41.6296Z" fill="white"/>
<path opacity="0.6" d="M87.7452 41.6296C93.1866 41.6296 97.6306 45.9228 97.8998 51.2978C97.9084 51.1338 97.9254 50.9726 97.9254 50.8067C97.9254 45.1927 93.3582 40.6255 87.7442 40.6255C82.1302 40.6255 77.563 45.1927 77.563 50.8067C77.563 50.9726 77.581 51.1338 77.5886 51.2978C77.8598 45.9237 82.3047 41.6296 87.7452 41.6296Z" fill="white"/>
<path opacity="0.2" d="M9.60289 51.9606C9.59626 51.8222 9.58203 51.6856 9.58203 51.5463C9.58203 47.0132 13.2571 43.3381 17.7902 43.3381C22.3233 43.3381 25.9983 47.0132 25.9983 51.5463C25.9983 51.6866 25.9841 51.8222 25.9774 51.9606C25.7603 47.6209 22.1839 44.1668 17.7902 44.1668C13.3974 44.1668 9.82002 47.6209 9.60289 51.9606ZM10.7274 51.6525C10.7217 51.7719 10.7094 51.8895 10.7094 52.0099C10.7094 55.9201 13.88 59.0907 17.7902 59.0907C21.7003 59.0907 24.8709 55.9201 24.8709 52.0099C24.8709 51.8895 24.8586 51.771 24.8529 51.6525C24.6652 55.3957 21.5799 58.3758 17.7902 58.3758C14.0004 58.3758 10.9151 55.3957 10.7274 51.6525Z" fill="#EDEDED"/>
<path opacity="0.2" d="M79.494 51.9606C79.4874 51.8222 79.4731 51.6856 79.4731 51.5463C79.4731 47.0132 83.1482 43.3381 87.6813 43.3381C92.2144 43.3381 95.8894 47.0132 95.8894 51.5463C95.8894 51.6866 95.8752 51.8222 95.8685 51.9606C95.6514 47.6209 92.075 44.1668 87.6813 44.1668C83.2885 44.1668 79.7121 47.6209 79.494 51.9606ZM80.6185 51.6525C80.6128 51.7719 80.6005 51.8895 80.6005 52.0099C80.6005 55.9201 83.7711 59.0907 87.6813 59.0907C91.5924 59.0907 94.762 55.9201 94.762 52.0099C94.762 51.8895 94.7497 51.771 94.744 51.6525C94.5563 55.3957 91.471 58.3758 87.6813 58.3758C83.8915 58.3758 80.8062 55.3957 80.6185 51.6525Z" fill="#EDEDED"/>
</svg>
