<svg width="100" height="98" viewBox="0 0 100 98" fill="none" xmlns="http://www.w3.org/2000/svg">
<path d="M61.7773 35.2634L84.2048 35.2218C81.0863 31.7068 74.2799 24.0084 71.0357 20.157C69.897 19.9481 67.896 19.6431 58.0562 19.4314L61.7773 35.2634Z" fill="#2D2D2D"/>
<path d="M59.3081 19.9306C68.4325 20.1376 70.4687 20.4306 71.4503 20.6053C74.5494 24.2766 80.6976 31.2383 83.8346 34.7792L62.8083 34.8171L59.3081 19.9306Z" fill="#80C2DC"/>
<path d="M8.263 46.8604C8.263 47.3411 7.87388 47.7302 7.39326 47.7302H0.869743C0.389121 47.7302 0 47.3411 0 46.8604V29.4645C0 28.9839 0.389121 28.5948 0.869743 28.5948H7.39326C7.87388 28.5948 8.263 28.9839 8.263 29.4645V46.8604Z" fill="#2D2D2D"/>
<path d="M7.11431 28.7667H1.14443C0.704478 28.7667 0.348633 29.1234 0.348633 29.5625V32.4814C0.348633 32.0414 0.705402 31.6855 1.14443 31.6855H7.11431C7.55427 31.6855 7.91011 32.0423 7.91011 32.4814V29.5625C7.91103 29.1225 7.55427 28.7667 7.11431 28.7667Z" fill="#383838"/>
<path d="M7.11431 47.4132H1.14443C0.704478 47.4132 0.348633 47.0564 0.348633 46.6174V43.6985C0.348633 44.1384 0.705402 44.4943 1.14443 44.4943H7.11431C7.55427 44.4943 7.91011 44.1375 7.91011 43.6985V46.6174C7.91103 47.0564 7.55427 47.4132 7.11431 47.4132Z" fill="#111111"/>
<path d="M74.3319 55.5219C74.3319 56.6024 73.4557 57.4786 72.3752 57.4786H42.3668C41.2864 57.4786 40.4102 56.6024 40.4102 55.5219C40.4102 54.4414 41.2864 53.5652 42.3668 53.5652H72.3743C73.4557 53.5652 74.3319 54.4414 74.3319 55.5219Z" fill="#2D2D2D"/>
<path d="M10.0077 55.1605H108.849C109.471 54.7066 109.885 54.0134 109.885 52.9487C109.885 50.1943 110.03 47.1497 108.87 47.0046V42.2935C108.87 38.8145 106.261 39.4671 106.261 39.4671C106.261 39.4671 106.115 38.4522 104.376 36.8578C101.042 36.1332 81.7617 34.8281 81.7617 34.8281C81.7617 34.8281 72.4377 22.7542 69.7536 18.9684C68.7387 17.374 13.9904 18.2289 13.9904 18.2289C12.3341 22.0296 6.95941 35.6988 6.95941 35.6988C5.87801 42.1457 6.27175 48.0195 5.94456 48.0195C5.21993 48.0195 6.08967 54.1077 6.08967 54.1077C6.08967 54.1077 7.77462 54.6558 10.0077 55.1605Z" fill="#E3E5E5"/>
<path opacity="0.7" d="M105.536 39.7564L7.68311 36.4955L8.11844 34.5379L81.1813 35.6258L104.014 37.3653L105.536 39.7564Z" fill="white"/>
<path d="M79.4427 36.7848H7.10449V36.3495H79.4427V36.7848ZM79.4427 42.1484H34.6478V42.5838H79.4427V42.1484ZM79.0933 40.8443H33.7781V41.2796H79.0933V40.8443Z" fill="#CECECE"/>
<path d="M54.8678 52.8433V20.2938L55.9742 20.3132C65.8232 20.4851 68.072 20.7292 69.4076 20.9445L69.8512 21.0157L70.1146 21.3798C72.4669 24.6268 77.616 31.2734 79.7206 33.9806L79.7687 34.0425L79.4211 43.4314L75.3414 52.8036L54.8678 52.8433ZM55.3022 20.7365V52.4071L75.0558 52.3692L79.0052 43.2955L79.3269 34.1848C77.1918 31.4379 72.099 24.8635 69.7606 21.6349L69.6026 21.4168L69.3364 21.3734C68.0165 21.1608 65.7853 20.9196 55.9649 20.7486L55.3022 20.7365ZM54.6506 52.8036H41.4871L33.4515 41.1364L32.9736 34.4094L32.9847 34.3716C34.4072 29.6124 35.8075 25.2073 37.2641 20.9048L37.5146 20.1663H38.2956C45.174 20.1718 49.0883 20.2115 53.9047 20.2818L54.6497 20.2994L54.6506 52.8036ZM41.7154 52.3692H54.2153V20.7245L53.8964 20.7171C49.0837 20.6469 45.1713 20.6071 38.2956 20.6016L37.827 20.6007L37.6773 21.0443C36.2261 25.3302 34.8314 29.7187 33.4136 34.4584L33.8776 40.9876L41.7154 52.3692Z" fill="#BFBFBF"/>
<path d="M55.9549 21.4001C66.1699 21.5776 68.1266 21.8392 69.2339 22.0176C71.5723 25.2461 76.5698 31.7003 78.862 34.6479L55.9549 34.683V21.4001ZM36.3335 21.2523C28.1601 21.2532 17.8822 21.268 14.9356 21.292C13.4817 24.8098 10.9206 31.4415 9.68945 34.6469L32.0938 34.6821C33.4303 30.1827 34.8362 25.7036 36.3335 21.2523ZM38.4057 21.2532C36.8982 25.7036 35.4831 30.1827 34.1383 34.683H54V21.3696C49.5108 21.3031 45.5429 21.2597 38.4057 21.2532Z" fill="#2D2D2D"/>
<path d="M34.7643 34.2181C36.0869 29.8176 37.3902 25.7193 38.7405 21.719C45.2206 21.7264 49.036 21.7634 53.5354 21.829V34.2181H34.7643ZM10.3672 34.183C11.712 30.6882 13.8951 25.0529 15.2501 21.7541C18.4509 21.7329 27.8896 21.7199 35.6895 21.7172C34.3521 25.7202 33.059 29.8194 31.7484 34.2162L10.3672 34.183ZM56.4219 21.8734C65.9031 22.0462 67.9938 22.2939 68.9716 22.4455C71.1289 25.4106 75.2696 30.7779 77.914 34.1839L56.4219 34.2162V21.8734Z" fill="#80C2DC"/>
<path d="M77.1807 55.0718C77.3998 55.0551 77.5301 55.0376 77.5412 55.0182L82.1515 47.0324C82.2384 46.8826 82.3465 46.7384 82.4657 46.5989C82.8188 46.3336 83.158 46.0535 83.476 45.7541C84.0869 45.3844 84.7838 45.1496 85.4132 45.1496H94.6338C95.8344 45.1496 97.2948 45.9925 97.8956 47.0324L102.506 55.0182C104.448 54.7603 108.228 56.2133 108.228 56.2133L90.604 61.3559L72.9485 56.2937C72.954 56.265 77.1752 55.1013 77.1807 55.0718ZM40.4141 55.0625C40.4104 55.0625 40.4048 55.0616 40.4011 55.0616C40.3845 55.0597 40.3707 55.0588 40.3559 55.057C40.3152 55.0524 40.281 55.0477 40.2542 55.0431C40.244 55.0413 40.232 55.0394 40.2237 55.0376C40.195 55.0311 40.1738 55.0255 40.1701 55.0191L35.5598 47.0333C34.959 45.9935 33.4987 45.1505 32.298 45.1505H23.0775C21.8769 45.1505 20.4165 45.9935 19.8157 47.0333L15.2055 55.0191C15.1935 55.0394 15.1713 55.0616 15.1398 55.0856C15.1093 55.1087 15.0696 55.1346 15.0225 55.1605L7.03027 55.9933L27.6878 61.6471L48.7076 54.6882C48.6965 54.6558 40.427 55.0949 40.4141 55.0625Z" fill="#2D2D2D"/>
<path d="M14.6312 56.571L18.9263 47.0333C19.4393 45.9935 20.8284 45.1506 22.03 45.1506H31.2505C32.4512 45.1506 33.9827 45.9935 34.6704 47.0333L39.9516 55.0191C40.179 55.362 77.1527 55.362 77.3219 55.0191L81.2611 47.0333C81.7741 45.9935 83.1633 45.1506 84.3648 45.1506H93.5854C94.786 45.1506 96.3175 45.9935 97.0052 47.0333L102.286 55.0191C102.514 55.362 108.108 56.2142 108.108 56.2142C109.036 55.7881 109.665 55.0376 109.554 53.7131C109.536 53.5088 109.521 53.3027 109.505 53.0966H104.028L99.155 45.7301C97.9332 43.8834 95.4986 42.5422 93.3654 42.5422H84.1448C82.0125 42.5422 79.8026 43.8834 78.8913 45.7301L75.258 53.0966H41.693L36.8202 45.7301C35.5983 43.8834 33.1638 42.5422 31.0306 42.5422H21.81C19.6768 42.5422 17.4678 43.8834 16.5565 45.7301L12.9231 53.0966H5.48828C5.69255 54.0958 6.13343 56.4296 6.13343 56.4296C6.13343 56.4296 7.87845 57.0682 11.1051 57.6247C11.1051 57.6247 14.4621 56.9148 14.6312 56.571Z" fill="#D4D6D6"/>
<path d="M12.9878 53.8591L16.6212 46.4926C17.5325 44.6458 19.7415 43.3047 21.8747 43.3047H31.0953C33.2285 43.3047 35.663 44.6458 36.8849 46.4926L41.7577 53.8591H75.3227L78.9569 46.4926C79.8682 44.6458 82.0772 43.3047 84.2105 43.3047H93.431C95.5642 43.3047 97.9988 44.6458 99.2207 46.4926L104.093 53.8591H109.559C109.557 53.8092 109.561 53.7639 109.556 53.7121C109.538 53.5079 109.523 53.3017 109.507 53.0956H104.03L99.1569 45.7291C97.935 43.8824 95.5005 42.5413 93.3672 42.5413H84.1467C82.0144 42.5413 79.8045 43.8824 78.8931 45.7291L75.2598 53.0956H41.693L36.8202 45.7291C35.5983 43.8824 33.1638 42.5413 31.0306 42.5413H21.81C19.6768 42.5413 17.4678 43.8824 16.5565 45.7291L12.9231 53.0956H5.48828C5.54466 53.372 5.60012 53.628 5.65003 53.8591H12.9878Z" fill="white"/>
<path d="M27.6881 67.0107C33.2925 67.0107 37.8357 62.4674 37.8357 56.863C37.8357 51.2586 33.2925 46.7153 27.6881 46.7153C22.0838 46.7153 17.5405 51.2586 17.5405 56.863C17.5405 62.4674 22.0838 67.0107 27.6881 67.0107Z" fill="#242424"/>
<path d="M27.6874 49.5427C23.6446 49.5427 20.3662 52.8202 20.3662 56.863C20.3662 60.9067 23.6437 64.1842 27.6874 64.1842C31.7302 64.1842 35.0085 60.9067 35.0085 56.863C35.0076 52.8202 31.7302 49.5427 27.6874 49.5427ZM34.4281 56.863C34.4281 57.1782 34.3985 57.4859 34.3569 57.7891L32.0675 57.6921L30.7079 56.7909L32.0647 55.8916L34.3357 55.7954C34.3911 56.1439 34.4281 56.4988 34.4281 56.863ZM29.3788 58.2965C29.4906 58.3668 29.5923 58.4601 29.669 58.5812L30.0064 59.1127L29.4722 58.7735C29.3538 58.6986 29.2623 58.6006 29.193 58.4916C29.169 58.3871 29.1329 58.2882 29.0858 58.193C29.1801 58.2383 29.2771 58.2725 29.3788 58.2965ZM29.0793 55.3943C29.1246 55.3009 29.1588 55.2039 29.1829 55.1022C29.2531 54.9904 29.3465 54.8887 29.4675 54.812L29.999 54.4746L29.6598 55.0079C29.5849 55.1263 29.4869 55.2178 29.3779 55.2871C29.2734 55.3111 29.1745 55.3472 29.0793 55.3943ZM29.8382 57.51C29.7651 57.4323 29.6838 57.3639 29.596 57.3048C29.6995 57.2974 29.8012 57.2789 29.901 57.2484C30.0332 57.253 30.1672 57.2835 30.2948 57.3491L30.853 57.6403L30.2208 57.6135C30.0812 57.6079 29.9528 57.5691 29.8382 57.51ZM30.2892 56.2354C30.1654 56.3001 30.0341 56.3306 29.9056 56.3361C29.803 56.3047 29.6995 56.2862 29.5932 56.2798C29.6792 56.2215 29.7578 56.155 29.8289 56.0783C29.9454 56.0163 30.0766 55.9757 30.2199 55.9692L30.8484 55.9424L30.2892 56.2354ZM30.2994 55.2797L31.024 53.823L32.9197 52.6187C33.3375 53.1335 33.6785 53.7102 33.9318 54.3341L31.927 55.3814L30.2994 55.2797ZM30.6506 53.4478L29.1902 54.1752L29.0895 52.5512L30.1182 50.5816C30.7458 50.8246 31.3272 51.1574 31.8466 51.5659L30.6506 53.4478ZM29.0387 51.7194L28.9472 50.2433C29.2586 50.3024 29.5618 50.3847 29.8566 50.4845L29.0387 51.7194ZM29.0488 61.8717L29.9371 63.2109C29.6173 63.3246 29.2891 63.4171 28.9499 63.4818L29.0488 61.8717ZM29.1006 61.0417L29.2013 59.4131L30.658 60.1377L31.9113 62.111C31.3937 62.5279 30.8124 62.869 30.1848 63.1194L29.1006 61.0417ZM30.3058 58.3039L31.9298 58.2032L33.9761 59.2717C33.734 59.902 33.4022 60.4871 32.9927 61.0102L31.0314 59.7643L30.3058 58.3039ZM32.7607 58.1514L34.3163 58.0553C34.2571 58.3862 34.1749 58.7069 34.0695 59.0193L32.7607 58.1514ZM32.7579 55.4313L34.027 54.5902C34.136 54.8933 34.2294 55.2039 34.295 55.5265L32.7579 55.4313ZM32.7376 52.4089L31.3956 53.0771L32.061 51.7397C32.3023 51.9458 32.5278 52.1704 32.7376 52.4089ZM28.6727 50.2017L28.5793 52.4126L27.6781 53.7722L26.7788 52.4163L26.6845 50.2045C27.0127 50.1555 27.3454 50.1213 27.6874 50.1213C28.0229 50.1222 28.3501 50.1545 28.6727 50.2017ZM28.2004 58.7078C28.2586 58.7938 28.3251 58.8724 28.4018 58.9435C28.4638 59.06 28.5044 59.1912 28.5109 59.3345L28.5377 59.9639L28.2447 59.4029C28.18 59.279 28.1495 59.1478 28.144 59.0193C28.1754 58.9177 28.1939 58.8132 28.2004 58.7078ZM28.1347 54.5791C28.1394 54.4469 28.1699 54.3129 28.2364 54.1853L28.5275 53.6271L28.5007 54.2593C28.4952 54.3988 28.4554 54.5273 28.3963 54.6419C28.3177 54.7149 28.2503 54.7963 28.1911 54.8841C28.1837 54.7806 28.1652 54.6789 28.1347 54.5791ZM26.8666 59.3345C26.8731 59.1949 26.9119 59.0665 26.9711 58.9519C27.0496 58.8788 27.1171 58.7984 27.1763 58.7097C27.1836 58.8123 27.2021 58.914 27.2326 59.0147C27.228 59.1469 27.1975 59.2809 27.131 59.4085L26.8398 59.9667L26.8666 59.3345ZM26.8297 53.6308L27.1226 54.1918C27.1873 54.3157 27.2179 54.446 27.2234 54.5754C27.192 54.678 27.1735 54.7815 27.167 54.8878C27.1088 54.8018 27.0422 54.7233 26.9655 54.6521C26.9036 54.5356 26.8629 54.4044 26.8565 54.2611L26.8297 53.6308ZM20.9467 56.863C20.9467 56.5025 20.9827 56.1513 21.0372 55.8065L23.2999 55.9026L24.6595 56.8038L23.3026 57.7031L21.0187 57.8002C20.9762 57.4924 20.9467 57.1819 20.9467 56.863ZM25.0772 57.3584C25.2011 57.2937 25.3323 57.2632 25.4608 57.2576C25.5634 57.2891 25.6669 57.3076 25.7732 57.314C25.6873 57.3723 25.6087 57.4388 25.5375 57.5155C25.4211 57.5774 25.2898 57.6181 25.1466 57.6246L24.5171 57.6514L25.0772 57.3584ZM25.0726 56.2456L24.5144 55.9544L25.1466 55.9812C25.2861 55.9868 25.4146 56.0265 25.5292 56.0857C25.6022 56.1642 25.6836 56.2317 25.7714 56.2908C25.6678 56.2982 25.5662 56.3167 25.4664 56.3472C25.3333 56.3417 25.1992 56.3112 25.0726 56.2456ZM25.7076 58.5858C25.7825 58.4675 25.8804 58.376 25.9895 58.3067C26.0939 58.2827 26.1928 58.2466 26.288 58.1995C26.2427 58.2928 26.2085 58.3899 26.1845 58.4916C26.1143 58.6034 26.0209 58.7051 25.8998 58.7818L25.3684 59.1191L25.7076 58.5858ZM25.9886 55.2982C25.8767 55.2279 25.7751 55.1346 25.6983 55.0135L25.361 54.482L25.8952 54.8212C26.0135 54.8961 26.105 54.9941 26.1743 55.1031C26.1984 55.2076 26.2344 55.3065 26.2816 55.4017C26.1873 55.3564 26.0902 55.3213 25.9886 55.2982ZM26.166 54.1816L24.7094 53.4561L23.5143 51.5752C24.0337 51.1648 24.6142 50.8311 25.2408 50.5862L26.2677 52.5521L26.166 54.1816ZM25.0615 55.2908L23.4376 55.3915L21.4374 54.3471C21.6888 53.7232 22.029 53.1455 22.4458 52.6298L24.335 53.8304L25.0615 55.2908ZM22.6057 55.4424L21.0779 55.5366C21.1417 55.2159 21.2341 54.9063 21.3422 54.604L22.6057 55.4424ZM22.6094 58.1625L21.3071 59.0258C21.2018 58.7152 21.1186 58.3954 21.0594 58.0673L22.6094 58.1625ZM23.4394 58.2143L25.068 58.315L24.3434 59.7717L22.3857 61.0158C21.9754 60.4936 21.6436 59.9094 21.4014 59.2791L23.4394 58.2143ZM24.7158 60.1469L26.1762 59.4205L26.2769 61.0444L25.1918 63.1222C24.5643 62.8717 23.9829 62.5325 23.4653 62.1147L24.7158 60.1469ZM26.3287 61.8744L26.4285 63.4818C26.0893 63.418 25.7612 63.3256 25.4423 63.2119L26.3287 61.8744ZM26.3176 51.7221L25.5015 50.491C25.7963 50.3902 26.0976 50.3061 26.4091 50.246L26.3176 51.7221ZM23.2999 51.7517L23.9635 53.0854L22.6261 52.42C22.8359 52.1815 23.0595 51.9578 23.2999 51.7517ZM22.5521 61.2237L23.9718 60.5167L23.2629 61.9401C23.0087 61.7192 22.7702 61.4807 22.5521 61.2237ZM26.6892 63.5224L26.7881 61.1812L27.6892 59.8216L28.5885 61.1775L28.6884 63.5206C28.3612 63.5696 28.0284 63.6028 27.6865 63.6028C27.3472 63.6038 27.0154 63.5705 26.6892 63.5224ZM32.1146 61.9382L31.4039 60.5093L32.8282 61.2182C32.6091 61.4761 32.3697 61.7155 32.1146 61.9382Z" fill="#E3E5E5"/>
<path d="M27.6877 48.5851C32.6861 48.5851 36.7816 52.4394 37.1716 57.3371C37.192 57.0848 37.2049 56.8297 37.2049 56.5728C37.2049 51.3164 32.944 47.0554 27.6877 47.0554C22.4313 47.0554 18.1704 51.3164 18.1704 56.5728C18.1704 56.8306 18.1833 57.0848 18.2037 57.3371C18.5937 52.4394 22.6892 48.5851 27.6877 48.5851Z" fill="#383838"/>
<path d="M27.6881 65.9598C22.2598 65.9598 17.827 61.6979 17.5534 56.338C17.5442 56.5118 17.5396 56.6874 17.5396 56.8639C17.5396 62.4678 22.0833 67.0116 27.6871 67.0116C33.2919 67.0116 37.8347 62.4678 37.8347 56.8639C37.8347 56.6874 37.8301 56.5127 37.8218 56.338C37.5482 61.6979 33.1163 65.9598 27.6881 65.9598Z" fill="#111111"/>
<path d="M27.6874 49.5427C31.6571 49.5427 34.881 52.7047 34.9975 56.6458C34.9993 56.5728 35.0085 56.5016 35.0085 56.4286C35.0085 52.3858 31.7311 49.1074 27.6874 49.1074C23.6446 49.1074 20.3662 52.3849 20.3662 56.4286C20.3662 56.5016 20.3755 56.5737 20.3773 56.6458C20.4938 52.7037 23.7176 49.5427 27.6874 49.5427Z" fill="#111111"/>
<path d="M27.6874 64.2064C31.6571 64.2064 34.881 61.0445 34.9975 57.1033C34.9993 57.1764 35.0085 57.2475 35.0085 57.3205C35.0085 61.3633 31.7311 64.6418 27.6874 64.6418C23.6446 64.6418 20.3662 61.3643 20.3662 57.3205C20.3662 57.2475 20.3755 57.1764 20.3773 57.1033C20.4938 61.0454 23.7176 64.2064 27.6874 64.2064Z" fill="#383838"/>
<path d="M90.2589 67.0107C95.8633 67.0107 100.407 62.4674 100.407 56.863C100.407 51.2586 95.8633 46.7153 90.2589 46.7153C84.6546 46.7153 80.1113 51.2586 80.1113 56.863C80.1113 62.4674 84.6546 67.0107 90.2589 67.0107Z" fill="#242424"/>
<path d="M90.2587 49.5427C86.2159 49.5427 82.9375 52.8202 82.9375 56.863C82.9375 60.9067 86.215 64.1842 90.2587 64.1842C94.3014 64.1842 97.5798 60.9067 97.5798 56.863C97.5798 52.8202 94.3024 49.5427 90.2587 49.5427ZM96.9994 56.863C96.9994 57.1782 96.9707 57.4859 96.9282 57.7891L94.6388 57.6921L93.2792 56.7909L94.636 55.8916L96.907 55.7954C96.9624 56.1439 96.9994 56.4988 96.9994 56.863ZM91.9501 58.2965C92.0619 58.3668 92.1636 58.4601 92.2403 58.5812L92.5777 59.1127L92.0434 58.7735C91.9251 58.6986 91.8336 58.6006 91.7643 58.4916C91.7403 58.3871 91.7042 58.2882 91.6571 58.193C91.7514 58.2383 91.8484 58.2725 91.9501 58.2965ZM91.6515 55.3943C91.6968 55.3009 91.731 55.2039 91.7551 55.1022C91.8253 54.9904 91.9187 54.8887 92.0397 54.812L92.5712 54.4746L92.232 55.0079C92.1571 55.1263 92.0592 55.2178 91.951 55.2871C91.8456 55.3111 91.7458 55.3472 91.6515 55.3943ZM92.4104 57.51C92.3374 57.4323 92.256 57.3639 92.1682 57.3048C92.2717 57.2974 92.3734 57.2789 92.4732 57.2484C92.6054 57.253 92.7394 57.2835 92.867 57.3491L93.4252 57.6403L92.793 57.6135C92.6535 57.6079 92.525 57.5691 92.4104 57.51ZM92.8614 56.2354C92.7376 56.3001 92.6073 56.3306 92.4779 56.3361C92.3753 56.3047 92.2717 56.2862 92.1654 56.2798C92.2514 56.2215 92.33 56.155 92.4011 56.0783C92.5176 56.0163 92.6488 55.9757 92.7921 55.9692L93.4215 55.9424L92.8614 56.2354ZM92.8707 55.2797L93.5962 53.823L95.4919 52.6187C95.9097 53.1335 96.2507 53.7102 96.504 54.3341L94.4992 55.3814L92.8707 55.2797ZM93.2228 53.4478L91.7625 54.1752L91.6617 52.5512L92.6904 50.5816C93.318 50.8246 93.8994 51.1574 94.4188 51.5659L93.2228 53.4478ZM91.61 51.7194L91.5184 50.2433C91.8299 50.3024 92.1331 50.3847 92.4279 50.4845L91.61 51.7194ZM91.621 61.8717L92.5093 63.2109C92.1895 63.3246 91.8614 63.4171 91.5221 63.4818L91.621 61.8717ZM91.6719 61.0417L91.7726 59.4131L93.2293 60.1377L94.4826 62.111C93.965 62.5279 93.3836 62.869 92.7561 63.1194L91.6719 61.0417ZM92.8781 58.3039L94.502 58.2032L96.5483 59.2717C96.3062 59.902 95.9744 60.4871 95.5649 61.0102L93.6036 59.7643L92.8781 58.3039ZM95.3329 58.1514L96.8885 58.0553C96.8293 58.3862 96.7471 58.7069 96.6417 59.0193L95.3329 58.1514ZM95.3302 55.4313L96.5992 54.5902C96.7083 54.8933 96.8016 55.2039 96.8672 55.5265L95.3302 55.4313ZM95.3098 52.4089L93.9678 53.0771L94.6332 51.7397C94.8745 51.9458 95.0991 52.1704 95.3098 52.4089ZM91.2439 50.2017L91.1506 52.4126L90.2494 53.7722L89.3501 52.4163L89.2558 50.2045C89.5839 50.1555 89.9167 50.1213 90.2587 50.1213C90.5942 50.1222 90.9214 50.1545 91.2439 50.2017ZM90.7726 58.7078C90.8308 58.7938 90.8973 58.8724 90.974 58.9435C91.036 59.06 91.0767 59.1912 91.0831 59.3345L91.1099 59.9639L90.8169 59.4029C90.7522 59.279 90.7217 59.1478 90.7162 59.0193C90.7467 58.9177 90.7652 58.8132 90.7726 58.7078ZM90.706 54.5791C90.7106 54.4469 90.7411 54.3129 90.8077 54.1853L91.0988 53.6271L91.072 54.2593C91.0665 54.3988 91.0267 54.5273 90.9676 54.6419C90.889 54.7149 90.8216 54.7963 90.7624 54.8841C90.755 54.7806 90.7365 54.6789 90.706 54.5791ZM89.4388 59.3345C89.4444 59.1949 89.4841 59.0665 89.5433 58.9519C89.6218 58.8788 89.6893 58.7984 89.7485 58.7097C89.7559 58.8123 89.7743 58.914 89.8048 59.0147C89.8002 59.1469 89.7697 59.2809 89.7041 59.4085L89.413 59.9667L89.4388 59.3345ZM89.4009 53.6308L89.6939 54.1918C89.7586 54.3157 89.7891 54.446 89.7947 54.5754C89.7633 54.678 89.7448 54.7815 89.7383 54.8878C89.6801 54.8018 89.6135 54.7233 89.5368 54.6521C89.4749 54.5356 89.4342 54.4044 89.4277 54.2611L89.4009 53.6308ZM83.5179 56.863C83.5179 56.5025 83.554 56.1513 83.6085 55.8065L85.8711 55.9026L87.2308 56.8038L85.8748 57.7031L83.591 57.8002C83.5475 57.4924 83.5179 57.1819 83.5179 56.863ZM87.6494 57.3584C87.7733 57.2937 87.9036 57.2632 88.033 57.2576C88.1356 57.2891 88.2391 57.3076 88.3454 57.314C88.2595 57.3723 88.1809 57.4388 88.1097 57.5155C87.9933 57.5774 87.862 57.6181 87.7188 57.6246L87.0893 57.6514L87.6494 57.3584ZM87.6439 56.2456L87.0856 55.9544L87.7178 55.9812C87.8574 55.9868 87.9859 56.0265 88.1005 56.0857C88.1735 56.1642 88.2539 56.2317 88.3426 56.2908C88.2391 56.2982 88.1384 56.3167 88.0376 56.3472C87.9055 56.3417 87.7705 56.3112 87.6439 56.2456ZM88.2789 58.5858C88.3537 58.4675 88.4517 58.376 88.5608 58.3067C88.6652 58.2827 88.7641 58.2466 88.8593 58.1995C88.814 58.2928 88.7798 58.3899 88.7558 58.4916C88.6856 58.6034 88.5922 58.7051 88.4711 58.7818L87.9397 59.1191L88.2789 58.5858ZM88.5598 55.2982C88.448 55.2279 88.3463 55.1346 88.2696 55.0135L87.9323 54.482L88.4665 54.8212C88.5848 54.8961 88.6763 54.9941 88.7456 55.1031C88.7697 55.2076 88.8057 55.3065 88.8528 55.4017C88.7586 55.3564 88.6615 55.3213 88.5598 55.2982ZM88.7373 54.1816L87.2807 53.4561L86.0856 51.5752C86.605 51.1648 87.1855 50.8311 87.8112 50.5862L88.8381 52.5521L88.7373 54.1816ZM87.6328 55.2908L86.0089 55.3915L84.0087 54.3471C84.2601 53.7232 84.6003 53.1455 85.0171 52.6298L86.9063 53.8304L87.6328 55.2908ZM85.1779 55.4424L83.6501 55.5366C83.7139 55.2159 83.8063 54.9063 83.9145 54.604L85.1779 55.4424ZM85.1807 58.1625L83.8784 59.0258C83.773 58.7152 83.6899 58.3954 83.6307 58.0673L85.1807 58.1625ZM86.0107 58.2143L87.6393 58.315L86.9146 59.7717L84.957 61.0158C84.5476 60.4936 84.2148 59.9094 83.9727 59.2791L86.0107 58.2143ZM87.2881 60.1469L88.7484 59.4205L88.8491 61.0444L87.7641 63.1222C87.1365 62.8717 86.5551 62.5325 86.0375 62.1147L87.2881 60.1469ZM88.9009 61.8744L89.0007 63.4818C88.6615 63.418 88.3334 63.3256 88.0136 63.2119L88.9009 61.8744ZM88.8898 51.7221L88.0737 50.491C88.3685 50.3902 88.6698 50.3061 88.9813 50.246L88.8898 51.7221ZM85.8721 51.7517L86.5357 53.0854L85.1983 52.42C85.4072 52.1815 85.6308 51.9578 85.8721 51.7517ZM85.1234 61.2237L86.5431 60.5167L85.8342 61.9401C85.5809 61.7192 85.3415 61.4807 85.1234 61.2237ZM89.2614 63.5224L89.3603 61.1812L90.2614 59.8216L91.1608 61.1775L91.2597 63.5206C90.9325 63.5696 90.5997 63.6028 90.2577 63.6028C89.9185 63.6038 89.5876 63.5705 89.2614 63.5224ZM94.6859 61.9382L93.9752 60.5093L95.3995 61.2182C95.1804 61.4761 94.941 61.7155 94.6859 61.9382Z" fill="#E3E5E5"/>
<path d="M90.2589 48.5851C95.2574 48.5851 99.3529 52.4394 99.7429 57.3371C99.7632 57.0848 99.7762 56.8297 99.7762 56.5728C99.7762 51.3164 95.5153 47.0554 90.2589 47.0554C85.0026 47.0554 80.7417 51.3164 80.7417 56.5728C80.7417 56.8306 80.7546 57.0848 80.775 57.3371C81.165 52.4394 85.2605 48.5851 90.2589 48.5851Z" fill="#383838"/>
<path d="M90.2589 65.9598C84.8307 65.9598 80.3979 61.6979 80.1252 56.338C80.1159 56.5118 80.1113 56.6874 80.1113 56.8639C80.1113 62.4678 84.6541 67.0116 90.2589 67.0116C95.8637 67.0116 100.407 62.4678 100.407 56.8639C100.407 56.6874 100.402 56.5127 100.393 56.338C100.12 61.6979 95.6872 65.9598 90.2589 65.9598Z" fill="#111111"/>
<path d="M90.2587 49.5427C94.2284 49.5427 97.4523 52.7047 97.5687 56.6458C97.5706 56.5728 97.5798 56.5016 97.5798 56.4286C97.5798 52.3858 94.3024 49.1074 90.2587 49.1074C86.2159 49.1074 82.9375 52.3849 82.9375 56.4286C82.9375 56.5016 82.9467 56.5737 82.9486 56.6458C83.065 52.7037 86.2889 49.5427 90.2587 49.5427Z" fill="#111111"/>
<path d="M90.2587 64.2064C94.2284 64.2064 97.4523 61.0445 97.5687 57.1033C97.5706 57.1764 97.5798 57.2475 97.5798 57.3205C97.5798 61.3633 94.3024 64.6418 90.2587 64.6418C86.2159 64.6418 82.9375 61.3643 82.9375 57.3205C82.9375 57.2475 82.9467 57.1764 82.9486 57.1033C83.065 61.0454 86.2889 64.2064 90.2587 64.2064Z" fill="#383838"/>
<path d="M78.7155 55.776C78.7155 56.2169 78.3587 56.5737 77.9178 56.5737H40.2278C39.7879 56.5737 39.4302 56.2169 39.4302 55.776C39.4302 55.3361 39.7869 54.9784 40.2278 54.9784H77.9188C78.3587 54.9784 78.7155 55.3352 78.7155 55.776Z" fill="#B2B2B2"/>
<path d="M78.6951 55.5949C78.6128 55.2418 78.2986 54.9784 77.9206 54.9784H40.2296C39.8516 54.9784 39.5364 55.2418 39.4551 55.5949H78.6951Z" fill="white"/>
<path d="M39.5732 56.228C39.7165 56.436 39.955 56.5728 40.2267 56.5728H77.9176C78.1894 56.5728 78.4278 56.436 78.5711 56.228H39.5732Z" fill="#939393"/>
<path d="M39.5169 37.088C39.5077 36.9346 39.3829 36.8116 39.2267 36.8116H34.4824C34.3253 36.8116 34.1986 36.9364 34.1913 37.0917H34.1885V37.1056V37.698V38.2424C34.1885 38.4042 34.3206 38.5364 34.4824 38.5364H39.2267C39.3884 38.5364 39.5206 38.4051 39.5206 38.2424V37.698V37.1046V37.088C39.5188 37.088 39.5169 37.088 39.5169 37.088ZM34.4824 36.929H39.2267C39.3237 36.929 39.4032 37.0085 39.4032 37.1056V37.698C39.4032 37.7951 39.3237 37.8746 39.2267 37.8746H34.4824C34.3853 37.8746 34.3059 37.7951 34.3059 37.698V37.1046C34.3059 37.0085 34.3844 36.929 34.4824 36.929ZM39.2258 38.419H34.4815C34.3844 38.419 34.3049 38.3395 34.3049 38.2424V37.9273C34.3548 37.9651 34.414 37.992 34.4815 37.992H39.2258C39.2932 37.992 39.3524 37.9651 39.4023 37.9273V38.2424C39.4023 38.3395 39.3237 38.419 39.2258 38.419Z" fill="#BFBFBF"/>
<path d="M61.2488 37.088C61.2396 36.9346 61.1139 36.8116 60.9586 36.8116H56.2143C56.0572 36.8116 55.9306 36.9364 55.9232 37.0917H55.9204V37.1056V37.698V38.2424C55.9204 38.4042 56.0526 38.5364 56.2143 38.5364H60.9586C61.1204 38.5364 61.2525 38.4051 61.2525 38.2424V37.698V37.1046V37.088C61.2507 37.088 61.2488 37.088 61.2488 37.088ZM56.2134 36.929H60.9577C61.0548 36.929 61.1342 37.0085 61.1342 37.1056V37.698C61.1342 37.7951 61.0548 37.8746 60.9577 37.8746H56.2134C56.1164 37.8746 56.0369 37.7951 56.0369 37.698V37.1046C56.0378 37.0085 56.1164 36.929 56.2134 36.929ZM60.9577 38.419H56.2134C56.1164 38.419 56.0369 38.3395 56.0369 38.2424V37.9273C56.0868 37.9651 56.1459 37.992 56.2134 37.992H60.9577C61.0252 37.992 61.0843 37.9651 61.1342 37.9273V38.2424C61.1342 38.3395 61.0548 38.419 60.9577 38.419Z" fill="#BFBFBF"/>
<path d="M9.60561 52.1159V48.1276H5.80408C5.53881 48.5981 5.68115 50.564 5.84567 52.1159H9.60561Z" fill="#7F374D"/>
<path d="M9.60564 49.0722V46.9686H5.80411C5.64144 47.256 5.63219 48.1036 5.68673 49.0722H9.60564Z" fill="#70221E"/>
<path d="M103.65 39.504V39.1768C103.65 38.6962 103.261 38.3071 102.781 38.3071H99.5909C99.1103 38.3071 98.7212 38.6962 98.7212 39.1768V39.504H103.65Z" fill="#E37333"/>
<path d="M79.6125 34.158C79.4563 36.4235 77.7602 35.8412 76.945 35.806C76.1298 35.7709 75.9043 35.0324 76.0032 34.0638C76.1428 32.6995 76.6465 32.2697 77.4617 32.3039C78.2778 32.34 79.7456 32.2161 79.6125 34.158Z" fill="#200000"/>
<path d="M76.1714 33.3021C76.3378 33.7273 76.6908 34.0203 77.14 34.0388C77.6484 34.06 79.8953 34.5749 79.081 32.8529C78.6854 32.3852 77.9534 32.4509 77.4829 32.4315C76.9561 32.4093 76.4468 32.7688 76.1714 33.3021Z" fill="#2D2D2D"/>
<path opacity="0.7" d="M87.7544 39.8127L107.71 40.4163L108.104 43.3481L87.7544 39.8127Z" fill="white"/>
<path opacity="0.7" d="M56.4226 25.039V21.8734C57.5613 21.8937 58.5873 21.9159 59.5226 21.9381C58.4902 22.9723 57.4569 24.0057 56.4226 25.039ZM65.2374 22.134L56.4235 30.948V34.2171L62.6069 34.2079L71.2757 25.5391C70.3976 24.3772 69.6009 23.3097 68.9733 22.4464C68.4299 22.3623 67.5389 22.2477 65.2374 22.134ZM68.5241 34.1987L73.0115 34.1922L75.7787 31.4249C75.1456 30.6051 74.4875 29.7501 73.8304 28.8924L68.5241 34.1987ZM12.0159 29.922C11.5686 31.0727 11.1369 32.1884 10.7524 33.1847L22.2042 21.7329C21.5045 21.7338 20.8372 21.7356 20.2004 21.7375L12.0159 29.922ZM28.1223 21.7227L15.6539 34.1913L25.5464 34.207L34.5442 25.2091C34.9231 24.0353 35.3048 22.8697 35.6903 21.7172C33.2474 21.7181 30.6446 21.7199 28.1223 21.7227ZM43.9292 21.7329L36.2402 29.422C35.7494 30.9896 35.2586 32.5775 34.7651 34.2181H47.2446C49.3418 32.1209 51.4399 30.0228 53.537 27.9256V21.8281C50.3834 21.7828 47.5635 21.7504 43.9292 21.7329Z" fill="white"/>
</svg>
