<svg width="150" height="100" viewBox="0 0 150 100" fill="none" xmlns="http://www.w3.org/2000/svg">
<path d="M37.6481 14.318H19.3V40.914H37.6481V14.318Z" fill="#E0E0E0"/>
<path d="M36.7279 14.318H18.3799V40.914H36.7279V14.318Z" fill="#F5F5F5"/>
<path d="M34.4499 17.198H20.6599V38.032H34.4499V17.198Z" fill="white"/>
<path d="M34.4498 38.034C34.4498 38.034 34.4498 37.998 34.4498 37.932C34.4498 37.866 34.4498 37.764 34.4498 37.636C34.4498 37.374 34.4498 36.99 34.4498 36.494C34.4498 35.494 34.4498 34.04 34.4358 32.202C34.4358 28.528 34.4238 23.324 34.4138 17.202L34.4598 17.248H20.6718L20.7218 17.198C20.7218 25.058 20.7218 32.304 20.7218 38.034L20.6818 37.994L30.7198 38.014L33.4918 38.024H34.2198H34.4718H34.2278H33.5078H30.7438L20.6818 38.044H20.6418V38.004C20.6418 32.274 20.6418 25.028 20.6418 17.168V17.118H20.6938H34.4818H34.5278V17.2C34.5278 23.34 34.5098 28.552 34.5058 32.234C34.5058 34.068 34.4958 35.518 34.4918 36.514C34.4918 37.008 34.4918 37.388 34.4918 37.648C34.4918 37.774 34.4918 37.872 34.4918 37.938C34.4918 38.004 34.4498 38.034 34.4498 38.034Z" fill="#E0E0E0"/>
<path d="M36.7819 14.318C36.687 14.4881 36.5773 14.6494 36.4539 14.8C36.2419 15.084 35.9379 15.472 35.5939 15.892C35.2499 16.312 34.9259 16.682 34.6859 16.946C34.5653 17.0951 34.4314 17.233 34.2859 17.358C34.3895 17.1958 34.5066 17.0426 34.6359 16.9L35.5199 15.828L36.3999 14.75C36.5148 14.5955 36.6426 14.4509 36.7819 14.318Z" fill="#E0E0E0"/>
<path d="M34.52 37.966C35.2048 39.053 36.0099 40.0593 36.92 40.966L34.52 37.966Z" fill="white"/>
<path d="M36.9258 40.974C36.7719 40.8628 36.631 40.7347 36.5058 40.592C36.1861 40.2669 35.883 39.9258 35.5978 39.57C35.2658 39.152 34.9878 38.754 34.7978 38.46C34.6885 38.3049 34.5948 38.1394 34.5178 37.966C34.6415 38.1088 34.7545 38.2605 34.8558 38.42C35.0558 38.704 35.3438 39.092 35.6738 39.506C36.0038 39.92 36.3238 40.284 36.5558 40.544C36.6893 40.6783 36.8129 40.822 36.9258 40.974Z" fill="#E0E0E0"/>
<path d="M18.3779 40.892L20.7779 37.928L18.3779 40.892Z" fill="white"/>
<path d="M20.7819 37.928C20.4199 38.4521 20.0314 38.9575 19.6179 39.442C19.231 39.9473 18.8171 40.4313 18.3779 40.892C18.7399 40.3679 19.1284 39.8626 19.5419 39.378C19.9289 38.8727 20.3428 38.3887 20.7819 37.928Z" fill="#E0E0E0"/>
<path d="M18.3799 14.318C18.7945 14.763 19.1844 15.2304 19.5479 15.718C19.9371 16.1836 20.3004 16.6703 20.6359 17.176C20.222 16.7309 19.8327 16.2636 19.4699 15.776C19.0801 15.3104 18.7162 14.8236 18.3799 14.318Z" fill="#E0E0E0"/>
<path d="M30.1539 21.428H25.5359V34.538H30.1539V21.428Z" fill="#E0E0E0"/>
<path d="M62.3859 10.442V22.09H45.6579L45.0559 10.524L62.3859 10.442Z" fill="#E0E0E0"/>
<path d="M45.054 10.524V22.064H61.782V10.524L45.054 10.524Z" fill="white"/>
<path d="M61.8618 22.144H44.9758V10.444H61.8618V22.144ZM45.1358 21.986H61.7038V10.6H45.1358V21.986Z" fill="#E0E0E0"/>
<path d="M59.9719 11.958H46.8679V20.63H59.9719V11.958Z" fill="white"/>
<path d="M59.972 11.958H59.72H59H56.3L46.868 12L46.906 11.962C46.906 14.612 46.906 17.548 46.906 20.634L46.866 20.594H59.97L59.936 20.626C59.936 17.988 59.95 15.826 59.954 14.316C59.954 13.564 59.954 12.976 59.954 12.572C59.954 12.372 59.954 12.22 59.954 12.114C59.954 12.008 59.954 11.954 59.954 11.954C59.954 11.954 59.954 12.004 59.954 12.106C59.954 12.208 59.954 12.362 59.954 12.558C59.954 12.958 59.954 13.546 59.964 14.296C59.964 15.808 59.974 17.98 59.98 20.626V20.66H59.948H46.844H46.802V20.618C46.802 17.532 46.802 14.596 46.802 11.946V11.92H46.84L56.298 11.938L58.99 11.95H59.702H59.944L59.972 11.958Z" fill="#E0E0E0"/>
<path d="M45.0559 10.492C45.1593 10.5417 45.2561 10.6042 45.3439 10.678C45.5139 10.802 45.7439 10.978 45.9999 11.178C46.2559 11.378 46.4719 11.578 46.6279 11.712C46.7172 11.7844 46.7977 11.867 46.8679 11.958C46.5492 11.7352 46.2422 11.4962 45.9479 11.242C45.635 11.0112 45.337 10.7607 45.0559 10.492Z" fill="#E0E0E0"/>
<path d="M61.7839 10.524C61.5088 10.7947 61.2148 11.0453 60.9039 11.274C60.6097 11.5236 60.2983 11.7522 59.9719 11.958C60.247 11.6874 60.5411 11.4367 60.8519 11.208C61.1457 10.9578 61.4572 10.7292 61.7839 10.524Z" fill="#E0E0E0"/>
<path d="M61.7698 22.066L59.9038 20.554L61.7698 22.066Z" fill="white"/>
<path d="M59.9038 20.554C60.2393 20.774 60.56 21.0159 60.8638 21.278C61.1831 21.52 61.4858 21.7833 61.7698 22.066C61.434 21.8473 61.1139 21.6054 60.8118 21.342C60.491 21.1009 60.1876 20.8376 59.9038 20.554Z" fill="#E0E0E0"/>
<path d="M45.0559 22.064C45.3277 21.7967 45.6184 21.5493 45.9259 21.324C46.2169 21.0765 46.525 20.85 46.8479 20.646C46.577 20.9149 46.2862 21.1629 45.9779 21.388C45.6873 21.6352 45.3791 21.8612 45.0559 22.064Z" fill="#E0E0E0"/>
<path d="M49.5278 14.66V17.564H57.7738V14.66H49.5278Z" fill="#E0E0E0"/>
<path d="M130.538 62.634C130.538 62.634 129.036 61.934 127.858 65.454C126.68 68.974 126.33 70.956 126.33 70.956C126.33 70.956 125.992 71.708 125.454 71.33C124.916 70.952 124.082 69.778 123.316 70.13C122.55 70.482 122.386 71.458 122.748 72.796C123.11 74.134 123.796 77.092 123.856 77.36C123.916 77.628 123.822 78.038 123.416 77.84C123.01 77.642 120.526 75.592 119.616 76.826C118.706 78.06 120.334 81.626 120.504 82.014C120.674 82.402 120.62 82.594 120.44 82.724C120.26 82.854 119.494 82.086 118.764 81.524C118.034 80.962 117.092 80.456 116.63 81.212C116.168 81.968 116.408 84.786 119.742 88.922L121.412 90.736L123.838 90.234C128.964 88.844 130.812 86.704 130.882 85.82C130.952 84.936 129.882 84.8 128.972 84.82C128.062 84.84 126.984 85.01 126.916 84.798C126.848 84.586 126.916 84.398 127.28 84.198C127.644 83.998 131.05 82.048 131.046 80.518C131.042 78.988 127.828 79.192 127.382 79.118C126.936 79.044 127.104 78.648 127.306 78.47C127.508 78.292 129.804 76.296 130.882 75.426C131.96 74.556 132.42 73.694 131.988 72.936C131.556 72.178 130.208 72.664 129.552 72.654C128.896 72.644 129.062 71.836 129.062 71.836C129.062 71.836 129.942 70.036 131.062 66.486C132.182 62.936 130.506 62.63 130.506 62.63" fill="#EBEBEB"/>
<path d="M121.096 91.238C121.924 88.638 123.472 84.048 124.782 80.098C126.092 76.148 127.274 72.574 128.116 69.982C128.534 68.686 128.872 67.638 129.116 66.91C129.234 66.55 129.316 66.268 129.388 66.074C129.419 65.982 129.443 65.91 129.46 65.858C129.476 65.808 129.486 65.784 129.486 65.784C129.486 65.784 129.486 65.81 129.466 65.86C129.446 65.91 129.43 65.984 129.402 66.078C129.342 66.278 129.256 66.556 129.144 66.918C128.92 67.648 128.59 68.7 128.174 69.998C127.346 72.598 126.174 76.174 124.864 80.122C123.554 84.07 121.996 88.662 121.154 91.254" fill="#E0E0E0"/>
<path d="M124.418 71.816C124.451 71.8653 124.48 71.9176 124.504 71.972C124.556 72.074 124.626 72.226 124.704 72.412C124.874 72.786 125.104 73.308 125.326 73.888C125.548 74.468 125.758 74.978 125.926 75.374C125.996 75.552 126.058 75.704 126.106 75.824C126.133 75.8771 126.153 75.9336 126.166 75.992C126.133 75.9427 126.104 75.8905 126.08 75.836C126.028 75.734 125.958 75.584 125.88 75.396C125.714 75.02 125.5 74.496 125.268 73.916C125.036 73.336 124.828 72.828 124.668 72.434L124.484 71.984C124.455 71.931 124.433 71.8746 124.418 71.816Z" fill="#E0E0E0"/>
<path d="M126.4 76C126.39 75.98 127.446 75.48 128.758 74.88C130.07 74.28 131.138 73.812 131.158 73.832C131.178 73.852 130.11 74.352 128.798 74.95C127.486 75.548 126.4 76.022 126.4 76Z" fill="#E0E0E0"/>
<path d="M124.108 81.976C124.166 81.9571 124.227 81.9451 124.288 81.94L124.778 81.868C125.19 81.808 125.762 81.722 126.388 81.602C127.014 81.482 127.576 81.36 127.988 81.264L128.47 81.154C128.528 81.1358 128.589 81.1251 128.65 81.122C128.595 81.1472 128.537 81.1673 128.478 81.182C128.366 81.216 128.204 81.264 128.002 81.318C127.602 81.426 127.034 81.56 126.402 81.678C125.77 81.796 125.202 81.878 124.784 81.922C124.584 81.946 124.408 81.962 124.29 81.97C124.23 81.9773 124.169 81.9793 124.108 81.976Z" fill="#E0E0E0"/>
<path d="M121.488 78.582C121.531 78.6181 121.57 78.659 121.604 78.704L121.898 79.056C122.144 79.354 122.478 79.77 122.844 80.232C123.21 80.694 123.54 81.114 123.774 81.422L124.048 81.788C124.084 81.8314 124.115 81.8783 124.142 81.928C124.098 81.8926 124.059 81.8516 124.026 81.806L123.732 81.456C123.486 81.156 123.152 80.742 122.784 80.28C122.416 79.818 122.09 79.396 121.856 79.09L121.582 78.724C121.545 78.6805 121.514 78.6328 121.488 78.582Z" fill="#E0E0E0"/>
<path d="M118.8 83.6C118.854 83.6474 118.903 83.7004 118.946 83.758C119.046 83.874 119.172 84.026 119.324 84.206C119.642 84.586 120.074 85.116 120.55 85.704C121.026 86.292 121.452 86.826 121.75 87.216L122.11 87.678C122.156 87.7336 122.196 87.7932 122.232 87.856C122.179 87.8073 122.13 87.7544 122.086 87.698L121.708 87.25C121.392 86.868 120.958 86.34 120.482 85.752C120.006 85.164 119.58 84.63 119.282 84.24C119.138 84.054 119.016 83.898 118.924 83.776C118.877 83.7215 118.835 83.6626 118.8 83.6Z" fill="#E0E0E0"/>
<path d="M122.2 87.73C122.273 87.7077 122.348 87.691 122.424 87.68L123.042 87.568C123.564 87.472 124.284 87.336 125.074 87.168C125.864 87 126.576 86.824 127.09 86.694L127.7 86.542C127.774 86.5199 127.849 86.5039 127.926 86.494C127.856 86.5259 127.783 86.5514 127.708 86.57C127.566 86.614 127.36 86.676 127.108 86.746C126.596 86.89 125.886 87.072 125.094 87.242C124.302 87.412 123.58 87.542 123.056 87.624C122.794 87.666 122.58 87.696 122.434 87.714C122.357 87.7268 122.278 87.7322 122.2 87.73Z" fill="#E0E0E0"/>
<path d="M135 91.166C135 91.194 107.522 91.218 73.636 91.218C39.75 91.218 12.272 91.2 12.272 91.166C12.272 91.132 39.744 91.114 73.644 91.114C107.544 91.114 135 91.138 135 91.166Z" fill="#263238"/>
<path d="M97.4714 21.5649L95.5684 23.1925L98.1086 26.1626L100.012 24.535L97.4714 21.5649Z" fill="#263238"/>
<path d="M99.1161 21.334L95.2001 24.698L92.4541 21.498C93.5341 19.982 94.8221 18.838 96.3641 18.134L99.1161 21.334Z" fill="#455A64"/>
<path d="M95.8602 24.134C95.8382 24.154 95.1762 23.426 94.3802 22.512C93.5842 21.598 92.9562 20.842 92.9802 20.822C93.0042 20.802 93.6642 21.53 94.4602 22.444C95.2562 23.358 95.8822 24.116 95.8602 24.134Z" fill="#263238"/>
<path d="M96.6001 23.494C96.4419 23.34 96.2948 23.1749 96.1601 23C95.8961 22.69 95.5381 22.26 95.1441 21.78L94.1441 20.548L93.8441 20.174C93.7721 20.082 93.7341 20.04 93.7341 20.034C93.7741 19.998 94.4401 20.756 95.2281 21.714C95.6281 22.194 95.9721 22.632 96.2281 22.954C96.3678 23.1227 96.4923 23.3034 96.6001 23.494Z" fill="#263238"/>
<path d="M97.6 22.64C97.4394 22.4865 97.2903 22.3214 97.154 22.146C96.888 21.832 96.528 21.394 96.132 20.908L95.132 19.656L94.832 19.274C94.7932 19.2285 94.7584 19.1796 94.728 19.128C94.8998 19.27 95.0542 19.4318 95.188 19.61C95.458 19.92 95.822 20.356 96.216 20.842C96.61 21.328 96.964 21.774 97.216 22.1C97.359 22.2689 97.4874 22.4495 97.6 22.64Z" fill="#263238"/>
<path d="M98.5021 21.84C98.4801 21.858 97.8221 21.124 97.0321 20.2C96.2421 19.276 95.6221 18.51 95.6441 18.49C95.6661 18.47 96.3221 19.206 97.1121 20.132C97.9021 21.058 98.5241 21.822 98.5021 21.84Z" fill="#263238"/>
<path d="M130.983 23.5866L129.253 21.7763L126.428 24.4763L128.158 26.2866L130.983 23.5866Z" fill="#263238"/>
<path d="M131.066 25.368L127.502 21.638L130.548 18.728C132.116 19.728 133.328 20.954 134.11 22.458L131.066 25.368Z" fill="#455A64"/>
<path d="M128.098 22.264C128.078 22.242 128.768 21.542 129.64 20.7C130.512 19.858 131.24 19.192 131.254 19.212C131.268 19.232 130.584 19.932 129.712 20.776C128.84 21.62 128.118 22.284 128.098 22.264Z" fill="#263238"/>
<path d="M128.778 22.974C128.92 22.806 129.075 22.6496 129.242 22.506C129.536 22.226 129.948 21.844 130.406 21.424L131.584 20.358L131.942 20.038C132.028 19.962 132.07 19.924 132.076 19.922C132.114 19.96 131.392 20.666 130.476 21.502C130.018 21.92 129.598 22.302 129.29 22.56C129.131 22.7112 128.959 22.8497 128.778 22.974Z" fill="#263238"/>
<path d="M129.682 23.92C129.826 23.7505 129.983 23.5926 130.152 23.448C130.45 23.166 130.868 22.782 131.334 22.362L132.534 21.294L132.9 20.974C132.945 20.9342 132.992 20.8968 133.04 20.862C132.908 21.0415 132.755 21.2046 132.584 21.348C132.288 21.634 131.87 22.02 131.406 22.44C130.942 22.86 130.514 23.24 130.206 23.504C130.042 23.6559 129.867 23.795 129.682 23.92Z" fill="#263238"/>
<path d="M130.528 24.782C130.508 24.76 131.208 24.066 132.09 23.228C132.972 22.39 133.704 21.73 133.724 21.752C133.744 21.774 133.044 22.468 132.162 23.304C131.28 24.14 130.548 24.8 130.528 24.782Z" fill="#263238"/>
<path d="M115.016 14.944H112.052V19.57H115.016V14.944Z" fill="#263238"/>
<path d="M116.6 16.328H110.5V11.342C112.638 10.814 114.678 10.782 116.606 11.342L116.6 16.328Z" fill="#006FCF"/>
<path d="M116.678 11.362C116.607 11.4067 116.531 11.4442 116.452 11.474C116.243 11.566 116.029 11.6448 115.81 11.71C115.482 11.8109 115.148 11.8898 114.81 11.946C114.399 12.0112 113.984 12.046 113.568 12.05C113.152 12.0506 112.737 12.0199 112.326 11.958C111.988 11.9056 111.654 11.8301 111.326 11.732C111.107 11.6679 110.892 11.5911 110.682 11.502C110.603 11.4745 110.527 11.4375 110.456 11.392C110.456 11.374 110.792 11.512 111.346 11.66C111.671 11.7459 112.001 11.8127 112.334 11.86C112.741 11.9151 113.151 11.9431 113.562 11.944C113.973 11.9393 114.383 11.9073 114.79 11.848C115.122 11.8001 115.45 11.7333 115.774 11.648C116.342 11.486 116.67 11.344 116.678 11.362Z" fill="#263238"/>
<path d="M112.516 16.314C112.488 16.314 112.464 15.356 112.464 14.176C112.464 12.996 112.488 12.038 112.516 12.038C112.544 12.038 112.568 12.994 112.568 14.176C112.568 15.358 112.546 16.314 112.516 16.314Z" fill="#263238"/>
<path d="M113.678 16.342C113.65 16.342 113.626 15.38 113.626 14.194C113.626 13.008 113.65 12.048 113.678 12.048C113.706 12.048 113.73 13.008 113.73 14.194C113.73 15.38 113.708 16.342 113.678 16.342Z" fill="#263238"/>
<path d="M114.84 16.324C114.812 16.324 114.788 15.362 114.788 14.176C114.788 12.99 114.812 12.028 114.84 12.028C114.868 12.028 114.892 12.99 114.892 14.176C114.892 15.362 114.87 16.324 114.84 16.324Z" fill="#263238"/>
<path d="M115.8 16.324C115.77 16.324 115.748 15.284 115.748 14.002C115.748 12.72 115.77 11.68 115.8 11.68C115.83 11.68 115.852 12.72 115.852 14.002C115.852 15.284 115.836 16.324 115.8 16.324Z" fill="#263238"/>
<path d="M111.418 16.294C111.39 16.294 111.366 15.254 111.366 13.972C111.366 12.69 111.39 11.65 111.418 11.65C111.446 11.65 111.47 12.69 111.47 13.972C111.47 15.254 111.448 16.294 111.418 16.294Z" fill="#263238"/>
<path d="M128.425 54.9543C136.847 46.5323 136.847 32.8774 128.425 24.4554C120.003 16.0333 106.349 16.0333 97.9265 24.4554C89.5044 32.8774 89.5044 46.5323 97.9265 54.9543C106.349 63.3764 120.003 63.3764 128.425 54.9543Z" fill="#006FCF"/>
<path d="M113.176 57.646C123.179 57.646 131.288 49.537 131.288 39.534C131.288 29.531 123.179 21.422 113.176 21.422C103.173 21.422 95.064 29.531 95.064 39.534C95.064 49.537 103.173 57.646 113.176 57.646Z" fill="#FAFAFA"/>
<path d="M131.288 39.534C131.288 39.534 131.288 39.436 131.274 39.242C131.26 39.048 131.274 38.758 131.236 38.38C131.165 37.2771 130.992 36.1832 130.72 35.112C130.524 34.3388 130.276 33.5798 129.978 32.84C129.628 31.958 129.206 31.1058 128.718 30.292C127.524 28.3037 125.963 26.5602 124.118 25.154C121.879 23.4507 119.273 22.2946 116.508 21.778C114.164 21.3468 111.759 21.3746 109.426 21.86C108.607 22.0378 107.8 22.2683 107.01 22.55C103.65 23.7741 100.727 25.9655 98.61 28.848C98.0576 29.5987 97.5654 30.3918 97.138 31.22C96.916 31.634 96.726 32.064 96.538 32.496C96.35 32.928 96.182 33.376 96.04 33.832C95.733 34.7445 95.5029 35.6811 95.352 36.632C95.2002 37.5934 95.1206 38.5647 95.114 39.538C95.121 40.5118 95.1999 41.4838 95.35 42.446C95.5031 43.3964 95.7332 44.3328 96.038 45.246C96.182 45.7 96.362 46.14 96.536 46.58C96.71 47.02 96.92 47.444 97.136 47.858C97.5633 48.6867 98.0562 49.4799 98.61 50.23C100.726 53.1135 103.649 55.3057 107.01 56.53C107.8 56.8117 108.607 57.0421 109.426 57.22C110.225 57.3869 111.034 57.4998 111.848 57.558C113.406 57.6758 114.972 57.5897 116.508 57.302C119.273 56.7854 121.879 55.6293 124.118 53.926C125.963 52.5204 127.524 50.7767 128.718 48.788C129.206 47.9739 129.627 47.1218 129.978 46.24C130.688 44.4717 131.113 42.6017 131.236 40.7C131.27 40.322 131.264 40.032 131.274 39.838C131.284 39.644 131.288 39.544 131.288 39.544C131.288 39.544 131.288 39.644 131.288 39.838C131.288 40.032 131.288 40.322 131.26 40.7C131.15 42.607 130.734 44.4838 130.026 46.258C129.678 47.1441 129.258 48.0003 128.77 48.818C127.578 50.8163 126.017 52.5695 124.17 53.984C121.923 55.6976 119.307 56.862 116.53 57.384C114.987 57.6755 113.413 57.7642 111.848 57.648C111.03 57.59 110.217 57.4771 109.414 57.31C108.59 57.1327 107.778 56.9015 106.984 56.618C103.604 55.3893 100.663 53.1866 98.534 50.288C97.9782 49.5338 97.4833 48.7366 97.054 47.904C96.83 47.488 96.638 47.052 96.442 46.618C96.246 46.184 96.086 45.734 95.942 45.276C95.6352 44.3591 95.4037 43.4186 95.25 42.464C94.9326 40.5276 94.9326 38.5524 95.25 36.616C95.4045 35.6655 95.6359 34.7291 95.942 33.816C96.088 33.358 96.268 32.916 96.444 32.474C96.62 32.032 96.83 31.606 97.054 31.19C97.4847 30.3577 97.9803 29.5606 98.536 28.806C100.664 25.9078 103.604 23.7057 106.984 22.478C107.777 22.1947 108.588 21.9636 109.412 21.786C110.216 21.6191 111.029 21.5061 111.848 21.448C113.413 21.3318 114.986 21.4205 116.528 21.712C119.306 22.2317 121.923 23.3963 124.168 25.112C126.015 26.5274 127.576 28.2812 128.768 30.28C129.664 31.7888 130.337 33.4189 130.768 35.12C131.035 36.1949 131.202 37.2923 131.266 38.398C131.296 38.776 131.286 39.066 131.294 39.26C131.302 39.454 131.288 39.534 131.288 39.534Z" fill="#263238"/>
<path d="M128.63 38.878C128.056 38.902 127.588 38.878 127.586 38.828C127.584 38.778 128.046 38.71 128.62 38.678C129.194 38.646 129.662 38.666 129.666 38.726C129.67 38.786 129.2 38.854 128.63 38.878Z" fill="#263238"/>
<path d="M128.244 43.048C127.684 42.916 127.244 42.77 127.244 42.72C127.244 42.67 127.72 42.73 128.282 42.852C128.844 42.974 129.282 43.122 129.282 43.18C129.282 43.238 128.8 43.178 128.244 43.048Z" fill="#263238"/>
<path d="M126.75 46.958C126.244 46.682 125.856 46.42 125.88 46.376C125.904 46.332 126.336 46.514 126.844 46.776C127.352 47.038 127.742 47.308 127.714 47.36C127.686 47.412 127.254 47.236 126.75 46.958Z" fill="#263238"/>
<path d="M124.26 50.326C123.848 49.926 123.542 49.57 123.578 49.526C123.614 49.482 123.978 49.78 124.398 50.176C124.818 50.572 125.12 50.926 125.08 50.976C125.04 51.026 124.67 50.728 124.26 50.326Z" fill="#263238"/>
<path d="M120.96 52.906C120.672 52.408 120.472 51.984 120.516 51.958C120.56 51.932 120.836 52.312 121.132 52.804C121.428 53.296 121.628 53.72 121.578 53.752C121.528 53.784 121.25 53.4 120.96 52.906Z" fill="#263238"/>
<path d="M117.09 54.504C116.946 53.946 116.868 53.484 116.918 53.472C116.968 53.46 117.13 53.898 117.284 54.452C117.438 55.006 117.514 55.468 117.456 55.484C117.398 55.5 117.234 55.06 117.09 54.504Z" fill="#263238"/>
<path d="M112.932 55C112.932 54.424 112.99 53.958 113.04 53.958C113.09 53.958 113.132 54.426 113.132 55C113.132 55.574 113.082 56.042 113.024 56.042C112.966 56.042 112.922 55.578 112.932 55Z" fill="#263238"/>
<path d="M108.8 54.374C108.964 53.822 109.136 53.388 109.186 53.402C109.236 53.416 109.148 53.876 108.986 54.43C108.824 54.984 108.658 55.43 108.6 55.402C108.542 55.374 108.626 54.926 108.8 54.374Z" fill="#263238"/>
<path d="M104.974 52.652C105.28 52.166 105.562 51.792 105.606 51.818C105.65 51.844 105.442 52.266 105.144 52.758C104.846 53.25 104.562 53.622 104.512 53.592C104.462 53.562 104.668 53.14 104.974 52.652Z" fill="#263238"/>
<path d="M101.756 49.972C102.182 49.584 102.556 49.3 102.588 49.338C102.62 49.376 102.312 49.724 101.892 50.118C101.472 50.512 101.102 50.796 101.06 50.754C101.018 50.712 101.332 50.36 101.756 49.972Z" fill="#263238"/>
<path d="M99.3721 46.528C99.8861 46.27 100.322 46.096 100.344 46.14C100.366 46.184 99.9741 46.438 99.4641 46.706C98.9541 46.974 98.5201 47.148 98.4921 47.094C98.4641 47.04 98.8601 46.788 99.3721 46.528Z" fill="#263238"/>
<path d="M98 42.572C98.566 42.46 99.032 42.41 99.042 42.46C99.052 42.51 98.604 42.648 98.042 42.768C97.48 42.888 97.012 42.938 97 42.88C96.988 42.822 97.44 42.684 98 42.572Z" fill="#263238"/>
<path d="M97.746 38.4C98.32 38.442 98.782 38.518 98.78 38.568C98.778 38.618 98.308 38.632 97.734 38.598C97.16 38.564 96.696 38.49 96.7 38.43C96.704 38.37 97.172 38.348 97.746 38.4Z" fill="#263238"/>
<path d="M98.6159 34.294C99.1579 34.494 99.5819 34.694 99.5659 34.736C99.5499 34.778 99.0939 34.67 98.5499 34.482C98.0059 34.294 97.5819 34.098 97.5999 34.042C97.6179 33.986 98.0759 34.098 98.6159 34.294Z" fill="#263238"/>
<path d="M100.558 30.584C101.026 30.918 101.382 31.222 101.358 31.264C101.334 31.306 100.922 31.074 100.448 30.748C99.974 30.422 99.618 30.118 99.648 30.068C99.678 30.018 100.088 30.25 100.558 30.584Z" fill="#263238"/>
<path d="M103.42 27.528C103.782 27.974 104.044 28.362 104.006 28.396C103.968 28.43 103.634 28.096 103.266 27.654C102.898 27.212 102.634 26.826 102.68 26.788C102.726 26.75 103.058 27.082 103.42 27.528Z" fill="#263238"/>
<path d="M107 25.348C107.228 25.876 107.378 26.32 107.33 26.348C107.282 26.376 107.054 25.96 106.818 25.436C106.582 24.912 106.432 24.468 106.486 24.436C106.54 24.404 106.766 24.822 107 25.348Z" fill="#263238"/>
<path d="M111.028 24.214C111.106 24.784 111.13 25.252 111.078 25.26C111.026 25.268 110.916 24.812 110.83 24.244C110.744 23.676 110.72 23.206 110.778 23.198C110.836 23.19 110.95 23.644 111.028 24.214Z" fill="#263238"/>
<path d="M115.216 24.2C115.14 24.77 115.038 25.228 114.988 25.222C114.938 25.216 114.95 24.746 115.018 24.176C115.086 23.606 115.188 23.146 115.246 23.154C115.304 23.162 115.292 23.628 115.216 24.2Z" fill="#263238"/>
<path d="M119.254 25.306C119.028 25.836 118.806 26.248 118.758 26.228C118.71 26.208 118.852 25.762 119.07 25.228C119.288 24.694 119.512 24.284 119.566 24.308C119.62 24.332 119.482 24.778 119.254 25.306Z" fill="#263238"/>
<path d="M122.846 27.46C122.486 27.91 122.162 28.248 122.122 28.216C122.082 28.184 122.336 27.79 122.69 27.336C123.044 26.882 123.366 26.536 123.414 26.582C123.462 26.628 123.2 27.012 122.846 27.46Z" fill="#263238"/>
<path d="M125.732 30.496C125.264 30.832 124.862 31.072 124.832 31.03C124.802 30.988 125.152 30.678 125.614 30.334C126.076 29.99 126.478 29.752 126.514 29.8C126.55 29.848 126.2 30.16 125.732 30.496Z" fill="#263238"/>
<path d="M127.698 34.2C127.158 34.4 126.698 34.518 126.686 34.472C126.674 34.426 127.086 34.218 127.628 34.012C128.17 33.806 128.616 33.684 128.638 33.74C128.66 33.796 128.238 34 127.698 34.2Z" fill="#263238"/>
<path d="M128.6 38.284C128.026 38.33 127.558 38.326 127.554 38.284C127.55 38.242 128.01 38.15 128.582 38.084C129.154 38.018 129.624 38.034 129.628 38.094C129.632 38.154 129.168 38.238 128.6 38.284Z" fill="#263238"/>
<path d="M106.142 19.94L106.08 19.968L105.896 20.042C105.736 20.11 105.496 20.192 105.19 20.326C104.328 20.6864 103.491 21.104 102.684 21.576C102.172 21.872 101.63 22.226 101.06 22.624C100.49 23.022 99.9081 23.486 99.3261 24.008C96.7709 26.2603 94.8191 29.1155 93.6481 32.314C93.3741 33.046 93.1681 33.762 92.9901 34.432C92.8121 35.102 92.6921 35.742 92.6021 36.326C92.4561 37.2487 92.3712 38.1801 92.3481 39.114C92.3321 39.446 92.3481 39.702 92.3481 39.876C92.3481 39.96 92.3481 40.024 92.3481 40.076C92.3499 40.0986 92.3499 40.1214 92.3481 40.144C92.3455 40.1221 92.3455 40.0999 92.3481 40.078C92.3481 40.028 92.3481 39.962 92.3481 39.878C92.3481 39.704 92.3261 39.448 92.3361 39.116C92.3433 38.1786 92.4175 37.2429 92.5581 36.316C92.6421 35.728 92.7721 35.09 92.9341 34.412C93.1149 33.6913 93.3325 32.9804 93.5861 32.282C94.7513 29.062 96.7146 26.1904 99.2921 23.936C99.8781 23.414 100.474 22.964 101.038 22.554C101.602 22.144 102.158 21.804 102.676 21.512C103.488 21.0449 104.332 20.6359 105.202 20.288C105.508 20.16 105.754 20.088 105.918 20.022L106.106 19.958C106.118 19.9511 106.13 19.9451 106.142 19.94Z" fill="white"/>
<path d="M112.162 18.772C111.956 18.8147 111.748 18.8421 111.538 18.854C111.15 18.894 110.618 18.952 110.03 19.028C109.442 19.104 108.912 19.184 108.528 19.244C108.322 19.2863 108.114 19.313 107.904 19.324C108.103 19.2547 108.308 19.2038 108.516 19.172C108.898 19.094 109.428 19.002 110.016 18.926C110.604 18.85 111.142 18.802 111.532 18.78C111.741 18.7576 111.952 18.7549 112.162 18.772Z" fill="white"/>
<g opacity="0.4">
<path d="M98.7 50.422C98.7 50.422 108.086 65.234 122.646 57.648C137.846 49.728 129.446 31.574 129.446 31.574C129.446 31.574 136.598 46.042 121.782 55.474C118.092 57.824 114.074 57.826 111.01 57.518C103.18 56.734 98.7 50.422 98.7 50.422Z" fill="black"/>
</g>
<path d="M118.224 29.908C118.314 32.5644 118.234 35.2238 117.984 37.87C117.892 38.828 117.784 39.796 117.414 40.686C117.044 41.576 116.414 42.392 115.526 42.768C114.638 43.144 113.502 42.988 112.884 42.252L118.224 29.908Z" fill="#E0E0E0"/>
<path d="M112.782 38.106L119.364 27.022L115.392 39.536L113.362 40.142L112.782 38.106Z" fill="#006FCF"/>
<g opacity="0.4">
<path d="M119.364 27.022L114.482 38.348L115.392 39.536L119.364 27.022Z" fill="black"/>
</g>
<path d="M113.362 42.26C114.532 42.26 115.48 41.3117 115.48 40.142C115.48 38.9723 114.532 38.024 113.362 38.024C112.192 38.024 111.244 38.9723 111.244 40.142C111.244 41.3117 112.192 42.26 113.362 42.26Z" fill="#FAFAFA"/>
<path d="M115.48 40.142C115.461 39.9699 115.432 39.7989 115.394 39.63C115.271 39.1738 115 38.7718 114.622 38.488C114.345 38.2793 114.019 38.1434 113.676 38.0928C113.333 38.0421 112.982 38.0783 112.656 38.198C112.469 38.2644 112.292 38.3595 112.134 38.48C111.965 38.6023 111.818 38.7509 111.696 38.92C111.436 39.2744 111.296 39.7025 111.296 40.142C111.296 40.5815 111.436 41.0096 111.696 41.364C111.939 41.6935 112.273 41.9451 112.656 42.088C112.93 42.1884 113.221 42.2304 113.512 42.2115C113.803 42.1926 114.087 42.113 114.345 41.978C114.604 41.843 114.831 41.6555 115.013 41.4275C115.194 41.1995 115.326 40.936 115.4 40.654C115.439 40.4852 115.467 40.3142 115.486 40.142C115.498 40.3174 115.483 40.4935 115.44 40.664C115.331 41.1409 115.059 41.565 114.672 41.864C114.407 42.0701 114.096 42.2106 113.766 42.274C113.386 42.3466 112.994 42.3162 112.63 42.186C112.432 42.1177 112.247 42.0185 112.08 41.892C111.903 41.7642 111.748 41.6089 111.62 41.432C111.345 41.0613 111.196 40.6118 111.196 40.15C111.196 39.6882 111.345 39.2387 111.62 38.868C111.748 38.6916 111.904 38.5364 112.08 38.408C112.248 38.2833 112.433 38.1848 112.63 38.116C112.994 37.9849 113.386 37.9544 113.766 38.028C114.169 38.1055 114.542 38.2977 114.839 38.5815C115.136 38.8653 115.344 39.2286 115.44 39.628C115.48 39.7962 115.494 39.9696 115.48 40.142Z" fill="#263238"/>
<path d="M114.914 40.4595C115.086 39.6064 114.534 38.775 113.681 38.6025C112.828 38.43 111.997 38.9818 111.824 39.8349C111.652 40.688 112.204 41.5195 113.057 41.692C113.91 41.8644 114.741 41.3127 114.914 40.4595Z" fill="#455A64"/>
<path d="M96.6641 90.978H107.084L102.226 49.11L96.6641 90.978Z" fill="#E0E0E0"/>
<path d="M45.3922 49.11L38.6082 91.472L96.4982 92.226L102.226 49.11H45.3922Z" fill="#FAFAFA"/>
<path d="M99.6482 68.516H42.2842L43.5322 60.716H100.684L99.6482 68.516Z" fill="#EBEBEB"/>
<path d="M99.6521 68.522H42.2781L43.5281 60.722H100.69L99.6521 68.522ZM42.2901 68.512H99.6441L100.678 60.712H43.5381L42.2901 68.512Z" fill="#263238"/>
<path d="M45.392 49.11L43.532 60.716H100.684L102.226 49.11H45.392Z" fill="#006FCF"/>
<path d="M45.4001 49.11L102.234 49.062H102.288V49.116C100.614 61.738 98.7141 76.052 96.7061 91.17V91.216H96.0101L38.6561 91.2H38.6001V91.15L45.4001 49.11C45.3441 49.458 42.7601 65.7 38.7061 91.17L38.6641 91.12H95.9961H96.6461L96.5961 91.164C98.6061 76.046 100.51 61.734 102.196 49.112L102.242 49.164L45.4001 49.11Z" fill="#263238"/>
<path d="M100.684 60.716C100.684 60.744 87.884 60.768 72.11 60.768C56.336 60.768 43.532 60.744 43.532 60.716C43.532 60.688 56.332 60.664 72.11 60.664C87.888 60.664 100.684 60.686 100.684 60.716Z" fill="#263238"/>
<path d="M99.6481 68.516C99.6481 68.546 86.7801 68.568 70.9121 68.568C55.0441 68.568 42.1741 68.546 42.1741 68.516C42.1741 68.486 55.0381 68.464 70.9121 68.464C86.7861 68.464 99.6481 68.488 99.6481 68.516Z" fill="#263238"/>
<path d="M98.48 75.694C98.48 75.724 85.614 75.746 69.746 75.746C53.878 75.746 41 75.724 41 75.694C41 75.664 53.864 75.642 69.738 75.642C85.612 75.642 98.48 75.666 98.48 75.694Z" fill="#263238"/>
<path d="M97.3141 82.872C97.3141 82.9 84.4461 82.924 68.5781 82.924C52.7101 82.924 39.8401 82.9 39.8401 82.872C39.8401 82.844 52.7041 82.82 68.5781 82.82C84.4521 82.82 97.3141 82.844 97.3141 82.872Z" fill="#263238"/>
<path d="M46.7342 91.228C46.7062 91.228 47.7562 84.388 49.0822 75.964C50.4082 67.54 51.5022 60.71 51.5302 60.716C51.5582 60.722 50.5082 67.552 49.1842 75.98C47.8602 84.408 46.7642 91.232 46.7342 91.228Z" fill="#263238"/>
<path d="M55.5802 91.228C55.5502 91.228 56.6022 84.388 57.9262 75.964C59.2502 67.54 60.3462 60.71 60.3762 60.716C60.4062 60.722 59.3542 67.552 58.0282 75.98C56.7022 84.408 55.6002 91.232 55.5802 91.228Z" fill="#263238"/>
<path d="M63.8001 90.922C63.7721 90.922 64.8121 84.152 66.1221 75.812C67.4321 67.472 68.5221 60.71 68.5481 60.716C68.5741 60.722 67.5361 67.484 66.2261 75.828C64.9161 84.172 63.8261 90.926 63.8001 90.922Z" fill="#263238"/>
<path d="M71.93 91.164C71.902 91.164 72.95 84.338 74.272 75.932C75.594 67.526 76.688 60.71 76.716 60.716C76.744 60.722 75.696 67.538 74.374 75.948C73.052 84.358 71.958 91.168 71.93 91.164Z" fill="#263238"/>
<path d="M80.1002 91.164C80.0722 91.164 81.1202 84.338 82.4422 75.932C83.7642 67.526 84.8582 60.71 84.8862 60.716C84.9142 60.722 83.8682 67.538 82.5462 75.948C81.2242 84.358 80.1302 91.168 80.1002 91.164Z" fill="#263238"/>
<path d="M88.2642 91.2C88.2362 91.2 89.2862 84.366 90.6102 75.946C91.9342 67.526 93.0282 60.702 93.0582 60.708C93.0882 60.714 92.0362 67.54 90.7122 75.962C89.3882 84.384 88.2922 91.212 88.2642 91.2Z" fill="#263238"/>
<g opacity="0.2">
<path d="M83.1241 61.26C84.1081 60.824 84.7241 59.8 84.9781 58.754C85.2321 57.708 85.1921 56.616 85.2301 55.538C85.2681 54.46 85.3961 53.35 85.9461 52.424C86.2721 51.878 86.7301 51.424 87.0921 50.898C87.4541 50.372 87.7221 49.732 87.5881 49.098L81.4321 49.13L83.1241 61.26Z" fill="black"/>
</g>
<path d="M57.6 69.094C57.5836 69.1208 57.5633 69.145 57.54 69.166L57.356 69.366C57.194 69.532 56.956 69.766 56.656 70.058C56.056 70.634 55.222 71.418 54.272 72.258C53.322 73.098 52.442 73.83 51.796 74.35C51.472 74.61 51.208 74.818 51.024 74.95L50.81 75.11C50.7862 75.1308 50.7591 75.1477 50.73 75.16C50.73 75.16 50.752 75.134 50.796 75.094L50.996 74.918L51.746 74.284C52.382 73.75 53.254 73.008 54.202 72.172C55.15 71.336 56.002 70.56 56.602 69.998L57.324 69.332L57.524 69.154C57.5467 69.1309 57.5722 69.1107 57.6 69.094Z" fill="#263238"/>
<path d="M57.1382 75.24C57.0532 75.1658 56.9737 75.0856 56.9002 75L56.2742 74.332C55.7342 73.758 55.0102 72.986 54.2122 72.132L52.1282 69.952L51.4962 69.29C51.4164 69.2113 51.3422 69.1271 51.2742 69.038C51.3648 69.1049 51.4491 69.1799 51.5262 69.262C51.6822 69.41 51.9062 69.628 52.1802 69.9C52.7282 70.444 53.4762 71.206 54.2862 72.062C55.0962 72.918 55.8162 73.706 56.3282 74.284C56.5842 74.572 56.7902 74.808 56.9282 74.972C57.0063 75.0547 57.0766 75.1444 57.1382 75.24Z" fill="#263238"/>
<path d="M59.2741 70.932C59.2741 70.932 59.2941 70.88 59.3361 70.778C59.4024 70.63 59.4828 70.4887 59.5761 70.356C59.9439 69.8421 60.4625 69.4556 61.0601 69.25C61.4881 69.0952 61.9446 69.0352 62.3981 69.074C62.938 69.1265 63.4584 69.3038 63.9181 69.592C64.4487 69.919 64.897 70.3638 65.2281 70.892C65.611 71.4816 65.8018 72.1755 65.7741 72.878C65.7511 73.257 65.6335 73.6242 65.4321 73.946C65.221 74.2798 64.9398 74.5637 64.6081 74.778C63.9016 75.231 63.0699 75.4487 62.2321 75.4C61.7933 75.3765 61.3611 75.2826 60.9521 75.122C60.5265 74.9558 60.1437 74.6961 59.8321 74.362C59.6772 74.1863 59.5467 73.9905 59.4441 73.78C59.3463 73.5651 59.279 73.3375 59.2441 73.104C59.1777 72.6255 59.2193 72.1382 59.3661 71.678C59.6719 70.7182 60.3349 69.9126 61.2181 69.428C61.6759 69.1765 62.1853 69.0333 62.707 69.0094C63.2288 68.9855 63.7492 69.0815 64.2281 69.29C64.7243 69.4991 65.1587 69.8316 65.4901 70.256C65.8219 70.6919 66.0293 71.2096 66.0901 71.754C66.1593 72.3062 66.0698 72.8668 65.8321 73.37C65.7099 73.6226 65.5494 73.8547 65.3561 74.058C65.1594 74.2584 64.9375 74.4326 64.6961 74.576C64.209 74.8442 63.6719 75.0093 63.1183 75.0609C62.5647 75.1125 62.0063 75.0496 61.4781 74.876C60.9579 74.7163 60.4797 74.443 60.0781 74.076C59.6797 73.7087 59.4075 73.2251 59.3001 72.694C59.1874 72.1719 59.2617 71.6268 59.5101 71.154C59.636 70.921 59.809 70.7166 60.0181 70.554C60.2239 70.3987 60.4535 70.2778 60.6981 70.196C61.1784 70.042 61.6821 69.9743 62.1861 69.996C62.6767 69.9995 63.1648 70.0668 63.6381 70.196C64.106 70.3191 64.5383 70.5507 64.9001 70.872C65.2466 71.1954 65.483 71.6192 65.5761 72.084C65.6679 72.5331 65.641 72.9984 65.4981 73.434C65.3565 73.854 65.1173 74.2345 64.8001 74.544C64.1976 75.1331 63.3998 75.4804 62.5581 75.52C62.1641 75.5408 61.7699 75.4837 61.3981 75.352C61.0411 75.2239 60.7201 75.012 60.4621 74.734C60.2179 74.4687 60.0331 74.1544 59.9201 73.812C59.8087 73.4909 59.7591 73.1516 59.7741 72.812C59.8026 72.1832 60.0535 71.585 60.4821 71.124C60.8485 70.7231 61.3121 70.4234 61.8281 70.254C62.2612 70.1128 62.7201 70.0691 63.1721 70.126C63.7967 70.2036 64.3902 70.4428 64.8941 70.82C65.0249 70.9162 65.1486 71.0218 65.2641 71.136C65.3421 71.214 65.3801 71.256 65.3801 71.256C65.3801 71.256 65.3361 71.218 65.2581 71.144C65.1392 71.0336 65.0137 70.9308 64.8821 70.836C64.3773 70.47 63.7872 70.2394 63.1681 70.166C62.6798 70.1095 62.1852 70.1708 61.7255 70.3448C61.2658 70.5188 60.8545 70.8004 60.5261 71.166C60.1086 71.617 59.8654 72.202 59.8401 72.816C59.8265 73.1489 59.876 73.4815 59.9861 73.796C60.0976 74.1281 60.2782 74.4328 60.5161 74.69C60.7667 74.9593 61.078 75.165 61.4241 75.29C61.7868 75.4161 62.1706 75.4704 62.5541 75.45C63.3755 75.4095 64.1535 75.0686 64.7401 74.492C65.0465 74.1923 65.2775 73.8243 65.4141 73.418C65.5509 72.997 65.5758 72.5475 65.4861 72.114C65.396 71.6677 65.1688 71.2608 64.8361 70.95C64.4842 70.6407 64.0651 70.4174 63.6121 70.298C63.1466 70.1705 62.6667 70.1033 62.1841 70.098C61.6921 70.0794 61.2007 70.1471 60.7321 70.298C60.254 70.4443 59.8494 70.7667 59.6001 71.2C59.3633 71.6522 59.2925 72.173 59.4001 72.672C59.5037 73.1821 59.7663 73.6463 60.1501 73.998C60.5392 74.3576 61.0039 74.6255 61.5101 74.782C62.0242 74.9512 62.5676 75.0125 63.1065 74.9623C63.6454 74.9121 64.1681 74.7513 64.6421 74.49C64.8761 74.3526 65.0907 74.1844 65.2801 73.99C65.4658 73.7949 65.6202 73.5722 65.7381 73.33C65.9682 72.8444 66.055 72.3032 65.9881 71.77C65.9309 71.2444 65.7325 70.744 65.4141 70.322C65.0936 69.9118 64.6737 69.5903 64.1941 69.388C63.7294 69.185 63.2243 69.0913 62.7177 69.1142C62.2111 69.1371 61.7166 69.2759 61.2721 69.52C60.4138 69.9926 59.7695 70.7764 59.4721 71.71C59.3295 72.1566 59.2878 72.6293 59.3501 73.094C59.386 73.3196 59.4534 73.539 59.5501 73.746C59.6491 73.9481 59.7741 74.1364 59.9221 74.306C60.2237 74.6294 60.5942 74.881 61.0061 75.042C61.406 75.2001 61.8287 75.2933 62.2581 75.318C63.0779 75.3681 63.8926 75.1581 64.5861 74.718C64.9066 74.5218 65.1765 74.2531 65.3742 73.9335C65.5718 73.6139 65.6917 73.2524 65.7241 72.878C65.752 72.1909 65.5669 71.5119 65.1941 70.934C64.8704 70.4125 64.4311 69.9725 63.9101 69.648C63.4587 69.3623 62.9474 69.185 62.4161 69.13C61.9694 69.0876 61.5188 69.1436 61.0961 69.294C60.5039 69.4942 59.9873 69.8711 59.6161 70.374C59.5203 70.5044 59.4373 70.6437 59.3681 70.79C59.3001 70.882 59.2741 70.932 59.2741 70.932Z" fill="#006FCF"/>
<path d="M64.6922 76.454C64.7102 76.476 63.1242 77.832 61.1482 79.484C59.1722 81.136 57.5482 82.454 57.5362 82.432C57.5242 82.41 59.1042 81.054 61.0802 79.404C63.0562 77.754 64.6742 76.432 64.6922 76.454Z" fill="#263238"/>
<path d="M65.038 82.254C64.9439 82.1987 64.8549 82.1351 64.772 82.064L64.068 81.516C63.478 81.048 62.668 80.396 61.776 79.672C60.884 78.948 60.082 78.288 59.504 77.806L58.822 77.23C58.7356 77.164 58.6553 77.0904 58.582 77.01C58.6757 77.066 58.7647 77.1295 58.848 77.2L59.55 77.748C60.14 78.216 60.95 78.868 61.842 79.592C62.734 80.316 63.536 80.976 64.116 81.458L64.796 82.032C64.8819 82.1001 64.9628 82.1743 65.038 82.254Z" fill="#263238"/>
<path d="M81.3881 76.532C81.4041 76.554 79.8881 77.716 77.9981 79.132C76.1081 80.548 74.5641 81.666 74.5461 81.642C74.5281 81.618 76.0461 80.458 77.9361 79.042C79.8261 77.626 81.3701 76.508 81.3881 76.532Z" fill="#263238"/>
<path d="M81.9761 81.452C81.9621 81.476 80.3501 80.478 78.3761 79.22C76.4021 77.962 74.8201 76.926 74.8341 76.9C74.8481 76.874 76.4601 77.876 78.4341 79.132C80.4081 80.388 82.0001 81.428 81.9761 81.452Z" fill="#263238"/>
<path d="M64.9521 91.166C64.9301 91.146 66.5061 89.494 68.4701 87.48C70.4341 85.466 72.0441 83.844 72.0701 83.864C72.0961 83.884 70.5161 85.536 68.5521 87.552C66.5881 89.568 64.9721 91.186 64.9521 91.166Z" fill="#006FCF"/>
<path d="M71.614 91.164C71.614 91.164 71.588 91.142 71.548 91.094L71.38 90.894C71.224 90.694 71.016 90.436 70.762 90.12C70.24 89.468 69.5 88.582 68.642 87.64C67.784 86.698 66.97 85.88 66.37 85.3L65.658 84.6L65.458 84.412C65.4349 84.391 65.4141 84.3675 65.396 84.342C65.396 84.342 65.426 84.358 65.472 84.396L65.672 84.57C65.85 84.722 66.102 84.948 66.41 85.232C67.022 85.8 67.846 86.612 68.708 87.556C69.57 88.5 70.308 89.396 70.808 90.06C71.064 90.392 71.266 90.66 71.408 90.86L71.562 91.08C71.5827 91.1058 71.6002 91.134 71.614 91.164Z" fill="#006FCF"/>
<path d="M55.2421 82.752C55.2421 82.752 55.3061 87.666 54.0661 90.608L46.5081 89.32C46.5081 89.32 48.7841 84.664 48.1641 82.076L55.2421 82.752Z" fill="#EBEBEB"/>
<path d="M55.2402 82.568C55.2402 82.568 54.2922 88.6 53.7122 90.4L46.2002 88.908C46.2002 88.908 47.7462 83.076 47.7262 81.452L55.2402 82.568Z" fill="#006FCF"/>
<path d="M48.488 84.156C48.488 84.184 49.604 84.444 50.994 84.736C52.384 85.028 53.514 85.242 53.52 85.216C53.526 85.19 52.404 84.928 51.014 84.636C49.624 84.344 48.494 84.128 48.488 84.156Z" fill="white"/>
<path d="M48.2961 85.434C48.2961 85.462 49.4121 85.72 50.8021 86.014C52.1921 86.308 53.3221 86.52 53.3281 86.494C53.3341 86.468 52.2121 86.206 50.8221 85.914C49.4321 85.622 48.3021 85.4 48.2961 85.434Z" fill="white"/>
<path d="M49.4001 86.88C49.5283 86.9357 49.6625 86.976 49.8001 87C50.0581 87.062 50.4161 87.144 50.8101 87.228C51.2041 87.312 51.5661 87.38 51.8281 87.428C51.9681 87.4631 52.1119 87.4806 52.2561 87.48C52.1231 87.424 51.9843 87.3831 51.8421 87.358C51.5861 87.294 51.2281 87.212 50.8321 87.13C50.4361 87.048 50.0761 86.976 49.8161 86.93C49.68 86.8966 49.5403 86.8798 49.4001 86.88Z" fill="white"/>
<path d="M91.0001 68.954C91.0001 68.954 91.7741 73.742 90.9901 76.796L83.4221 76.634C83.4221 76.634 84.9701 71.758 83.9881 69.32L91.0001 68.954Z" fill="#EBEBEB"/>
<path d="M90.9661 68.774C90.9661 68.774 90.9162 74.796 90.6102 76.634L83.0562 76.276C83.0562 76.276 83.7182 70.356 83.4562 68.774H90.9661Z" fill="#455A64"/>
<path d="M84.5281 71.454C84.5281 71.482 85.6641 71.506 87.0661 71.508C88.4681 71.51 89.6061 71.49 89.6061 71.462C89.6061 71.434 88.4701 71.41 87.0661 71.408C85.6621 71.406 84.5281 71.426 84.5281 71.454Z" fill="white"/>
<path d="M84.6001 72.728C84.6001 72.756 85.7361 72.78 87.1381 72.782C88.5401 72.784 89.6781 72.764 89.6781 72.736C89.6781 72.708 88.5421 72.684 87.1381 72.682C85.7341 72.68 84.6001 72.7 84.6001 72.728Z" fill="white"/>
<path d="M85.9541 73.902C86.0934 73.9319 86.2358 73.9446 86.3781 73.94C86.6401 73.94 87.0021 73.954 87.4021 73.956C87.8021 73.958 88.1621 73.956 88.4241 73.942C88.5663 73.9477 88.7086 73.9363 88.8481 73.908C88.7088 73.8783 88.5664 73.8662 88.4241 73.872C88.1621 73.862 87.8021 73.856 87.4021 73.854C87.0021 73.852 86.6401 73.854 86.3781 73.868C86.2359 73.8623 86.0936 73.8737 85.9541 73.902Z" fill="white"/>
<path d="M92.6001 55.148C91.1881 55.148 89.7661 54.262 89.0181 52.868C88.2909 51.4799 88.0656 49.8832 88.3801 48.348C88.7941 46.348 90.1181 44.708 91.7541 44.184C93.1441 43.738 95.6281 43.984 96.8001 45.946C97.3584 46.9054 97.6356 48.0025 97.6001 49.112C97.5948 49.1908 97.5741 49.2678 97.5391 49.3386C97.5041 49.4094 97.4555 49.4725 97.396 49.5245C97.3366 49.5766 97.2675 49.6163 97.1927 49.6416C97.1179 49.6669 97.0389 49.6773 96.9601 49.672C96.8009 49.6614 96.6525 49.588 96.5475 49.468C96.4425 49.348 96.3895 49.1911 96.4001 49.032C96.4109 48.1658 96.1884 47.3126 95.7561 46.562C94.8521 45.052 92.8701 45.082 92.1061 45.326C90.7061 45.774 89.8101 47.288 89.5401 48.59C89.2808 49.8505 89.4652 51.1619 90.0621 52.302C90.6521 53.402 91.8461 54.086 92.9041 53.924C93.0602 53.9023 93.2187 53.9429 93.3452 54.037C93.4716 54.1312 93.5559 54.2714 93.5799 54.4273C93.6038 54.5831 93.5654 54.7421 93.473 54.8699C93.3806 54.9977 93.2416 55.0839 93.0861 55.11C92.9253 55.1349 92.7628 55.1476 92.6001 55.148Z" fill="#263238"/>
<path d="M53.8642 55.148C52.4502 55.148 51.0302 54.262 50.2822 52.868C49.5544 51.4801 49.3283 49.8834 49.6422 48.348C49.9922 46.66 51.1762 44.716 53.0422 44.18C53.9419 43.9363 54.8957 43.9846 55.7662 44.318L55.3342 45.438C54.7077 45.2 54.0227 45.1629 53.3742 45.332C51.9982 45.732 51.1022 47.256 50.8262 48.59C50.567 49.8505 50.7514 51.1619 51.3482 52.302C51.9382 53.404 53.1342 54.086 54.1902 53.924L54.3722 55.11C54.2041 55.136 54.0343 55.1487 53.8642 55.148Z" fill="#263238"/>
<path d="M92.1062 49.142L91.5542 52.164H99.6762L100.398 49.172L92.1062 49.142Z" fill="#006FCF"/>
<path d="M55.9221 54.67C55.9225 54.9257 55.847 55.1758 55.7052 55.3886C55.5634 55.6013 55.3616 55.7672 55.1255 55.8653C54.8893 55.9633 54.6294 55.9891 54.3786 55.9393C54.1278 55.8895 53.8974 55.7664 53.7166 55.5856C53.5357 55.4048 53.4127 55.1744 53.3629 54.9236C53.3131 54.6728 53.3388 54.4128 53.4369 54.1767C53.5349 53.9405 53.7008 53.7387 53.9136 53.5969C54.1264 53.4551 54.3764 53.3796 54.6321 53.38C54.9741 53.3805 55.3019 53.5166 55.5437 53.7584C55.7855 54.0002 55.9216 54.328 55.9221 54.67Z" fill="#263238"/>
<path d="M94.624 54.67C94.6244 54.9257 94.5489 55.1758 94.4071 55.3886C94.2653 55.6013 94.0636 55.7672 93.8274 55.8653C93.5912 55.9633 93.3313 55.9891 93.0805 55.9393C92.8297 55.8895 92.5993 55.7664 92.4185 55.5856C92.2376 55.4048 92.1146 55.1744 92.0648 54.9236C92.015 54.6728 92.0407 54.4128 92.1388 54.1767C92.2368 53.9405 92.4027 53.7387 92.6155 53.5969C92.8283 53.4551 93.0783 53.3796 93.334 53.38C93.676 53.3805 94.0038 53.5166 94.2456 53.7584C94.4874 54.0002 94.6235 54.328 94.624 54.67Z" fill="#263238"/>
<path d="M33.9099 80.254H20.8499V82.048H33.9099V80.254Z" fill="#263238"/>
<path d="M33.9319 82.072H20.8279V80.232H33.9319V82.072ZM20.8719 82.026H33.8879V80.276H20.8719V82.026Z" fill="#263238"/>
<path d="M22.062 81.452L23.94 90.726H30.896L32.714 82.05L22.062 81.452Z" fill="#263238"/>
<path d="M22.062 89.848L23.064 91.228H31.518L32.714 89.848H22.062Z" fill="#455A64"/>
<path d="M26.8899 81.722C26.8639 81.722 26.8319 77.426 26.8159 72.122C26.7999 66.818 26.8159 62.522 26.8359 62.522C26.8559 62.522 26.8939 66.818 26.9099 72.122C26.9259 77.426 26.9159 81.722 26.8899 81.722Z" fill="#263238"/>
<path d="M29.8 70.97C29.7913 71.0044 29.7792 71.0379 29.764 71.07C29.734 71.144 29.694 71.236 29.648 71.348C29.622 71.41 29.594 71.476 29.562 71.548C29.53 71.62 29.506 71.706 29.476 71.792L29.374 72.072C29.34 72.172 29.312 72.272 29.278 72.392C29.1228 72.9172 29.0006 73.4516 28.912 73.992C28.8116 74.6549 28.7449 75.3224 28.712 75.992C28.6648 77.2103 28.6995 78.4304 28.816 79.644C28.858 80.112 28.9 80.488 28.932 80.748C28.944 80.87 28.956 80.97 28.964 81.048C28.9667 81.0833 28.9667 81.1187 28.964 81.154C28.9514 81.1206 28.9433 81.0856 28.94 81.05C28.926 80.972 28.91 80.874 28.89 80.754C28.848 80.494 28.794 80.118 28.744 79.652C28.608 78.4357 28.5645 77.2109 28.614 75.988C28.6437 75.3148 28.7104 74.6438 28.814 73.978C28.9065 73.4364 29.0361 72.9018 29.202 72.378C29.238 72.266 29.268 72.158 29.304 72.06L29.412 71.78L29.508 71.538C29.54 71.464 29.572 71.4 29.6 71.338L29.734 71.066C29.7508 71.0307 29.773 70.9983 29.8 70.97Z" fill="#263238"/>
<path d="M29.466 67.496C29.4549 67.5442 29.4409 67.5916 29.424 67.638C29.39 67.736 29.344 67.87 29.288 68.038L29.188 68.326C29.156 68.434 29.12 68.55 29.082 68.674C29.006 68.922 28.918 69.204 28.84 69.522L28.708 70.02C28.668 70.194 28.628 70.376 28.586 70.562C28.494 70.936 28.428 71.342 28.344 71.762C28.2 72.614 28.074 73.562 27.986 74.552C27.898 75.542 27.868 76.5 27.856 77.366C27.844 78.232 27.856 79.012 27.9 79.666C27.91 79.994 27.932 80.288 27.948 80.548C27.964 80.808 27.98 81.032 27.996 81.214C28.012 81.396 28.02 81.53 28.028 81.636C28.0307 81.6846 28.0307 81.7334 28.028 81.782C28.0151 81.7349 28.0071 81.6867 28.004 81.638C27.992 81.532 27.976 81.394 27.954 81.218C27.932 81.042 27.91 80.818 27.89 80.552C27.87 80.286 27.844 79.998 27.828 79.67C27.784 79.014 27.766 78.234 27.764 77.366C27.762 76.498 27.804 75.544 27.888 74.546C27.972 73.548 28.106 72.602 28.254 71.746C28.34 71.32 28.41 70.914 28.504 70.546C28.548 70.358 28.592 70.176 28.632 70.002L28.77 69.506C28.852 69.188 28.946 68.906 29.028 68.658C29.068 68.534 29.106 68.42 29.14 68.312C29.174 68.204 29.214 68.112 29.248 68.026L29.4 67.626C29.417 67.5803 29.4392 67.5367 29.466 67.496Z" fill="#263238"/>
<path d="M26.0639 82.482C26.0618 82.4654 26.0618 82.4486 26.0639 82.432C26.0639 82.394 26.0639 82.346 26.0519 82.284C26.0419 82.148 26.0299 81.958 26.0139 81.716C25.9819 81.214 25.9379 80.502 25.8819 79.622C25.7699 77.856 25.6059 75.422 25.3079 72.732C25.1559 71.388 24.9799 70.114 24.7959 68.958C24.6999 68.382 24.6119 67.834 24.5099 67.322C24.4079 66.81 24.3099 66.336 24.2299 65.902C24.1499 65.468 24.0479 65.08 23.9699 64.738C23.8919 64.396 23.8219 64.1 23.7699 63.86C23.7179 63.62 23.6679 63.44 23.6339 63.306C23.6219 63.248 23.6099 63.2 23.6019 63.162C23.5988 63.1455 23.5988 63.1285 23.6019 63.112C23.6102 63.1271 23.6162 63.1432 23.6199 63.16L23.6599 63.302C23.6979 63.434 23.7479 63.618 23.8139 63.852C23.8799 64.086 23.9579 64.382 24.0399 64.726C24.1219 65.07 24.2219 65.456 24.3119 65.89C24.4019 66.324 24.5119 66.796 24.6039 67.308C24.6959 67.82 24.8039 68.368 24.8999 68.946C25.0879 70.102 25.2659 71.378 25.4179 72.72C25.7159 75.408 25.8699 77.85 25.9659 79.618C26.0139 80.504 26.0479 81.218 26.0679 81.714C26.0679 81.956 26.0839 82.146 26.0879 82.284C26.0879 82.344 26.0879 82.394 26.0879 82.432C26.0825 82.4498 26.0744 82.4666 26.0639 82.482Z" fill="#263238"/>
<path d="M26.7839 64.6C26.7259 64 26.1119 63.532 25.4999 63.526C25.1937 63.5395 24.8947 63.6225 24.6255 63.7687C24.3562 63.9149 24.1238 64.1206 23.9459 64.37C23.5938 64.8721 23.3394 65.4359 23.1959 66.032C22.7839 67.466 22.5599 68.972 22.7359 70.454C22.9119 71.936 23.5119 73.394 24.5759 74.44C24.7479 74.612 24.9759 74.782 25.2099 74.73C25.3365 74.693 25.4515 74.6242 25.5439 74.53C26.5853 73.5765 27.4106 72.4113 27.9646 71.1126C28.5186 69.8138 28.7884 68.4116 28.7559 67C28.7399 66.438 28.6659 65.85 28.3559 65.382C28.0459 64.914 27.3159 64.414 26.7859 64.602" fill="#006FCF"/>
<path d="M22.2179 59.72L21.3579 61.28C21.3379 61.316 21.3119 61.358 21.2699 61.36C21.2279 61.362 21.1899 61.322 21.1659 61.284L18.8899 57.8L19.4139 57.502L22.2179 59.72Z" fill="#006FCF"/>
<g opacity="0.2">
<path d="M22.2179 59.72L21.3579 61.28C21.3379 61.316 21.3119 61.358 21.2699 61.36C21.2279 61.362 21.1899 61.322 21.1659 61.284L18.8899 57.8L19.4139 57.502L22.2179 59.72Z" fill="black"/>
</g>
<path d="M26.8358 62.53L19.0718 57.948C19.0276 57.931 18.9872 57.9055 18.9529 57.8729C18.9186 57.8403 18.891 57.8013 18.8718 57.758C18.8418 57.644 18.9278 57.532 19.0098 57.446C19.5441 56.8924 20.1912 56.4603 20.9073 56.179C21.6234 55.8978 22.3916 55.7739 23.1598 55.816C23.9277 55.8712 24.6706 56.1126 25.3243 56.5193C25.978 56.9259 26.5229 57.4856 26.9118 58.15C27.6598 59.488 27.6858 61.26 26.8258 62.53" fill="#006FCF"/>
<path d="M20.2 56.486C20.2331 56.4768 20.2675 56.4728 20.302 56.474C20.368 56.474 20.468 56.458 20.596 56.46C20.9564 56.4552 21.3166 56.4833 21.672 56.544C22.2014 56.6348 22.7174 56.7913 23.208 57.01C24.0547 57.391 24.8067 57.9545 25.41 58.6602C26.0134 59.3659 26.4532 60.1964 26.698 61.092C26.7981 61.4395 26.8651 61.7958 26.898 62.156C26.914 62.282 26.91 62.382 26.914 62.45C26.9174 62.4839 26.9174 62.5181 26.914 62.552C26.914 62.552 26.896 62.412 26.864 62.152C26.8197 61.7967 26.7468 61.4456 26.646 61.102C26.3204 59.962 25.6817 58.936 24.8025 58.1406C23.9233 57.3452 22.8388 56.8122 21.672 56.602C21.3203 56.5352 20.9638 56.497 20.606 56.488C20.332 56.49 20.2 56.494 20.2 56.486Z" fill="#263238"/>
<path d="M25.784 59.368C25.6588 59.4443 25.5244 59.5041 25.384 59.546C25.136 59.644 24.784 59.768 24.404 59.892C24.024 60.016 23.664 60.112 23.404 60.176C23.266 60.2182 23.1238 60.245 22.98 60.256C23.1079 60.1942 23.242 60.1459 23.38 60.112L24.368 59.802L25.354 59.484C25.4931 59.4312 25.6372 59.3923 25.784 59.368Z" fill="#263238"/>
<path d="M24.5618 56.084C24.6313 56.3672 24.6623 56.6585 24.6538 56.95C24.6767 57.2409 24.6605 57.5334 24.6058 57.82C24.5683 57.5323 24.5536 57.2421 24.5618 56.952C24.539 56.6631 24.539 56.3729 24.5618 56.084Z" fill="#263238"/>
<path d="M19 57.862C19.1816 57.7786 19.3704 57.7117 19.564 57.662C19.916 57.552 20.408 57.414 20.964 57.282C21.52 57.15 22.012 57.05 22.364 56.986C22.5613 56.9419 22.7621 56.9152 22.964 56.906C22.7741 56.967 22.5804 57.0151 22.384 57.05C22.024 57.13 21.528 57.25 20.984 57.374C20.44 57.498 19.946 57.632 19.584 57.724C19.3926 57.7829 19.1975 57.829 19 57.862Z" fill="#263238"/>
<path d="M23.2559 63.156C22.5879 62.65 21.8819 62.556 21.0439 62.582C20.2058 62.6354 19.385 62.845 18.6239 63.2C17.3139 63.772 16.0839 64.618 15.3019 65.814C14.5199 67.01 14.2459 68.594 14.8319 69.898C14.878 70.0344 14.9727 70.149 15.0979 70.22C15.2434 70.2605 15.3985 70.2485 15.5359 70.186C17.0259 69.7 18.5239 69.21 19.8939 68.45C21.2639 67.69 22.5099 66.632 23.2439 65.25C23.4319 64.9275 23.553 64.5704 23.5999 64.2C23.62 64.0126 23.5998 63.8231 23.5409 63.6441C23.4819 63.4651 23.3854 63.3008 23.2579 63.162" fill="#006FCF"/>
<path d="M23.268 63C23.2346 63.019 23.199 63.0338 23.162 63.044L22.85 63.152L22.624 63.226C22.542 63.256 22.454 63.292 22.36 63.33C22.172 63.406 21.96 63.482 21.722 63.594L21.358 63.76C21.23 63.818 21.104 63.89 20.97 63.96C20.7 64.092 20.428 64.262 20.136 64.434C18.8888 65.2072 17.779 66.1825 16.852 67.32C16.652 67.586 16.442 67.836 16.276 68.088C16.19 68.212 16.104 68.328 16.028 68.446L15.828 68.786C15.688 69 15.584 69.208 15.484 69.386C15.436 69.474 15.388 69.556 15.348 69.634C15.308 69.712 15.276 69.782 15.246 69.848L15.098 70.144C15.0841 70.1798 15.0652 70.2134 15.042 70.244C15.0517 70.2068 15.0651 70.1706 15.082 70.136L15.212 69.832C15.242 69.766 15.274 69.694 15.308 69.614C15.342 69.534 15.392 69.452 15.438 69.362C15.534 69.18 15.638 68.962 15.77 68.752C15.838 68.642 15.906 68.526 15.97 68.406C16.034 68.286 16.13 68.17 16.214 68.044C16.378 67.788 16.58 67.536 16.786 67.266C17.2521 66.693 17.7631 66.158 18.314 65.666C18.8711 65.1821 19.4663 64.744 20.094 64.356C20.388 64.184 20.664 64.016 20.936 63.886C21.072 63.818 21.2 63.748 21.336 63.686L21.706 63.526C21.94 63.416 22.16 63.344 22.352 63.272C22.448 63.238 22.536 63.204 22.62 63.176L22.848 63.108L23.166 63.018C23.1995 63.0095 23.2336 63.0035 23.268 63Z" fill="#263238"/>
<path d="M18.0519 65.824C17.5201 66.0266 16.9781 66.2008 16.4279 66.346C15.886 66.5222 15.3344 66.6671 14.7759 66.78C15.3076 66.5774 15.8497 66.4032 16.3999 66.258C16.9421 66.0829 17.4936 65.938 18.0519 65.824Z" fill="#263238"/>
<path d="M17.9841 69.4C17.9568 69.2328 17.9447 69.0634 17.9481 68.894C17.9481 68.582 17.9481 68.148 17.9481 67.672C17.9481 67.196 17.9881 66.762 18.0141 66.45C18.0181 66.2803 18.0396 66.1114 18.0781 65.946C18.0915 66.1151 18.0915 66.2849 18.0781 66.454C18.0661 66.796 18.0541 67.212 18.0401 67.674C18.0261 68.136 18.0181 68.552 18.0081 68.894C18.0155 69.0631 18.0075 69.2324 17.9841 69.4Z" fill="#263238"/>
<path d="M21.0559 67.844C21.0299 67.844 20.9479 66.966 20.8739 65.88C20.7999 64.794 20.7579 63.912 20.7839 63.912C20.8099 63.912 20.8899 64.788 20.9659 65.874C21.0419 66.96 21.0819 67.842 21.0559 67.844Z" fill="#263238"/>
<path d="M17.2339 63.826C17.4063 63.8042 17.5804 63.7989 17.7539 63.81C18.0739 63.81 18.5179 63.822 19.0079 63.838C19.4979 63.854 19.9399 63.874 20.2599 63.892C20.4336 63.8943 20.6069 63.911 20.7779 63.942C20.6055 63.9638 20.4313 63.9692 20.2579 63.958C19.9379 63.958 19.4939 63.948 19.0039 63.93C18.5139 63.912 18.0719 63.894 17.7499 63.876C17.5768 63.874 17.4042 63.8573 17.2339 63.826Z" fill="#263238"/>
<path d="M24.91 74.856C24.9011 74.8207 24.8971 74.7844 24.898 74.748C24.898 74.67 24.898 74.568 24.884 74.444C24.872 74.178 24.87 73.796 24.884 73.32C24.898 72.844 24.924 72.282 24.98 71.658C25.036 71.034 25.128 70.348 25.254 69.634C25.38 68.92 25.536 68.25 25.694 67.634C25.852 67.018 26.024 66.488 26.18 66.034C26.336 65.58 26.468 65.234 26.58 64.982C26.628 64.866 26.666 64.782 26.698 64.7C26.7103 64.6666 26.7257 64.6345 26.744 64.604C26.7396 64.6394 26.7295 64.6739 26.714 64.706L26.6 65C26.508 65.248 26.382 65.6 26.236 66.06C26.09 66.52 25.93 67.06 25.772 67.66C25.614 68.26 25.466 68.936 25.338 69.648C25.21 70.36 25.124 71.048 25.06 71.662C24.996 72.276 24.96 72.846 24.944 73.318C24.928 73.79 24.918 74.174 24.918 74.44C24.918 74.564 24.918 74.664 24.918 74.744C24.918 74.7815 24.9153 74.8189 24.91 74.856Z" fill="#263238"/>
<path d="M25.3178 69.558C25.227 69.6822 25.1231 69.7962 25.0078 69.898C24.8078 70.098 24.5218 70.366 24.1978 70.652C23.8738 70.938 23.5678 71.184 23.3418 71.358C23.2262 71.4585 23.1002 71.5464 22.9658 71.62C23.0676 71.5049 23.1801 71.3998 23.3018 71.306L24.1358 70.582L24.9638 69.85C25.0723 69.7416 25.1908 69.6439 25.3178 69.558Z" fill="#263238"/>
<path d="M27.776 71.536C27.6544 71.3928 27.5441 71.2403 27.446 71.08L26.68 69.96L25.896 68.852C25.7798 68.7041 25.6748 68.5477 25.582 68.384C25.7174 68.5147 25.8399 68.658 25.948 68.812C26.164 69.086 26.452 69.47 26.748 69.908C27.044 70.346 27.312 70.748 27.494 71.044C27.6032 71.1988 27.6976 71.3635 27.776 71.536Z" fill="#263238"/>
<path d="M26.4879 65.31C26.5019 65.332 25.6879 65.882 24.6659 66.538C23.6439 67.194 22.8059 67.71 22.7919 67.688C22.7779 67.666 23.5919 67.116 24.6159 66.46C25.6399 65.804 26.4759 65.29 26.4879 65.31Z" fill="#263238"/>
<path d="M28.8 67.8C28.369 67.4411 27.9571 67.06 27.566 66.658C27.1542 66.2799 26.7636 65.8793 26.396 65.458C26.8285 65.8158 27.2411 66.1971 27.632 66.6C28.0441 66.9772 28.4341 67.3779 28.8 67.8Z" fill="#263238"/>
<path d="M29.3699 67.746L30.0699 67.688C30.5677 67.6472 31.0507 67.4992 31.4859 67.254C31.6988 67.1299 31.9193 67.019 32.1459 66.922C33.0119 66.576 33.9799 66.638 34.9119 66.59C36.4389 66.5131 37.935 66.1309 39.3119 65.466C39.3946 65.4295 39.4643 65.3689 39.5119 65.292C39.6559 65.03 39.3879 64.796 39.1579 64.654C37.9759 63.926 36.7739 63.19 35.4359 62.828C34.0979 62.466 32.5759 62.528 31.4359 63.314C30.0959 64.238 29.6059 66.134 29.3799 67.746" fill="#006FCF"/>
<path d="M39.518 65.2C39.4777 65.1835 39.4383 65.1648 39.4 65.144L39.068 64.97C38.78 64.818 38.366 64.594 37.84 64.344C37.2308 64.0431 36.5955 63.7981 35.942 63.612C35.1428 63.3822 34.3058 63.3142 33.48 63.412C32.653 63.504 31.872 63.8395 31.236 64.376C30.7392 64.8376 30.3418 65.3956 30.068 66.016C29.822 66.542 29.668 66.99 29.56 67.294L29.434 67.648C29.4216 67.69 29.4055 67.7308 29.386 67.77C29.3917 67.7265 29.4018 67.6836 29.416 67.642C29.444 67.552 29.48 67.432 29.524 67.284C29.6575 66.8471 29.8164 66.4184 30 66C30.2695 65.3651 30.6687 64.7936 31.172 64.322C31.8169 63.7665 32.6142 63.418 33.46 63.322C34.297 63.2208 35.1458 63.2888 35.956 63.522C36.6132 63.7149 37.2512 63.968 37.862 64.278C38.384 64.538 38.794 64.77 39.078 64.932L39.402 65.122C39.4438 65.143 39.4828 65.1692 39.518 65.2Z" fill="#263238"/>
<path d="M37.8359 66.11C37.8219 66.13 36.9039 65.538 35.7879 64.786C34.6719 64.034 33.7779 63.406 33.7879 63.386C33.7979 63.366 34.7179 63.958 35.8339 64.71C36.9499 65.462 37.8499 66.088 37.8359 66.11Z" fill="#263238"/>
<path d="M36.956 63.296C36.489 63.4428 35.9961 63.4885 35.51 63.43C35.7477 63.3805 35.9893 63.3524 36.232 63.346C36.4714 63.3085 36.7137 63.2917 36.956 63.296Z" fill="#263238"/>
<path d="M32.8458 62.56C32.6709 62.9739 32.4416 63.3627 32.1638 63.716C32.2354 63.503 32.3364 63.3011 32.4638 63.116C32.5641 62.9135 32.6928 62.7263 32.8458 62.56Z" fill="#263238"/>
<path d="M33.666 66.65C33.5114 66.5856 33.3639 66.5051 33.226 66.41C32.96 66.25 32.602 66.01 32.226 65.736C31.85 65.462 31.508 65.196 31.264 65.004C31.1275 64.9075 31.0002 64.7983 30.884 64.678C31.0326 64.7554 31.1733 64.8472 31.304 64.952L32.282 65.662C32.662 65.938 33.012 66.18 33.268 66.356C33.409 66.4422 33.5422 66.5406 33.666 66.65Z" fill="#263238"/>
<path d="M30.3999 70.724C29.7319 70.546 28.9339 71.196 28.7999 71.874C28.6659 72.552 28.9179 73.244 29.2139 73.874C29.8508 75.2728 30.7957 76.5097 31.9779 77.492C33.1702 78.4698 34.658 79.016 36.1999 79.042C35.9179 77.73 36.2739 76.358 36.1179 75.024C35.9785 73.849 35.4447 72.7561 34.6037 71.9238C33.7627 71.0915 32.6642 70.5691 31.4879 70.442C31.0619 70.396 30.5679 70.33 30.3979 70.724" fill="#006FCF"/>
<path d="M36.2 79.042C36.1665 79.0309 36.1343 79.0161 36.104 78.998C36.0164 78.9486 35.9328 78.8924 35.854 78.83C35.5739 78.5862 35.3489 78.2855 35.194 77.948C35.088 77.748 34.968 77.516 34.852 77.266C34.736 77.016 34.62 76.752 34.492 76.466C34.3637 76.1732 34.216 75.8892 34.05 75.616C33.8719 75.3247 33.6713 75.0479 33.45 74.788C32.994 74.252 32.502 73.788 32.076 73.342C31.6909 72.9538 31.3402 72.5329 31.028 72.084C30.8189 71.7796 30.647 71.4513 30.516 71.106C30.474 70.984 30.442 70.886 30.426 70.82C30.4149 70.787 30.4082 70.7527 30.406 70.718C30.406 70.718 30.452 70.854 30.55 71.094C30.6926 71.4301 30.871 71.75 31.082 72.048C31.4002 72.4871 31.7533 72.8998 32.138 73.282C32.566 73.722 33.06 74.186 33.522 74.728C33.7484 74.9914 33.9537 75.2723 34.136 75.568C34.3014 75.8457 34.449 76.1336 34.578 76.43L34.93 77.23C35.042 77.478 35.158 77.706 35.262 77.912C35.408 78.2465 35.6203 78.5479 35.886 78.798C36.078 78.97 36.21 79.034 36.2 79.042Z" fill="#263238"/>
<path d="M32.7458 77.952C32.7499 77.8002 32.7707 77.6493 32.8078 77.502C32.8598 77.226 32.9458 76.848 33.0618 76.436C33.1778 76.024 33.3018 75.658 33.4018 75.396C33.4456 75.2506 33.5067 75.1109 33.5839 74.98C33.5568 75.1286 33.5167 75.2745 33.4639 75.416C33.3799 75.684 33.2638 76.052 33.1518 76.462C33.0398 76.872 32.9519 77.244 32.8719 77.516C32.8443 77.6651 32.8021 77.8112 32.7458 77.952Z" fill="#263238"/>
<path d="M36.0779 74.73C35.9178 74.7065 35.7599 74.6697 35.6059 74.62C35.3179 74.546 34.9199 74.442 34.4779 74.342C34.0359 74.242 33.6319 74.166 33.3399 74.11C33.1798 74.0895 33.0218 74.0547 32.8679 74.006C33.0296 74.0019 33.1912 74.0153 33.3499 74.046C33.6459 74.084 34.0539 74.152 34.4979 74.246C34.9419 74.34 35.3399 74.46 35.6239 74.552C35.781 74.5954 35.9332 74.6551 36.0779 74.73Z" fill="#263238"/>
<path d="M30.2659 75.666C30.2734 75.4901 30.2975 75.3153 30.3379 75.144C30.3979 74.826 30.4899 74.386 30.6159 73.908C30.7419 73.43 30.8739 73 30.9779 72.692C31.0292 72.5228 31.0962 72.3588 31.1779 72.202C31.1488 72.3751 31.106 72.5457 31.0499 72.712C30.9619 73.024 30.8379 73.454 30.7139 73.93C30.5899 74.406 30.4859 74.844 30.4119 75.158C30.3778 75.3312 30.3289 75.5011 30.2659 75.666Z" fill="#263238"/>
<path d="M34.5439 71.922C34.5439 71.946 33.7059 71.88 32.6799 71.77C31.6539 71.66 30.8219 71.552 30.8259 71.528C31.4494 71.5459 32.0716 71.596 32.6899 71.678C33.3117 71.7277 33.9305 71.8092 34.5439 71.922Z" fill="#263238"/>
<path d="M33.9319 82.042C33.9319 82.068 30.9979 82.088 27.3799 82.088C23.7619 82.088 20.8279 82.068 20.8279 82.042C20.8279 82.016 23.7619 81.996 27.3799 81.996C30.9979 81.996 33.9319 82.016 33.9319 82.042Z" fill="#455A64"/>
<path d="M31.892 85.816C31.892 85.842 29.914 85.864 27.476 85.864C25.038 85.864 23.062 85.842 23.062 85.816C23.062 85.79 25.038 85.77 27.476 85.77C29.914 85.77 31.892 85.8 31.892 85.816Z" fill="#455A64"/>
<path d="M31.9679 86.356C31.9679 86.382 29.9919 86.402 27.5539 86.402C25.1159 86.402 23.1399 86.382 23.1399 86.356C23.1399 86.33 25.1159 86.31 27.5539 86.31C29.9919 86.31 31.9679 86.33 31.9679 86.356Z" fill="#455A64"/>
<path d="M31.9679 85.372C31.9679 85.398 29.9239 85.418 27.4019 85.418C24.8799 85.418 22.8359 85.398 22.8359 85.372C22.8359 85.346 24.8799 85.326 27.4019 85.326C29.9239 85.326 31.9679 85.346 31.9679 85.372Z" fill="#455A64"/>
</svg>
